<svg data-v-6805eed4="" version="1.0" xmlns="http://www.w3.org/2000/svg" xmlns:xlink="http://www.w3.org/1999/xlink" width="100%" height="100%" viewBox="0 0 340.000000 250.000000" preserveAspectRatio="xMidYMid meet" color-interpolation-filters="sRGB" style="margin: auto;"> <rect data-v-6805eed4="" x="0" y="0" width="100%" height="100%" fill="#4e4d54" fill-opacity="0" class="background"></rect> <rect data-v-6805eed4="" x="0" y="0" width="100%" height="100%" fill="url(#watermark)" fill-opacity="1" class="watermarklayer"></rect> <g data-v-6805eed4="" fill="#fbebdb" class="basesvg" transform="translate(57.78739929199219,90.94940185546875)"><g fill-rule="" class="tp-name" transform="matrix(1,0,0,1,0,0)" opacity="1"><g transform="scale(1.1600000000000001)"><g><g filter="url(#text-effect-glow-UtMVMXvn0_tmmTZ9SFzvz)" fill="#fd77e1" fill-opacity="0.94"><path d="M9.62-27.91L21.11 0 32.75 0 44.01-27.25 44.01-27.19C47.01-34.45 48.74-37.21 53.92-40.35L36.98-40.35C39.06-37.88 39.06-35.86 37.88-33.04L28.66-10.74 19.41-33.15C18.23-35.98 18.41-37.93 19.82-40.35L0-40.35C5.01-37.33 6.8-34.62 9.62-27.91ZM53.92-40.35C58.87-37.33 60.89-33.93 60.83-28.03L60.83-11.98C60.89-7.43 59.59-2.25 54.44 0L92.8 0 92.8-12.27C90.67-7.37 87.07-5.56 81.66-5.42L72.21-5.42 72.21-27.19C72.15-33.61 73.97-37.21 79.18-40.35ZM107.96-20.22C107.96-27.74 112.33-35.51 120.72-35.51 128.9-35.51 133.16-27.54 133.16-20.22 133.16-18.12 132.93-16.04 132.09-14.03 130.62-8.84 126.19-4.55 120.6-4.55 112.45-4.55 107.96-12.93 107.96-20.22ZM143.01-12.39C144.13-14.98 144.59-17.57 144.59-20.22 144.59-28.14 139.01-40.87 120.72-40.87 108.19-40.87 101.13-34.51 98.34-28.37 97.15-25.72 96.58-22.96 96.58-20.22 96.58-7.09 107.96 0.78 120.6 0.78 133.45 0.78 140.47-6.31 143.01-12.39ZM174.43 0.78C181.81 0.78 189.24-2.02 193.07-5.73L193.47-6.08 193.47-24.08 173.2-24.08 173.2-14.46C174.89-17.45 178.84-18.69 182.1-18.69L182.1-6.54C179.96-5.42 177.6-4.55 175.41-4.55 166.34-4.55 161.27-11.87 161.27-20.22 161.27-28.14 167.92-35.51 176.02-35.51 180.37-35.51 185.15-33.04 186.56-30.27L188-27.54 193.3-31.51 192.75-32.32C189.87-37.44 182.5-40.87 173.6-40.87 154.73-40.87 149.17-28.54 149.17-20.22 149.17-5.9 161.73 0.78 174.43 0.78Z" transform="translate(0, 40.869998931884766)"></path></g><g stroke="rgba(251, 125, 229, 0.98)" stroke-width="1" data-gra-ignore-stroke="true"><path d="M9.62-27.91L21.11 0 32.75 0 44.01-27.25 44.01-27.19C47.01-34.45 48.74-37.21 53.92-40.35L36.98-40.35C39.06-37.88 39.06-35.86 37.88-33.04L28.66-10.74 19.41-33.15C18.23-35.98 18.41-37.93 19.82-40.35L0-40.35C5.01-37.33 6.8-34.62 9.62-27.91ZM53.92-40.35C58.87-37.33 60.89-33.93 60.83-28.03L60.83-11.98C60.89-7.43 59.59-2.25 54.44 0L92.8 0 92.8-12.27C90.67-7.37 87.07-5.56 81.66-5.42L72.21-5.42 72.21-27.19C72.15-33.61 73.97-37.21 79.18-40.35ZM107.96-20.22C107.96-27.74 112.33-35.51 120.72-35.51 128.9-35.51 133.16-27.54 133.16-20.22 133.16-18.12 132.93-16.04 132.09-14.03 130.62-8.84 126.19-4.55 120.6-4.55 112.45-4.55 107.96-12.93 107.96-20.22ZM143.01-12.39C144.13-14.98 144.59-17.57 144.59-20.22 144.59-28.14 139.01-40.87 120.72-40.87 108.19-40.87 101.13-34.51 98.34-28.37 97.15-25.72 96.58-22.96 96.58-20.22 96.58-7.09 107.96 0.78 120.6 0.78 133.45 0.78 140.47-6.31 143.01-12.39ZM174.43 0.78C181.81 0.78 189.24-2.02 193.07-5.73L193.47-6.08 193.47-24.08 173.2-24.08 173.2-14.46C174.89-17.45 178.84-18.69 182.1-18.69L182.1-6.54C179.96-5.42 177.6-4.55 175.41-4.55 166.34-4.55 161.27-11.87 161.27-20.22 161.27-28.14 167.92-35.51 176.02-35.51 180.37-35.51 185.15-33.04 186.56-30.27L188-27.54 193.3-31.51 192.75-32.32C189.87-37.44 182.5-40.87 173.6-40.87 154.73-40.87 149.17-28.54 149.17-20.22 149.17-5.9 161.73 0.78 174.43 0.78Z" transform="translate(0, 40.869998931884766)"></path></g><g stroke="rgba(255, 45, 181, 1)" stroke-width="1" paint-order="stroke" data-gra-ignore-stroke="true"><path d="M9.62-27.91L21.11 0 32.75 0 44.01-27.25 44.01-27.19C47.01-34.45 48.74-37.21 53.92-40.35L36.98-40.35C39.06-37.88 39.06-35.86 37.88-33.04L28.66-10.74 19.41-33.15C18.23-35.98 18.41-37.93 19.82-40.35L0-40.35C5.01-37.33 6.8-34.62 9.62-27.91ZM53.92-40.35C58.87-37.33 60.89-33.93 60.83-28.03L60.83-11.98C60.89-7.43 59.59-2.25 54.44 0L92.8 0 92.8-12.27C90.67-7.37 87.07-5.56 81.66-5.42L72.21-5.42 72.21-27.19C72.15-33.61 73.97-37.21 79.18-40.35ZM107.96-20.22C107.96-27.74 112.33-35.51 120.72-35.51 128.9-35.51 133.16-27.54 133.16-20.22 133.16-18.12 132.93-16.04 132.09-14.03 130.62-8.84 126.19-4.55 120.6-4.55 112.45-4.55 107.96-12.93 107.96-20.22ZM143.01-12.39C144.13-14.98 144.59-17.57 144.59-20.22 144.59-28.14 139.01-40.87 120.72-40.87 108.19-40.87 101.13-34.51 98.34-28.37 97.15-25.72 96.58-22.96 96.58-20.22 96.58-7.09 107.96 0.78 120.6 0.78 133.45 0.78 140.47-6.31 143.01-12.39ZM174.43 0.78C181.81 0.78 189.24-2.02 193.07-5.73L193.47-6.08 193.47-24.08 173.2-24.08 173.2-14.46C174.89-17.45 178.84-18.69 182.1-18.69L182.1-6.54C179.96-5.42 177.6-4.55 175.41-4.55 166.34-4.55 161.27-11.87 161.27-20.22 161.27-28.14 167.92-35.51 176.02-35.51 180.37-35.51 185.15-33.04 186.56-30.27L188-27.54 193.3-31.51 192.75-32.32C189.87-37.44 182.5-40.87 173.6-40.87 154.73-40.87 149.17-28.54 149.17-20.22 149.17-5.9 161.73 0.78 174.43 0.78Z" transform="translate(0, 40.869998931884766)"></path></g><defs><filter id="text-effect-glow-UtMVMXvn0_tmmTZ9SFzvz" filterUnits="objectBoundingBox" width="3" height="3" x="-1" y="-1"><feGaussianBlur stdDeviation="5" result="glow"></feGaussianBlur><feMerge><feMergeNode in="glow"></feMergeNode><feMergeNode in="glow"></feMergeNode><feMergeNode in="glow"></feMergeNode></feMerge></filter></defs></g></g></g> <g data-gra="path-slogan" fill-rule="" class="tp-slogan" fill="#fbebdb" transform="matrix(1,0,0,1,5,58.31399917602539)" opacity="1"><rect x="0" height="1" y="4.396000862121582" width="50.920597076416016"></rect> <rect height="1" y="4.396000862121582" width="50.920597076416016" x="163.5046043395996"></rect> <g transform="translate(53.920597076416016,0)"><g transform="scale(1.2000000000000002)"><path d="M2.52 0L0-7.87L1.07-7.87L2.33-3.62Q2.54-2.92 2.71-2.32Q2.87-1.72 3.10-1.02L3.10-1.02L3.14-1.02Q3.36-1.72 3.53-2.32Q3.70-2.92 3.90-3.62L3.90-3.62L5.16-7.87L6.18-7.87L3.68 0L2.52 0ZM10.26 0L10.26-7.87L11.26-7.87L11.26-0.85L14.70-0.85L14.70 0L10.26 0ZM21.68 0.14L21.68 0.14Q20.94 0.14 20.32-0.14Q19.70-0.43 19.26-0.97Q18.82-1.50 18.57-2.26Q18.32-3.02 18.32-3.97L18.32-3.97Q18.32-4.92 18.57-5.67Q18.82-6.42 19.26-6.94Q19.70-7.46 20.32-7.74Q20.94-8.02 21.68-8.02L21.68-8.02Q22.43-8.02 23.05-7.73Q23.66-7.45 24.11-6.93Q24.56-6.41 24.81-5.66Q25.06-4.91 25.06-3.97L25.06-3.97Q25.06-3.02 24.81-2.26Q24.56-1.50 24.11-0.97Q23.66-0.43 23.05-0.14Q22.43 0.14 21.68 0.14ZM21.68-0.73L21.68-0.73Q22.21-0.73 22.64-0.96Q23.06-1.19 23.37-1.61Q23.68-2.04 23.84-2.63Q24.01-3.23 24.01-3.97L24.01-3.97Q24.01-4.70 23.84-5.29Q23.68-5.88 23.37-6.29Q23.06-6.70 22.64-6.92Q22.21-7.14 21.68-7.14L21.68-7.14Q21.16-7.14 20.73-6.92Q20.30-6.70 20.00-6.29Q19.69-5.88 19.52-5.29Q19.36-4.70 19.36-3.97L19.36-3.97Q19.36-3.23 19.52-2.63Q19.69-2.04 20.00-1.61Q20.30-1.19 20.73-0.96Q21.16-0.73 21.68-0.73ZM29.29-3.94L29.29-3.94Q29.29-4.88 29.56-5.64Q29.83-6.40 30.32-6.92Q30.80-7.45 31.46-7.73Q32.12-8.02 32.92-8.02L32.92-8.02Q33.73-8.02 34.28-7.71Q34.82-7.40 35.17-7.04L35.17-7.04L34.61-6.41Q34.31-6.72 33.92-6.93Q33.53-7.14 32.93-7.14L32.93-7.14Q32.33-7.14 31.85-6.92Q31.37-6.70 31.03-6.28Q30.70-5.87 30.51-5.28Q30.32-4.69 30.32-3.96L30.32-3.96Q30.32-3.22 30.50-2.62Q30.67-2.03 31.00-1.61Q31.33-1.19 31.82-0.96Q32.30-0.73 32.94-0.73L32.94-0.73Q33.36-0.73 33.74-0.86Q34.12-0.98 34.36-1.20L34.36-1.20L34.36-3.25L32.69-3.25L32.69-4.08L35.27-4.08L35.27-0.77Q34.88-0.37 34.25-0.11Q33.62 0.14 32.83 0.14L32.83 0.14Q32.05 0.14 31.40-0.13Q30.76-0.41 30.29-0.93Q29.82-1.45 29.56-2.21Q29.29-2.98 29.29-3.94ZM41.42 0L41.42-3.05L39.06-7.87L40.13-7.87L41.15-5.65Q41.34-5.22 41.52-4.80Q41.70-4.38 41.90-3.94L41.90-3.94L41.95-3.94Q42.16-4.38 42.36-4.80Q42.56-5.22 42.74-5.65L42.74-5.65L43.75-7.87L44.80-7.87L42.43-3.05L42.43 0L41.42 0ZM47.47-0.60L47.47-0.60Q47.47-0.95 47.68-1.16Q47.89-1.37 48.19-1.37L48.19-1.37Q48.48-1.37 48.69-1.16Q48.90-0.95 48.90-0.60L48.90-0.60Q48.90-0.28 48.69-0.07Q48.48 0.14 48.19 0.14L48.19 0.14Q47.89 0.14 47.68-0.07Q47.47-0.28 47.47-0.60ZM53.76 0L53.76-7.87L56.10-7.87Q56.70-7.87 57.20-7.76Q57.70-7.66 58.05-7.43Q58.40-7.20 58.60-6.83Q58.80-6.47 58.80-5.95L58.80-5.95Q58.80-5.36 58.46-4.89Q58.13-4.42 57.43-4.24L57.43-4.24L57.43-4.19Q58.30-4.06 58.78-3.59Q59.26-3.12 59.26-2.30L59.26-2.30Q59.26-1.73 59.04-1.30Q58.82-0.86 58.43-0.58Q58.03-0.29 57.48-0.14Q56.93 0 56.27 0L56.27 0L53.76 0ZM54.76-4.51L55.92-4.51Q56.94-4.51 57.38-4.86Q57.82-5.21 57.82-5.87L57.82-5.87Q57.82-6.52 57.35-6.80Q56.89-7.08 55.97-7.08L55.97-7.08L54.76-7.08L54.76-4.51ZM54.76-0.79L56.12-0.79Q57.14-0.79 57.71-1.17Q58.27-1.55 58.27-2.35L58.27-2.35Q58.27-3.08 57.72-3.43Q57.17-3.77 56.12-3.77L56.12-3.77L54.76-3.77L54.76-0.79ZM63.82 0L63.82-7.87L64.81-7.87L64.81-0.85L68.26-0.85L68.26 0L63.82 0ZM75.24 0.14L75.24 0.14Q74.50 0.14 73.88-0.14Q73.26-0.43 72.82-0.97Q72.37-1.50 72.13-2.26Q71.88-3.02 71.88-3.97L71.88-3.97Q71.88-4.92 72.13-5.67Q72.37-6.42 72.82-6.94Q73.26-7.46 73.88-7.74Q74.50-8.02 75.24-8.02L75.24-8.02Q75.98-8.02 76.60-7.73Q77.22-7.45 77.67-6.93Q78.12-6.41 78.37-5.66Q78.61-4.91 78.61-3.97L78.61-3.97Q78.61-3.02 78.37-2.26Q78.12-1.50 77.67-0.97Q77.22-0.43 76.60-0.14Q75.98 0.14 75.24 0.14ZM75.24-0.73L75.24-0.73Q75.77-0.73 76.19-0.96Q76.62-1.19 76.93-1.61Q77.23-2.04 77.40-2.63Q77.57-3.23 77.57-3.97L77.57-3.97Q77.57-4.70 77.40-5.29Q77.23-5.88 76.93-6.29Q76.62-6.70 76.19-6.92Q75.77-7.14 75.24-7.14L75.24-7.14Q74.71-7.14 74.29-6.92Q73.86-6.70 73.55-6.29Q73.25-5.88 73.08-5.29Q72.91-4.70 72.91-3.97L72.91-3.97Q72.91-3.23 73.08-2.63Q73.25-2.04 73.55-1.61Q73.86-1.19 74.29-0.96Q74.71-0.73 75.24-0.73ZM82.85-3.94L82.85-3.94Q82.85-4.88 83.12-5.64Q83.39-6.40 83.87-6.92Q84.36-7.45 85.02-7.73Q85.68-8.02 86.47-8.02L86.47-8.02Q87.29-8.02 87.83-7.71Q88.38-7.40 88.73-7.04L88.73-7.04L88.16-6.41Q87.86-6.72 87.47-6.93Q87.08-7.14 86.48-7.14L86.48-7.14Q85.88-7.14 85.40-6.92Q84.92-6.70 84.59-6.28Q84.25-5.87 84.07-5.28Q83.88-4.69 83.88-3.96L83.88-3.96Q83.88-3.22 84.05-2.62Q84.23-2.03 84.56-1.61Q84.89-1.19 85.37-0.96Q85.86-0.73 86.50-0.73L86.50-0.73Q86.92-0.73 87.29-0.86Q87.67-0.98 87.91-1.20L87.91-1.20L87.91-3.25L86.24-3.25L86.24-4.08L88.82-4.08L88.82-0.77Q88.44-0.37 87.81-0.11Q87.18 0.14 86.39 0.14L86.39 0.14Q85.61 0.14 84.96-0.13Q84.31-0.41 83.84-0.93Q83.38-1.45 83.11-2.21Q82.85-2.98 82.85-3.94Z" transform="translate(0, 8.016)"></path></g></g></g></g><defs v-gra="od"></defs></svg>