<svg data-v-6805eed4="" version="1.0" xmlns="http://www.w3.org/2000/svg" xmlns:xlink="http://www.w3.org/1999/xlink" width="100%" height="100%" viewBox="0 0 340.000000 250.000000" preserveAspectRatio="xMidYMid meet" color-interpolation-filters="sRGB" style="margin: auto;"> <rect data-v-6805eed4="" x="0" y="0" width="100%" height="100%" fill="#ffffff" fill-opacity="0" class="background"></rect> <rect data-v-6805eed4="" x="0" y="0" width="100%" height="100%" fill="url(#watermark)" fill-opacity="1" class="watermarklayer"></rect> <g data-v-6805eed4="" fill="#333" class="j-b-g-c iconbgsvg" mask="url(#079b2a18-7e5f-4ec4-bbef-76d54bbd7510)" transform="translate(85,40.54473876953125)"><g data-d="container" transform="translate(0,0)"><g><rect fill="#333" fill-opacity="0" stroke-width="2" x="0" y="0" width="170" height="168.910525" class="image-rect"></rect> <svg filter="url(#colors2546959122)" x="0" y="0" width="170" height="168.910525" filtersec="colorsf7898157008" class="image-svg-container primary" style="overflow: visible;"><svg fill="#000000" xmlns="http://www.w3.org/2000/svg" xmlns:xlink="http://www.w3.org/1999/xlink" version="1.1" x="0px" y="0px" viewBox="-0.20632 -0.00061 64.41348 64.00061" enable-background="new 0 0 64 64" xml:space="preserve" style="overflow: visible;"><g transform="scale(1, 1) skewX(0)"><path d="M59.178,28.276c-0.132-1.09-0.04-2.357,0.059-3.699c0.063-0.863,0.209-2.867,0.052-3.352  c-0.201-0.459-1.639-1.861-2.252-2.459c-0.966-0.942-1.878-1.832-2.507-2.742c-0.624-0.905-1.131-2.072-1.669-3.308  c-0.344-0.789-1.146-2.631-1.51-2.986c-0.392-0.313-2.315-0.887-3.138-1.132c-1.293-0.386-2.515-0.75-3.491-1.263  c-0.973-0.51-1.965-1.308-3.014-2.15c-0.677-0.542-2.242-1.8-2.727-1.945c0.012,0.004-0.057-0.005-0.192-0.004  c-0.763,0-2.007,0.243-3.105,0.458c-1.33,0.262-2.582,0.507-3.685,0.507c-1.1,0-2.351-0.245-3.674-0.505  c-1.102-0.216-2.349-0.46-3.114-0.46c-0.125,0-0.194,0.007-0.217,0.009c-0.464,0.143-1.972,1.354-2.695,1.936  c-1.053,0.846-2.047,1.644-3.022,2.156c-0.975,0.512-2.197,0.876-3.49,1.262c-0.822,0.245-2.747,0.819-3.145,1.138  c-0.357,0.35-1.159,2.191-1.501,2.978c-0.54,1.238-1.047,2.405-1.673,3.313c-0.627,0.907-1.539,1.797-2.505,2.739  c-0.614,0.598-2.051,2-2.255,2.466c-0.154,0.477-0.007,2.479,0.055,3.333c0.098,1.348,0.19,2.619,0.058,3.713  s-0.527,2.307-0.945,3.592c-0.266,0.817-0.887,2.727-0.851,3.232c0.085,0.491,1.146,2.197,1.598,2.926  c0.712,1.146,1.385,2.229,1.776,3.259c0.389,1.026,0.604,2.28,0.83,3.605c0.146,0.857,0.485,2.838,0.753,3.271  c0.305,0.396,2.037,1.415,2.777,1.851c1.163,0.684,2.261,1.329,3.085,2.059c0.822,0.728,1.595,1.739,2.414,2.811  c0.524,0.688,1.744,2.283,2.181,2.542c0.454,0.209,2.458,0.306,3.314,0.348c1.35,0.064,2.625,0.125,3.693,0.39  c1.069,0.263,2.226,0.8,3.45,1.369c0.834,0.388,2.546,1.184,3.102,1.232c0.557-0.049,2.272-0.846,3.101-1.23  c1.226-0.569,2.384-1.108,3.45-1.371c1.071-0.265,2.346-0.325,3.696-0.39c0.854-0.042,2.859-0.139,3.321-0.353  c0.429-0.253,1.602-1.787,2.165-2.525c0.824-1.079,1.598-2.093,2.424-2.824c0.823-0.728,1.921-1.373,3.084-2.057  c0.739-0.436,2.471-1.454,2.781-1.859c0.264-0.425,0.602-2.405,0.746-3.251c0.228-1.336,0.442-2.59,0.832-3.616  c0.392-1.029,1.063-2.112,1.775-3.259c0.453-0.729,1.514-2.435,1.6-2.935c0.035-0.498-0.563-2.337-0.851-3.222  C59.705,30.585,59.311,29.372,59.178,28.276z"></path><path d="M62.39,27.888c-0.233-1.938,0.617-5.98-0.075-7.806c-0.691-1.825-4.011-4.288-5.12-5.894  c-1.108-1.608-2.233-5.583-3.695-6.877c-1.46-1.294-5.544-1.933-7.272-2.84s-4.572-3.904-6.468-4.372  C37.864-0.368,33.952,0.964,32,0.964c-1.952,0-5.863-1.333-7.759-0.865c-1.895,0.467-4.739,3.464-6.467,4.372  c-1.729,0.907-5.813,1.546-7.273,2.84c-1.462,1.294-2.587,5.27-3.695,6.877c-1.109,1.606-4.429,4.068-5.121,5.894  c-0.692,1.826,0.161,5.869-0.075,7.806c-0.235,1.938-2.031,5.661-1.795,7.6c0.235,1.938,2.869,5.122,3.561,6.947  c0.692,1.824,0.833,5.954,1.943,7.561c1.108,1.606,4.92,3.204,6.382,4.498c1.46,1.293,3.506,4.886,5.233,5.793  s5.846,0.549,7.741,1.017C26.569,61.77,30.049,64,32,64c1.952,0,5.431-2.23,7.327-2.697c1.895-0.468,6.013-0.109,7.74-1.017  c1.729-0.907,3.773-4.5,5.233-5.793c1.462-1.294,5.274-2.892,6.382-4.498c1.109-1.606,1.251-5.736,1.943-7.561  c0.691-1.825,3.325-5.01,3.561-6.947C64.421,33.549,62.625,29.826,62.39,27.888z M59.847,38.32  c-0.697,1.123-1.356,2.184-1.729,3.163c-0.37,0.977-0.579,2.203-0.802,3.503c-0.244,1.428-0.529,2.984-0.839,3.482  c-0.361,0.475-1.715,1.292-2.957,2.022c-1.139,0.669-2.214,1.301-2.997,1.994c-0.785,0.695-1.543,1.688-2.345,2.738  c-0.877,1.147-1.85,2.39-2.354,2.687c-0.541,0.251-2.116,0.345-3.553,0.414c-1.321,0.063-2.569,0.124-3.589,0.376  c-1.015,0.25-2.148,0.777-3.349,1.334c-1.294,0.603-2.725,1.247-3.318,1.284H32l-0.018-0.001c-0.591-0.036-2.019-0.681-3.31-1.28  c-1.208-0.561-2.34-1.087-3.357-1.337c-1.017-0.252-2.265-0.313-3.587-0.376c-1.437-0.069-3.013-0.163-3.545-0.41  c-0.514-0.302-1.487-1.546-2.359-2.689c-0.806-1.056-1.563-2.046-2.346-2.739s-1.859-1.325-2.997-1.994  c-1.242-0.73-2.596-1.549-2.953-2.016c-0.315-0.507-0.6-2.062-0.842-3.479c-0.224-1.31-0.433-2.536-0.803-3.513  c-0.372-0.979-1.032-2.04-1.729-3.163c-0.76-1.223-1.579-2.575-1.678-3.153c-0.043-0.593,0.428-2.1,0.873-3.466  c0.41-1.261,0.796-2.45,0.923-3.49c0.126-1.04,0.036-2.287-0.061-3.605c-0.105-1.434-0.202-3.012-0.02-3.571  c0.238-0.546,1.355-1.663,2.386-2.667c0.946-0.923,1.839-1.794,2.435-2.657c0.595-0.863,1.092-2.006,1.62-3.217  c0.575-1.322,1.224-2.765,1.644-3.174c0.465-0.374,1.974-0.842,3.353-1.254c1.267-0.377,2.463-0.733,3.392-1.221  c0.927-0.487,1.9-1.269,2.931-2.097c1.121-0.9,2.363-1.875,2.926-2.044l0.047-0.014l0.049,0.003  c0.003-0.004,0.089-0.012,0.238-0.012c0.819,0,2.094,0.25,3.218,0.469c1.299,0.255,2.523,0.495,3.57,0.495  c1.048,0,2.274-0.241,3.571-0.495c1.13-0.221,2.402-0.469,3.219-0.469c0.221,0,0.315,0.018,0.332,0.021  c0.563,0.167,1.805,1.143,2.927,2.044c1.036,0.832,2.007,1.612,2.933,2.098c0.929,0.488,2.125,0.844,3.392,1.222  c1.379,0.412,2.889,0.881,3.347,1.249c0.427,0.415,1.074,1.857,1.648,3.177c0.528,1.212,1.026,2.356,1.619,3.217  c0.598,0.865,1.49,1.736,2.437,2.659c1.03,1.004,2.149,2.122,2.384,2.661c0.185,0.567,0.088,2.146-0.018,3.581  c-0.096,1.321-0.187,2.563-0.061,3.599c0.127,1.042,0.513,2.231,0.922,3.489c0.446,1.369,0.917,2.877,0.874,3.462  C61.424,35.747,60.606,37.098,59.847,38.32z"></path></g></svg></svg> <defs><filter id="colors2546959122"><feColorMatrix type="matrix" values="0 0 0 0 0.99609375  0 0 0 0 0  0 0 0 0 0  0 0 0 1 0" class="icon-fecolormatrix"></feColorMatrix></filter> <filter id="colorsf7898157008"><feColorMatrix type="matrix" values="0 0 0 0 0.99609375  0 0 0 0 0.99609375  0 0 0 0 0.99609375  0 0 0 1 0" class="icon-fecolormatrix"></feColorMatrix></filter> <filter id="colorsb5804466156"><feColorMatrix type="matrix" values="0 0 0 0 0  0 0 0 0 0  0 0 0 0 0  0 0 0 1 0" class="icon-fecolormatrix"></feColorMatrix></filter></defs></g></g> <g data-d="icon-text" hollow-target="textRect" transform="translate(36.70009231567383,16.10158920288086)"><g data-d="icon" class="iconsvg-imagesvg" transform="matrix(1,0,0,1,0,0)" opacity="1"><g><!----> <svg x="0" y="0" width="96.60000000000004" height="96.67734187349883" filtersec="colorsb7756865646" class="image-svg-svg primary" style="overflow: visible;"><svg xmlns="http://www.w3.org/2000/svg" xlink="http://www.w3.org/1999/xlink" viewBox="0.00009032298839883879 -0.000018247394109494053 99.91987609863281 100.00006866455078"><defs><linearGradient id="a9b2cf6c1-c650-4dfe-a85f-33bf188ae329" x1="-1.29" y1="50" x2="50.44" y2="50" gradientUnits="userSpaceOnUse"><stop offset="0" stop-color="#3751b9" stop-opacity="0"></stop><stop offset="1" stop-color="#3751b9"></stop></linearGradient><linearGradient id="b4d937b80-f2a4-4521-91cd-2bec732cdb7c" x1="91.92" y1="10.91" x2="53.6" y2="10.91" href="#a9b2cf6c1-c650-4dfe-a85f-33bf188ae329"></linearGradient><linearGradient id="c35526daa-48ee-467a-b436-1693703778bc" x1="7.8" y1="15.87" x2="99.88" y2="15.87" href="#a9b2cf6c1-c650-4dfe-a85f-33bf188ae329"></linearGradient><linearGradient id="dacd3063d-ba03-4b6f-bfb9-5f76c4cb841b" x1="91.92" y1="89.09" x2="53.6" y2="89.09" href="#a9b2cf6c1-c650-4dfe-a85f-33bf188ae329"></linearGradient><linearGradient id="ef0021751-f854-4ea4-891d-ecbaeed3ab91" x1="8.43" y1="84.21" x2="99.49" y2="84.21" href="#a9b2cf6c1-c650-4dfe-a85f-33bf188ae329"></linearGradient><linearGradient id="f6e122868-a57f-4b65-af1f-38ece39e36a7" x1="102.55" y1="50.09" x2="-.17" y2="50.09" href="#a9b2cf6c1-c650-4dfe-a85f-33bf188ae329"></linearGradient></defs><path d="M48.18 50c0-4.1-4.55-8.26-12.49-11.42-8.58-3.42-20-5.3-32.23-5.3h-.59a50.14 50.14 0 0 0 0 33.44h.59c12.21 0 23.65-1.88 32.23-5.3C43.63 58.26 48.18 54.1 48.18 50z" fill="url(#a9b2cf6c1-c650-4dfe-a85f-33bf188ae329)"></path><path d="M67.76 16.38A81.32 81.32 0 0 0 91 21.33 50 50 0 0 0 57.05.49 7.23 7.23 0 0 0 55.28 5c0 4.06 4.55 8.22 12.48 11.38z" fill="url(#b4d937b80-f2a4-4521-91cd-2bec732cdb7c)"></path><path d="M37.13 20.69a111.47 111.47 0 0 1 12 4.13c3 1.17 6.16 2.39 9.29 3.34C71.76 32.22 85 32.81 95.86 30a51 51 0 0 0-2.47-4.9c-10.16-.56-19.56-2.43-27-5.38C56.89 16 51.64 10.71 51.64 5A9.89 9.89 0 0 1 53 .09C52 0 51 0 50 0a49.93 49.93 0 0 0-39.91 19.87c1.51-.25 3-.46 4.6-.63a62.46 62.46 0 0 1 22.44 1.45z" fill="url(#c35526daa-48ee-467a-b436-1693703778bc)"></path><path d="M55.28 95a7.25 7.25 0 0 0 1.77 4.47A50 50 0 0 0 91 78.67a81.32 81.32 0 0 0-23.21 5C59.83 86.78 55.28 90.94 55.28 95z" fill="url(#dacd3063d-ba03-4b6f-bfb9-5f76c4cb841b)"></path><path d="M63.78 70.16a110 110 0 0 0-11.63 4c-3.09 1.2-6.29 2.44-9.55 3.43a84.22 84.22 0 0 1-24.27 3.75h-1.41q-3.21-.06-6.22-.41A49.88 49.88 0 0 0 50 100c1 0 2 0 3-.09A9.92 9.92 0 0 1 51.64 95c0-5.75 5.25-11 14.78-14.8 7.41-3 16.81-4.82 27-5.38.77-1.33 1.47-2.71 2.12-4.12a72.14 72.14 0 0 0-10.58-1.93 59 59 0 0 0-21.18 1.39z" fill="url(#ef0021751-f854-4ea4-891d-ecbaeed3ab91)"></path><path d="M97.21 33.49a59.86 59.86 0 0 1-14.13 1.88h-1.41a84.22 84.22 0 0 1-24.27-3.73c-3.26-1-6.46-2.23-9.55-3.43a110 110 0 0 0-11.63-4 59 59 0 0 0-21.15-1.35 71.78 71.78 0 0 0-7.87 1.28 49.49 49.49 0 0 0-2.88 5.5c12.34.09 23.93 2.05 32.72 5.56 9.53 3.79 14.78 9 14.78 14.8S46.57 61 37 64.8c-8.79 3.51-20.38 5.47-32.72 5.56a50.06 50.06 0 0 0 3.45 6.42c10.11 1.81 21.92 1 33.77-2.67 3.13-1 6.26-2.17 9.29-3.34a111.47 111.47 0 0 1 12-4.13 62.46 62.46 0 0 1 22.44-1.45 74.71 74.71 0 0 1 11.6 2.16 50.25 50.25 0 0 0 .3-33.86z" fill="url(#f6e122868-a57f-4b65-af1f-38ece39e36a7)"></path></svg></svg> <!----></g></g> <g data-d="text" transform="translate(2.2749061584472656,100.6773452758789)"><g data-gra="path-name" fill-rule="" class="tp-name iconsvg-namesvg" opacity="1" transform="matrix(1,0,0,1,0,0)"><g transform="scale(1)"><g><path d="M1.93 1.02Q0.99 1.02 0.6 0.2 0.21-0.62 0.21-2.11L0.21-2.11Q0.21-2.84 0.31-5.21L0.31-5.21Q0.34-6.04 0.49-6.3 0.65-6.56 1.3-6.56L1.3-6.56Q1.9-6.56 2.03-6.34 2.16-6.12 2.16-5.31L2.16-5.31Q2.16-4.82 2.11-3.67L2.11-3.67Q2.03-2.81 2.03-1.93L2.03-1.93Q2.03-1.04 2.12-0.7 2.21-0.36 2.5-0.36L2.5-0.36Q3.33-0.36 4.52-2.02 5.7-3.67 6.59-5.67L6.59-5.67Q6.64-7.34 6.98-7.99 7.31-8.64 7.94-8.64L7.94-8.64Q8.51-8.64 8.79-8.28 9.06-7.91 9.06-7.5L9.06-7.5Q9.06-7.24 8.94-7 8.82-6.77 8.8-6.69L8.8-6.69Q8.54-6.25 8.38-5.71 8.23-5.18 8.23-4.27L8.23-4.27Q8.23-2.45 9.35-2.45L9.35-2.45Q9.87-2.45 10.36-2.89 10.86-3.33 11.38-4.37L11.38-4.37 11.66-4.14Q11.09-2.79 10.37-2.17 9.66-1.56 8.9-1.56L8.9-1.56Q8.1-1.56 7.54-2.21 6.98-2.86 6.69-3.98L6.69-3.98Q5.54-1.85 4.31-0.42 3.07 1.02 1.93 1.02L1.93 1.02ZM12.91 0.78Q11.77 0.78 11.25 0.03 10.73-0.73 10.73-1.98L10.73-1.98Q10.73-4.37 12.35-8.38 13.98-12.39 16.01-15.57 18.04-18.74 19-18.74L19-18.74Q19.45-18.74 19.76-18.05 20.07-17.36 20.1-16.66L20.1-16.66Q20.1-15.46 19.13-13.16 18.17-10.86 16.54-8.49 14.92-6.12 13.07-4.66L13.07-4.66Q12.78-3.05 12.78-2.21L12.78-2.21Q12.78-1.3 13.08-0.86 13.38-0.42 13.9-0.42L13.9-0.42Q14.81-0.42 15.84-1.63 16.87-2.84 17.68-4.56L17.68-4.56 18.3-4.22Q17.15-1.85 15.78-0.53 14.4 0.78 12.91 0.78L12.91 0.78ZM13.54-6.27Q14.94-7.78 16.18-9.81 17.42-11.84 18.16-13.67 18.9-15.49 18.9-16.37L18.9-16.37Q18.56-16.37 17.53-14.79 16.5-13.2 15.37-10.84 14.24-8.49 13.54-6.27L13.54-6.27ZM18.77 0.83Q17.7 0.83 17.22 0.13 16.74-0.57 16.74-1.61L16.74-1.61Q16.74-2.71 17.19-3.88 17.65-5.05 18.38-5.83 19.11-6.61 19.86-6.61L19.86-6.61Q20.17-6.61 20.67-6.4L20.67-6.4Q20.83-7.6 21.52-8.38 22.2-9.16 23.45-9.16L23.45-9.16Q24.5-9.16 24.99-8.58 25.48-7.99 25.48-7.05L25.48-7.05Q25.48-6.14 25-4.97 24.52-3.8 23.77-2.63L23.77-2.63Q24.08-2.47 24.5-2.47L24.5-2.47Q25.22-2.47 26.06-2.95 26.89-3.44 27.33-4.43L27.33-4.43 27.8-4.09Q27.26-2.84 26.33-2.19 25.41-1.54 24.42-1.54L24.42-1.54Q23.82-1.54 23.12-1.77L23.12-1.77Q22.15-0.62 21.01 0.1 19.86 0.83 18.77 0.83L18.77 0.83ZM22.88-3.18Q23.53-4.14 23.96-5.18 24.39-6.22 24.39-7.05L24.39-7.05Q24.39-8.2 23.66-8.2L23.66-8.2Q23.32-8.2 22.96-7.86 22.6-7.52 22.36-6.96 22.13-6.4 22.13-5.73L22.13-5.73Q22.13-5.13 22.34-4.36 22.54-3.59 22.88-3.18L22.88-3.18ZM19.71-0.49Q20.17-0.49 20.85-1.02 21.53-1.54 22.2-2.34L22.2-2.34Q20.72-3.64 20.64-6.17L20.64-6.17Q20.33-6.01 19.89-5.21 19.45-4.4 19.13-3.41 18.82-2.42 18.82-1.69L18.82-1.69Q18.82-0.49 19.71-0.49L19.71-0.49ZM28.04 7.29Q27.31 7.29 26.79 6.86 26.27 6.43 26.27 5.62L26.27 5.62Q26.27 4.61 27.03 3.77 27.8 2.94 28.82 2.36 29.83 1.77 31.5 0.99L31.5 0.99Q32.15-0.65 32.54-2.26L32.54-2.26Q30.43 0.39 28.58 0.39L28.58 0.39Q27.54 0.39 26.93-0.34 26.32-1.07 26.32-2.26L26.32-2.26Q26.32-4.01 27.46-5.57 28.61-7.13 30.3-8.08 31.99-9.03 33.53-9.03L33.53-9.03Q34.34-9.03 34.77-8.75 35.19-8.46 35.19-8.04L35.19-8.04Q35.19-7.78 35.04-7.58 34.88-7.37 34.78-7.34L34.78-7.34Q34.52-7.6 34.26-7.71 34-7.81 33.61-7.81L33.61-7.81Q32.33-7.81 31.13-6.86 29.94-5.91 29.19-4.57 28.45-3.23 28.45-2.16L28.45-2.16Q28.45-1.64 28.67-1.37 28.9-1.09 29.26-1.09L29.26-1.09Q29.96-1.09 30.99-2 32.02-2.92 33.03-4.35L33.03-4.35Q33.32-5.81 33.71-6.44 34.1-7.08 34.83-7.08L34.83-7.08Q35.17-7.08 35.59-6.98L35.59-6.98Q35.59-6.3 35.01-4.27 34.44-2.24 33.63-0.05L33.63-0.05Q34.93-0.6 36.14-1.76 37.36-2.92 37.88-4.43L37.88-4.43 38.34-3.96Q37.77-2.32 36.3-0.99 34.83 0.34 33.29 1.04L33.29 1.04Q32.1 3.93 30.81 5.61 29.52 7.29 28.04 7.29L28.04 7.29ZM27.93 6.09Q28.45 6.09 29.29 5.13 30.12 4.17 31 2.21L31 2.21Q29.31 3.05 28.37 3.79 27.44 4.53 27.44 5.36L27.44 5.36Q27.44 5.7 27.58 5.9 27.72 6.09 27.93 6.09L27.93 6.09ZM38.47 7.29Q37.75 7.29 37.23 6.86 36.7 6.43 36.7 5.6L36.7 5.6Q36.7 4.58 37.47 3.75 38.24 2.92 39.26 2.34 40.27 1.77 41.88 1.02L41.88 1.02Q42.33-0.1 43.13-3.05L43.13-3.05Q42.2-1.72 41.3-0.96 40.4-0.21 39.39-0.21L39.39-0.21Q38.53-0.21 37.85-0.73 37.17-1.25 37.17-2.37L37.17-2.37Q37.17-3.25 37.59-4.62 38.01-5.99 38.58-7.02 39.15-8.04 39.57-8.04L39.57-8.04Q39.83-8.04 40.35-7.77 40.87-7.5 40.97-7.18L40.97-7.18Q40.48-6.51 39.89-4.92 39.31-3.33 39.31-2.42L39.31-2.42Q39.31-1.46 40.06-1.46L40.06-1.46Q40.84-1.46 41.75-2.37 42.67-3.28 43.5-4.61L43.5-4.61Q43.55-4.79 43.66-5.47 43.76-6.14 44.12-6.65 44.49-7.16 45.16-7.16L45.16-7.16Q45.27-7.16 46-7.05L46-7.05Q45.97-6.4 45.39-4.22 44.8-2.03 44.02 0.05L44.02 0.05Q45.3-0.47 46.43-1.54 47.56-2.6 48.21-4.35L48.21-4.35 48.65-3.98Q48.11-2.19 46.77-0.96 45.43 0.26 43.68 1.04L43.68 1.04Q42.46 3.93 41.2 5.61 39.93 7.29 38.47 7.29L38.47 7.29ZM38.21 6.33Q38.76 6.33 39.65 5.22 40.53 4.11 41.39 2.16L41.39 2.16Q39.88 2.92 38.8 3.83 37.72 4.74 37.72 5.6L37.72 5.6Q37.72 5.88 37.84 6.1 37.95 6.33 38.21 6.33L38.21 6.33ZM49.51 0.26Q48.94 0.26 48.65-0.04 48.37-0.34 48.37-0.73L48.37-0.73Q48.37-1.17 48.93-1.64 49.49-2.11 50.01-2.11L50.01-2.11Q50.35-2.11 50.61-1.91 50.87-1.72 50.87-1.3L50.87-1.3Q50.87-1.07 50.7-0.69 50.53-0.31 50.23-0.03 49.93 0.26 49.51 0.26L49.51 0.26ZM56.67 1.9Q55.21 1.9 54.43 0.99 53.65 0.08 53.65-1.56L53.65-1.56Q53.65-4.01 55.21-8.11 56.77-12.21 58.78-15.4 60.78-18.59 61.93-18.59L61.93-18.59Q62.42-18.59 62.7-18.04 62.97-17.49 63-16.79L63-16.79Q63-15.54 62.14-13.52 61.28-11.51 59.89-9.66 58.49-7.81 56.96-6.92L56.96-6.92Q56.59-6.25 56.19-4.7 55.79-3.15 55.79-1.72L55.79-1.72Q55.79-0.57 56.11 0.12 56.44 0.81 57.14 0.81L57.14 0.81Q57.82 0.81 58.6 0.2 59.38-0.42 59.87-1.33L59.87-1.33Q58.94-1.85 58.43-2.77 57.92-3.7 57.92-4.76L57.92-4.76Q57.92-6.01 58.6-6.81 59.27-7.6 60.29-7.6L60.29-7.6Q61.17-7.6 61.69-6.94 62.22-6.27 62.22-5L62.22-5Q62.22-3.41 61.43-1.72L61.43-1.72 61.9-1.69Q63.1-1.69 63.88-2.53 64.66-3.36 65.26-4.58L65.26-4.58 65.65-4.03Q64.95-2.42 64-1.65 63.05-0.89 61.56-0.89L61.56-0.89Q61.2-0.89 61.02-0.91L61.02-0.91Q60.21 0.36 59.12 1.13 58.02 1.9 56.67 1.9L56.67 1.9ZM57.45-8.56Q58.52-9.53 59.51-11.08 60.5-12.63 61.12-14.07 61.75-15.51 61.77-16.14L61.77-16.14Q61.43-16.01 60.6-14.84 59.77-13.67 58.88-11.96 58-10.26 57.45-8.56L57.45-8.56ZM60.32-2.19Q60.78-3.25 60.78-4.4L60.78-4.4Q60.78-5.28 60.58-5.75 60.37-6.22 60.03-6.22L60.03-6.22Q59.69-6.22 59.44-5.75 59.2-5.28 59.2-4.63L59.2-4.63Q59.2-3.98 59.47-3.29 59.74-2.6 60.32-2.19L60.32-2.19ZM66.82 0.78Q65.68 0.78 65.16 0.03 64.64-0.73 64.64-1.98L64.64-1.98Q64.64-4.37 66.26-8.38 67.89-12.39 69.92-15.57 71.95-18.74 72.91-18.74L72.91-18.74Q73.36-18.74 73.67-18.05 73.98-17.36 74.01-16.66L74.01-16.66Q74.01-15.46 73.04-13.16 72.08-10.86 70.45-8.49 68.83-6.12 66.98-4.66L66.98-4.66Q66.69-3.05 66.69-2.21L66.69-2.21Q66.69-1.3 66.99-0.86 67.29-0.42 67.81-0.42L67.81-0.42Q68.72-0.42 69.75-1.63 70.78-2.84 71.59-4.56L71.59-4.56 72.21-4.22Q71.07-1.85 69.69-0.53 68.31 0.78 66.82 0.78L66.82 0.78ZM67.45-6.27Q68.85-7.78 70.09-9.81 71.33-11.84 72.07-13.67 72.81-15.49 72.81-16.37L72.81-16.37Q72.47-16.37 71.44-14.79 70.42-13.2 69.28-10.84 68.15-8.49 67.45-6.27L67.45-6.27ZM72.68 0.83Q71.61 0.83 71.13 0.13 70.65-0.57 70.65-1.61L70.65-1.61Q70.65-2.71 71.11-3.88 71.56-5.05 72.29-5.83 73.02-6.61 73.77-6.61L73.77-6.61Q74.09-6.61 74.58-6.4L74.58-6.4Q74.74-7.6 75.43-8.38 76.12-9.16 77.37-9.16L77.37-9.16Q78.41-9.16 78.9-8.58 79.4-7.99 79.4-7.05L79.4-7.05Q79.4-6.14 78.91-4.97 78.43-3.8 77.68-2.63L77.68-2.63Q77.99-2.47 78.41-2.47L78.41-2.47Q79.14-2.47 79.97-2.95 80.8-3.44 81.24-4.43L81.24-4.43 81.71-4.09Q81.17-2.84 80.24-2.19 79.32-1.54 78.33-1.54L78.33-1.54Q77.73-1.54 77.03-1.77L77.03-1.77Q76.06-0.62 74.92 0.1 73.77 0.83 72.68 0.83L72.68 0.83ZM76.79-3.18Q77.44-4.14 77.87-5.18 78.3-6.22 78.3-7.05L78.3-7.05Q78.3-8.2 77.57-8.2L77.57-8.2Q77.24-8.2 76.87-7.86 76.51-7.52 76.27-6.96 76.04-6.4 76.04-5.73L76.04-5.73Q76.04-5.13 76.25-4.36 76.45-3.59 76.79-3.18L76.79-3.18ZM73.62-0.49Q74.09-0.49 74.76-1.02 75.44-1.54 76.12-2.34L76.12-2.34Q74.63-3.64 74.55-6.17L74.55-6.17Q74.24-6.01 73.8-5.21 73.36-4.4 73.04-3.41 72.73-2.42 72.73-1.69L72.73-1.69Q72.73-0.49 73.62-0.49L73.62-0.49ZM81.95 7.29Q81.22 7.29 80.7 6.86 80.18 6.43 80.18 5.62L80.18 5.62Q80.18 4.61 80.95 3.77 81.71 2.94 82.73 2.36 83.74 1.77 85.41 0.99L85.41 0.99Q86.06-0.65 86.45-2.26L86.45-2.26Q84.34 0.39 82.49 0.39L82.49 0.39Q81.45 0.39 80.84-0.34 80.23-1.07 80.23-2.26L80.23-2.26Q80.23-4.01 81.37-5.57 82.52-7.13 84.21-8.08 85.9-9.03 87.44-9.03L87.44-9.03Q88.25-9.03 88.68-8.75 89.11-8.46 89.11-8.04L89.11-8.04Q89.11-7.78 88.95-7.58 88.79-7.37 88.69-7.34L88.69-7.34Q88.43-7.6 88.17-7.71 87.91-7.81 87.52-7.81L87.52-7.81Q86.24-7.81 85.05-6.86 83.85-5.91 83.11-4.57 82.36-3.23 82.36-2.16L82.36-2.16Q82.36-1.64 82.59-1.37 82.81-1.09 83.17-1.09L83.17-1.09Q83.87-1.09 84.9-2 85.93-2.92 86.95-4.35L86.95-4.35Q87.23-5.81 87.62-6.44 88.01-7.08 88.74-7.08L88.74-7.08Q89.08-7.08 89.5-6.98L89.5-6.98Q89.5-6.3 88.92-4.27 88.35-2.24 87.54-0.05L87.54-0.05Q88.85-0.6 90.06-1.76 91.27-2.92 91.79-4.43L91.79-4.43 92.26-3.96Q91.68-2.32 90.21-0.99 88.74 0.34 87.21 1.04L87.21 1.04Q86.01 3.93 84.72 5.61 83.43 7.29 81.95 7.29L81.95 7.29ZM81.84 6.09Q82.36 6.09 83.2 5.13 84.03 4.17 84.92 2.21L84.92 2.21Q83.22 3.05 82.29 3.79 81.35 4.53 81.35 5.36L81.35 5.36Q81.35 5.7 81.49 5.9 81.64 6.09 81.84 6.09L81.84 6.09Z" transform="translate(-0.21000000834465027, 18.739999771118164)"></path></g> <!----> <!----> <!----> <!----> <!----> <!----> <!----></g></g> <!----></g></g></g><defs><filter id="f2eca483-f3fb-4fc1-90ce-e1eb17da5fee">
          <feColorMatrix type="matrix" values="0 0 0 0 0  0 0 0 0 0  0 0 0 0 0  0 0 0 1 0"></feColorMatrix>
          </filter><filter id="bc246cc5-9b89-44a8-a3ec-599be36c92d3">
          <feColorMatrix type="matrix" values="0 0 0 0 0.99609375  0 0 0 0 0.99609375  0 0 0 0 0.99609375  0 0 0 1 0"></feColorMatrix>
          </filter></defs><mask id="079b2a18-7e5f-4ec4-bbef-76d54bbd7510"><g data-v-6805eed4="" fill="#333" class="j-b-g-c iconbgsvg"><g data-d="container" transform="translate(0,0)"><g><rect fill="#333" fill-opacity="0" stroke-width="2" x="0" y="0" width="170" height="168.910525" class="image-rect" stroke="#000"></rect> <svg filter="url(#bc246cc5-9b89-44a8-a3ec-599be36c92d3)" x="0" y="0" width="170" height="168.910525" filtersec="colorsf7898157008" class="image-svg-container primary" style="overflow: visible;"><svg fill="#000000" xmlns="http://www.w3.org/2000/svg" xmlns:xlink="http://www.w3.org/1999/xlink" version="1.1" x="0px" y="0px" viewBox="-0.20632 -0.00061 64.41348 64.00061" enable-background="new 0 0 64 64" xml:space="preserve" style="overflow: visible;"><g transform="scale(1, 1) skewX(0)"><path d="M59.178,28.276c-0.132-1.09-0.04-2.357,0.059-3.699c0.063-0.863,0.209-2.867,0.052-3.352  c-0.201-0.459-1.639-1.861-2.252-2.459c-0.966-0.942-1.878-1.832-2.507-2.742c-0.624-0.905-1.131-2.072-1.669-3.308  c-0.344-0.789-1.146-2.631-1.51-2.986c-0.392-0.313-2.315-0.887-3.138-1.132c-1.293-0.386-2.515-0.75-3.491-1.263  c-0.973-0.51-1.965-1.308-3.014-2.15c-0.677-0.542-2.242-1.8-2.727-1.945c0.012,0.004-0.057-0.005-0.192-0.004  c-0.763,0-2.007,0.243-3.105,0.458c-1.33,0.262-2.582,0.507-3.685,0.507c-1.1,0-2.351-0.245-3.674-0.505  c-1.102-0.216-2.349-0.46-3.114-0.46c-0.125,0-0.194,0.007-0.217,0.009c-0.464,0.143-1.972,1.354-2.695,1.936  c-1.053,0.846-2.047,1.644-3.022,2.156c-0.975,0.512-2.197,0.876-3.49,1.262c-0.822,0.245-2.747,0.819-3.145,1.138  c-0.357,0.35-1.159,2.191-1.501,2.978c-0.54,1.238-1.047,2.405-1.673,3.313c-0.627,0.907-1.539,1.797-2.505,2.739  c-0.614,0.598-2.051,2-2.255,2.466c-0.154,0.477-0.007,2.479,0.055,3.333c0.098,1.348,0.19,2.619,0.058,3.713  s-0.527,2.307-0.945,3.592c-0.266,0.817-0.887,2.727-0.851,3.232c0.085,0.491,1.146,2.197,1.598,2.926  c0.712,1.146,1.385,2.229,1.776,3.259c0.389,1.026,0.604,2.28,0.83,3.605c0.146,0.857,0.485,2.838,0.753,3.271  c0.305,0.396,2.037,1.415,2.777,1.851c1.163,0.684,2.261,1.329,3.085,2.059c0.822,0.728,1.595,1.739,2.414,2.811  c0.524,0.688,1.744,2.283,2.181,2.542c0.454,0.209,2.458,0.306,3.314,0.348c1.35,0.064,2.625,0.125,3.693,0.39  c1.069,0.263,2.226,0.8,3.45,1.369c0.834,0.388,2.546,1.184,3.102,1.232c0.557-0.049,2.272-0.846,3.101-1.23  c1.226-0.569,2.384-1.108,3.45-1.371c1.071-0.265,2.346-0.325,3.696-0.39c0.854-0.042,2.859-0.139,3.321-0.353  c0.429-0.253,1.602-1.787,2.165-2.525c0.824-1.079,1.598-2.093,2.424-2.824c0.823-0.728,1.921-1.373,3.084-2.057  c0.739-0.436,2.471-1.454,2.781-1.859c0.264-0.425,0.602-2.405,0.746-3.251c0.228-1.336,0.442-2.59,0.832-3.616  c0.392-1.029,1.063-2.112,1.775-3.259c0.453-0.729,1.514-2.435,1.6-2.935c0.035-0.498-0.563-2.337-0.851-3.222  C59.705,30.585,59.311,29.372,59.178,28.276z"></path><path d="M62.39,27.888c-0.233-1.938,0.617-5.98-0.075-7.806c-0.691-1.825-4.011-4.288-5.12-5.894  c-1.108-1.608-2.233-5.583-3.695-6.877c-1.46-1.294-5.544-1.933-7.272-2.84s-4.572-3.904-6.468-4.372  C37.864-0.368,33.952,0.964,32,0.964c-1.952,0-5.863-1.333-7.759-0.865c-1.895,0.467-4.739,3.464-6.467,4.372  c-1.729,0.907-5.813,1.546-7.273,2.84c-1.462,1.294-2.587,5.27-3.695,6.877c-1.109,1.606-4.429,4.068-5.121,5.894  c-0.692,1.826,0.161,5.869-0.075,7.806c-0.235,1.938-2.031,5.661-1.795,7.6c0.235,1.938,2.869,5.122,3.561,6.947  c0.692,1.824,0.833,5.954,1.943,7.561c1.108,1.606,4.92,3.204,6.382,4.498c1.46,1.293,3.506,4.886,5.233,5.793  s5.846,0.549,7.741,1.017C26.569,61.77,30.049,64,32,64c1.952,0,5.431-2.23,7.327-2.697c1.895-0.468,6.013-0.109,7.74-1.017  c1.729-0.907,3.773-4.5,5.233-5.793c1.462-1.294,5.274-2.892,6.382-4.498c1.109-1.606,1.251-5.736,1.943-7.561  c0.691-1.825,3.325-5.01,3.561-6.947C64.421,33.549,62.625,29.826,62.39,27.888z M59.847,38.32  c-0.697,1.123-1.356,2.184-1.729,3.163c-0.37,0.977-0.579,2.203-0.802,3.503c-0.244,1.428-0.529,2.984-0.839,3.482  c-0.361,0.475-1.715,1.292-2.957,2.022c-1.139,0.669-2.214,1.301-2.997,1.994c-0.785,0.695-1.543,1.688-2.345,2.738  c-0.877,1.147-1.85,2.39-2.354,2.687c-0.541,0.251-2.116,0.345-3.553,0.414c-1.321,0.063-2.569,0.124-3.589,0.376  c-1.015,0.25-2.148,0.777-3.349,1.334c-1.294,0.603-2.725,1.247-3.318,1.284H32l-0.018-0.001c-0.591-0.036-2.019-0.681-3.31-1.28  c-1.208-0.561-2.34-1.087-3.357-1.337c-1.017-0.252-2.265-0.313-3.587-0.376c-1.437-0.069-3.013-0.163-3.545-0.41  c-0.514-0.302-1.487-1.546-2.359-2.689c-0.806-1.056-1.563-2.046-2.346-2.739s-1.859-1.325-2.997-1.994  c-1.242-0.73-2.596-1.549-2.953-2.016c-0.315-0.507-0.6-2.062-0.842-3.479c-0.224-1.31-0.433-2.536-0.803-3.513  c-0.372-0.979-1.032-2.04-1.729-3.163c-0.76-1.223-1.579-2.575-1.678-3.153c-0.043-0.593,0.428-2.1,0.873-3.466  c0.41-1.261,0.796-2.45,0.923-3.49c0.126-1.04,0.036-2.287-0.061-3.605c-0.105-1.434-0.202-3.012-0.02-3.571  c0.238-0.546,1.355-1.663,2.386-2.667c0.946-0.923,1.839-1.794,2.435-2.657c0.595-0.863,1.092-2.006,1.62-3.217  c0.575-1.322,1.224-2.765,1.644-3.174c0.465-0.374,1.974-0.842,3.353-1.254c1.267-0.377,2.463-0.733,3.392-1.221  c0.927-0.487,1.9-1.269,2.931-2.097c1.121-0.9,2.363-1.875,2.926-2.044l0.047-0.014l0.049,0.003  c0.003-0.004,0.089-0.012,0.238-0.012c0.819,0,2.094,0.25,3.218,0.469c1.299,0.255,2.523,0.495,3.57,0.495  c1.048,0,2.274-0.241,3.571-0.495c1.13-0.221,2.402-0.469,3.219-0.469c0.221,0,0.315,0.018,0.332,0.021  c0.563,0.167,1.805,1.143,2.927,2.044c1.036,0.832,2.007,1.612,2.933,2.098c0.929,0.488,2.125,0.844,3.392,1.222  c1.379,0.412,2.889,0.881,3.347,1.249c0.427,0.415,1.074,1.857,1.648,3.177c0.528,1.212,1.026,2.356,1.619,3.217  c0.598,0.865,1.49,1.736,2.437,2.659c1.03,1.004,2.149,2.122,2.384,2.661c0.185,0.567,0.088,2.146-0.018,3.581  c-0.096,1.321-0.187,2.563-0.061,3.599c0.127,1.042,0.513,2.231,0.922,3.489c0.446,1.369,0.917,2.877,0.874,3.462  C61.424,35.747,60.606,37.098,59.847,38.32z"></path></g></svg></svg> <defs><filter id="colors2546959122"><feColorMatrix type="matrix" values="0 0 0 0 0.99609375  0 0 0 0 0  0 0 0 0 0  0 0 0 1 0" class="icon-fecolormatrix"></feColorMatrix></filter> <filter id="colorsf7898157008"><feColorMatrix type="matrix" values="0 0 0 0 0.99609375  0 0 0 0 0.99609375  0 0 0 0 0.99609375  0 0 0 1 0" class="icon-fecolormatrix"></feColorMatrix></filter> <filter id="colorsb5804466156"><feColorMatrix type="matrix" values="0 0 0 0 0  0 0 0 0 0  0 0 0 0 0  0 0 0 1 0" class="icon-fecolormatrix"></feColorMatrix></filter></defs></g></g> <g data-d="icon-text" hollow-target="textRect" transform="translate(36.70009231567383,16.10158920288086)" filter="url(#f2eca483-f3fb-4fc1-90ce-e1eb17da5fee)"><g data-d="icon" class="iconsvg-imagesvg" transform="matrix(1,0,0,1,0,0)" opacity="1"><g><!----> <svg x="0" y="0" width="96.60000000000004" height="96.67734187349883" filtersec="colorsb7756865646" class="image-svg-svg primary" style="overflow: visible;"><svg xmlns="http://www.w3.org/2000/svg" xlink="http://www.w3.org/1999/xlink" viewBox="0.00009032298839883879 -0.000018247394109494053 99.91987609863281 100.00006866455078" style="overflow: visible;"><defs><linearGradient id="a9b2cf6c1-c650-4dfe-a85f-33bf188ae329" x1="-1.29" y1="50" x2="50.44" y2="50" gradientUnits="userSpaceOnUse"><stop offset="0" stop-color="#3751b9" stop-opacity="0"></stop><stop offset="1" stop-color="#3751b9"></stop></linearGradient><linearGradient id="b4d937b80-f2a4-4521-91cd-2bec732cdb7c" x1="91.92" y1="10.91" x2="53.6" y2="10.91" href="#a9b2cf6c1-c650-4dfe-a85f-33bf188ae329"></linearGradient><linearGradient id="c35526daa-48ee-467a-b436-1693703778bc" x1="7.8" y1="15.87" x2="99.88" y2="15.87" href="#a9b2cf6c1-c650-4dfe-a85f-33bf188ae329"></linearGradient><linearGradient id="dacd3063d-ba03-4b6f-bfb9-5f76c4cb841b" x1="91.92" y1="89.09" x2="53.6" y2="89.09" href="#a9b2cf6c1-c650-4dfe-a85f-33bf188ae329"></linearGradient><linearGradient id="ef0021751-f854-4ea4-891d-ecbaeed3ab91" x1="8.43" y1="84.21" x2="99.49" y2="84.21" href="#a9b2cf6c1-c650-4dfe-a85f-33bf188ae329"></linearGradient><linearGradient id="f6e122868-a57f-4b65-af1f-38ece39e36a7" x1="102.55" y1="50.09" x2="-.17" y2="50.09" href="#a9b2cf6c1-c650-4dfe-a85f-33bf188ae329"></linearGradient></defs><path d="M48.18 50c0-4.1-4.55-8.26-12.49-11.42-8.58-3.42-20-5.3-32.23-5.3h-.59a50.14 50.14 0 0 0 0 33.44h.59c12.21 0 23.65-1.88 32.23-5.3C43.63 58.26 48.18 54.1 48.18 50z" fill="url(#a9b2cf6c1-c650-4dfe-a85f-33bf188ae329)"></path><path d="M67.76 16.38A81.32 81.32 0 0 0 91 21.33 50 50 0 0 0 57.05.49 7.23 7.23 0 0 0 55.28 5c0 4.06 4.55 8.22 12.48 11.38z" fill="url(#b4d937b80-f2a4-4521-91cd-2bec732cdb7c)"></path><path d="M37.13 20.69a111.47 111.47 0 0 1 12 4.13c3 1.17 6.16 2.39 9.29 3.34C71.76 32.22 85 32.81 95.86 30a51 51 0 0 0-2.47-4.9c-10.16-.56-19.56-2.43-27-5.38C56.89 16 51.64 10.71 51.64 5A9.89 9.89 0 0 1 53 .09C52 0 51 0 50 0a49.93 49.93 0 0 0-39.91 19.87c1.51-.25 3-.46 4.6-.63a62.46 62.46 0 0 1 22.44 1.45z" fill="url(#c35526daa-48ee-467a-b436-1693703778bc)"></path><path d="M55.28 95a7.25 7.25 0 0 0 1.77 4.47A50 50 0 0 0 91 78.67a81.32 81.32 0 0 0-23.21 5C59.83 86.78 55.28 90.94 55.28 95z" fill="url(#dacd3063d-ba03-4b6f-bfb9-5f76c4cb841b)"></path><path d="M63.78 70.16a110 110 0 0 0-11.63 4c-3.09 1.2-6.29 2.44-9.55 3.43a84.22 84.22 0 0 1-24.27 3.75h-1.41q-3.21-.06-6.22-.41A49.88 49.88 0 0 0 50 100c1 0 2 0 3-.09A9.92 9.92 0 0 1 51.64 95c0-5.75 5.25-11 14.78-14.8 7.41-3 16.81-4.82 27-5.38.77-1.33 1.47-2.71 2.12-4.12a72.14 72.14 0 0 0-10.58-1.93 59 59 0 0 0-21.18 1.39z" fill="url(#ef0021751-f854-4ea4-891d-ecbaeed3ab91)"></path><path d="M97.21 33.49a59.86 59.86 0 0 1-14.13 1.88h-1.41a84.22 84.22 0 0 1-24.27-3.73c-3.26-1-6.46-2.23-9.55-3.43a110 110 0 0 0-11.63-4 59 59 0 0 0-21.15-1.35 71.78 71.78 0 0 0-7.87 1.28 49.49 49.49 0 0 0-2.88 5.5c12.34.09 23.93 2.05 32.72 5.56 9.53 3.79 14.78 9 14.78 14.8S46.57 61 37 64.8c-8.79 3.51-20.38 5.47-32.72 5.56a50.06 50.06 0 0 0 3.45 6.42c10.11 1.81 21.92 1 33.77-2.67 3.13-1 6.26-2.17 9.29-3.34a111.47 111.47 0 0 1 12-4.13 62.46 62.46 0 0 1 22.44-1.45 74.71 74.71 0 0 1 11.6 2.16 50.25 50.25 0 0 0 .3-33.86z" fill="url(#f6e122868-a57f-4b65-af1f-38ece39e36a7)"></path></svg></svg> <!----></g></g> <g data-d="text" transform="translate(2.2749061584472656,100.6773452758789)"><g data-gra="path-name" fill-rule="" class="tp-name iconsvg-namesvg" opacity="1" transform="matrix(1,0,0,1,0,0)"><g transform="scale(1)"><g><path d="M1.93 1.02Q0.99 1.02 0.6 0.2 0.21-0.62 0.21-2.11L0.21-2.11Q0.21-2.84 0.31-5.21L0.31-5.21Q0.34-6.04 0.49-6.3 0.65-6.56 1.3-6.56L1.3-6.56Q1.9-6.56 2.03-6.34 2.16-6.12 2.16-5.31L2.16-5.31Q2.16-4.82 2.11-3.67L2.11-3.67Q2.03-2.81 2.03-1.93L2.03-1.93Q2.03-1.04 2.12-0.7 2.21-0.36 2.5-0.36L2.5-0.36Q3.33-0.36 4.52-2.02 5.7-3.67 6.59-5.67L6.59-5.67Q6.64-7.34 6.98-7.99 7.31-8.64 7.94-8.64L7.94-8.64Q8.51-8.64 8.79-8.28 9.06-7.91 9.06-7.5L9.06-7.5Q9.06-7.24 8.94-7 8.82-6.77 8.8-6.69L8.8-6.69Q8.54-6.25 8.38-5.71 8.23-5.18 8.23-4.27L8.23-4.27Q8.23-2.45 9.35-2.45L9.35-2.45Q9.87-2.45 10.36-2.89 10.86-3.33 11.38-4.37L11.38-4.37 11.66-4.14Q11.09-2.79 10.37-2.17 9.66-1.56 8.9-1.56L8.9-1.56Q8.1-1.56 7.54-2.21 6.98-2.86 6.69-3.98L6.69-3.98Q5.54-1.85 4.31-0.42 3.07 1.02 1.93 1.02L1.93 1.02ZM12.91 0.78Q11.77 0.78 11.25 0.03 10.73-0.73 10.73-1.98L10.73-1.98Q10.73-4.37 12.35-8.38 13.98-12.39 16.01-15.57 18.04-18.74 19-18.74L19-18.74Q19.45-18.74 19.76-18.05 20.07-17.36 20.1-16.66L20.1-16.66Q20.1-15.46 19.13-13.16 18.17-10.86 16.54-8.49 14.92-6.12 13.07-4.66L13.07-4.66Q12.78-3.05 12.78-2.21L12.78-2.21Q12.78-1.3 13.08-0.86 13.38-0.42 13.9-0.42L13.9-0.42Q14.81-0.42 15.84-1.63 16.87-2.84 17.68-4.56L17.68-4.56 18.3-4.22Q17.15-1.85 15.78-0.53 14.4 0.78 12.91 0.78L12.91 0.78ZM13.54-6.27Q14.94-7.78 16.18-9.81 17.42-11.84 18.16-13.67 18.9-15.49 18.9-16.37L18.9-16.37Q18.56-16.37 17.53-14.79 16.5-13.2 15.37-10.84 14.24-8.49 13.54-6.27L13.54-6.27ZM18.77 0.83Q17.7 0.83 17.22 0.13 16.74-0.57 16.74-1.61L16.74-1.61Q16.74-2.71 17.19-3.88 17.65-5.05 18.38-5.83 19.11-6.61 19.86-6.61L19.86-6.61Q20.17-6.61 20.67-6.4L20.67-6.4Q20.83-7.6 21.52-8.38 22.2-9.16 23.45-9.16L23.45-9.16Q24.5-9.16 24.99-8.58 25.48-7.99 25.48-7.05L25.48-7.05Q25.48-6.14 25-4.97 24.52-3.8 23.77-2.63L23.77-2.63Q24.08-2.47 24.5-2.47L24.5-2.47Q25.22-2.47 26.06-2.95 26.89-3.44 27.33-4.43L27.33-4.43 27.8-4.09Q27.26-2.84 26.33-2.19 25.41-1.54 24.42-1.54L24.42-1.54Q23.82-1.54 23.12-1.77L23.12-1.77Q22.15-0.62 21.01 0.1 19.86 0.83 18.77 0.83L18.77 0.83ZM22.88-3.18Q23.53-4.14 23.96-5.18 24.39-6.22 24.39-7.05L24.39-7.05Q24.39-8.2 23.66-8.2L23.66-8.2Q23.32-8.2 22.96-7.86 22.6-7.52 22.36-6.96 22.13-6.4 22.13-5.73L22.13-5.73Q22.13-5.13 22.34-4.36 22.54-3.59 22.88-3.18L22.88-3.18ZM19.71-0.49Q20.17-0.49 20.85-1.02 21.53-1.54 22.2-2.34L22.2-2.34Q20.72-3.64 20.64-6.17L20.64-6.17Q20.33-6.01 19.89-5.21 19.45-4.4 19.13-3.41 18.82-2.42 18.82-1.69L18.82-1.69Q18.82-0.49 19.71-0.49L19.71-0.49ZM28.04 7.29Q27.31 7.29 26.79 6.86 26.27 6.43 26.27 5.62L26.27 5.62Q26.27 4.61 27.03 3.77 27.8 2.94 28.82 2.36 29.83 1.77 31.5 0.99L31.5 0.99Q32.15-0.65 32.54-2.26L32.54-2.26Q30.43 0.39 28.58 0.39L28.58 0.39Q27.54 0.39 26.93-0.34 26.32-1.07 26.32-2.26L26.32-2.26Q26.32-4.01 27.46-5.57 28.61-7.13 30.3-8.08 31.99-9.03 33.53-9.03L33.53-9.03Q34.34-9.03 34.77-8.75 35.19-8.46 35.19-8.04L35.19-8.04Q35.19-7.78 35.04-7.58 34.88-7.37 34.78-7.34L34.78-7.34Q34.52-7.6 34.26-7.71 34-7.81 33.61-7.81L33.61-7.81Q32.33-7.81 31.13-6.86 29.94-5.91 29.19-4.57 28.45-3.23 28.45-2.16L28.45-2.16Q28.45-1.64 28.67-1.37 28.9-1.09 29.26-1.09L29.26-1.09Q29.96-1.09 30.99-2 32.02-2.92 33.03-4.35L33.03-4.35Q33.32-5.81 33.71-6.44 34.1-7.08 34.83-7.08L34.83-7.08Q35.17-7.08 35.59-6.98L35.59-6.98Q35.59-6.3 35.01-4.27 34.44-2.24 33.63-0.05L33.63-0.05Q34.93-0.6 36.14-1.76 37.36-2.92 37.88-4.43L37.88-4.43 38.34-3.96Q37.77-2.32 36.3-0.99 34.83 0.34 33.29 1.04L33.29 1.04Q32.1 3.93 30.81 5.61 29.52 7.29 28.04 7.29L28.04 7.29ZM27.93 6.09Q28.45 6.09 29.29 5.13 30.12 4.17 31 2.21L31 2.21Q29.31 3.05 28.37 3.79 27.44 4.53 27.44 5.36L27.44 5.36Q27.44 5.7 27.58 5.9 27.72 6.09 27.93 6.09L27.93 6.09ZM38.47 7.29Q37.75 7.29 37.23 6.86 36.7 6.43 36.7 5.6L36.7 5.6Q36.7 4.58 37.47 3.75 38.24 2.92 39.26 2.34 40.27 1.77 41.88 1.02L41.88 1.02Q42.33-0.1 43.13-3.05L43.13-3.05Q42.2-1.72 41.3-0.96 40.4-0.21 39.39-0.21L39.39-0.21Q38.53-0.21 37.85-0.73 37.17-1.25 37.17-2.37L37.17-2.37Q37.17-3.25 37.59-4.62 38.01-5.99 38.58-7.02 39.15-8.04 39.57-8.04L39.57-8.04Q39.83-8.04 40.35-7.77 40.87-7.5 40.97-7.18L40.97-7.18Q40.48-6.51 39.89-4.92 39.31-3.33 39.31-2.42L39.31-2.42Q39.31-1.46 40.06-1.46L40.06-1.46Q40.84-1.46 41.75-2.37 42.67-3.28 43.5-4.61L43.5-4.61Q43.55-4.79 43.66-5.47 43.76-6.14 44.12-6.65 44.49-7.16 45.16-7.16L45.16-7.16Q45.27-7.16 46-7.05L46-7.05Q45.97-6.4 45.39-4.22 44.8-2.03 44.02 0.05L44.02 0.05Q45.3-0.47 46.43-1.54 47.56-2.6 48.21-4.35L48.21-4.35 48.65-3.98Q48.11-2.19 46.77-0.96 45.43 0.26 43.68 1.04L43.68 1.04Q42.46 3.93 41.2 5.61 39.93 7.29 38.47 7.29L38.47 7.29ZM38.21 6.33Q38.76 6.33 39.65 5.22 40.53 4.11 41.39 2.16L41.39 2.16Q39.88 2.92 38.8 3.83 37.72 4.74 37.72 5.6L37.72 5.6Q37.72 5.88 37.84 6.1 37.95 6.33 38.21 6.33L38.21 6.33ZM49.51 0.26Q48.94 0.26 48.65-0.04 48.37-0.34 48.37-0.73L48.37-0.73Q48.37-1.17 48.93-1.64 49.49-2.11 50.01-2.11L50.01-2.11Q50.35-2.11 50.61-1.91 50.87-1.72 50.87-1.3L50.87-1.3Q50.87-1.07 50.7-0.69 50.53-0.31 50.23-0.03 49.93 0.26 49.51 0.26L49.51 0.26ZM56.67 1.9Q55.21 1.9 54.43 0.99 53.65 0.08 53.65-1.56L53.65-1.56Q53.65-4.01 55.21-8.11 56.77-12.21 58.78-15.4 60.78-18.59 61.93-18.59L61.93-18.59Q62.42-18.59 62.7-18.04 62.97-17.49 63-16.79L63-16.79Q63-15.54 62.14-13.52 61.28-11.51 59.89-9.66 58.49-7.81 56.96-6.92L56.96-6.92Q56.59-6.25 56.19-4.7 55.79-3.15 55.79-1.72L55.79-1.72Q55.79-0.57 56.11 0.12 56.44 0.81 57.14 0.81L57.14 0.81Q57.82 0.81 58.6 0.2 59.38-0.42 59.87-1.33L59.87-1.33Q58.94-1.85 58.43-2.77 57.92-3.7 57.92-4.76L57.92-4.76Q57.92-6.01 58.6-6.81 59.27-7.6 60.29-7.6L60.29-7.6Q61.17-7.6 61.69-6.94 62.22-6.27 62.22-5L62.22-5Q62.22-3.41 61.43-1.72L61.43-1.72 61.9-1.69Q63.1-1.69 63.88-2.53 64.66-3.36 65.26-4.58L65.26-4.58 65.65-4.03Q64.95-2.42 64-1.65 63.05-0.89 61.56-0.89L61.56-0.89Q61.2-0.89 61.02-0.91L61.02-0.91Q60.21 0.36 59.12 1.13 58.02 1.9 56.67 1.9L56.67 1.9ZM57.45-8.56Q58.52-9.53 59.51-11.08 60.5-12.63 61.12-14.07 61.75-15.51 61.77-16.14L61.77-16.14Q61.43-16.01 60.6-14.84 59.77-13.67 58.88-11.96 58-10.26 57.45-8.56L57.45-8.56ZM60.32-2.19Q60.78-3.25 60.78-4.4L60.78-4.4Q60.78-5.28 60.58-5.75 60.37-6.22 60.03-6.22L60.03-6.22Q59.69-6.22 59.44-5.75 59.2-5.28 59.2-4.63L59.2-4.63Q59.2-3.98 59.47-3.29 59.74-2.6 60.32-2.19L60.32-2.19ZM66.82 0.78Q65.68 0.78 65.16 0.03 64.64-0.73 64.64-1.98L64.64-1.98Q64.64-4.37 66.26-8.38 67.89-12.39 69.92-15.57 71.95-18.74 72.91-18.74L72.91-18.74Q73.36-18.74 73.67-18.05 73.98-17.36 74.01-16.66L74.01-16.66Q74.01-15.46 73.04-13.16 72.08-10.86 70.45-8.49 68.83-6.12 66.98-4.66L66.98-4.66Q66.69-3.05 66.69-2.21L66.69-2.21Q66.69-1.3 66.99-0.86 67.29-0.42 67.81-0.42L67.81-0.42Q68.72-0.42 69.75-1.63 70.78-2.84 71.59-4.56L71.59-4.56 72.21-4.22Q71.07-1.85 69.69-0.53 68.31 0.78 66.82 0.78L66.82 0.78ZM67.45-6.27Q68.85-7.78 70.09-9.81 71.33-11.84 72.07-13.67 72.81-15.49 72.81-16.37L72.81-16.37Q72.47-16.37 71.44-14.79 70.42-13.2 69.28-10.84 68.15-8.49 67.45-6.27L67.45-6.27ZM72.68 0.83Q71.61 0.83 71.13 0.13 70.65-0.57 70.65-1.61L70.65-1.61Q70.65-2.71 71.11-3.88 71.56-5.05 72.29-5.83 73.02-6.61 73.77-6.61L73.77-6.61Q74.09-6.61 74.58-6.4L74.58-6.4Q74.74-7.6 75.43-8.38 76.12-9.16 77.37-9.16L77.37-9.16Q78.41-9.16 78.9-8.58 79.4-7.99 79.4-7.05L79.4-7.05Q79.4-6.14 78.91-4.97 78.43-3.8 77.68-2.63L77.68-2.63Q77.99-2.47 78.41-2.47L78.41-2.47Q79.14-2.47 79.97-2.95 80.8-3.44 81.24-4.43L81.24-4.43 81.71-4.09Q81.17-2.84 80.24-2.19 79.32-1.54 78.33-1.54L78.33-1.54Q77.73-1.54 77.03-1.77L77.03-1.77Q76.06-0.62 74.92 0.1 73.77 0.83 72.68 0.83L72.68 0.83ZM76.79-3.18Q77.44-4.14 77.87-5.18 78.3-6.22 78.3-7.05L78.3-7.05Q78.3-8.2 77.57-8.2L77.57-8.2Q77.24-8.2 76.87-7.86 76.51-7.52 76.27-6.96 76.04-6.4 76.04-5.73L76.04-5.73Q76.04-5.13 76.25-4.36 76.45-3.59 76.79-3.18L76.79-3.18ZM73.62-0.49Q74.09-0.49 74.76-1.02 75.44-1.54 76.12-2.34L76.12-2.34Q74.63-3.64 74.55-6.17L74.55-6.17Q74.24-6.01 73.8-5.21 73.36-4.4 73.04-3.41 72.73-2.42 72.73-1.69L72.73-1.69Q72.73-0.49 73.62-0.49L73.62-0.49ZM81.95 7.29Q81.22 7.29 80.7 6.86 80.18 6.43 80.18 5.62L80.18 5.62Q80.18 4.61 80.95 3.77 81.71 2.94 82.73 2.36 83.74 1.77 85.41 0.99L85.41 0.99Q86.06-0.65 86.45-2.26L86.45-2.26Q84.34 0.39 82.49 0.39L82.49 0.39Q81.45 0.39 80.84-0.34 80.23-1.07 80.23-2.26L80.23-2.26Q80.23-4.01 81.37-5.57 82.52-7.13 84.21-8.08 85.9-9.03 87.44-9.03L87.44-9.03Q88.25-9.03 88.68-8.75 89.11-8.46 89.11-8.04L89.11-8.04Q89.11-7.78 88.95-7.58 88.79-7.37 88.69-7.34L88.69-7.34Q88.43-7.6 88.17-7.71 87.91-7.81 87.52-7.81L87.52-7.81Q86.24-7.81 85.05-6.86 83.85-5.91 83.11-4.57 82.36-3.23 82.36-2.16L82.36-2.16Q82.36-1.64 82.59-1.37 82.81-1.09 83.17-1.09L83.17-1.09Q83.87-1.09 84.9-2 85.93-2.92 86.95-4.35L86.95-4.35Q87.23-5.81 87.62-6.44 88.01-7.08 88.74-7.08L88.74-7.08Q89.08-7.08 89.5-6.98L89.5-6.98Q89.5-6.3 88.92-4.27 88.35-2.24 87.54-0.05L87.54-0.05Q88.85-0.6 90.06-1.76 91.27-2.92 91.79-4.43L91.79-4.43 92.26-3.96Q91.68-2.32 90.21-0.99 88.74 0.34 87.21 1.04L87.21 1.04Q86.01 3.93 84.72 5.61 83.43 7.29 81.95 7.29L81.95 7.29ZM81.84 6.09Q82.36 6.09 83.2 5.13 84.03 4.17 84.92 2.21L84.92 2.21Q83.22 3.05 82.29 3.79 81.35 4.53 81.35 5.36L81.35 5.36Q81.35 5.7 81.49 5.9 81.64 6.09 81.84 6.09L81.84 6.09Z" transform="translate(-0.21000000834465027, 18.739999771118164)"></path></g> <!----> <!----> <!----> <!----> <!----> <!----> <!----></g></g> <!----></g></g></g></mask><defs v-gra="od"></defs></svg>