<svg data-v-6805eed4="" version="1.0" xmlns="http://www.w3.org/2000/svg" xmlns:xlink="http://www.w3.org/1999/xlink" width="100%" height="100%" viewBox="0 0 340.000000 250.000000" preserveAspectRatio="xMidYMid meet" color-interpolation-filters="sRGB" style="margin: auto;"> <rect data-v-6805eed4="" x="0" y="0" width="100%" height="100%" fill="#ffffff" fill-opacity="0" class="background"></rect> <rect data-v-6805eed4="" x="0" y="0" width="100%" height="100%" fill="url(#watermark)" fill-opacity="1" class="watermarklayer"></rect> <g data-v-6805eed4="" fill="#7f79f7" class="icon-text-wrapper icon-svg-group iconsvg" transform="translate(47.839996337890625,92.11319732666016)"><g class="iconsvg-imagesvg" transform="matrix(1,0,0,1,0,0)" opacity="1"><g><rect fill="#7f79f7" fill-opacity="0" stroke-width="2" x="0" y="0" width="59.99999999999999" height="65.7736072438666" class="image-rect"></rect> <svg filter="url(#colors654352678)" x="0" y="0" width="59.99999999999999" height="65.7736072438666" filtersec="colorsf3082902728" class="image-svg-svg primary" style="overflow: visible;"><svg fill="#000000" xmlns="http://www.w3.org/2000/svg" xmlns:xlink="http://www.w3.org/1999/xlink" version="1.1" x="0px" y="0px" viewBox="9.000000953674316 5.000000953674316 82.0999984741211 90.00000762939453" enable-background="new 0 0 100 100" xml:space="preserve"><g><circle cx="78.6" cy="61.4" r="9.1"></circle><circle cx="51.7" cy="50.7" r="13.6"></circle><circle cx="57.8" cy="80.8" r="14.2"></circle><circle cx="23.2" cy="66.1" r="14.2"></circle><circle cx="29.3" cy="37.3" r="8.8"></circle><circle cx="50.6" cy="18.2" r="13.2"></circle><circle cx="79.6" cy="30.7" r="11.5"></circle></g></svg></svg> <defs><filter id="colors654352678"><feColorMatrix type="matrix" values="0 0 0 0 0.19921875  0 0 0 0 0.19921875  0 0 0 0 0.19921875  0 0 0 1 0" class="icon-fecolormatrix"></feColorMatrix></filter> <filter id="colorsf3082902728"><feColorMatrix type="matrix" values="0 0 0 0 0.99609375  0 0 0 0 0.99609375  0 0 0 0 0.99609375  0 0 0 1 0" class="icon-fecolormatrix"></feColorMatrix></filter> <filter id="colorsb1492317282"><feColorMatrix type="matrix" values="0 0 0 0 0  0 0 0 0 0  0 0 0 0 0  0 0 0 1 0" class="icon-fecolormatrix"></feColorMatrix></filter></defs></g></g> <g transform="translate(67,9.843896865844727)"><g data-gra="path-name" fill-rule="" class="tp-name iconsvg-namesvg" transform="matrix(1,0,0,1,0,0)" opacity="1"><g transform="scale(1)"><g><path d="M15.54-18.46L10.54-7.99 5.51-18.46 0.54-18.46 9.42 0 11.66 0 20.5-18.46ZM23.26 0L28.02 0 28.02-25.64 23.26-25.64ZM41.55-18.8C35.97-18.8 31.45-14.55 31.45-9.25 31.45-3.98 35.97 0.27 41.55 0.27 47.13 0.27 51.65-3.98 51.65-9.25 51.65-14.55 47.13-18.8 41.55-18.8ZM41.55-3.98C38.56-3.98 36.11-6.36 36.11-9.25 36.11-12.17 38.56-14.55 41.55-14.55 44.57-14.55 46.99-12.17 46.99-9.25 46.99-6.36 44.57-3.98 41.55-3.98ZM68.92-18.46L68.92-17.41C67.39-18.29 65.49-18.8 63.55-18.8 58.38-18.8 54.2-15.2 54.2-9.69 54.2-4.22 58.38-0.51 63.55-0.51 65.45-0.51 67.22-0.99 68.72-1.8 68.58 1.09 65.69 2.79 62.87 2.79 60.32 2.79 58.62 2.24 56.61 1.7L55.69 5.2C58.55 6.02 59.43 6.43 63.99 6.43 70.99 6.43 73.65 1.22 73.65-3.54L73.65-18.46ZM58.86-9.66C58.86-12.44 61.2-14.55 64.36-14.55 66.17-14.55 67.76-14.01 68.92-13.06L68.92-6.26C67.8-5.3 66.17-4.76 64.36-4.76 61.2-4.76 58.86-6.73 58.86-9.66ZM91.33-18.46L86.57-5.92 86.23-5.92 81.36-18.46 76.4-18.46 83.61 0 84.02 0C82.96 2.14 80.68 2.79 78.13 2.79L77.62 2.79 77.05 6.36C77.56 6.39 78.1 6.39 78.71 6.39 82.59 6.39 86.94 5.17 88.57 0.99L96.19-18.46ZM101.05-2.48C101.05-4.01 99.83-5.24 98.33-5.24 96.83-5.24 95.64-4.01 95.64-2.48 95.64-0.92 96.83 0.31 98.33 0.31 99.83 0.31 101.05-0.92 101.05-2.48ZM114.62-18.8C112.64-18.8 110.81-18.26 109.24-17.41L109.24-25.64 104.52-25.64 104.52 0 109.24 0 109.24-1.16C110.77-0.24 112.68 0.31 114.62 0.31 119.78 0.31 123.97-3.57 123.97-9.25 123.97-15.03 119.78-18.8 114.62-18.8ZM113.77-3.98C112-3.98 110.4-4.59 109.24-5.58L109.24-12.99C110.4-13.94 111.96-14.55 113.77-14.55 116.96-14.55 119.31-12.27 119.31-9.25 119.31-6.12 116.96-3.98 113.77-3.98ZM127.47 0L132.23 0 132.23-25.64 127.47-25.64ZM145.76-18.8C140.19-18.8 135.66-14.55 135.66-9.25 135.66-3.98 140.19 0.27 145.76 0.27 151.34 0.27 155.86-3.98 155.86-9.25 155.86-14.55 151.34-18.8 145.76-18.8ZM145.76-3.98C142.77-3.98 140.32-6.36 140.32-9.25 140.32-12.17 142.77-14.55 145.76-14.55 148.79-14.55 151.2-12.17 151.2-9.25 151.2-6.36 148.79-3.98 145.76-3.98ZM173.13-18.46L173.13-17.41C171.6-18.29 169.7-18.8 167.76-18.8 162.59-18.8 158.41-15.2 158.41-9.69 158.41-4.22 162.59-0.51 167.76-0.51 169.66-0.51 171.43-0.99 172.93-1.8 172.79 1.09 169.9 2.79 167.08 2.79 164.53 2.79 162.83 2.24 160.82 1.7L159.91 5.2C162.76 6.02 163.65 6.43 168.2 6.43 175.21 6.43 177.86 1.22 177.86-3.54L177.86-18.46ZM163.07-9.66C163.07-12.44 165.41-14.55 168.58-14.55 170.38-14.55 171.98-14.01 173.13-13.06L173.13-6.26C172.01-5.3 170.38-4.76 168.58-4.76 165.41-4.76 163.07-6.73 163.07-9.66Z" transform="translate(-0.5400000214576721, 25.639999389648438)"></path></g> <!----> <!----> <!----> <!----> <!----> <!----> <!----></g></g> <g data-gra="path-slogan" fill-rule="" class="tp-slogan iconsvg-slogansvg" fill="#333333" transform="matrix(1,0,0,1,1.0450057983398438,38.06999969482422)" opacity="1"><rect width="0"></rect> <rect x="178.22999572753906" width="0"></rect> <g transform="translate(0,0)"><g transform="scale(1)"><path d="M0-7.73L2.48 0L3.62 0L6.07-7.73L5.07-7.73L3.83-3.56C3.70-3.10 3.58-2.67 3.47-2.28C3.36-1.88 3.23-1.46 3.09-1.00L3.04-1.00C2.89-1.46 2.76-1.88 2.66-2.28C2.55-2.67 2.43-3.10 2.29-3.56L1.05-7.73ZM7.00-7.73L7.00 0L11.36 0L11.36-0.84L7.98-0.84L7.98-7.73ZM15.14 0.14C15.63 0.14 16.08 0.05 16.48-0.14C16.89-0.33 17.24-0.60 17.53-0.95C17.83-1.30 18.05-1.72 18.21-2.22C18.38-2.72 18.46-3.28 18.46-3.90C18.46-4.52 18.38-5.07 18.21-5.56C18.05-6.05 17.83-6.47 17.53-6.81C17.24-7.15 16.89-7.41 16.48-7.60C16.08-7.78 15.63-7.88 15.14-7.88C14.66-7.88 14.21-7.79 13.80-7.60C13.40-7.42 13.05-7.16 12.76-6.82C12.47-6.48 12.24-6.06 12.08-5.57C11.92-5.08 11.84-4.52 11.84-3.90C11.84-3.28 11.92-2.72 12.08-2.22C12.24-1.72 12.47-1.30 12.76-0.95C13.05-0.60 13.40-0.33 13.80-0.14C14.21 0.05 14.66 0.14 15.14 0.14ZM15.14-0.72C14.80-0.72 14.48-0.79 14.21-0.94C13.93-1.09 13.69-1.31 13.49-1.59C13.29-1.86 13.13-2.20 13.02-2.59C12.91-2.98 12.86-3.42 12.86-3.90C12.86-4.38 12.91-4.81 13.02-5.20C13.13-5.58 13.29-5.91 13.49-6.18C13.69-6.45 13.93-6.65 14.21-6.80C14.48-6.94 14.80-7.02 15.14-7.02C15.49-7.02 15.80-6.94 16.08-6.80C16.36-6.65 16.60-6.45 16.80-6.18C17.00-5.91 17.16-5.58 17.27-5.20C17.38-4.81 17.43-4.38 17.43-3.90C17.43-3.42 17.38-2.98 17.27-2.59C17.16-2.20 17.00-1.86 16.80-1.59C16.60-1.31 16.36-1.09 16.08-0.94C15.80-0.79 15.49-0.72 15.14-0.72ZM19.54-3.87C19.54-3.24 19.62-2.67 19.80-2.18C19.97-1.68 20.21-1.26 20.52-0.91C20.82-0.57 21.19-0.31 21.61-0.13C22.04 0.05 22.50 0.14 23.02 0.14C23.53 0.14 24.00 0.06 24.41-0.11C24.82-0.28 25.16-0.50 25.41-0.75L25.41-4.01L22.87-4.01L22.87-3.20L24.51-3.20L24.51-1.18C24.36-1.04 24.15-0.93 23.91-0.84C23.66-0.76 23.40-0.72 23.12-0.72C22.70-0.72 22.34-0.79 22.02-0.94C21.70-1.09 21.43-1.30 21.22-1.58C21.00-1.85 20.84-2.19 20.72-2.58C20.61-2.97 20.55-3.40 20.55-3.89C20.55-4.37 20.61-4.80 20.73-5.19C20.86-5.57 21.03-5.90 21.25-6.17C21.47-6.44 21.73-6.65 22.05-6.80C22.36-6.94 22.72-7.02 23.11-7.02C23.50-7.02 23.83-6.95 24.08-6.81C24.34-6.67 24.56-6.50 24.76-6.30L25.31-6.92C25.09-7.16 24.79-7.37 24.44-7.58C24.08-7.78 23.63-7.88 23.10-7.88C22.58-7.88 22.10-7.78 21.67-7.60C21.24-7.41 20.86-7.15 20.55-6.80C20.23-6.46 19.98-6.04 19.80-5.54C19.63-5.05 19.54-4.49 19.54-3.87ZM30.98-6.91L30.98 0L31.97 0L31.97-6.91L34.30-6.91L34.30-7.73L28.64-7.73L28.64-6.91ZM35.56-7.73L35.56 0L36.54 0L36.54-3.64L40.14-3.64L40.14 0L41.13 0L41.13-7.73L40.14-7.73L40.14-4.49L36.54-4.49L36.54-7.73ZM43.11-7.73L43.11 0L47.69 0L47.69-0.84L44.09-0.84L44.09-3.64L47.03-3.64L47.03-4.48L44.09-4.48L44.09-6.91L47.57-6.91L47.57-7.73ZM51.44-7.73L51.44 0L52.42 0L52.42-3.64L56.02-3.64L56.02 0L57.01 0L57.01-7.73L56.02-7.73L56.02-4.49L52.42-4.49L52.42-7.73ZM59.00-7.73L59.00 0L63.57 0L63.57-0.84L59.98-0.84L59.98-3.64L62.91-3.64L62.91-4.48L59.98-4.48L59.98-6.91L63.45-6.91L63.45-7.73ZM65.08-7.73L65.08 0L69.44 0L69.44-0.84L66.06-0.84L66.06-7.73ZM70.67-7.73L70.67 0L75.04 0L75.04-0.84L71.65-0.84L71.65-7.73ZM81.37 0.14C81.86 0.14 82.31 0.05 82.71-0.14C83.11-0.33 83.46-0.60 83.76-0.95C84.05-1.30 84.28-1.72 84.44-2.22C84.60-2.72 84.68-3.28 84.68-3.90C84.68-4.52 84.60-5.07 84.44-5.56C84.28-6.05 84.05-6.47 83.76-6.81C83.46-7.15 83.11-7.41 82.71-7.60C82.31-7.78 81.86-7.88 81.37-7.88C80.88-7.88 80.44-7.79 80.03-7.60C79.63-7.42 79.28-7.16 78.99-6.82C78.70-6.48 78.47-6.06 78.31-5.57C78.15-5.08 78.07-4.52 78.07-3.90C78.07-3.28 78.15-2.72 78.31-2.22C78.47-1.72 78.70-1.30 78.99-0.95C79.28-0.60 79.63-0.33 80.03-0.14C80.44 0.05 80.88 0.14 81.37 0.14ZM81.37-0.72C81.03-0.72 80.71-0.79 80.43-0.94C80.16-1.09 79.92-1.31 79.72-1.59C79.51-1.86 79.36-2.20 79.25-2.59C79.14-2.98 79.08-3.42 79.08-3.90C79.08-4.38 79.14-4.81 79.25-5.20C79.36-5.58 79.51-5.91 79.72-6.18C79.92-6.45 80.16-6.65 80.43-6.80C80.71-6.94 81.03-7.02 81.37-7.02C81.72-7.02 82.03-6.94 82.31-6.80C82.59-6.65 82.83-6.45 83.03-6.18C83.23-5.91 83.38-5.58 83.49-5.20C83.60-4.81 83.66-4.38 83.66-3.90C83.66-3.42 83.60-2.98 83.49-2.59C83.38-2.20 83.23-1.86 83.03-1.59C82.83-1.31 82.59-1.09 82.31-0.94C82.03-0.79 81.72-0.72 81.37-0.72ZM86.18-7.73L86.18-3.20C86.18-2.57 86.25-2.05 86.39-1.63C86.53-1.20 86.73-0.86 86.97-0.60C87.22-0.33 87.52-0.14 87.86-0.03C88.20 0.08 88.57 0.14 88.96 0.14C89.35 0.14 89.72 0.08 90.06-0.03C90.40-0.14 90.69-0.33 90.94-0.60C91.18-0.86 91.38-1.20 91.52-1.63C91.66-2.05 91.73-2.57 91.73-3.20L91.73-7.73L90.79-7.73L90.79-3.17C90.79-2.71 90.74-2.32 90.65-2.00C90.55-1.69 90.42-1.44 90.26-1.25C90.09-1.06 89.90-0.93 89.68-0.84C89.46-0.76 89.22-0.72 88.96-0.72C88.71-0.72 88.47-0.76 88.25-0.84C88.03-0.93 87.84-1.06 87.68-1.25C87.52-1.44 87.39-1.69 87.30-2.00C87.20-2.32 87.16-2.71 87.16-3.17L87.16-7.73ZM95.29-6.91L95.29 0L96.28 0L96.28-6.91L98.61-6.91L98.61-7.73L92.95-7.73L92.95-6.91ZM104.97 0.14C105.46 0.14 105.91 0.05 106.31-0.14C106.72-0.33 107.07-0.60 107.36-0.95C107.66-1.30 107.88-1.72 108.04-2.22C108.21-2.72 108.29-3.28 108.29-3.90C108.29-4.52 108.21-5.07 108.04-5.56C107.88-6.05 107.66-6.47 107.36-6.81C107.07-7.15 106.72-7.41 106.31-7.60C105.91-7.78 105.46-7.88 104.97-7.88C104.49-7.88 104.04-7.79 103.63-7.60C103.23-7.42 102.88-7.16 102.59-6.82C102.30-6.48 102.07-6.06 101.91-5.57C101.75-5.08 101.67-4.52 101.67-3.90C101.67-3.28 101.75-2.72 101.91-2.22C102.07-1.72 102.30-1.30 102.59-0.95C102.88-0.60 103.23-0.33 103.63-0.14C104.04 0.05 104.49 0.14 104.97 0.14ZM104.97-0.72C104.63-0.72 104.31-0.79 104.04-0.94C103.76-1.09 103.52-1.31 103.32-1.59C103.12-1.86 102.96-2.20 102.85-2.59C102.74-2.98 102.69-3.42 102.69-3.90C102.69-4.38 102.74-4.81 102.85-5.20C102.96-5.58 103.12-5.91 103.32-6.18C103.52-6.45 103.76-6.65 104.04-6.80C104.31-6.94 104.63-7.02 104.97-7.02C105.32-7.02 105.63-6.94 105.91-6.80C106.19-6.65 106.43-6.45 106.63-6.18C106.83-5.91 106.98-5.58 107.09-5.20C107.21-4.81 107.26-4.38 107.26-3.90C107.26-3.42 107.21-2.98 107.09-2.59C106.98-2.20 106.83-1.86 106.63-1.59C106.43-1.31 106.19-1.09 105.91-0.94C105.63-0.79 105.32-0.72 104.97-0.72ZM109.81-7.73L109.81 0L110.79 0L110.79-3.47L113.74-3.47L113.74-4.29L110.79-4.29L110.79-6.91L114.27-6.91L114.27-7.73ZM119.00-2.99L119.00 0L119.99 0L119.99-2.99L122.32-7.73L121.29-7.73L120.30-5.55C120.18-5.27 120.06-4.99 119.92-4.72C119.79-4.44 119.66-4.16 119.52-3.87L119.48-3.87C119.34-4.16 119.22-4.44 119.10-4.72C118.98-4.99 118.86-5.27 118.73-5.55L117.73-7.73L116.68-7.73ZM125.92 0.14C126.41 0.14 126.85 0.05 127.26-0.14C127.66-0.33 128.01-0.60 128.31-0.95C128.60-1.30 128.83-1.72 128.99-2.22C129.15-2.72 129.23-3.28 129.23-3.90C129.23-4.52 129.15-5.07 128.99-5.56C128.83-6.05 128.60-6.47 128.31-6.81C128.01-7.15 127.66-7.41 127.26-7.60C126.85-7.78 126.41-7.88 125.92-7.88C125.43-7.88 124.99-7.79 124.58-7.60C124.18-7.42 123.83-7.16 123.54-6.82C123.25-6.48 123.02-6.06 122.86-5.57C122.70-5.08 122.62-4.52 122.62-3.90C122.62-3.28 122.70-2.72 122.86-2.22C123.02-1.72 123.25-1.30 123.54-0.95C123.83-0.60 124.18-0.33 124.58-0.14C124.99 0.05 125.43 0.14 125.92 0.14ZM125.92-0.72C125.58-0.72 125.26-0.79 124.98-0.94C124.70-1.09 124.46-1.31 124.26-1.59C124.06-1.86 123.91-2.20 123.80-2.59C123.69-2.98 123.63-3.42 123.63-3.90C123.63-4.38 123.69-4.81 123.80-5.20C123.91-5.58 124.06-5.91 124.26-6.18C124.46-6.45 124.70-6.65 124.98-6.80C125.26-6.94 125.58-7.02 125.92-7.02C126.27-7.02 126.58-6.94 126.86-6.80C127.14-6.65 127.38-6.45 127.58-6.18C127.78-5.91 127.93-5.58 128.04-5.20C128.15-4.81 128.21-4.38 128.21-3.90C128.21-3.42 128.15-2.98 128.04-2.59C127.93-2.20 127.78-1.86 127.58-1.59C127.38-1.31 127.14-1.09 126.86-0.94C126.58-0.79 126.27-0.72 125.92-0.72ZM130.73-7.73L130.73-3.20C130.73-2.57 130.80-2.05 130.94-1.63C131.08-1.20 131.28-0.86 131.52-0.60C131.77-0.33 132.07-0.14 132.41-0.03C132.75 0.08 133.12 0.14 133.51 0.14C133.90 0.14 134.27 0.08 134.61-0.03C134.94-0.14 135.24-0.33 135.49-0.60C135.73-0.86 135.93-1.20 136.07-1.63C136.21-2.05 136.28-2.57 136.28-3.20L136.28-7.73L135.34-7.73L135.34-3.17C135.34-2.71 135.29-2.32 135.20-2.00C135.10-1.69 134.97-1.44 134.81-1.25C134.64-1.06 134.45-0.93 134.23-0.84C134.01-0.76 133.77-0.72 133.51-0.72C133.26-0.72 133.02-0.76 132.80-0.84C132.58-0.93 132.39-1.06 132.23-1.25C132.07-1.44 131.94-1.69 131.85-2.00C131.75-2.32 131.71-2.71 131.71-3.17L131.71-7.73ZM139.21-4.07L139.21-6.94L140.51-6.94C141.12-6.94 141.58-6.84 141.90-6.64C142.22-6.43 142.38-6.08 142.38-5.56C142.38-5.06 142.22-4.69 141.90-4.44C141.58-4.19 141.12-4.07 140.51-4.07ZM142.48 0L143.59 0L141.63-3.37C142.16-3.51 142.58-3.75 142.89-4.11C143.21-4.48 143.36-4.96 143.36-5.56C143.36-5.97 143.30-6.30 143.16-6.58C143.03-6.85 142.84-7.08 142.60-7.25C142.36-7.42 142.08-7.55 141.74-7.62C141.41-7.70 141.04-7.73 140.65-7.73L138.23-7.73L138.23 0L139.21 0L139.21-3.27L140.62-3.27ZM147.20-7.73L147.20 0L149.66 0C150.10 0 150.49-0.05 150.85-0.14C151.22-0.24 151.53-0.38 151.79-0.57C152.05-0.75 152.25-0.99 152.39-1.27C152.53-1.56 152.60-1.89 152.60-2.26C152.60-2.80 152.44-3.22 152.13-3.53C151.81-3.83 151.37-4.03 150.81-4.11L150.81-4.16C151.26-4.28 151.60-4.49 151.82-4.80C152.04-5.11 152.15-5.46 152.15-5.85C152.15-6.19 152.09-6.47 151.96-6.71C151.83-6.95 151.65-7.15 151.41-7.30C151.18-7.45 150.90-7.56 150.58-7.63C150.25-7.70 149.89-7.73 149.50-7.73ZM149.32-4.43L148.18-4.43L148.18-6.96L149.37-6.96C149.97-6.96 150.43-6.86 150.73-6.68C151.03-6.49 151.18-6.19 151.18-5.77C151.18-5.33 151.04-5.00 150.75-4.78C150.47-4.55 149.99-4.43 149.32-4.43ZM149.52-0.78L148.18-0.78L148.18-3.70L149.52-3.70C150.21-3.70 150.73-3.59 151.09-3.37C151.45-3.14 151.63-2.79 151.63-2.31C151.63-1.78 151.45-1.40 151.08-1.15C150.71-0.90 150.19-0.78 149.52-0.78ZM154.00-7.73L154.00 0L158.36 0L158.36-0.84L154.98-0.84L154.98-7.73ZM162.14 0.14C162.63 0.14 163.08 0.05 163.48-0.14C163.89-0.33 164.23-0.60 164.53-0.95C164.82-1.30 165.05-1.72 165.21-2.22C165.37-2.72 165.46-3.28 165.46-3.90C165.46-4.52 165.37-5.07 165.21-5.56C165.05-6.05 164.82-6.47 164.53-6.81C164.23-7.15 163.89-7.41 163.48-7.60C163.08-7.78 162.63-7.88 162.14-7.88C161.65-7.88 161.21-7.79 160.80-7.60C160.40-7.42 160.05-7.16 159.76-6.82C159.47-6.48 159.24-6.06 159.08-5.57C158.92-5.08 158.84-4.52 158.84-3.90C158.84-3.28 158.92-2.72 159.08-2.22C159.24-1.72 159.47-1.30 159.76-0.95C160.05-0.60 160.40-0.33 160.80-0.14C161.21 0.05 161.65 0.14 162.14 0.14ZM162.14-0.72C161.80-0.72 161.48-0.79 161.20-0.94C160.93-1.09 160.69-1.31 160.49-1.59C160.29-1.86 160.13-2.20 160.02-2.59C159.91-2.98 159.85-3.42 159.85-3.90C159.85-4.38 159.91-4.81 160.02-5.20C160.13-5.58 160.29-5.91 160.49-6.18C160.69-6.45 160.93-6.65 161.20-6.80C161.48-6.94 161.80-7.02 162.14-7.02C162.49-7.02 162.80-6.94 163.08-6.80C163.36-6.65 163.60-6.45 163.80-6.18C164.00-5.91 164.15-5.58 164.26-5.20C164.37-4.81 164.43-4.38 164.43-3.90C164.43-3.42 164.37-2.98 164.26-2.59C164.15-2.20 164.00-1.86 163.80-1.59C163.60-1.31 163.36-1.09 163.08-0.94C162.80-0.79 162.49-0.72 162.14-0.72ZM166.54-3.87C166.54-3.24 166.62-2.67 166.80-2.18C166.97-1.68 167.21-1.26 167.51-0.91C167.82-0.57 168.19-0.31 168.61-0.13C169.04 0.05 169.50 0.14 170.01 0.14C170.53 0.14 171.00 0.06 171.41-0.11C171.82-0.28 172.16-0.50 172.41-0.75L172.41-4.01L169.87-4.01L169.87-3.20L171.51-3.20L171.51-1.18C171.35-1.04 171.15-0.93 170.90-0.84C170.66-0.76 170.40-0.72 170.12-0.72C169.70-0.72 169.34-0.79 169.02-0.94C168.70-1.09 168.43-1.30 168.22-1.58C168.00-1.85 167.84-2.19 167.72-2.58C167.61-2.97 167.55-3.40 167.55-3.89C167.55-4.37 167.61-4.80 167.73-5.19C167.85-5.57 168.03-5.90 168.25-6.17C168.47-6.44 168.73-6.65 169.05-6.80C169.36-6.94 169.72-7.02 170.11-7.02C170.50-7.02 170.83-6.95 171.08-6.81C171.34-6.67 171.56-6.50 171.76-6.30L172.31-6.92C172.09-7.16 171.79-7.37 171.43-7.58C171.08-7.78 170.63-7.88 170.10-7.88C169.58-7.88 169.10-7.78 168.67-7.60C168.24-7.41 167.86-7.15 167.54-6.80C167.23-6.46 166.98-6.04 166.80-5.54C166.62-5.05 166.54-4.49 166.54-3.87ZM173.83-0.59C173.83-0.38 173.90-0.20 174.04-0.06C174.17 0.07 174.34 0.14 174.54 0.14C174.73 0.14 174.89 0.07 175.03-0.06C175.16-0.20 175.23-0.38 175.23-0.59C175.23-0.82 175.16-1.00 175.03-1.14C174.89-1.28 174.73-1.34 174.54-1.34C174.34-1.34 174.17-1.28 174.04-1.14C173.90-1.00 173.83-0.82 173.83-0.59Z" transform="translate(0, 7.875810571821576)"></path></g></g></g></g></g><defs v-gra="od"></defs></svg>