<svg data-v-6805eed4="" version="1.0" xmlns="http://www.w3.org/2000/svg" xmlns:xlink="http://www.w3.org/1999/xlink" width="100%" height="100%" viewBox="0 0 340.000000 250.000000" preserveAspectRatio="xMidYMid meet" color-interpolation-filters="sRGB" style="margin: auto;"> <rect data-v-6805eed4="" x="0" y="0" width="100%" height="100%" fill="#fff" fill-opacity="0" class="background"></rect> <rect data-v-6805eed4="" x="0" y="0" width="100%" height="100%" fill="url(#watermark)" fill-opacity="1" class="watermarklayer"></rect> <g data-v-6805eed4="" fill="#333" class="icon-text-wrapper icon-svg-group iconsvg" transform="translate(47.089996337890625,91.83030319213867)"><g class="iconsvg-imagesvg" transform="matrix(1,0,0,1,0,0)" opacity="1"><g><rect fill="#333" fill-opacity="0" stroke-width="2" x="0" y="0" width="60" height="66.33939233116625" class="image-rect"></rect> <svg x="0" y="0" width="60" height="66.33939233116625" filtersec="colorsb5607897430" class="image-svg-svg primary" style="overflow: visible;"><svg xmlns="http://www.w3.org/2000/svg" viewBox="-0.0000019073486328125 -0.2357761561870575 90.87000274658203 100.4715347290039"><title>资源 298</title><g fill-rule="evenodd"><path d="M27 71a2.38 2.38 0 0 0 4.76.09V5.56a5.56 5.56 0 1 1 11.11 0v88.88a5.56 5.56 0 1 1-11.11 0V83.73a2.38 2.38 0 0 0-4.76-.09v-.31a5.56 5.56 0 1 1-11.11 0V52.38a2.38 2.38 0 0 0-4.76-.09v15.57a5.56 5.56 0 0 1-11.13 0V32.14a5.56 5.56 0 0 1 11.11 0v.4a2.38 2.38 0 0 0 4.76.09v-16a5.56 5.56 0 1 1 11.11 0z" fill="#333"></path><path d="M63.89 29a2.38 2.38 0 0 0-4.76-.09v65.53a5.56 5.56 0 1 1-11.11 0V5.56a5.56 5.56 0 1 1 11.11 0v10.71a2.38 2.38 0 0 0 4.76.09v.31a5.56 5.56 0 1 1 11.11 0v30.95a2.38 2.38 0 0 0 4.76.09V32.14a5.56 5.56 0 0 1 11.11 0v35.72a5.56 5.56 0 0 1-11.11 0v-.4a2.38 2.38 0 0 0-4.76-.09v16a5.56 5.56 0 1 1-11.11 0z" fill="#eb6621"></path></g></svg></svg> <!----></g></g> <g transform="translate(67,21.799696922302246)"><g data-gra="path-name" fill-rule="" class="tp-name iconsvg-namesvg" opacity="1" transform="matrix(1,0,0,1,0,0)"><g transform="scale(1)"><g><path d="M18.87-8.65L18.87-11.15 13.36-11.15 13.36-8.65 14.89-8.65 13.08-3.77 10.51-11.15 8.6-11.15 6.06-3.82 4.26-8.65 5.8-8.65 5.8-11.15 0.28-11.15 0.28-8.65 1.51-8.65 4.9 0 7.23 0 9.57-6.81 11.88 0 14.26 0 17.65-8.65ZM38.24-8.65L38.24-11.15 32.73-11.15 32.73-8.65 34.26-8.65 32.45-3.77 29.88-11.15 27.97-11.15 25.42-3.82 23.63-8.65 25.17-8.65 25.17-11.15 19.65-11.15 19.65-8.65 20.88-8.65 24.27 0 26.6 0 28.94-6.81 31.24 0 33.62 0 37.02-8.65ZM57.61-8.65L57.61-11.15 52.1-11.15 52.1-8.65 53.63-8.65 51.82-3.77 49.25-11.15 47.34-11.15 44.79-3.82 43-8.65 44.53-8.65 44.53-11.15 39.02-11.15 39.02-8.65 40.25-8.65 43.64 0 45.97 0 48.3-6.81 50.61 0 52.99 0 56.39-8.65ZM58.74 0.21C59.76 0.21 60.6-0.54 60.6-1.58 60.6-2.57 59.76-3.35 58.74-3.35 57.75-3.35 56.91-2.57 56.91-1.58 56.91-0.54 57.75 0.21 58.74 0.21ZM75.54-8.65L75.54-11.15 69.42-11.15 69.42-8.65 71.04-8.65 68.52-3.18 66-8.65 67.6-8.65 67.6-11.15 61.48-11.15 61.48-8.65 62.91-8.65 67.2 0 69.84 0 74.13-8.65ZM82.09-2.5L80.28-2.5 80.28-16.73 75.8-16.73 75.8-14.23 77.57-14.23 77.57-2.5 75.8-2.5 75.8 0 82.09 0ZM89.19-11.4C85.79-11.4 83.15-8.93 83.15-5.56 83.15-2.17 85.79 0.35 89.19 0.35 92.56 0.35 95.22-2.17 95.22-5.56 95.22-8.93 92.56-11.4 89.19-11.4ZM89.21-2.12C87.28-2.12 85.89-3.65 85.89-5.56 85.89-7.45 87.28-8.93 89.21-8.93 91.1-8.93 92.51-7.45 92.51-5.56 92.51-3.65 91.1-2.12 89.21-2.12ZM108.65-8.65L110.44-8.65 110.44-11.15 105.94-11.15 105.94-10.3C105.02-10.98 103.82-11.4 102.5-11.4 99.25-11.4 96.82-8.81 96.82-5.56 96.82-2.33 99.25 0.26 102.5 0.26 103.82 0.26 105.02-0.16 105.94-0.85L105.94 0.68C105.94 2.47 104.6 3.53 102.78 3.53 101.13 3.53 100 2.66 99.81 1.37L97.06 1.37C97.34 4.08 99.65 6.01 102.83 6.01 106.18 6.01 108.67 3.94 108.67 0.68L108.65 0.68ZM102.88-2.1C100.85-2.1 99.53-3.72 99.53-5.56 99.53-7.42 100.85-9.05 102.88-9.05 104.01-9.05 105.16-8.55 105.94-7.33L105.94-3.82C105.16-2.59 104.01-2.1 102.88-2.1ZM124.37-8.65L126.06-8.65 126.06-11.15 119.94-11.15 119.94-8.65 121.3-8.65 118.48-3.09 115.81-8.65 117.25-8.65 117.25-11.15 111.12-11.15 111.12-8.65 112.77-8.65 116.97-0.09 115.7 2.38 112.77 2.38 112.77 4.88 119.96 4.88 119.96 2.38 118.66 2.38ZM126.58 0.21C127.6 0.21 128.44-0.54 128.44-1.58 128.44-2.57 127.6-3.35 126.58-3.35 125.59-3.35 124.74-2.57 124.74-1.58 124.74-0.54 125.59 0.21 126.58 0.21ZM137.89-11.4C136.53-11.4 135.37-11 134.45-10.34L134.45-16.73 129.98-16.73 129.98-14.23 131.74-14.23 131.74-2.5 129.98-2.5 129.98 0 134.45 0 134.45-0.8C135.37-0.14 136.53 0.26 137.89 0.26 141 0.26 143.5-2.33 143.5-5.58 143.5-8.81 141-11.4 137.89-11.4ZM137.47-2.1C136.43-2.1 135.42-2.45 134.45-3.42L134.45-7.73C135.42-8.69 136.43-9.05 137.47-9.05 139.4-9.05 140.77-7.42 140.77-5.58 140.77-3.72 139.4-2.1 137.47-2.1ZM150.76-2.5L148.94-2.5 148.94-16.73 144.47-16.73 144.47-14.23 146.23-14.23 146.23-2.5 144.47-2.5 144.47 0 150.76 0ZM157.85-11.4C154.46-11.4 151.82-8.93 151.82-5.56 151.82-2.17 154.46 0.35 157.85 0.35 161.22 0.35 163.88-2.17 163.88-5.56 163.88-8.93 161.22-11.4 157.85-11.4ZM157.87-2.12C155.94-2.12 154.55-3.65 154.55-5.56 154.55-7.45 155.94-8.93 157.87-8.93 159.76-8.93 161.17-7.45 161.17-5.56 161.17-3.65 159.76-2.12 157.87-2.12ZM177.31-8.65L179.1-8.65 179.1-11.15 174.6-11.15 174.6-10.3C173.69-10.98 172.48-11.4 171.16-11.4 167.91-11.4 165.49-8.81 165.49-5.56 165.49-2.33 167.91 0.26 171.16 0.26 172.48 0.26 173.69-0.16 174.6-0.85L174.6 0.68C174.6 2.47 173.26 3.53 171.45 3.53 169.8 3.53 168.67 2.66 168.48 1.37L165.72 1.37C166 4.08 168.31 6.01 171.49 6.01 174.84 6.01 177.34 3.94 177.34 0.68L177.31 0.68ZM171.54-2.1C169.51-2.1 168.19-3.72 168.19-5.56 168.19-7.42 169.51-9.05 171.54-9.05 172.67-9.05 173.83-8.55 174.6-7.33L174.6-3.82C173.83-2.59 172.67-2.1 171.54-2.1Z" transform="translate(-0.2800000011920929, 16.729999542236328)"></path></g> <!----> <!----> <!----> <!----> <!----> <!----> <!----></g></g> <!----></g></g><defs v-gra="od"></defs></svg>