<svg data-v-6805eed4="" version="1.0" xmlns="http://www.w3.org/2000/svg" xmlns:xlink="http://www.w3.org/1999/xlink" width="100%" height="100%" viewBox="0 0 340.000000 250.000000" preserveAspectRatio="xMidYMid meet" color-interpolation-filters="sRGB" style="margin: auto;"> <rect data-v-6805eed4="" x="0" y="0" width="100%" height="100%" fill="#fff" fill-opacity="0" class="background"></rect> <rect data-v-6805eed4="" x="0" y="0" width="100%" height="100%" fill="url(#watermark)" fill-opacity="1" class="watermarklayer"></rect> <g data-v-6805eed4="" fill="#333" class="icon-text-wrapper icon-svg-group iconsvg" transform="translate(78.93000030517578,64.5901870727539)"><g class="iconsvg-imagesvg" transform="matrix(1,0,0,1,61.06999969482422,0)" opacity="1"><g><rect fill="#333" fill-opacity="0" stroke-width="2" x="0" y="0" width="60" height="59.84380766200218" class="image-rect"></rect> <svg x="0" y="0" width="60" height="59.84380766200218" filtersec="colorsb8770155604" class="image-svg-svg primary" style="overflow: visible;"><svg xmlns="http://www.w3.org/2000/svg" viewBox="0 0 95.86000061035156 95.61000061035156"><path d="M0 43.66a13.32 13.32 0 0 0 .55-3.25C2.87 26.43 10 15.52 21.67 7.57c.2-.14.37-.37.77-.24a49.75 49.75 0 0 0-5 4.08 41.42 41.42 0 0 0-12.89 26 42.35 42.35 0 0 0 37.92 46.86c.32 0 .63 0 .88.29 2 2.36 4.3 4.47 5.88 7.17a6.85 6.85 0 0 1 .94 2.27 2.69 2.69 0 0 1-.17 1.61h-5.14c-.16-.29-.45-.17-.68-.2-1.24-.14-2.48-.22-3.71-.42a46.89 46.89 0 0 1-20.73-8.61A47.43 47.43 0 0 1 .53 54.76 13.71 13.71 0 0 0 0 51.52z" fill="#8050a1"></path><path d="M95.86 51.52a15.74 15.74 0 0 0-.55 3.34Q90.44 81.94 65 92.42l-.56.17c.39-.51.66-.84.92-1.17A46 46 0 0 0 73.9 75a2.22 2.22 0 0 1 .74-1.08 40.79 40.79 0 0 0 13.84-25.29c2.07-14.47-2.17-27-12.64-37.2A41.84 41.84 0 0 0 52 0a28.46 28.46 0 0 1 5.95.78A48 48 0 0 1 95 38.7a35.52 35.52 0 0 1 .66 5c0 .18 0 .39.18.5z" fill="#486fb7"></path><path d="M48.22 14.3c.66 2.27 1.23 4.39 1.89 6.48a69.49 69.49 0 0 0 9.79 18.66 73.7 73.7 0 0 1 8.85 16.06c3 7.86 2.5 15.56-.77 23.18a42.65 42.65 0 0 1-6.73 10.87c-.16.19-.25.45-.66.52.2-1 .43-1.91.57-2.85a29.83 29.83 0 0 0-.68-10.65 110.45 110.45 0 0 0-6.7-19.51c-1.74-4.12-3.49-8.22-5.22-12.34a38.35 38.35 0 0 1-2.62-17.25 57.84 57.84 0 0 1 2.28-13.17z" fill="#f5ca25"></path><path d="M54.54 93.53a16.9 16.9 0 0 0-3.68-7c-2-2.49-4.26-4.67-6.12-7.24A47.58 47.58 0 0 1 35.9 59a41 41 0 0 1 3.32-24 35.85 35.85 0 0 1 2.13-4.18c.19 2 .33 4 .54 5.89.52 4.62 2.22 8.88 4 13.11a191.8 191.8 0 0 1 8.61 22.34 47.63 47.63 0 0 1 2.23 12.69 19.88 19.88 0 0 1-1.82 8.06 6.06 6.06 0 0 1-.37.62z" fill="#ee722c"></path><path d="M79.88 23.74a32 32 0 0 1 3.44 17.43 37 37 0 0 1-8.45 20.67 49 49 0 0 0-4.7-13.93c-.3-.63-.65-1.24-1-1.86-.68-1.26-.66-1.24.38-2.18a36 36 0 0 0 6.2-7 23.8 23.8 0 0 0 3.83-12 1.77 1.77 0 0 1 .3-1.13z" fill="#67c7f3"></path><path d="M39.51 79.49a19.2 19.2 0 0 1-4.89-2.13A37.1 37.1 0 0 1 21.29 66a32.82 32.82 0 0 1-6.11-15.48 41.34 41.34 0 0 1-.37-4.7 29.33 29.33 0 0 0 4.09 6.64 42.83 42.83 0 0 0 12.65 10.19 1.6 1.6 0 0 1 .89 1.13 55.73 55.73 0 0 0 7.05 15.72z" fill="#8050a1"></path><path d="M66.07 36.18a5.45 5.45 0 0 1-5.49-5.55 5.54 5.54 0 0 1 5.48-5.51 5.6 5.6 0 0 1 5.57 5.54 5.53 5.53 0 0 1-5.56 5.52z" fill="#486fb7"></path><path d="M31.45 45.12a5.27 5.27 0 1 1-5.18-5.3 5.29 5.29 0 0 1 5.18 5.3z" fill="#ee722c"></path><path d="M39.49 79.5v-.06z" fill="#8050a1"></path><path fill="#f5ca25" d="M60.53 90.33l-.05.03v-.07l.05.04z"></path></svg></svg> <!----></g></g> <g transform="translate(0,66.84380722045898)"><g data-gra="path-name" fill-rule="" class="tp-name iconsvg-namesvg" transform="matrix(1,0,0,1,0,0)" opacity="1"><g transform="scale(1)"><g><path d="M5.82-1.38C4.36-1.38 4.04-2.51 4.04-3.96L4.04-12.29C4.04-13.27 3.13-13.89 2.07-13.89 1.64-13.89 1.13-13.67 1.13-13.27 1.13-13.13 1.16-13.02 1.2-12.87 1.24-12.73 1.27-12.44 1.27-12.11L1.27-4C1.27-0.84 2.51 1.02 5.71 1.02 6.04 1.02 6.44 0.98 6.76 0.87 7.71 0.62 8.62 0.07 9.02-0.73 9.56 0.29 10.76 1.02 12.33 1.02 15.45 1.02 16.76-0.91 16.76-3.96L16.76-12.29C16.76-13.27 15.85-13.89 14.8-13.89 14.36-13.89 13.85-13.67 13.85-13.27 13.85-12.87 14-12.69 14-12.11L14-3.96C14-2.58 13.56-1.38 12.18-1.38 10.73-1.38 10.44-2.55 10.4-3.96L10.4-12.29C10.4-13.27 9.49-13.89 8.44-13.89 8-13.89 7.49-13.67 7.49-13.27 7.49-12.87 7.64-12.69 7.64-12.11L7.64-3.96C7.64-2.58 7.2-1.38 5.82-1.38ZM23.93-1.38C22.47-1.38 22.15-2.51 22.15-3.96L22.15-12.29C22.15-13.27 21.24-13.89 20.18-13.89 19.75-13.89 19.24-13.67 19.24-13.27 19.24-13.13 19.27-13.02 19.31-12.87 19.35-12.73 19.38-12.44 19.38-12.11L19.38-4C19.38-0.84 20.62 1.02 23.82 1.02 24.15 1.02 24.55 0.98 24.87 0.87 25.82 0.62 26.73 0.07 27.13-0.73 27.67 0.29 28.87 1.02 30.44 1.02 33.56 1.02 34.87-0.91 34.87-3.96L34.87-12.29C34.87-13.27 33.96-13.89 32.91-13.89 32.47-13.89 31.96-13.67 31.96-13.27 31.96-12.87 32.11-12.69 32.11-12.11L32.11-3.96C32.11-2.58 31.67-1.38 30.29-1.38 28.84-1.38 28.55-2.55 28.51-3.96L28.51-12.29C28.51-13.27 27.6-13.89 26.55-13.89 26.11-13.89 25.6-13.67 25.6-13.27 25.6-12.87 25.75-12.69 25.75-12.11L25.75-3.96C25.75-2.58 25.31-1.38 23.93-1.38ZM42.04-1.38C40.58-1.38 40.25-2.51 40.25-3.96L40.25-12.29C40.25-13.27 39.35-13.89 38.29-13.89 37.85-13.89 37.35-13.67 37.35-13.27 37.35-13.13 37.38-13.02 37.42-12.87 37.45-12.73 37.49-12.44 37.49-12.11L37.49-4C37.49-0.84 38.73 1.02 41.93 1.02 42.25 1.02 42.65 0.98 42.98 0.87 43.93 0.62 44.84 0.07 45.24-0.73 45.78 0.29 46.98 1.02 48.55 1.02 51.67 1.02 52.98-0.91 52.98-3.96L52.98-12.29C52.98-13.27 52.07-13.89 51.02-13.89 50.58-13.89 50.07-13.67 50.07-13.27 50.07-12.87 50.22-12.69 50.22-12.11L50.22-3.96C50.22-2.58 49.78-1.38 48.4-1.38 46.95-1.38 46.65-2.55 46.62-3.96L46.62-12.29C46.62-13.27 45.71-13.89 44.65-13.89 44.22-13.89 43.71-13.67 43.71-13.27 43.71-12.87 43.85-12.69 43.85-12.11L43.85-3.96C43.85-2.58 43.42-1.38 42.04-1.38ZM58.76-2.65C57.78-2.65 57.02-1.93 57.02-0.91 57.02 0.04 57.82 0.8 58.76 0.8 59.75 0.8 60.55 0.07 60.55-0.91 60.55-1.89 59.75-2.65 58.76-2.65ZM67.78 1.02C68.84 1.02 69.82 0.76 70.69 0.29 73.24-1.09 74.8-4.07 74.8-7.96 74.8-8.73 74.73-9.49 74.51-10.25 74.15-11.6 73.53-12.91 72.69-13.71 72.33-14.07 71.93-14.25 71.56-14.25 71.38-14.25 71.2-14.18 71.02-14.07 70.58-13.78 70.07-13.16 70.07-12.47 70.07-12.25 70.44-12.25 70.58-12.15 70.95-11.85 71.24-11.6 71.49-11.09 71.89-10.33 72.07-9.35 72.07-8.07 72.07-6.07 71.6-4.36 70.84-3.16 70.29-2.29 69.45-1.38 68.25-1.38 67.6-1.38 67.45-1.85 67.45-2.51L67.45-12.29C67.45-13.27 66.55-13.89 65.49-13.89 65.05-13.89 64.55-13.67 64.55-13.27 64.55-13.13 64.58-13.02 64.62-12.87 64.65-12.73 64.69-12.44 64.69-12.11L64.69-2.55C64.69-0.4 65.6 1.02 67.78 1.02ZM79.82-22.58C80.11-22.58 80.36-22.29 80.55-21.75 80.73-21.2 80.8-20.29 80.8-19.09 80.8-17.6 80.55-16.15 80.33-14.76 80.11-13.38 79.82-11.82 79.27-10.76L79.27-21.13C79.27-21.64 79.35-22.58 79.82-22.58ZM79.27-3.89L79.27-6C79.35-6.07 79.49-6.33 79.71-6.76 80.69-8.65 81.56-11.09 82.18-13.45 82.62-15.13 83.05-17.13 83.05-19.13 83.05-22.04 82.73-24.98 79.82-24.98 79.38-24.98 78.95-24.84 78.55-24.62 77.27-23.89 76.51-22.33 76.51-20.33L76.51-3.78C76.51-0.91 77.93 1.02 80.8 1.02 81.64 1.02 82.33 0.8 82.98 0.4 84.69-0.69 85.85-2.62 86.55-4.62 86.73-5.35 86.22-5.93 85.78-6.18 85.02-6.62 84.58-5.96 84.44-5.27 84.25-4.36 83.78-3.42 83.31-2.73 82.87-2.11 82.18-1.38 81.2-1.38 79.82-1.38 79.27-2.47 79.27-3.89ZM94.47-3.45C94.8-4.62 94.98-5.96 94.98-7.38 94.98-9.09 94.65-10.65 94.07-11.75 93.64-12.58 92.98-13.49 91.89-13.49 91.42-13.49 90.98-13.38 90.62-13.16 89.53-12.47 88.95-11.02 88.95-9.24 88.95-6.44 90-4.11 91.56-2.76 91.13-2 90.55-1.38 89.42-1.38 89.05-1.38 88.73-1.49 88.4-1.67 87.24-2.36 86.8-4.04 86.8-5.96 86.8-7.56 87.02-8.84 87.42-9.89 87.71-10.65 88.11-11.2 88.47-11.78 89.38-12.4 88.73-14.33 87.75-14.33 87.53-14.33 87.24-14.15 86.84-13.75 86.44-13.35 86-12.76 85.6-12.04 84.73-10.47 84.04-8.29 84.04-5.75 84.04-4.84 84.15-3.96 84.36-3.16 84.95-0.84 86.47 1.02 89.35 1.02 91.56 1.02 92.87-0.15 93.71-1.6 94.25-1.42 94.8-1.35 95.49-1.35 97.42-1.35 98.69-2.33 99.38-3.56 99.75-4.25 100.33-5.71 99.6-6.33 99.13-6.73 97.93-6.65 97.82-6 97.6-4.58 96.84-3.38 95.2-3.38 94.91-3.38 94.73-3.38 94.47-3.45ZM90.87-9.38C90.87-10.55 91.09-11.09 91.49-11.09 91.67-11.09 91.85-10.98 91.96-10.76 92.44-9.85 92.36-8.25 92.36-6.8 92.36-6.25 92.33-5.71 92.25-5.13 91.49-6.15 90.87-7.67 90.87-9.38ZM105.31-11.02C104.87-11.02 104.36-10.8 104.36-10.4 104.36-10.25 104.4-10.11 104.44-9.96 104.47-9.82 104.51-9.56 104.51-9.24L104.51-5.13C104.36-4.33 104.11-3.53 103.75-2.91 103.42-2.36 102.91-1.75 102.07-1.75 100.58-1.75 100-3.13 100-4.73 100-7.27 100.76-9.16 101.96-10.47 102.91-11.49 104.29-12.33 106-12.33 106.36-12.33 106.69-12.25 107.05-12.25 107.49-12.25 107.53-12.58 107.53-13.09 107.53-14.07 106.84-14.62 105.85-14.62 103.27-14.62 101.24-13.45 99.85-12 98.29-10.36 97.2-7.96 97.2-4.84 97.2-4.07 97.31-3.31 97.49-2.65 98-0.84 99.24 0.65 101.53 0.65 102.87 0.65 103.82 0.04 104.51-0.65L104.51 3.16C103.89 3.71 103.35 4.22 102.8 4.73 101.27 6.15 100 7.93 100 10.8 100 11.38 100.07 11.93 100.25 12.44 100.69 13.78 101.75 14.98 103.49 14.98 103.96 14.98 104.4 14.91 104.87 14.73 106.55 14.07 107.27 12.22 107.27 9.82L107.27 3.53C107.78 3.09 108.25 2.65 108.76 2.15 110.51 0.4 111.78-1.78 112.58-4.55 112.62-4.62 112.62-4.69 112.62-4.76L112.62-4.91C112.62-5.6 112.04-6.4 111.35-6.4 110.84-6.4 110.62-5.82 110.47-5.31 109.78-2.91 108.69-1.09 107.27 0.47L107.27-9.42C107.27-10.44 106.4-11.02 105.31-11.02ZM102.55 10.69C102.55 8.44 103.35 7.09 104.51 5.93L104.51 10.58C104.51 11.49 104.4 12.69 103.49 12.69 102.76 12.69 102.55 11.53 102.55 10.69ZM118.36-13.89C117.93-13.89 117.42-13.67 117.42-13.27 117.42-12.87 117.56-12.69 117.56-12.11L117.56-6.25C117.35-5.02 116.98-3.75 116.47-2.84 116.07-2.15 115.49-1.35 114.58-1.35 113.27-1.35 112.91-2.84 112.91-4.36 112.91-7.31 113.38-9.38 113.96-11.71 114.04-12.04 114.36-12.55 114.4-12.91 114.47-13.49 114.07-13.71 113.38-13.71 112.62-13.71 112.07-13.64 111.78-13.27 111.56-13.02 111.56-12.69 111.45-12.36 111.2-11.53 110.98-10.62 110.8-9.71 110.47-8.18 110.15-6.07 110.15-4.18 110.15-3.38 110.22-2.69 110.4-2.04 110.84-0.36 111.93 1.05 114 1.05 114.76 1.05 115.45 0.84 116.04 0.36 116.62-0.11 117.13-0.73 117.56-1.45L117.56 3.16C116.95 3.71 116.4 4.22 115.85 4.73 114.33 6.15 113.05 7.93 113.05 10.8 113.05 11.38 113.13 11.93 113.31 12.44 113.75 13.78 114.8 14.98 116.55 14.98 117.02 14.98 117.49 14.91 117.93 14.73 119.56 14.07 120.33 12.22 120.33 9.82L120.33 3.53C122.76 1.42 124.58-0.98 125.64-4.55 125.67-4.62 125.67-4.69 125.67-4.76L125.67-4.91C125.67-5.6 125.09-6.4 124.4-6.4 123.89-6.4 123.67-5.82 123.53-5.31 122.84-2.91 121.75-1.09 120.33 0.47L120.33-12.29C120.33-13.27 119.42-13.89 118.36-13.89ZM115.6 10.69C115.6 8.44 116.4 7.09 117.56 5.93L117.56 10.58C117.56 11.45 117.42 12.69 116.55 12.69 115.82 12.69 115.6 11.53 115.6 10.69ZM127.53-2.65C126.55-2.65 125.78-1.93 125.78-0.91 125.78 0.04 126.58 0.8 127.53 0.8 128.51 0.8 129.31 0.07 129.31-0.91 129.31-1.89 128.51-2.65 127.53-2.65ZM134.25-24.18C133.89-24.18 133.09-24.11 133.09-23.78 133.09-23.71 133.13-23.64 133.16-23.6 133.38-23.31 133.45-22.95 133.45-22.4L133.45-5.05C133.45-1.56 135.09 1.02 138.58 1.02 140.84 1.02 142.18-0.15 143.02-1.6 143.56-1.42 144.15-1.35 144.87-1.35 146.8-1.35 148.07-2.33 148.76-3.56 149.16-4.25 149.71-5.71 148.98-6.33 148.51-6.73 147.31-6.65 147.2-6 146.98-4.58 146.22-3.38 144.58-3.38 144.29-3.38 144.07-3.38 143.82-3.45 144.18-4.65 144.36-6.11 144.36-7.6 144.36-9.49 143.93-11.05 143.16-12.11 142.58-12.91 141.71-13.53 140.51-13.53 140.07-13.53 139.67-13.45 139.31-13.27 138-12.69 137.42-11.2 137.42-9.27 137.42-8.62 137.49-7.96 137.64-7.35 138.11-5.35 139.27-3.71 140.76-2.65 140.4-1.96 139.78-1.38 138.8-1.38 138.36-1.38 138-1.49 137.67-1.71 136.62-2.36 136.22-3.85 136.22-5.56L136.22-22.58C136.22-23.56 135.31-24.18 134.25-24.18ZM140.33-11.13C140.65-11.13 140.95-10.8 141.2-10.15 141.45-9.49 141.6-8.55 141.6-7.31 141.6-6.51 141.53-5.64 141.42-4.91 140.47-5.93 139.67-7.53 139.67-9.42 139.67-10.15 139.75-11.13 140.33-11.13ZM150.47-22.58C150.76-22.58 151.02-22.29 151.2-21.75 151.38-21.2 151.45-20.29 151.45-19.09 151.45-17.6 151.2-16.15 150.98-14.76 150.76-13.38 150.47-11.82 149.93-10.76L149.93-21.13C149.93-21.64 150-22.58 150.47-22.58ZM149.93-3.89L149.93-6C150-6.07 150.15-6.33 150.36-6.76 151.35-8.65 152.22-11.09 152.84-13.45 153.27-15.13 153.71-17.13 153.71-19.13 153.71-22.04 153.38-24.98 150.47-24.98 150.04-24.98 149.6-24.84 149.2-24.62 147.93-23.89 147.16-22.33 147.16-20.33L147.16-3.78C147.16-0.91 148.58 1.02 151.45 1.02 152.29 1.02 152.98 0.8 153.64 0.4 155.35-0.69 156.51-2.62 157.2-4.62 157.38-5.35 156.87-5.93 156.44-6.18 155.67-6.62 155.24-5.96 155.09-5.27 154.91-4.36 154.44-3.42 153.96-2.73 153.53-2.11 152.84-1.38 151.85-1.38 150.47-1.38 149.93-2.47 149.93-3.89ZM165.13-3.45C165.45-4.62 165.64-5.96 165.64-7.38 165.64-9.09 165.31-10.65 164.73-11.75 164.29-12.58 163.64-13.49 162.55-13.49 162.07-13.49 161.64-13.38 161.27-13.16 160.18-12.47 159.6-11.02 159.6-9.24 159.6-6.44 160.65-4.11 162.22-2.76 161.78-2 161.2-1.38 160.07-1.38 159.71-1.38 159.38-1.49 159.05-1.67 157.89-2.36 157.45-4.04 157.45-5.96 157.45-7.56 157.67-8.84 158.07-9.89 158.36-10.65 158.76-11.2 159.13-11.78 160.04-12.4 159.38-14.33 158.4-14.33 158.18-14.33 157.89-14.15 157.49-13.75 157.09-13.35 156.65-12.76 156.25-12.04 155.38-10.47 154.69-8.29 154.69-5.75 154.69-4.84 154.8-3.96 155.02-3.16 155.6-0.84 157.13 1.02 160 1.02 162.22 1.02 163.53-0.15 164.36-1.6 164.91-1.42 165.45-1.35 166.15-1.35 168.07-1.35 169.35-2.33 170.04-3.56 170.4-4.25 170.98-5.71 170.25-6.33 169.78-6.73 168.58-6.65 168.47-6 168.25-4.58 167.49-3.38 165.85-3.38 165.56-3.38 165.38-3.38 165.13-3.45ZM161.53-9.38C161.53-10.55 161.75-11.09 162.15-11.09 162.33-11.09 162.51-10.98 162.62-10.76 163.09-9.85 163.02-8.25 163.02-6.8 163.02-6.25 162.98-5.71 162.91-5.13 162.15-6.15 161.53-7.67 161.53-9.38ZM175.96-11.02C175.53-11.02 175.02-10.8 175.02-10.4 175.02-10.25 175.05-10.11 175.09-9.96 175.13-9.82 175.16-9.56 175.16-9.24L175.16-5.13C175.02-4.33 174.76-3.53 174.4-2.91 174.07-2.36 173.56-1.75 172.73-1.75 171.24-1.75 170.65-3.13 170.65-4.73 170.65-7.27 171.42-9.16 172.62-10.47 173.56-11.49 174.95-12.33 176.65-12.33 177.02-12.33 177.35-12.25 177.71-12.25 178.15-12.25 178.18-12.58 178.18-13.09 178.18-14.07 177.49-14.62 176.51-14.62 173.93-14.62 171.89-13.45 170.51-12 168.95-10.36 167.85-7.96 167.85-4.84 167.85-4.07 167.96-3.31 168.15-2.65 168.65-0.84 169.89 0.65 172.18 0.65 173.53 0.65 174.47 0.04 175.16-0.65L175.16 3.16C174.55 3.71 174 4.22 173.45 4.73 171.93 6.15 170.65 7.93 170.65 10.8 170.65 11.38 170.73 11.93 170.91 12.44 171.35 13.78 172.4 14.98 174.15 14.98 174.62 14.98 175.05 14.91 175.53 14.73 177.2 14.07 177.93 12.22 177.93 9.82L177.93 3.53C178.44 3.09 178.91 2.65 179.42 2.15 181.16 0.4 182.44-1.78 183.24-4.55 183.27-4.62 183.27-4.69 183.27-4.76L183.27-4.91C183.27-5.6 182.69-6.4 182-6.4 181.49-6.4 181.27-5.82 181.13-5.31 180.44-2.91 179.35-1.09 177.93 0.47L177.93-9.42C177.93-10.44 177.05-11.02 175.96-11.02ZM173.2 10.69C173.2 8.44 174 7.09 175.16 5.93L175.16 10.58C175.16 11.49 175.05 12.69 174.15 12.69 173.42 12.69 173.2 11.53 173.2 10.69Z" transform="translate(-1.1299999952316284, 24.979999542236328)"></path></g> <!----> <!----> <!----> <!----> <!----> <!----> <!----></g></g> <g data-gra="path-slogan" fill-rule="" class="tp-slogan iconsvg-slogansvg" fill="#333" transform="matrix(1,0,0,1,3.4550018310546875,45.959999084472656)" opacity="1"><rect width="0"></rect> <rect x="178.22999572753906" width="0"></rect> <g transform="translate(0,0)"><g transform="scale(1)"><path d="M0-7.73L2.48 0L3.62 0L6.07-7.73L5.07-7.73L3.83-3.56C3.70-3.10 3.58-2.67 3.47-2.28C3.36-1.88 3.23-1.46 3.09-1.00L3.04-1.00C2.89-1.46 2.76-1.88 2.66-2.28C2.55-2.67 2.43-3.10 2.29-3.56L1.05-7.73ZM7.00-7.73L7.00 0L11.36 0L11.36-0.84L7.98-0.84L7.98-7.73ZM15.14 0.14C15.63 0.14 16.08 0.05 16.48-0.14C16.89-0.33 17.24-0.60 17.53-0.95C17.83-1.30 18.05-1.72 18.21-2.22C18.38-2.72 18.46-3.28 18.46-3.90C18.46-4.52 18.38-5.07 18.21-5.56C18.05-6.05 17.83-6.47 17.53-6.81C17.24-7.15 16.89-7.41 16.48-7.60C16.08-7.78 15.63-7.88 15.14-7.88C14.66-7.88 14.21-7.79 13.80-7.60C13.40-7.42 13.05-7.16 12.76-6.82C12.47-6.48 12.24-6.06 12.08-5.57C11.92-5.08 11.84-4.52 11.84-3.90C11.84-3.28 11.92-2.72 12.08-2.22C12.24-1.72 12.47-1.30 12.76-0.95C13.05-0.60 13.40-0.33 13.80-0.14C14.21 0.05 14.66 0.14 15.14 0.14ZM15.14-0.72C14.80-0.72 14.48-0.79 14.21-0.94C13.93-1.09 13.69-1.31 13.49-1.59C13.29-1.86 13.13-2.20 13.02-2.59C12.91-2.98 12.86-3.42 12.86-3.90C12.86-4.38 12.91-4.81 13.02-5.20C13.13-5.58 13.29-5.91 13.49-6.18C13.69-6.45 13.93-6.65 14.21-6.80C14.48-6.94 14.80-7.02 15.14-7.02C15.49-7.02 15.80-6.94 16.08-6.80C16.36-6.65 16.60-6.45 16.80-6.18C17.00-5.91 17.16-5.58 17.27-5.20C17.38-4.81 17.43-4.38 17.43-3.90C17.43-3.42 17.38-2.98 17.27-2.59C17.16-2.20 17.00-1.86 16.80-1.59C16.60-1.31 16.36-1.09 16.08-0.94C15.80-0.79 15.49-0.72 15.14-0.72ZM19.54-3.87C19.54-3.24 19.62-2.67 19.80-2.18C19.97-1.68 20.21-1.26 20.52-0.91C20.82-0.57 21.19-0.31 21.61-0.13C22.04 0.05 22.50 0.14 23.02 0.14C23.53 0.14 24.00 0.06 24.41-0.11C24.82-0.28 25.16-0.50 25.41-0.75L25.41-4.01L22.87-4.01L22.87-3.20L24.51-3.20L24.51-1.18C24.36-1.04 24.15-0.93 23.91-0.84C23.66-0.76 23.40-0.72 23.12-0.72C22.70-0.72 22.34-0.79 22.02-0.94C21.70-1.09 21.43-1.30 21.22-1.58C21.00-1.85 20.84-2.19 20.72-2.58C20.61-2.97 20.55-3.40 20.55-3.89C20.55-4.37 20.61-4.80 20.73-5.19C20.86-5.57 21.03-5.90 21.25-6.17C21.47-6.44 21.73-6.65 22.05-6.80C22.36-6.94 22.72-7.02 23.11-7.02C23.50-7.02 23.83-6.95 24.08-6.81C24.34-6.67 24.56-6.50 24.76-6.30L25.31-6.92C25.09-7.16 24.79-7.37 24.44-7.58C24.08-7.78 23.63-7.88 23.10-7.88C22.58-7.88 22.10-7.78 21.67-7.60C21.24-7.41 20.86-7.15 20.55-6.80C20.23-6.46 19.98-6.04 19.80-5.54C19.63-5.05 19.54-4.49 19.54-3.87ZM30.98-6.91L30.98 0L31.97 0L31.97-6.91L34.30-6.91L34.30-7.73L28.64-7.73L28.64-6.91ZM35.56-7.73L35.56 0L36.54 0L36.54-3.64L40.14-3.64L40.14 0L41.13 0L41.13-7.73L40.14-7.73L40.14-4.49L36.54-4.49L36.54-7.73ZM43.11-7.73L43.11 0L47.69 0L47.69-0.84L44.09-0.84L44.09-3.64L47.03-3.64L47.03-4.48L44.09-4.48L44.09-6.91L47.57-6.91L47.57-7.73ZM51.44-7.73L51.44 0L52.42 0L52.42-3.64L56.02-3.64L56.02 0L57.01 0L57.01-7.73L56.02-7.73L56.02-4.49L52.42-4.49L52.42-7.73ZM59.00-7.73L59.00 0L63.57 0L63.57-0.84L59.98-0.84L59.98-3.64L62.91-3.64L62.91-4.48L59.98-4.48L59.98-6.91L63.45-6.91L63.45-7.73ZM65.08-7.73L65.08 0L69.44 0L69.44-0.84L66.06-0.84L66.06-7.73ZM70.67-7.73L70.67 0L75.04 0L75.04-0.84L71.65-0.84L71.65-7.73ZM81.37 0.14C81.86 0.14 82.31 0.05 82.71-0.14C83.11-0.33 83.46-0.60 83.76-0.95C84.05-1.30 84.28-1.72 84.44-2.22C84.60-2.72 84.68-3.28 84.68-3.90C84.68-4.52 84.60-5.07 84.44-5.56C84.28-6.05 84.05-6.47 83.76-6.81C83.46-7.15 83.11-7.41 82.71-7.60C82.31-7.78 81.86-7.88 81.37-7.88C80.88-7.88 80.44-7.79 80.03-7.60C79.63-7.42 79.28-7.16 78.99-6.82C78.70-6.48 78.47-6.06 78.31-5.57C78.15-5.08 78.07-4.52 78.07-3.90C78.07-3.28 78.15-2.72 78.31-2.22C78.47-1.72 78.70-1.30 78.99-0.95C79.28-0.60 79.63-0.33 80.03-0.14C80.44 0.05 80.88 0.14 81.37 0.14ZM81.37-0.72C81.03-0.72 80.71-0.79 80.43-0.94C80.16-1.09 79.92-1.31 79.72-1.59C79.51-1.86 79.36-2.20 79.25-2.59C79.14-2.98 79.08-3.42 79.08-3.90C79.08-4.38 79.14-4.81 79.25-5.20C79.36-5.58 79.51-5.91 79.72-6.18C79.92-6.45 80.16-6.65 80.43-6.80C80.71-6.94 81.03-7.02 81.37-7.02C81.72-7.02 82.03-6.94 82.31-6.80C82.59-6.65 82.83-6.45 83.03-6.18C83.23-5.91 83.38-5.58 83.49-5.20C83.60-4.81 83.66-4.38 83.66-3.90C83.66-3.42 83.60-2.98 83.49-2.59C83.38-2.20 83.23-1.86 83.03-1.59C82.83-1.31 82.59-1.09 82.31-0.94C82.03-0.79 81.72-0.72 81.37-0.72ZM86.18-7.73L86.18-3.20C86.18-2.57 86.25-2.05 86.39-1.63C86.53-1.20 86.73-0.86 86.97-0.60C87.22-0.33 87.52-0.14 87.86-0.03C88.20 0.08 88.57 0.14 88.96 0.14C89.35 0.14 89.72 0.08 90.06-0.03C90.40-0.14 90.69-0.33 90.94-0.60C91.18-0.86 91.38-1.20 91.52-1.63C91.66-2.05 91.73-2.57 91.73-3.20L91.73-7.73L90.79-7.73L90.79-3.17C90.79-2.71 90.74-2.32 90.65-2.00C90.55-1.69 90.42-1.44 90.26-1.25C90.09-1.06 89.90-0.93 89.68-0.84C89.46-0.76 89.22-0.72 88.96-0.72C88.71-0.72 88.47-0.76 88.25-0.84C88.03-0.93 87.84-1.06 87.68-1.25C87.52-1.44 87.39-1.69 87.30-2.00C87.20-2.32 87.16-2.71 87.16-3.17L87.16-7.73ZM95.29-6.91L95.29 0L96.28 0L96.28-6.91L98.61-6.91L98.61-7.73L92.95-7.73L92.95-6.91ZM104.97 0.14C105.46 0.14 105.91 0.05 106.31-0.14C106.72-0.33 107.07-0.60 107.36-0.95C107.66-1.30 107.88-1.72 108.04-2.22C108.21-2.72 108.29-3.28 108.29-3.90C108.29-4.52 108.21-5.07 108.04-5.56C107.88-6.05 107.66-6.47 107.36-6.81C107.07-7.15 106.72-7.41 106.31-7.60C105.91-7.78 105.46-7.88 104.97-7.88C104.49-7.88 104.04-7.79 103.63-7.60C103.23-7.42 102.88-7.16 102.59-6.82C102.30-6.48 102.07-6.06 101.91-5.57C101.75-5.08 101.67-4.52 101.67-3.90C101.67-3.28 101.75-2.72 101.91-2.22C102.07-1.72 102.30-1.30 102.59-0.95C102.88-0.60 103.23-0.33 103.63-0.14C104.04 0.05 104.49 0.14 104.97 0.14ZM104.97-0.72C104.63-0.72 104.31-0.79 104.04-0.94C103.76-1.09 103.52-1.31 103.32-1.59C103.12-1.86 102.96-2.20 102.85-2.59C102.74-2.98 102.69-3.42 102.69-3.90C102.69-4.38 102.74-4.81 102.85-5.20C102.96-5.58 103.12-5.91 103.32-6.18C103.52-6.45 103.76-6.65 104.04-6.80C104.31-6.94 104.63-7.02 104.97-7.02C105.32-7.02 105.63-6.94 105.91-6.80C106.19-6.65 106.43-6.45 106.63-6.18C106.83-5.91 106.98-5.58 107.09-5.20C107.21-4.81 107.26-4.38 107.26-3.90C107.26-3.42 107.21-2.98 107.09-2.59C106.98-2.20 106.83-1.86 106.63-1.59C106.43-1.31 106.19-1.09 105.91-0.94C105.63-0.79 105.32-0.72 104.97-0.72ZM109.81-7.73L109.81 0L110.79 0L110.79-3.47L113.74-3.47L113.74-4.29L110.79-4.29L110.79-6.91L114.27-6.91L114.27-7.73ZM119.00-2.99L119.00 0L119.99 0L119.99-2.99L122.32-7.73L121.29-7.73L120.30-5.55C120.18-5.27 120.06-4.99 119.92-4.72C119.79-4.44 119.66-4.16 119.52-3.87L119.48-3.87C119.34-4.16 119.22-4.44 119.10-4.72C118.98-4.99 118.86-5.27 118.73-5.55L117.73-7.73L116.68-7.73ZM125.92 0.14C126.41 0.14 126.85 0.05 127.26-0.14C127.66-0.33 128.01-0.60 128.31-0.95C128.60-1.30 128.83-1.72 128.99-2.22C129.15-2.72 129.23-3.28 129.23-3.90C129.23-4.52 129.15-5.07 128.99-5.56C128.83-6.05 128.60-6.47 128.31-6.81C128.01-7.15 127.66-7.41 127.26-7.60C126.85-7.78 126.41-7.88 125.92-7.88C125.43-7.88 124.99-7.79 124.58-7.60C124.18-7.42 123.83-7.16 123.54-6.82C123.25-6.48 123.02-6.06 122.86-5.57C122.70-5.08 122.62-4.52 122.62-3.90C122.62-3.28 122.70-2.72 122.86-2.22C123.02-1.72 123.25-1.30 123.54-0.95C123.83-0.60 124.18-0.33 124.58-0.14C124.99 0.05 125.43 0.14 125.92 0.14ZM125.92-0.72C125.58-0.72 125.26-0.79 124.98-0.94C124.70-1.09 124.46-1.31 124.26-1.59C124.06-1.86 123.91-2.20 123.80-2.59C123.69-2.98 123.63-3.42 123.63-3.90C123.63-4.38 123.69-4.81 123.80-5.20C123.91-5.58 124.06-5.91 124.26-6.18C124.46-6.45 124.70-6.65 124.98-6.80C125.26-6.94 125.58-7.02 125.92-7.02C126.27-7.02 126.58-6.94 126.86-6.80C127.14-6.65 127.38-6.45 127.58-6.18C127.78-5.91 127.93-5.58 128.04-5.20C128.15-4.81 128.21-4.38 128.21-3.90C128.21-3.42 128.15-2.98 128.04-2.59C127.93-2.20 127.78-1.86 127.58-1.59C127.38-1.31 127.14-1.09 126.86-0.94C126.58-0.79 126.27-0.72 125.92-0.72ZM130.73-7.73L130.73-3.20C130.73-2.57 130.80-2.05 130.94-1.63C131.08-1.20 131.28-0.86 131.52-0.60C131.77-0.33 132.07-0.14 132.41-0.03C132.75 0.08 133.12 0.14 133.51 0.14C133.90 0.14 134.27 0.08 134.61-0.03C134.94-0.14 135.24-0.33 135.49-0.60C135.73-0.86 135.93-1.20 136.07-1.63C136.21-2.05 136.28-2.57 136.28-3.20L136.28-7.73L135.34-7.73L135.34-3.17C135.34-2.71 135.29-2.32 135.20-2.00C135.10-1.69 134.97-1.44 134.81-1.25C134.64-1.06 134.45-0.93 134.23-0.84C134.01-0.76 133.77-0.72 133.51-0.72C133.26-0.72 133.02-0.76 132.80-0.84C132.58-0.93 132.39-1.06 132.23-1.25C132.07-1.44 131.94-1.69 131.85-2.00C131.75-2.32 131.71-2.71 131.71-3.17L131.71-7.73ZM139.21-4.07L139.21-6.94L140.51-6.94C141.12-6.94 141.58-6.84 141.90-6.64C142.22-6.43 142.38-6.08 142.38-5.56C142.38-5.06 142.22-4.69 141.90-4.44C141.58-4.19 141.12-4.07 140.51-4.07ZM142.48 0L143.59 0L141.63-3.37C142.16-3.51 142.58-3.75 142.89-4.11C143.21-4.48 143.36-4.96 143.36-5.56C143.36-5.97 143.30-6.30 143.16-6.58C143.03-6.85 142.84-7.08 142.60-7.25C142.36-7.42 142.08-7.55 141.74-7.62C141.41-7.70 141.04-7.73 140.65-7.73L138.23-7.73L138.23 0L139.21 0L139.21-3.27L140.62-3.27ZM147.20-7.73L147.20 0L149.66 0C150.10 0 150.49-0.05 150.85-0.14C151.22-0.24 151.53-0.38 151.79-0.57C152.05-0.75 152.25-0.99 152.39-1.27C152.53-1.56 152.60-1.89 152.60-2.26C152.60-2.80 152.44-3.22 152.13-3.53C151.81-3.83 151.37-4.03 150.81-4.11L150.81-4.16C151.26-4.28 151.60-4.49 151.82-4.80C152.04-5.11 152.15-5.46 152.15-5.85C152.15-6.19 152.09-6.47 151.96-6.71C151.83-6.95 151.65-7.15 151.41-7.30C151.18-7.45 150.90-7.56 150.58-7.63C150.25-7.70 149.89-7.73 149.50-7.73ZM149.32-4.43L148.18-4.43L148.18-6.96L149.37-6.96C149.97-6.96 150.43-6.86 150.73-6.68C151.03-6.49 151.18-6.19 151.18-5.77C151.18-5.33 151.04-5.00 150.75-4.78C150.47-4.55 149.99-4.43 149.32-4.43ZM149.52-0.78L148.18-0.78L148.18-3.70L149.52-3.70C150.21-3.70 150.73-3.59 151.09-3.37C151.45-3.14 151.63-2.79 151.63-2.31C151.63-1.78 151.45-1.40 151.08-1.15C150.71-0.90 150.19-0.78 149.52-0.78ZM154.00-7.73L154.00 0L158.36 0L158.36-0.84L154.98-0.84L154.98-7.73ZM162.14 0.14C162.63 0.14 163.08 0.05 163.48-0.14C163.89-0.33 164.23-0.60 164.53-0.95C164.82-1.30 165.05-1.72 165.21-2.22C165.37-2.72 165.46-3.28 165.46-3.90C165.46-4.52 165.37-5.07 165.21-5.56C165.05-6.05 164.82-6.47 164.53-6.81C164.23-7.15 163.89-7.41 163.48-7.60C163.08-7.78 162.63-7.88 162.14-7.88C161.65-7.88 161.21-7.79 160.80-7.60C160.40-7.42 160.05-7.16 159.76-6.82C159.47-6.48 159.24-6.06 159.08-5.57C158.92-5.08 158.84-4.52 158.84-3.90C158.84-3.28 158.92-2.72 159.08-2.22C159.24-1.72 159.47-1.30 159.76-0.95C160.05-0.60 160.40-0.33 160.80-0.14C161.21 0.05 161.65 0.14 162.14 0.14ZM162.14-0.72C161.80-0.72 161.48-0.79 161.20-0.94C160.93-1.09 160.69-1.31 160.49-1.59C160.29-1.86 160.13-2.20 160.02-2.59C159.91-2.98 159.85-3.42 159.85-3.90C159.85-4.38 159.91-4.81 160.02-5.20C160.13-5.58 160.29-5.91 160.49-6.18C160.69-6.45 160.93-6.65 161.20-6.80C161.48-6.94 161.80-7.02 162.14-7.02C162.49-7.02 162.80-6.94 163.08-6.80C163.36-6.65 163.60-6.45 163.80-6.18C164.00-5.91 164.15-5.58 164.26-5.20C164.37-4.81 164.43-4.38 164.43-3.90C164.43-3.42 164.37-2.98 164.26-2.59C164.15-2.20 164.00-1.86 163.80-1.59C163.60-1.31 163.36-1.09 163.08-0.94C162.80-0.79 162.49-0.72 162.14-0.72ZM166.54-3.87C166.54-3.24 166.62-2.67 166.80-2.18C166.97-1.68 167.21-1.26 167.51-0.91C167.82-0.57 168.19-0.31 168.61-0.13C169.04 0.05 169.50 0.14 170.01 0.14C170.53 0.14 171.00 0.06 171.41-0.11C171.82-0.28 172.16-0.50 172.41-0.75L172.41-4.01L169.87-4.01L169.87-3.20L171.51-3.20L171.51-1.18C171.35-1.04 171.15-0.93 170.90-0.84C170.66-0.76 170.40-0.72 170.12-0.72C169.70-0.72 169.34-0.79 169.02-0.94C168.70-1.09 168.43-1.30 168.22-1.58C168.00-1.85 167.84-2.19 167.72-2.58C167.61-2.97 167.55-3.40 167.55-3.89C167.55-4.37 167.61-4.80 167.73-5.19C167.85-5.57 168.03-5.90 168.25-6.17C168.47-6.44 168.73-6.65 169.05-6.80C169.36-6.94 169.72-7.02 170.11-7.02C170.50-7.02 170.83-6.95 171.08-6.81C171.34-6.67 171.56-6.50 171.76-6.30L172.31-6.92C172.09-7.16 171.79-7.37 171.43-7.58C171.08-7.78 170.63-7.88 170.10-7.88C169.58-7.88 169.10-7.78 168.67-7.60C168.24-7.41 167.86-7.15 167.54-6.80C167.23-6.46 166.98-6.04 166.80-5.54C166.62-5.05 166.54-4.49 166.54-3.87ZM173.83-0.59C173.83-0.38 173.90-0.20 174.04-0.06C174.17 0.07 174.34 0.14 174.54 0.14C174.73 0.14 174.89 0.07 175.03-0.06C175.16-0.20 175.23-0.38 175.23-0.59C175.23-0.82 175.16-1.00 175.03-1.14C174.89-1.28 174.73-1.34 174.54-1.34C174.34-1.34 174.17-1.28 174.04-1.14C173.90-1.00 173.83-0.82 173.83-0.59Z" transform="translate(0, 7.875810571821576)"></path></g></g></g></g></g><defs v-gra="od"></defs></svg>