<svg data-v-6805eed4="" version="1.0" xmlns="http://www.w3.org/2000/svg" xmlns:xlink="http://www.w3.org/1999/xlink" width="100%" height="100%" viewBox="0 0 340.000000 250.000000" preserveAspectRatio="xMidYMid meet" color-interpolation-filters="sRGB" style="margin: auto;"> <rect data-v-6805eed4="" x="0" y="0" width="100%" height="100%" fill="#fff" fill-opacity="0" class="background"></rect> <rect data-v-6805eed4="" x="0" y="0" width="100%" height="100%" fill="url(#watermark)" fill-opacity="1" class="watermarklayer"></rect> <g data-v-6805eed4="" fill="#333" class="icon-text-wrapper icon-svg-group iconsvg" transform="translate(20.3610077008605,54.657600407249156)"><g class="iconsvg-imagesvg" transform="matrix(1,0,0,1,107.03899383544922,0)" opacity="1"><g><rect fill="#333" fill-opacity="0" stroke-width="2" x="0" y="0" width="85.20000000000002" height="85.26480124894921" class="image-rect"></rect> <svg x="0" y="0" width="85.20000000000002" height="85.26480124894921" filtersec="colorsb2740393444" class="image-svg-svg primary" style="overflow: visible;"><svg xmlns="http://www.w3.org/2000/svg" viewBox="0.0186874121427536 0.03168483451008797 71.8552474975586 71.91011047363281"><title>资源 73</title><path d="M71.85 12.61c0 2.6.05 5.21 0 7.81-.09 3.42-2.1 4.7-5.32 4.78-5.32.13-7.43-.78-7.59-4.23-.26-5.67-.21-11.36 0-17 .1-2.56 1.76-4 4.53-3.93h3.55c3.35-.15 4.72 1.74 4.82 4.79.07 2.57.01 5.17.01 7.78zM71.86 41.53v4.27c0 5.63-1.08 6.68-6.6 6.67-5.29 0-6.45-1.15-6.47-6.47 0-3.43-.07-6.87 0-10.31.11-3.79 1.49-5.11 5.18-5.19 7.16-.16 7.86.53 7.87 7.83z" fill="#4c88ef"></path><path d="M13 60.69c0 1.18-.07 2.37 0 3.55.63 8.1-2.69 7.89-9.93 7.18-2.2-.21-3-2.2-3-4.24C0 62.93 0 58.67.08 54.43c.09-3.1 1.76-4.77 5-4.63h2.84c3.73.09 5 1.36 5.06 5.21.02 1.9.02 3.79.02 5.68z" fill="#e54c41"></path><path d="M19.6 44v-2.48c0-5.88 1-6.86 6.81-6.82 5.08 0 6.2 1.15 6.25 6.34v7.82c-.05 3.15-1.55 4.87-4.83 4.79h-3.2c-3.61-.14-4.85-1.37-5-5-.08-1.65-.03-3.15-.03-4.65z" fill="#f9be15"></path><path d="M52.14 62.47v2.84c0 5.46-.93 6.36-6.42 6.36s-6.35-.89-6.37-6.42c0-2.6-.05-5.21 0-7.81.08-2.83 1.5-4.4 4.44-4.37h3.2c3.88.08 5 1.2 5.11 5.13.07 1.42.04 2.8.04 4.27z" fill="#3fa95b"></path><path d="M71.85 64.66c0 6.14-.82 7-6.52 7s-6.55-1-6.54-7c0-5.86 1.05-6.93 6.73-6.92 5.33 0 6.33 1.09 6.33 6.92z" fill="#4c88ef"></path><path d="M26.23 58.71c5.35 0 6.42 1.08 6.42 6.47S31.34 72 26 71.94s-6.43-1.27-6.43-6.56c.02-5.52 1.18-6.68 6.66-6.67z" fill="#f8be18"></path><path d="M52.15 40.81c0 6.16-5.37 9.21-10.68 6.32a4 4 0 0 1-2-3.14c-.13-.93 0-1.89-.1-2.83-.56-8.43 2.93-8 9.85-7.16 3.67.47 2.78 4.29 2.93 6.81zM45.91 15.56c5.37 0 6.27.94 6.25 6.52 0 5.21-1 6.24-6.22 6.24-5.7 0-6.61-.9-6.59-6.56.01-5.34.93-6.2 6.56-6.2z" fill="#3fa95b"></path></svg></svg> <!----></g></g> <g transform="translate(0,92.26480102539062)"><g data-gra="path-name" fill-rule="" class="tp-name iconsvg-namesvg" transform="matrix(1,0,0,1,0,0)" opacity="1"><g transform="scale(1.4000000000000004)"><g><path d="M8.51 0L13.07 0 4.75-23.1 0.07-23.1ZM14.55-3.43L22.31-23.1 17.23-23.1 12.44-9.21ZM29.14-6.9L29.14-23.1 24.65-23.1 24.65-6.9ZM24.65 0L41.45 0 41.45-4.36 24.65-4.36ZM54.38-23.43L54.38-19.21C58.74-19.21 62.04-16.7 62.04-11.55 62.04-6.4 58.74-3.86 54.38-3.86 50.16-3.86 46.89-6.4 46.89-11.55 46.89-11.55 42.41-11.55 42.41-11.55 42.41-3.93 47.72 0.33 54.38 0.33 61.22 0.33 66.5-3.6 66.5-11.55 66.5-19.14 61.22-23.43 54.38-23.43ZM73.36-11.55C73.36-16.04 76.46-19.5 81.08-19.5 84.61-19.5 86.89-17.85 87.75-15.21L92.47-15.21C91.34-20.99 87.35-23.43 81.05-23.43 73.69-23.43 69.04-18.81 69.04-11.55ZM80.72 0L88.37-5.51 88.37 0 92.53 0C92.53-0.17 92.53-12.14 92.53-12.31L80.26-12.31 80.26-9.08 86.92-9.08 74.32 0ZM106.72-10.2L99.5-23.1 94.38-23.1 102.27-9.24 102.27 0 106.72 0ZM108.21-12.44L114.81-23.1 109.76-23.1 105.83-16.34ZM121.08 0L121.08-3.83 116.29-3.83 116.29 0ZM124.64 0L134.15 0C141.24 0 143.22-2.77 143.22-6.44 143.22-9.8 140.09-11.68 136.32-11.85L136.32-12.01C139.19-12.34 141.17-14.09 141.17-17.19 141.17-20.43 139.69-23.1 133.25-23.1L124.64-23.1 124.64-19.37 132.76-19.37C135.7-19.37 136.95-18.71 136.95-16.7 136.95-14.32 135.1-13.83 132.59-13.83L124.64-13.83 124.64-9.8 133.02-9.8C136.29-9.8 138.5-8.98 138.5-6.67 138.5-4.36 136.82-3.76 133.09-3.76L124.64-3.76ZM150.45-6.9L150.45-23.1 145.96-23.1 145.96-6.9ZM145.96 0L162.76 0 162.76-4.36 145.96-4.36ZM175.69-23.43L175.69-19.21C180.05-19.21 183.35-16.7 183.35-11.55 183.35-6.4 180.05-3.86 175.69-3.86 171.47-3.86 168.2-6.4 168.2-11.55 168.2-11.55 163.71-11.55 163.71-11.55 163.71-3.93 169.03 0.33 175.69 0.33 182.52 0.33 187.8-3.6 187.8-11.55 187.8-19.14 182.52-23.43 175.69-23.43ZM194.67-11.55C194.67-16.04 197.77-19.5 202.39-19.5 205.92-19.5 208.2-17.85 209.06-15.21L213.77-15.21C212.65-20.99 208.66-23.43 202.36-23.43 195-23.43 190.34-18.81 190.34-11.55ZM202.03 0L209.68-5.51 209.68 0 213.84 0C213.84-0.17 213.84-12.14 213.84-12.31L201.56-12.31 201.56-9.08 208.23-9.08 195.62 0Z" transform="translate(-0.07000000774860382, 23.43000030517578)"></path></g> <!----> <!----> <!----> <!----> <!----> <!----> <!----></g></g> <g data-gra="path-slogan" fill-rule="" class="tp-slogan iconsvg-slogansvg" fill="#333" transform="matrix(1,0,0,1,43.428993225097656,40.263999938964844)" opacity="1"><!----> <!----> <g transform="scale(1, 1)"><g transform="scale(1)"><path d="M2.52 0L0-7.87L1.07-7.87L2.33-3.62Q2.54-2.92 2.71-2.32Q2.87-1.72 3.10-1.02L3.10-1.02L3.14-1.02Q3.36-1.72 3.53-2.32Q3.70-2.92 3.90-3.62L3.90-3.62L5.16-7.87L6.18-7.87L3.68 0L2.52 0ZM8.26 0L8.26-7.87L9.26-7.87L9.26-0.85L12.70-0.85L12.70 0L8.26 0ZM17.68 0.14L17.68 0.14Q16.94 0.14 16.32-0.14Q15.70-0.43 15.26-0.97Q14.82-1.50 14.57-2.26Q14.32-3.02 14.32-3.97L14.32-3.97Q14.32-4.92 14.57-5.67Q14.82-6.42 15.26-6.94Q15.70-7.46 16.32-7.74Q16.94-8.02 17.68-8.02L17.68-8.02Q18.43-8.02 19.05-7.73Q19.66-7.45 20.11-6.93Q20.56-6.41 20.81-5.66Q21.06-4.91 21.06-3.97L21.06-3.97Q21.06-3.02 20.81-2.26Q20.56-1.50 20.11-0.97Q19.66-0.43 19.05-0.14Q18.43 0.14 17.68 0.14ZM17.68-0.73L17.68-0.73Q18.21-0.73 18.64-0.96Q19.06-1.19 19.37-1.61Q19.68-2.04 19.84-2.63Q20.01-3.23 20.01-3.97L20.01-3.97Q20.01-4.70 19.84-5.29Q19.68-5.88 19.37-6.29Q19.06-6.70 18.64-6.92Q18.21-7.14 17.68-7.14L17.68-7.14Q17.16-7.14 16.73-6.92Q16.30-6.70 16.00-6.29Q15.69-5.88 15.52-5.29Q15.36-4.70 15.36-3.97L15.36-3.97Q15.36-3.23 15.52-2.63Q15.69-2.04 16.00-1.61Q16.30-1.19 16.73-0.96Q17.16-0.73 17.68-0.73ZM23.29-3.94L23.29-3.94Q23.29-4.88 23.56-5.64Q23.83-6.40 24.32-6.92Q24.80-7.45 25.46-7.73Q26.12-8.02 26.92-8.02L26.92-8.02Q27.73-8.02 28.28-7.71Q28.82-7.40 29.17-7.04L29.17-7.04L28.61-6.41Q28.31-6.72 27.92-6.93Q27.53-7.14 26.93-7.14L26.93-7.14Q26.33-7.14 25.85-6.92Q25.37-6.70 25.03-6.28Q24.70-5.87 24.51-5.28Q24.32-4.69 24.32-3.96L24.32-3.96Q24.32-3.22 24.50-2.62Q24.67-2.03 25.00-1.61Q25.33-1.19 25.82-0.96Q26.30-0.73 26.94-0.73L26.94-0.73Q27.36-0.73 27.74-0.86Q28.12-0.98 28.36-1.20L28.36-1.20L28.36-3.25L26.69-3.25L26.69-4.08L29.27-4.08L29.27-0.77Q28.88-0.37 28.25-0.11Q27.62 0.14 26.83 0.14L26.83 0.14Q26.05 0.14 25.40-0.13Q24.76-0.41 24.29-0.93Q23.82-1.45 23.56-2.21Q23.29-2.98 23.29-3.94ZM37.21 0L37.21-7.03L34.83-7.03L34.83-7.87L40.59-7.87L40.59-7.03L38.22-7.03L38.22 0L37.21 0ZM43.01 0L43.01-7.87L44.00-7.87L44.00-4.57L47.66-4.57L47.66-7.87L48.67-7.87L48.67 0L47.66 0L47.66-3.71L44.00-3.71L44.00 0L43.01 0ZM51.83 0L51.83-7.87L56.37-7.87L56.37-7.03L52.83-7.03L52.83-4.56L55.82-4.56L55.82-3.71L52.83-3.71L52.83-0.85L56.49-0.85L56.49 0L51.83 0ZM62.58 0L62.58-7.87L63.58-7.87L63.58-4.57L67.24-4.57L67.24-7.87L68.24-7.87L68.24 0L67.24 0L67.24-3.71L63.58-3.71L63.58 0L62.58 0ZM71.40 0L71.40-7.87L75.94-7.87L75.94-7.03L72.40-7.03L72.40-4.56L75.39-4.56L75.39-3.71L72.40-3.71L72.40-0.85L76.06-0.85L76.06 0L71.40 0ZM78.73 0L78.73-7.87L79.72-7.87L79.72-0.85L83.17-0.85L83.17 0L78.73 0ZM85.56 0L85.56-7.87L86.56-7.87L86.56-0.85L90.00-0.85L90.00 0L85.56 0ZM98.72 0.14L98.72 0.14Q97.98 0.14 97.36-0.14Q96.74-0.43 96.30-0.97Q95.85-1.50 95.61-2.26Q95.36-3.02 95.36-3.97L95.36-3.97Q95.36-4.92 95.61-5.67Q95.85-6.42 96.30-6.94Q96.74-7.46 97.36-7.74Q97.98-8.02 98.72-8.02L98.72-8.02Q99.46-8.02 100.08-7.73Q100.70-7.45 101.15-6.93Q101.60-6.41 101.85-5.66Q102.09-4.91 102.09-3.97L102.09-3.97Q102.09-3.02 101.85-2.26Q101.60-1.50 101.15-0.97Q100.70-0.43 100.08-0.14Q99.46 0.14 98.72 0.14ZM98.72-0.73L98.72-0.73Q99.25-0.73 99.67-0.96Q100.10-1.19 100.41-1.61Q100.71-2.04 100.88-2.63Q101.05-3.23 101.05-3.97L101.05-3.97Q101.05-4.70 100.88-5.29Q100.71-5.88 100.41-6.29Q100.10-6.70 99.67-6.92Q99.25-7.14 98.72-7.14L98.72-7.14Q98.19-7.14 97.77-6.92Q97.34-6.70 97.03-6.29Q96.73-5.88 96.56-5.29Q96.39-4.70 96.39-3.97L96.39-3.97Q96.39-3.23 96.56-2.63Q96.73-2.04 97.03-1.61Q97.34-1.19 97.77-0.96Q98.19-0.73 98.72-0.73ZM104.75-3.25L104.75-7.87L105.74-7.87L105.74-3.23Q105.74-2.52 105.89-2.04Q106.03-1.56 106.28-1.27Q106.52-0.98 106.86-0.86Q107.20-0.73 107.58-0.73L107.58-0.73Q107.98-0.73 108.31-0.86Q108.65-0.98 108.90-1.27Q109.15-1.56 109.30-2.04Q109.44-2.52 109.44-3.23L109.44-3.23L109.44-7.87L110.40-7.87L110.40-3.25Q110.40-2.30 110.18-1.66Q109.97-1.01 109.59-0.61Q109.21-0.20 108.70-0.03Q108.18 0.14 107.58 0.14L107.58 0.14Q106.98 0.14 106.46-0.03Q105.94-0.20 105.56-0.61Q105.18-1.01 104.96-1.66Q104.75-2.30 104.75-3.25L104.75-3.25ZM115.16 0L115.16-7.03L112.78-7.03L112.78-7.87L118.54-7.87L118.54-7.03L116.16-7.03L116.16 0L115.16 0ZM127.28 0.14L127.28 0.14Q126.54 0.14 125.92-0.14Q125.30-0.43 124.86-0.97Q124.42-1.50 124.17-2.26Q123.92-3.02 123.92-3.97L123.92-3.97Q123.92-4.92 124.17-5.67Q124.42-6.42 124.86-6.94Q125.30-7.46 125.92-7.74Q126.54-8.02 127.28-8.02L127.28-8.02Q128.03-8.02 128.65-7.73Q129.26-7.45 129.71-6.93Q130.16-6.41 130.41-5.66Q130.66-4.91 130.66-3.97L130.66-3.97Q130.66-3.02 130.41-2.26Q130.16-1.50 129.71-0.97Q129.26-0.43 128.65-0.14Q128.03 0.14 127.28 0.14ZM127.28-0.73L127.28-0.73Q127.81-0.73 128.24-0.96Q128.66-1.19 128.97-1.61Q129.28-2.04 129.44-2.63Q129.61-3.23 129.61-3.97L129.61-3.97Q129.61-4.70 129.44-5.29Q129.28-5.88 128.97-6.29Q128.66-6.70 128.24-6.92Q127.81-7.14 127.28-7.14L127.28-7.14Q126.76-7.14 126.33-6.92Q125.90-6.70 125.60-6.29Q125.29-5.88 125.12-5.29Q124.96-4.70 124.96-3.97L124.96-3.97Q124.96-3.23 125.12-2.63Q125.29-2.04 125.60-1.61Q125.90-1.19 126.33-0.96Q126.76-0.73 127.28-0.73ZM133.35 0L133.35-7.87L137.88-7.87L137.88-7.03L134.34-7.03L134.34-4.37L137.34-4.37L137.34-3.53L134.34-3.53L134.34 0L133.35 0ZM144.97 0L144.97-3.05L142.61-7.87L143.68-7.87L144.70-5.65Q144.89-5.22 145.07-4.80Q145.25-4.38 145.45-3.94L145.45-3.94L145.50-3.94Q145.70-4.38 145.91-4.80Q146.11-5.22 146.29-5.65L146.29-5.65L147.30-7.87L148.34-7.87L145.98-3.05L145.98 0L144.97 0ZM153.15 0.14L153.15 0.14Q152.40 0.14 151.79-0.14Q151.17-0.43 150.72-0.97Q150.28-1.50 150.03-2.26Q149.79-3.02 149.79-3.97L149.79-3.97Q149.79-4.92 150.03-5.67Q150.28-6.42 150.72-6.94Q151.17-7.46 151.79-7.74Q152.40-8.02 153.15-8.02L153.15-8.02Q153.89-8.02 154.51-7.73Q155.13-7.45 155.58-6.93Q156.03-6.41 156.27-5.66Q156.52-4.91 156.52-3.97L156.52-3.97Q156.52-3.02 156.27-2.26Q156.03-1.50 155.58-0.97Q155.13-0.43 154.51-0.14Q153.89 0.14 153.15 0.14ZM153.15-0.73L153.15-0.73Q153.68-0.73 154.10-0.96Q154.53-1.19 154.83-1.61Q155.14-2.04 155.31-2.63Q155.48-3.23 155.48-3.97L155.48-3.97Q155.48-4.70 155.31-5.29Q155.14-5.88 154.83-6.29Q154.53-6.70 154.10-6.92Q153.68-7.14 153.15-7.14L153.15-7.14Q152.62-7.14 152.19-6.92Q151.77-6.70 151.46-6.29Q151.16-5.88 150.99-5.29Q150.82-4.70 150.82-3.97L150.82-3.97Q150.82-3.23 150.99-2.63Q151.16-2.04 151.46-1.61Q151.77-1.19 152.19-0.96Q152.62-0.73 153.15-0.73ZM159.18-3.25L159.18-7.87L160.17-7.87L160.17-3.23Q160.17-2.52 160.32-2.04Q160.46-1.56 160.71-1.27Q160.95-0.98 161.29-0.86Q161.62-0.73 162.01-0.73L162.01-0.73Q162.40-0.73 162.74-0.86Q163.08-0.98 163.33-1.27Q163.58-1.56 163.72-2.04Q163.87-2.52 163.87-3.23L163.87-3.23L163.87-7.87L164.83-7.87L164.83-3.25Q164.83-2.30 164.61-1.66Q164.40-1.01 164.02-0.61Q163.64-0.20 163.12-0.03Q162.61 0.14 162.01 0.14L162.01 0.14Q161.41 0.14 160.89-0.03Q160.36-0.20 159.99-0.61Q159.61-1.01 159.39-1.66Q159.18-2.30 159.18-3.25L159.18-3.25ZM168.95-7.07L168.95-4.14L170.27-4.14Q171.19-4.14 171.68-4.52Q172.18-4.90 172.18-5.66L172.18-5.66Q172.18-6.44 171.68-6.76Q171.19-7.07 170.27-7.07L170.27-7.07L168.95-7.07ZM173.40 0L172.27 0L170.38-3.32L168.95-3.32L168.95 0L167.95 0L167.95-7.87L170.41-7.87Q171.01-7.87 171.52-7.76Q172.03-7.64 172.40-7.38Q172.76-7.12 172.97-6.70Q173.17-6.28 173.17-5.66L173.17-5.66Q173.17-4.74 172.69-4.19Q172.21-3.64 171.41-3.43L171.41-3.43L173.40 0ZM179.35 0L179.35-7.87L181.69-7.87Q182.29-7.87 182.79-7.76Q183.28-7.66 183.64-7.43Q183.99-7.20 184.19-6.83Q184.39-6.47 184.39-5.95L184.39-5.95Q184.39-5.36 184.05-4.89Q183.72-4.42 183.02-4.24L183.02-4.24L183.02-4.19Q183.88-4.06 184.36-3.59Q184.84-3.12 184.84-2.30L184.84-2.30Q184.84-1.73 184.63-1.30Q184.41-0.86 184.02-0.58Q183.62-0.29 183.07-0.14Q182.52 0 181.86 0L181.86 0L179.35 0ZM180.34-4.51L181.51-4.51Q182.53-4.51 182.97-4.86Q183.40-5.21 183.40-5.87L183.40-5.87Q183.40-6.52 182.94-6.80Q182.48-7.08 181.56-7.08L181.56-7.08L180.34-7.08L180.34-4.51ZM180.34-0.79L181.71-0.79Q182.73-0.79 183.30-1.17Q183.86-1.55 183.86-2.35L183.86-2.35Q183.86-3.08 183.31-3.43Q182.76-3.77 181.71-3.77L181.71-3.77L180.34-3.77L180.34-0.79ZM187.40 0L187.40-7.87L188.40-7.87L188.40-0.85L191.84-0.85L191.84 0L187.40 0ZM196.83 0.14L196.83 0.14Q196.08 0.14 195.47-0.14Q194.85-0.43 194.40-0.97Q193.96-1.50 193.71-2.26Q193.47-3.02 193.47-3.97L193.47-3.97Q193.47-4.92 193.71-5.67Q193.96-6.42 194.40-6.94Q194.85-7.46 195.47-7.74Q196.08-8.02 196.83-8.02L196.83-8.02Q197.57-8.02 198.19-7.73Q198.81-7.45 199.26-6.93Q199.71-6.41 199.95-5.66Q200.20-4.91 200.20-3.97L200.20-3.97Q200.20-3.02 199.95-2.26Q199.71-1.50 199.26-0.97Q198.81-0.43 198.19-0.14Q197.57 0.14 196.83 0.14ZM196.83-0.73L196.83-0.73Q197.36-0.73 197.78-0.96Q198.21-1.19 198.51-1.61Q198.82-2.04 198.99-2.63Q199.16-3.23 199.16-3.97L199.16-3.97Q199.16-4.70 198.99-5.29Q198.82-5.88 198.51-6.29Q198.21-6.70 197.78-6.92Q197.36-7.14 196.83-7.14L196.83-7.14Q196.30-7.14 195.87-6.92Q195.45-6.70 195.14-6.29Q194.84-5.88 194.67-5.29Q194.50-4.70 194.50-3.97L194.50-3.97Q194.50-3.23 194.67-2.63Q194.84-2.04 195.14-1.61Q195.45-1.19 195.87-0.96Q196.30-0.73 196.83-0.73ZM202.44-3.94L202.44-3.94Q202.44-4.88 202.71-5.64Q202.98-6.40 203.46-6.92Q203.95-7.45 204.61-7.73Q205.27-8.02 206.06-8.02L206.06-8.02Q206.88-8.02 207.42-7.71Q207.97-7.40 208.32-7.04L208.32-7.04L207.75-6.41Q207.45-6.72 207.06-6.93Q206.67-7.14 206.07-7.14L206.07-7.14Q205.47-7.14 204.99-6.92Q204.51-6.70 204.18-6.28Q203.84-5.87 203.65-5.28Q203.47-4.69 203.47-3.96L203.47-3.96Q203.47-3.22 203.64-2.62Q203.82-2.03 204.15-1.61Q204.48-1.19 204.96-0.96Q205.45-0.73 206.08-0.73L206.08-0.73Q206.50-0.73 206.88-0.86Q207.26-0.98 207.50-1.20L207.50-1.20L207.50-3.25L205.83-3.25L205.83-4.08L208.41-4.08L208.41-0.77Q208.03-0.37 207.40-0.11Q206.77 0.14 205.98 0.14L205.98 0.14Q205.20 0.14 204.55-0.13Q203.90-0.41 203.43-0.93Q202.96-1.45 202.70-2.21Q202.44-2.98 202.44-3.94ZM211.00-0.60L211.00-0.60Q211.00-0.95 211.21-1.16Q211.42-1.37 211.72-1.37L211.72-1.37Q212.00-1.37 212.21-1.16Q212.42-0.95 212.42-0.60L212.42-0.60Q212.42-0.28 212.21-0.07Q212.00 0.14 211.72 0.14L211.72 0.14Q211.42 0.14 211.21-0.07Q211.00-0.28 211.00-0.60Z" transform="translate(0, 8.016)"></path></g></g></g></g></g><defs v-gra="od"></defs></svg>