<svg data-v-6805eed4="" version="1.0" xmlns="http://www.w3.org/2000/svg" xmlns:xlink="http://www.w3.org/1999/xlink" width="100%" height="100%" viewBox="0 0 340.000000 250.000000" preserveAspectRatio="xMidYMid meet" color-interpolation-filters="sRGB" style="margin: auto;"> <rect data-v-6805eed4="" x="0" y="0" width="100%" height="100%" fill="#fff" fill-opacity="0" class="background"></rect> <rect data-v-6805eed4="" x="0" y="0" width="100%" height="100%" fill="url(#watermark)" fill-opacity="1" class="watermarklayer"></rect> <g data-v-6805eed4="" fill="#1A1A1A" class="icon-text-wrapper icon-svg-group iconsvg" transform="translate(80.73500061035156,95.97051620483398)"><g class="iconsvg-imagesvg" transform="matrix(1,0,0,1,59.26499938964844,0)" opacity="1"><g><rect fill="#1A1A1A" fill-opacity="0" stroke-width="2" x="0" y="0" width="60" height="37.72896767256287" class="image-rect"></rect> <svg x="0" y="0" width="60" height="37.72896767256287" filtersec="colorsb5599551579" class="image-svg-svg primary" style="overflow: visible;"><svg xmlns="http://www.w3.org/2000/svg" viewBox="0 0 88.42000579833984 55.599998474121094"><title>w13</title><g data-name="图层 2"><g data-name="Layer 1"><path d="M22.32 28.6V21c0-14.18-2.38-19.73-11.81-19.73C4.11 1.22 0 5.76 0 14.76c0 3.1 1.22 3.74 1.8 3.74.94 0 1.08-.43 1.08-.43C2.88 7.7 5.69 4.54 9.65 4.54c3.6 0 6.12 3.38 6.19 16.42v8.91l3.6-6.24zM51.25 30v-3.63c0-7.92.58-16.34.58-23.54a5.06 5.06 0 0 0-3.46-1.73 4.13 4.13 0 0 0-3.89 4.39c0 10.37-.28 18.6-.87 25.09l4-6.95zM81.87 28.69c.35-3 .57-6.38.65-10h2.16c3.1 0 3.74-1.22 3.74-1.8 0-1-.43-1.08-.43-1.08-1.94 0-3.74-.07-5.4-.14C82.09 5.47 78.7 0 71.14 0c-4.75 0-7.63 3.17-7.63 7.42 0 6.48 4.9 9.58 12.6 10.73a110.79 110.79 0 0 1-.58 11.39l3.42-5.92zM66.82 7.2A4.21 4.21 0 0 1 71.14 3C74 3 75.75 5.47 76 15c-6.23-1.17-9.18-3.62-9.18-7.8z" fill="#1a1a1a"></path><path d="M78.95 23.62l-3.42 5.92c-.81 7.64-2.43 13.28-4.46 17.08-2.21 4.12-4.91 6.09-7.63 6.09-4.51 0-7.41-2.32-9.25-6.09-2-4.15-2.77-10.08-2.94-16.63l-3.67-6.37-4 6.95c-.67 7.44-1.75 12.6-3.29 16.05-2 4.48-4.75 6.09-8.37 6.09-3.92 0-6.55-1.76-8-6.09-1-3-1.53-7.15-1.53-12.85V28.6l-2.88-5-3.6 6.24v3.55c0 5.58.78 9.91 2.16 13.21 2.72 6.5 7.78 9 13.9 9 4.68 0 10.25-2.18 13.88-9a26 26 0 0 0 1.67-3.85 27.56 27.56 0 0 0 1.71 3.85c3.33 6.16 8.34 9 14.27 9 5.24 0 10-2.63 13.5-9 2.31-4.22 4-10.09 4.94-17.93z" fill="#9e005d"></path></g></g></svg></svg> <!----></g></g> <g transform="translate(0,44.728965759277344)"><g data-gra="path-name" fill-rule="" class="tp-name iconsvg-namesvg" opacity="1" transform="matrix(1,0,0,1,0,0)"><g transform="scale(1)"><g><path d="M15.6-12.82L14.03-6.77C13.71-5.57 13.53-4.71 13.51-4.71L13.49-4.71C13.48-4.71 13.27-5.57 12.83-6.77L11.06-11.61 8.18-11.61 6.41-6.77C5.97-5.57 5.77-4.71 5.75-4.71L5.73-4.71C5.71-4.71 5.53-5.57 5.22-6.77L3.64-12.82 0.37-12.82 4.25 0 7.14 0 9.04-5.91C9.45-7.18 9.59-8.07 9.61-8.07L9.63-8.07C9.65-8.07 9.8-7.18 10.2-5.91L12.1 0 15 0 18.88-12.82ZM35.21-12.82L33.63-6.77C33.32-5.57 33.14-4.71 33.12-4.71L33.1-4.71C33.09-4.71 32.88-5.57 32.44-6.77L30.67-11.61 27.79-11.61 26.02-6.77C25.58-5.57 25.38-4.71 25.36-4.71L25.34-4.71C25.32-4.71 25.14-5.57 24.83-6.77L23.25-12.82 19.98-12.82 23.86 0 26.75 0 28.65-5.91C29.06-7.18 29.2-8.07 29.22-8.07L29.24-8.07C29.26-8.07 29.4-7.18 29.81-5.91L31.71 0 34.6 0 38.49-12.82ZM54.82-12.82L53.24-6.77C52.93-5.57 52.75-4.71 52.73-4.71L52.71-4.71C52.69-4.71 52.49-5.57 52.05-6.77L50.28-11.61 47.4-11.61 45.63-6.77C45.19-5.57 44.99-4.71 44.97-4.71L44.95-4.71C44.93-4.71 44.75-5.57 44.44-6.77L42.86-12.82 39.58-12.82 43.47 0 46.36 0 48.26-5.91C48.67-7.18 48.81-8.07 48.83-8.07L48.85-8.07C48.87-8.07 49.01-7.18 49.42-5.91L51.32 0 54.21 0 58.1-12.82ZM59.18 0.22C59.96 0.22 60.6-0.42 60.6-1.23 60.6-2.01 59.96-2.65 59.18-2.65 58.37-2.65 57.73-2.01 57.73-1.23 57.73-0.42 58.37 0.22 59.18 0.22ZM69.67-12.82L67.2-5.75C66.7-4.32 66.48-3.41 66.46-3.41L66.44-3.41C66.43-3.41 66.21-4.32 65.71-5.75L63.24-12.82 59.87-12.82 64.8 0 68.11 0 73.04-12.82ZM77.36-2.87L77.36-12.82 74.28-12.82 74.28 0 83.42 0 83.42-2.87ZM84.06-6.41C84.06-2.55 87.02 0.26 90.7 0.26 94.39 0.26 97.37-2.55 97.37-6.41 97.37-10.27 94.39-13.07 90.7-13.07 87.02-13.07 84.06-10.27 84.06-6.41ZM87.26-6.41C87.26-8.57 88.64-10.03 90.7-10.03 92.79-10.03 94.17-8.57 94.17-6.41 94.17-4.27 92.79-2.78 90.7-2.78 88.64-2.78 87.26-4.27 87.26-6.41ZM109.07-1.04C109.07-1.03 109.05-0.84 109.05 0L111.69 0 111.69-7.25 105.7-7.25 105.7-4.78 109.07-4.78 109.07-4.76C108.7-3.81 107.81-2.75 105.76-2.75 103.65-2.75 102.13-4.16 102.13-6.41 102.13-8.51 103.45-10.03 105.57-10.03 106.58-10.03 107.66-9.58 108.26-8.84L111.39-9.67C110.24-11.75 108.06-13.07 105.57-13.07 101.89-13.07 98.93-10.27 98.93-6.41 98.93-2.55 101.89 0.26 105.57 0.26 106.84 0.26 108.3-0.24 109.05-1.04ZM121.12-12.82L118.79-9.39C118.43-8.84 118.15-8.46 118.13-8.46L118.11-8.46C118.1-8.46 117.82-8.84 117.45-9.39L115.13-12.82 111.69-12.82 116.59-5.68 116.59 0 119.65 0 119.65-5.68 124.56-12.82ZM125.46 0.22C126.24 0.22 126.88-0.42 126.88-1.23 126.88-2.01 126.24-2.65 125.46-2.65 124.65-2.65 124.01-2.01 124.01-1.23 124.01-0.42 124.65 0.22 125.46 0.22ZM129.41-12.82L129.41 0 134.94 0C138.11 0 139.52-1.74 139.52-3.88 139.52-5.18 138.47-6.57 137.27-6.9L137.27-6.92C138.03-7.2 138.86-8.22 138.86-9.43 138.86-11.3 137.27-12.82 134.98-12.82ZM132.49-7.82L132.49-10.23 134.34-10.23C135.16-10.23 135.76-9.72 135.76-9.03 135.76-8.33 135.16-7.82 134.34-7.82ZM132.49-2.58L132.49-5.47 134.63-5.47C135.6-5.47 136.3-4.93 136.3-4.03 136.3-3.19 135.65-2.58 134.63-2.58ZM144.57-2.87L144.57-12.82 141.5-12.82 141.5 0 150.63 0 150.63-2.87ZM151.27-6.41C151.27-2.55 154.24 0.26 157.92 0.26 161.6 0.26 164.58-2.55 164.58-6.41 164.58-10.27 161.6-13.07 157.92-13.07 154.24-13.07 151.27-10.27 151.27-6.41ZM154.48-6.41C154.48-8.57 155.85-10.03 157.92-10.03 160.01-10.03 161.38-8.57 161.38-6.41 161.38-4.27 160.01-2.78 157.92-2.78 155.85-2.78 154.48-4.27 154.48-6.41ZM176.28-1.04C176.28-1.03 176.26-0.84 176.26 0L178.9 0 178.9-7.25 172.91-7.25 172.91-4.78 176.28-4.78 176.28-4.76C175.92-3.81 175.02-2.75 172.97-2.75 170.86-2.75 169.34-4.16 169.34-6.41 169.34-8.51 170.66-10.03 172.79-10.03 173.79-10.03 174.87-9.58 175.48-8.84L178.61-9.67C177.45-11.75 175.28-13.07 172.79-13.07 169.11-13.07 166.14-10.27 166.14-6.41 166.14-2.55 169.11 0.26 172.79 0.26 174.05 0.26 175.51-0.24 176.26-1.04Z" transform="translate(-0.3700000047683716, 13.069999694824219)"></path></g> <!----> <!----> <!----> <!----> <!----> <!----> <!----></g></g> <!----></g></g><defs v-gra="od"></defs></svg>