<svg data-v-6805eed4="" version="1.0" xmlns="http://www.w3.org/2000/svg" xmlns:xlink="http://www.w3.org/1999/xlink" width="100%" height="100%" viewBox="0 0 340.000000 250.000000" preserveAspectRatio="xMidYMid meet" color-interpolation-filters="sRGB" style="margin: auto;"> <rect data-v-6805eed4="" x="0" y="0" width="100%" height="100%" fill="#0063dc" fill-opacity="0" class="background"></rect> <rect data-v-6805eed4="" x="0" y="0" width="100%" height="100%" fill="url(#watermark)" fill-opacity="1" class="watermarklayer"></rect> <g data-v-6805eed4="" fill="#fff" class="pmspacesvg" transform="translate(71.52999877929688,86.16699981689453)"><!----> <g><!----> <!----> <!----> <g fill-opacity="1" mask="url(#0b562066-0d65-49a7-9489-44dc46fb5e1c)"><g><rect data-gra="graph-name-bg" stroke-width="2" class="i-icon-bg" x="0" y="0" width="196.94000244140625" height="77.66600036621094" rx="10" ry="10"></rect> <!----> <!----> </g> <g transform="translate(10,10)"><g data-gra="path-name" fill-rule="" class="tp-name" fill="#0063dc" fill-opacity="1" transform="matrix(1,0,0,1,0,0)" opacity="1"><g transform="scale(1)"><g><path d="M15.02 0.2Q14.37 0.2 14.04 0.07L14.04 0.07Q13.65-0.07 13.33-0.07L13.33-0.07 12.74-0.07Q12.22-0.39 12.22-0.72L12.22-0.72 7.02-18.27Q5.33-24.64 3.77-32.05L3.77-32.05Q3.77-32.3 3.71-32.6 3.64-32.89 3.58-33.22L3.58-33.22Q3.31-34.65 3.31-35.36L3.31-35.36Q3.31-36.14 3.45-36.47L3.45-36.47Q3.64-37.12 4.29-37.12L4.29-37.12 5.59-37.12Q6.37-37.05 7.74-37.05L7.74-37.05 9.69-37.05 10.6-36.98 14.56-36.98Q14.63-36.92 14.79-36.82 14.95-36.73 15.15-36.73L15.15-36.73Q15.15-36.73 15.21-36.76 15.28-36.79 15.34-36.92L15.34-36.92 15.86-36.98 16.12-36.98Q16.77-36.92 17.94-36.92L17.94-36.92Q19.05-36.73 21.32-36.73L21.32-36.73Q21.78-36.01 22.43-32.7L22.43-32.7 23.01-29.57 23.4-27.56 23.73-26 23.92-24.96Q24.44-21.84 24.89-19.57L24.89-19.57Q25.22-17.42 25.87-14.17L25.87-14.17 26-13.2 26-12.87Q26-12.54 26.07-12.29L26.07-12.29Q26.07-12.42 26.13-12.48 26.2-12.54 26.2-12.68L26.2-12.68Q26.2-13.07 26.26-13.2L26.26-13.2 26.39-14.17Q26.78-16.05 27.3-19.57L27.3-19.57 27.69-21.91Q27.89-22.75 28.02-23.53 28.14-24.31 28.28-24.96L28.28-24.96Q28.34-25.55 28.41-25.74 28.47-25.94 28.47-26L28.47-26Q28.73-27.63 29.19-29.57L29.19-29.57 29.51-31.14Q29.84-33.22 30.42-35.3L30.42-35.3Q30.62-36.14 30.94-36.73L30.94-36.73Q32.24-36.73 33.67-36.92L33.67-36.92 34.71-36.92 35.16-36.98 35.3-36.98 35.36-36.92Q35.43-36.73 35.49-36.73L35.49-36.73Q35.95-36.73 35.95-36.79L35.95-36.79Q35.95-36.86 35.98-36.89 36.01-36.92 36.01-36.98L36.01-36.98 39.59-36.98 40.04-36.98 42.51-37.05Q43.42-37.05 43.94-37.12L43.94-37.12 45.18-37.12 45.89-37.12Q47-37.12 47-34.97L47-34.97 46.67-33.22Q46.41-32.18 46.41-32.05L46.41-32.05Q44.52-23.14 43.16-18.27L43.16-18.27 37.96-0.72Q37.96-0.58 37.8-0.39 37.63-0.2 37.44-0.07L37.44-0.07 36.92-0.07Q36.66-0.07 36.27 0.07L36.27 0.07Q36.01 0.2 35.62 0.2L35.62 0.2Q34.65 0.2 34.13 0.07L34.13 0.07Q33.22-0.07 32.56-0.07L32.56-0.07Q32.44 0.07 31.85 0.07L31.85 0.07Q30.94 0.2 28.21 0.2L28.21 0.2 26.2 0.2 24.57 0.2 23.73 0.2 23.14 0.2Q22.95 0.13 21.71 0L21.71 0 20.35 0 19.7-0.07Q18.85-0.07 17.29 0.07L17.29 0.07Q16.51 0.2 15.02 0.2L15.02 0.2ZM72.87 0.39L71.96 0.33 71.11 0.2 70.07 0.2Q69.09 0.07 66.69-0.07L66.69-0.07Q66.17-0.07 65.72-0.13 65.26-0.2 64.87-0.2L64.87-0.2 63.44-0.2 62.79-0.26Q60.71-0.26 59.74-0.2L59.74-0.2Q58.76-0.07 56.68-0.07L56.68-0.07 55.38-0.07 54.21 0 54.02-0.26 54.02-0.98 54.02-2.6 54.02-4.29 54.02-5.4 54.02-9.81Q54.02-11.38 53.89-12.09L53.89-12.09 53.89-13.65 54.15-16.45Q54.34-19.05 54.34-23.92L54.34-23.92Q54.47-31.79 55.32-35.3L55.32-35.3Q55.77-37.18 56.81-37.7L56.81-37.7 64.42-37.63Q65.39-37.57 67.21-37.57L67.21-37.57 70.33-37.57Q70.66-37.51 71.53-37.44 72.41-37.38 72.87-37.12L72.87-37.12Q73.26-36.79 73.42-36.24 73.58-35.69 73.58-34.65L73.58-34.65 73.52-34.13 73.52-33.34Q73.32-32.89 73.32-32.44L73.32-32.44Q73.19-31.92 73.26-31.39L73.26-31.39 73.26-30.42Q73.32-30.1 73.32-29.51L73.32-29.51 73.39-28.99 73.39-27.5 73.45-25.41Q73.52-24.77 73.52-23.6L73.52-23.6Q73.65-22.69 73.84-22.36L73.84-22.36Q73.84-21.91 73.78-21.39 73.71-20.87 73.71-20.35L73.71-20.35Q73.65-19.57 73.65-18L73.65-18Q73.65-16.51 73.71-15.79L73.71-15.79Q73.71-14.76 74.03-13.65L74.03-13.65Q74.69-13.39 75.53-13.39L75.53-13.39Q77.68-13.39 79.98-13.46 82.29-13.52 84.11-13.85L84.11-13.85Q84.5-13.78 84.86-13.33 85.22-12.87 85.22-12.54L85.22-12.54 84.76-1.36Q84.63-0.98 84.24-0.84L84.24-0.84Q83.14-0.33 81.19-0.2L81.19-0.2Q78.59 0.2 77.74 0.2L77.74 0.2 76.64 0.2Q75.34 0.2 74.69 0.26L74.69 0.26Q73.39 0.39 72.87 0.39L72.87 0.39ZM109.91 1.63Q109.39 1.63 108.48 1.5L108.48 1.5Q108.03 1.36 107.06 1.36L107.06 1.36Q104.59 1.36 100.94 0.26L100.94 0.26 100.49 0.26Q100.03 0.26 99.52 0L99.52 0Q99.39-0.13 99.19-0.23 99-0.33 98.73-0.52L98.73-0.52 97.37-1.3Q95.42-2.41 93.92-4.39 92.43-6.37 91.52-8.78L91.52-8.78Q89.77-13.2 89.77-17.81L89.77-17.81Q89.77-22.95 91.84-27.69L91.84-27.69Q94.05-32.7 97.76-35.62L97.76-35.62Q101.86-38.87 106.86-38.87L106.86-38.87Q108.42-38.87 109.27-38.74L109.27-38.74Q109.27-38.87 109.46-38.87L109.46-38.87 109.66-38.87Q114.2-38.87 117.78-38.55L117.78-38.55Q120.84-38.09 123.44-36.66L123.44-36.66Q128.63-33.22 130.91-29.12L130.91-29.12Q133.31-24.57 133.31-18.39L133.31-18.39Q133.31-12.22 130.39-6.83L130.39-6.83 129.74-5.79Q129.48-5.4 129.41-5.4L129.41-5.4 129.22-5.07 128.76-4.81Q125.97-0.65 120.31 0.84L120.31 0.84Q116.55 1.63 109.91 1.63L109.91 1.63ZM111.02-3.25Q111.61-3.25 111.93-3.97L111.93-3.97Q112.71-5.13 113.23-8.52L113.23-8.52Q113.3-9.1 113.56-11.12 113.81-13.13 113.88-14.88L113.88-14.88Q114.14-19.3 114.14-20.35L114.14-20.35 114.14-21.84 114.14-22.36Q114.14-24.7 113.94-26.39L113.94-26.39Q113.75-29.05 113.16-30.62L113.16-30.62Q112.58-31.39 112.25-31.39L112.25-31.39Q111.61-31.39 111.02-30.42L111.02-30.42Q110.44-29.45 110.11-26.85L110.11-26.85 108.75-16.45 108.75-15.15 108.75-14.3Q108.94-11.57 108.94-10.72L108.94-10.72 109.07-9.17 109.27-7.08Q109.27-6.57 109.39-6.17L109.39-6.17 110.11-3.77Q110.17-3.51 110.47-3.38 110.76-3.25 111.02-3.25L111.02-3.25ZM155.87 1.5Q151.71 1.5 148.14-0.52L148.14-0.52Q143.98-2.6 141.57-6.76L141.57-6.76Q138.84-11.57 138.84-18.46L138.84-18.46Q138.84-23.21 140.56-27.04 142.29-30.88 145.41-33.54L145.41-33.54Q148.46-36.14 152.62-37.51 156.78-38.87 161.66-38.87L161.66-38.87Q168.61-38.87 176.54-35.16L176.54-35.16 174.27-25.61Q173.1-25.87 172.12-26.2L172.12-26.2Q169.59-26.91 167.51-27.23L167.51-27.23Q166.08-27.5 165.3-27.5L165.3-27.5Q161.92-27.5 160.03-25.61L160.03-25.61Q157.82-23.27 157.82-18.14L157.82-18.14Q157.82-13.78 159.19-11.44L159.19-11.44Q160.49-9.62 162.63-9.62L162.63-9.62Q164.39-9.62 166.01-10.34L166.01-10.34Q165.95-10.99 165.88-11.86 165.82-12.74 165.82-13.91L165.82-13.91Q165.56-16.25 165.3-17.23L165.3-17.23 165.3-19.76Q165.3-20.21 165.69-20.21L165.69-20.21 166.01-20.21Q166.21-20.21 166.4-20.28 166.6-20.35 166.79-20.35L166.79-20.35Q167.44-20.48 167.57-20.48L167.57-20.48Q168.03-20.48 168.81-20.35L168.81-20.35Q169.07-20.35 169.39-20.28 169.72-20.21 170.04-20.21L170.04-20.21Q170.3-20.48 171.67-20.48L171.67-20.48Q172.71-20.48 173.29-20.54L173.29-20.54Q173.68-20.67 174.27-20.67L174.27-20.67 175.05-20.87Q175.63-20.8 176.74-20.8L176.74-20.8Q177.19-20.73 177.97-20.73L177.97-20.73Q178.17-20.73 178.3-20.7 178.43-20.67 178.49-20.67L178.49-20.67 179.92-20.67 180.18-20.54 180.18-18.72Q180.25-18.39 180.25-17.75L180.25-17.75 180.25-16.84 180.25-15.15 180.25-9.43 180.25-9.17Q180.18-8.97 180.18-8.64L180.18-8.64Q180.12-8.38 180.12-8.06L180.12-8.06 180.12-7.74Q180.12-4.29 179.99-2.86L179.99-2.86Q179.86-0.72 179.53 0.07L179.53 0.07Q178.17 0.07 177.39 0.2L177.39 0.2 176.09 0.2 175.96 0.2 175.37 0.2 175.31 0.07 175.05 0.2 169.39 0.2 169.13 0.2 168.55 0.2 167.9 0.2Q167.77 0.26 167.44 0.26L167.44 0.26Q166.99 0.26 166.79-1.04L166.79-1.04Q166.47-2.47 166.47-4.42L166.47-4.42Q165.82-1.56 162.89 0L162.89 0Q160.03 1.5 155.87 1.5L155.87 1.5Z" transform="translate(-3.309999942779541, 38.869998931884766)"></path></g> <!----> <!----> <!----> <!----> <!----> <!----> <!----></g></g> <g data-gra="path-slogan" fill-rule="" class="tp-slogan" fill="#0063dc" fill-opacity="1" transform="matrix(1,0,0,1,5,47.5)" opacity="1"><rect x="0" height="1" y="4.585000038146973" width="10.290000915527344"></rect> <rect height="1" y="4.585000038146973" width="10.290000915527344" x="156.6500015258789"></rect> <g transform="translate(13.290000915527344,0)"><g transform="scale(1)"><path d="M2.94 0L0-9.18L1.25-9.18L2.72-4.23Q2.97-3.40 3.16-2.70Q3.35-2.00 3.61-1.19L3.61-1.19L3.67-1.19Q3.92-2.00 4.12-2.70Q4.31-3.40 4.55-4.23L4.55-4.23L6.02-9.18L7.21-9.18L4.30 0L2.94 0ZM13.47 0L13.47-9.18L14.63-9.18L14.63-0.99L18.65-0.99L18.65 0L13.47 0ZM28.30 0.17L28.30 0.17Q27.43 0.17 26.71-0.17Q25.99-0.50 25.47-1.13Q24.95-1.75 24.67-2.64Q24.38-3.53 24.38-4.63L24.38-4.63Q24.38-5.74 24.67-6.62Q24.95-7.49 25.47-8.10Q25.99-8.71 26.71-9.03Q27.43-9.35 28.30-9.35L28.30-9.35Q29.17-9.35 29.89-9.02Q30.61-8.69 31.13-8.09Q31.66-7.48 31.95-6.60Q32.23-5.73 32.23-4.63L32.23-4.63Q32.23-3.53 31.95-2.64Q31.66-1.75 31.13-1.13Q30.61-0.50 29.89-0.17Q29.17 0.17 28.30 0.17ZM28.30-0.85L28.30-0.85Q28.91-0.85 29.41-1.12Q29.91-1.39 30.27-1.88Q30.62-2.38 30.82-3.07Q31.01-3.77 31.01-4.63L31.01-4.63Q31.01-5.49 30.82-6.17Q30.62-6.86 30.27-7.34Q29.91-7.81 29.41-8.07Q28.91-8.33 28.30-8.33L28.30-8.33Q27.68-8.33 27.19-8.07Q26.69-7.81 26.33-7.34Q25.97-6.86 25.78-6.17Q25.58-5.49 25.58-4.63L25.58-4.63Q25.58-3.77 25.78-3.07Q25.97-2.38 26.33-1.88Q26.69-1.39 27.19-1.12Q27.68-0.85 28.30-0.85ZM38.67-4.59L38.67-4.59Q38.67-5.70 38.99-6.58Q39.30-7.46 39.87-8.08Q40.44-8.69 41.21-9.02Q41.98-9.35 42.90-9.35L42.90-9.35Q43.85-9.35 44.49-9.00Q45.13-8.64 45.53-8.22L45.53-8.22L44.88-7.48Q44.53-7.84 44.07-8.09Q43.62-8.33 42.92-8.33L42.92-8.33Q42.22-8.33 41.66-8.07Q41.10-7.81 40.70-7.33Q40.31-6.85 40.09-6.16Q39.88-5.47 39.88-4.62L39.88-4.62Q39.88-3.75 40.08-3.06Q40.28-2.37 40.67-1.88Q41.05-1.39 41.62-1.12Q42.19-0.85 42.93-0.85L42.93-0.85Q43.42-0.85 43.86-1.00Q44.30-1.15 44.58-1.40L44.58-1.40L44.58-3.79L42.64-3.79L42.64-4.76L45.65-4.76L45.65-0.90Q45.20-0.43 44.46-0.13Q43.73 0.17 42.80 0.17L42.80 0.17Q41.89 0.17 41.14-0.15Q40.38-0.48 39.84-1.08Q39.29-1.69 38.98-2.58Q38.67-3.47 38.67-4.59ZM54.33 0L54.33-3.56L51.57-9.18L52.82-9.18L54.01-6.59Q54.23-6.09 54.44-5.60Q54.65-5.11 54.89-4.59L54.89-4.59L54.94-4.59Q55.18-5.11 55.42-5.60Q55.66-6.09 55.87-6.59L55.87-6.59L57.04-9.18L58.26-9.18L55.50-3.56L55.50 0L54.33 0ZM62.88-0.70L62.88-0.70Q62.88-1.11 63.13-1.35Q63.37-1.60 63.72-1.60L63.72-1.60Q64.06-1.60 64.30-1.35Q64.55-1.11 64.55-0.70L64.55-0.70Q64.55-0.32 64.30-0.08Q64.06 0.17 63.72 0.17L63.72 0.17Q63.37 0.17 63.13-0.08Q62.88-0.32 62.88-0.70ZM71.72 0L71.72-9.18L74.45-9.18Q75.15-9.18 75.73-9.06Q76.31-8.93 76.72-8.67Q77.14-8.40 77.37-7.97Q77.60-7.55 77.60-6.94L77.60-6.94Q77.60-6.26 77.21-5.71Q76.82-5.15 76.00-4.94L76.00-4.94L76.00-4.89Q77.01-4.73 77.57-4.19Q78.13-3.64 78.13-2.69L78.13-2.69Q78.13-2.02 77.88-1.51Q77.63-1.01 77.17-0.67Q76.70-0.34 76.06-0.17Q75.42 0 74.65 0L74.65 0L71.72 0ZM72.88-5.26L74.24-5.26Q75.43-5.26 75.94-5.67Q76.45-6.08 76.45-6.85L76.45-6.85Q76.45-7.60 75.91-7.93Q75.37-8.26 74.30-8.26L74.30-8.26L72.88-8.26L72.88-5.26ZM72.88-0.92L74.48-0.92Q75.67-0.92 76.33-1.36Q76.98-1.81 76.98-2.74L76.98-2.74Q76.98-3.60 76.34-4.00Q75.70-4.40 74.48-4.40L74.48-4.40L72.88-4.40L72.88-0.92ZM84.95 0L84.95-9.18L86.11-9.18L86.11-0.99L90.13-0.99L90.13 0L84.95 0ZM99.78 0.17L99.78 0.17Q98.91 0.17 98.19-0.17Q97.47-0.50 96.95-1.13Q96.43-1.75 96.15-2.64Q95.86-3.53 95.86-4.63L95.86-4.63Q95.86-5.74 96.15-6.62Q96.43-7.49 96.95-8.10Q97.47-8.71 98.19-9.03Q98.91-9.35 99.78-9.35L99.78-9.35Q100.65-9.35 101.37-9.02Q102.09-8.69 102.61-8.09Q103.14-7.48 103.43-6.60Q103.71-5.73 103.71-4.63L103.71-4.63Q103.71-3.53 103.43-2.64Q103.14-1.75 102.61-1.13Q102.09-0.50 101.37-0.17Q100.65 0.17 99.78 0.17ZM99.78-0.85L99.78-0.85Q100.40-0.85 100.89-1.12Q101.39-1.39 101.75-1.88Q102.10-2.38 102.30-3.07Q102.50-3.77 102.50-4.63L102.50-4.63Q102.50-5.49 102.30-6.17Q102.10-6.86 101.75-7.34Q101.39-7.81 100.89-8.07Q100.40-8.33 99.78-8.33L99.78-8.33Q99.16-8.33 98.67-8.07Q98.17-7.81 97.81-7.34Q97.46-6.86 97.26-6.17Q97.06-5.49 97.06-4.63L97.06-4.63Q97.06-3.77 97.26-3.07Q97.46-2.38 97.81-1.88Q98.17-1.39 98.67-1.12Q99.16-0.85 99.78-0.85ZM110.16-4.59L110.16-4.59Q110.16-5.70 110.47-6.58Q110.79-7.46 111.35-8.08Q111.92-8.69 112.69-9.02Q113.46-9.35 114.38-9.35L114.38-9.35Q115.34-9.35 115.97-9.00Q116.61-8.64 117.02-8.22L117.02-8.22L116.36-7.48Q116.01-7.84 115.55-8.09Q115.10-8.33 114.40-8.33L114.40-8.33Q113.70-8.33 113.14-8.07Q112.58-7.81 112.19-7.33Q111.79-6.85 111.58-6.16Q111.36-5.47 111.36-4.62L111.36-4.62Q111.36-3.75 111.56-3.06Q111.77-2.37 112.15-1.88Q112.54-1.39 113.10-1.12Q113.67-0.85 114.41-0.85L114.41-0.85Q114.90-0.85 115.34-1.00Q115.78-1.15 116.06-1.40L116.06-1.40L116.06-3.79L114.12-3.79L114.12-4.76L117.13-4.76L117.13-0.90Q116.68-0.43 115.94-0.13Q115.21 0.17 114.29 0.17L114.29 0.17Q113.38 0.17 112.62-0.15Q111.86-0.48 111.32-1.08Q110.77-1.69 110.46-2.58Q110.16-3.47 110.16-4.59ZM126.89-8.02L125.31-10.00L126.51-10.00L127.77-8.02L126.89-8.02ZM139.48-8.02L137.89-10.00L139.10-10.00L140.36-8.02L139.48-8.02Z" transform="translate(0, 9.996)"></path></g></g></g></g></g> <!----></g></g><mask id="0b562066-0d65-49a7-9489-44dc46fb5e1c"><g fill="white"><rect data-gra="graph-name-bg" stroke-width="2" class="i-icon-bg" x="0" y="0" width="196.94000244140625" height="77.66600036621094" rx="10" ry="10"></rect>   </g> <g transform="translate(10,10)" fill="black"><g data-gra="path-name" fill-rule="" class="tp-name" fill-opacity="1" transform="matrix(1,0,0,1,0,0)" opacity="1"><g transform="scale(1)"><g><path d="M15.02 0.2Q14.37 0.2 14.04 0.07L14.04 0.07Q13.65-0.07 13.33-0.07L13.33-0.07 12.74-0.07Q12.22-0.39 12.22-0.72L12.22-0.72 7.02-18.27Q5.33-24.64 3.77-32.05L3.77-32.05Q3.77-32.3 3.71-32.6 3.64-32.89 3.58-33.22L3.58-33.22Q3.31-34.65 3.31-35.36L3.31-35.36Q3.31-36.14 3.45-36.47L3.45-36.47Q3.64-37.12 4.29-37.12L4.29-37.12 5.59-37.12Q6.37-37.05 7.74-37.05L7.74-37.05 9.69-37.05 10.6-36.98 14.56-36.98Q14.63-36.92 14.79-36.82 14.95-36.73 15.15-36.73L15.15-36.73Q15.15-36.73 15.21-36.76 15.28-36.79 15.34-36.92L15.34-36.92 15.86-36.98 16.12-36.98Q16.77-36.92 17.94-36.92L17.94-36.92Q19.05-36.73 21.32-36.73L21.32-36.73Q21.78-36.01 22.43-32.7L22.43-32.7 23.01-29.57 23.4-27.56 23.73-26 23.92-24.96Q24.44-21.84 24.89-19.57L24.89-19.57Q25.22-17.42 25.87-14.17L25.87-14.17 26-13.2 26-12.87Q26-12.54 26.07-12.29L26.07-12.29Q26.07-12.42 26.13-12.48 26.2-12.54 26.2-12.68L26.2-12.68Q26.2-13.07 26.26-13.2L26.26-13.2 26.39-14.17Q26.78-16.05 27.3-19.57L27.3-19.57 27.69-21.91Q27.89-22.75 28.02-23.53 28.14-24.31 28.28-24.96L28.28-24.96Q28.34-25.55 28.41-25.74 28.47-25.94 28.47-26L28.47-26Q28.73-27.63 29.19-29.57L29.19-29.57 29.51-31.14Q29.84-33.22 30.42-35.3L30.42-35.3Q30.62-36.14 30.94-36.73L30.94-36.73Q32.24-36.73 33.67-36.92L33.67-36.92 34.71-36.92 35.16-36.98 35.3-36.98 35.36-36.92Q35.43-36.73 35.49-36.73L35.49-36.73Q35.95-36.73 35.95-36.79L35.95-36.79Q35.95-36.86 35.98-36.89 36.01-36.92 36.01-36.98L36.01-36.98 39.59-36.98 40.04-36.98 42.51-37.05Q43.42-37.05 43.94-37.12L43.94-37.12 45.18-37.12 45.89-37.12Q47-37.12 47-34.97L47-34.97 46.67-33.22Q46.41-32.18 46.41-32.05L46.41-32.05Q44.52-23.14 43.16-18.27L43.16-18.27 37.96-0.72Q37.96-0.58 37.8-0.39 37.63-0.2 37.44-0.07L37.44-0.07 36.92-0.07Q36.66-0.07 36.27 0.07L36.27 0.07Q36.01 0.2 35.62 0.2L35.62 0.2Q34.65 0.2 34.13 0.07L34.13 0.07Q33.22-0.07 32.56-0.07L32.56-0.07Q32.44 0.07 31.85 0.07L31.85 0.07Q30.94 0.2 28.21 0.2L28.21 0.2 26.2 0.2 24.57 0.2 23.73 0.2 23.14 0.2Q22.95 0.13 21.71 0L21.71 0 20.35 0 19.7-0.07Q18.85-0.07 17.29 0.07L17.29 0.07Q16.51 0.2 15.02 0.2L15.02 0.2ZM72.87 0.39L71.96 0.33 71.11 0.2 70.07 0.2Q69.09 0.07 66.69-0.07L66.69-0.07Q66.17-0.07 65.72-0.13 65.26-0.2 64.87-0.2L64.87-0.2 63.44-0.2 62.79-0.26Q60.71-0.26 59.74-0.2L59.74-0.2Q58.76-0.07 56.68-0.07L56.68-0.07 55.38-0.07 54.21 0 54.02-0.26 54.02-0.98 54.02-2.6 54.02-4.29 54.02-5.4 54.02-9.81Q54.02-11.38 53.89-12.09L53.89-12.09 53.89-13.65 54.15-16.45Q54.34-19.05 54.34-23.92L54.34-23.92Q54.47-31.79 55.32-35.3L55.32-35.3Q55.77-37.18 56.81-37.7L56.81-37.7 64.42-37.63Q65.39-37.57 67.21-37.57L67.21-37.57 70.33-37.57Q70.66-37.51 71.53-37.44 72.41-37.38 72.87-37.12L72.87-37.12Q73.26-36.79 73.42-36.24 73.58-35.69 73.58-34.65L73.58-34.65 73.52-34.13 73.52-33.34Q73.32-32.89 73.32-32.44L73.32-32.44Q73.19-31.92 73.26-31.39L73.26-31.39 73.26-30.42Q73.32-30.1 73.32-29.51L73.32-29.51 73.39-28.99 73.39-27.5 73.45-25.41Q73.52-24.77 73.52-23.6L73.52-23.6Q73.65-22.69 73.84-22.36L73.84-22.36Q73.84-21.91 73.78-21.39 73.71-20.87 73.71-20.35L73.71-20.35Q73.65-19.57 73.65-18L73.65-18Q73.65-16.51 73.71-15.79L73.71-15.79Q73.71-14.76 74.03-13.65L74.03-13.65Q74.69-13.39 75.53-13.39L75.53-13.39Q77.68-13.39 79.98-13.46 82.29-13.52 84.11-13.85L84.11-13.85Q84.5-13.78 84.86-13.33 85.22-12.87 85.22-12.54L85.22-12.54 84.76-1.36Q84.63-0.98 84.24-0.84L84.24-0.84Q83.14-0.33 81.19-0.2L81.19-0.2Q78.59 0.2 77.74 0.2L77.74 0.2 76.64 0.2Q75.34 0.2 74.69 0.26L74.69 0.26Q73.39 0.39 72.87 0.39L72.87 0.39ZM109.91 1.63Q109.39 1.63 108.48 1.5L108.48 1.5Q108.03 1.36 107.06 1.36L107.06 1.36Q104.59 1.36 100.94 0.26L100.94 0.26 100.49 0.26Q100.03 0.26 99.52 0L99.52 0Q99.39-0.13 99.19-0.23 99-0.33 98.73-0.52L98.73-0.52 97.37-1.3Q95.42-2.41 93.92-4.39 92.43-6.37 91.52-8.78L91.52-8.78Q89.77-13.2 89.77-17.81L89.77-17.81Q89.77-22.95 91.84-27.69L91.84-27.69Q94.05-32.7 97.76-35.62L97.76-35.62Q101.86-38.87 106.86-38.87L106.86-38.87Q108.42-38.87 109.27-38.74L109.27-38.74Q109.27-38.87 109.46-38.87L109.46-38.87 109.66-38.87Q114.2-38.87 117.78-38.55L117.78-38.55Q120.84-38.09 123.44-36.66L123.44-36.66Q128.63-33.22 130.91-29.12L130.91-29.12Q133.31-24.57 133.31-18.39L133.31-18.39Q133.31-12.22 130.39-6.83L130.39-6.83 129.74-5.79Q129.48-5.4 129.41-5.4L129.41-5.4 129.22-5.07 128.76-4.81Q125.97-0.65 120.31 0.84L120.31 0.84Q116.55 1.63 109.91 1.63L109.91 1.63ZM111.02-3.25Q111.61-3.25 111.93-3.97L111.93-3.97Q112.71-5.13 113.23-8.52L113.23-8.52Q113.3-9.1 113.56-11.12 113.81-13.13 113.88-14.88L113.88-14.88Q114.14-19.3 114.14-20.35L114.14-20.35 114.14-21.84 114.14-22.36Q114.14-24.7 113.94-26.39L113.94-26.39Q113.75-29.05 113.16-30.62L113.16-30.62Q112.58-31.39 112.25-31.39L112.25-31.39Q111.61-31.39 111.02-30.42L111.02-30.42Q110.44-29.45 110.11-26.85L110.11-26.85 108.75-16.45 108.75-15.15 108.75-14.3Q108.94-11.57 108.94-10.72L108.94-10.72 109.07-9.17 109.27-7.08Q109.27-6.57 109.39-6.17L109.39-6.17 110.11-3.77Q110.17-3.51 110.47-3.38 110.76-3.25 111.02-3.25L111.02-3.25ZM155.87 1.5Q151.71 1.5 148.14-0.52L148.14-0.52Q143.98-2.6 141.57-6.76L141.57-6.76Q138.84-11.57 138.84-18.46L138.84-18.46Q138.84-23.21 140.56-27.04 142.29-30.88 145.41-33.54L145.41-33.54Q148.46-36.14 152.62-37.51 156.78-38.87 161.66-38.87L161.66-38.87Q168.61-38.87 176.54-35.16L176.54-35.16 174.27-25.61Q173.1-25.87 172.12-26.2L172.12-26.2Q169.59-26.91 167.51-27.23L167.51-27.23Q166.08-27.5 165.3-27.5L165.3-27.5Q161.92-27.5 160.03-25.61L160.03-25.61Q157.82-23.27 157.82-18.14L157.82-18.14Q157.82-13.78 159.19-11.44L159.19-11.44Q160.49-9.62 162.63-9.62L162.63-9.62Q164.39-9.62 166.01-10.34L166.01-10.34Q165.95-10.99 165.88-11.86 165.82-12.74 165.82-13.91L165.82-13.91Q165.56-16.25 165.3-17.23L165.3-17.23 165.3-19.76Q165.3-20.21 165.69-20.21L165.69-20.21 166.01-20.21Q166.21-20.21 166.4-20.28 166.6-20.35 166.79-20.35L166.79-20.35Q167.44-20.48 167.57-20.48L167.57-20.48Q168.03-20.48 168.81-20.35L168.81-20.35Q169.07-20.35 169.39-20.28 169.72-20.21 170.04-20.21L170.04-20.21Q170.3-20.48 171.67-20.48L171.67-20.48Q172.71-20.48 173.29-20.54L173.29-20.54Q173.68-20.67 174.27-20.67L174.27-20.67 175.05-20.87Q175.63-20.8 176.74-20.8L176.74-20.8Q177.19-20.73 177.97-20.73L177.97-20.73Q178.17-20.73 178.3-20.7 178.43-20.67 178.49-20.67L178.49-20.67 179.92-20.67 180.18-20.54 180.18-18.72Q180.25-18.39 180.25-17.75L180.25-17.75 180.25-16.84 180.25-15.15 180.25-9.43 180.25-9.17Q180.18-8.97 180.18-8.64L180.18-8.64Q180.12-8.38 180.12-8.06L180.12-8.06 180.12-7.74Q180.12-4.29 179.99-2.86L179.99-2.86Q179.86-0.72 179.53 0.07L179.53 0.07Q178.17 0.07 177.39 0.2L177.39 0.2 176.09 0.2 175.96 0.2 175.37 0.2 175.31 0.07 175.05 0.2 169.39 0.2 169.13 0.2 168.55 0.2 167.9 0.2Q167.77 0.26 167.44 0.26L167.44 0.26Q166.99 0.26 166.79-1.04L166.79-1.04Q166.47-2.47 166.47-4.42L166.47-4.42Q165.82-1.56 162.89 0L162.89 0Q160.03 1.5 155.87 1.5L155.87 1.5Z" transform="translate(-3.309999942779541, 38.869998931884766)"></path></g>       </g></g> <g data-gra="path-slogan" fill-rule="" class="tp-slogan" fill-opacity="1" transform="matrix(1,0,0,1,5,47.5)" opacity="1"><rect x="0" height="1" y="4.585000038146973" width="10.290000915527344"></rect> <rect height="1" y="4.585000038146973" width="10.290000915527344" x="156.6500015258789"></rect> <g transform="translate(13.290000915527344,0)"><g transform="scale(1)"><path d="M2.94 0L0-9.18L1.25-9.18L2.72-4.23Q2.97-3.40 3.16-2.70Q3.35-2.00 3.61-1.19L3.61-1.19L3.67-1.19Q3.92-2.00 4.12-2.70Q4.31-3.40 4.55-4.23L4.55-4.23L6.02-9.18L7.21-9.18L4.30 0L2.94 0ZM13.47 0L13.47-9.18L14.63-9.18L14.63-0.99L18.65-0.99L18.65 0L13.47 0ZM28.30 0.17L28.30 0.17Q27.43 0.17 26.71-0.17Q25.99-0.50 25.47-1.13Q24.95-1.75 24.67-2.64Q24.38-3.53 24.38-4.63L24.38-4.63Q24.38-5.74 24.67-6.62Q24.95-7.49 25.47-8.10Q25.99-8.71 26.71-9.03Q27.43-9.35 28.30-9.35L28.30-9.35Q29.17-9.35 29.89-9.02Q30.61-8.69 31.13-8.09Q31.66-7.48 31.95-6.60Q32.23-5.73 32.23-4.63L32.23-4.63Q32.23-3.53 31.95-2.64Q31.66-1.75 31.13-1.13Q30.61-0.50 29.89-0.17Q29.17 0.17 28.30 0.17ZM28.30-0.85L28.30-0.85Q28.91-0.85 29.41-1.12Q29.91-1.39 30.27-1.88Q30.62-2.38 30.82-3.07Q31.01-3.77 31.01-4.63L31.01-4.63Q31.01-5.49 30.82-6.17Q30.62-6.86 30.27-7.34Q29.91-7.81 29.41-8.07Q28.91-8.33 28.30-8.33L28.30-8.33Q27.68-8.33 27.19-8.07Q26.69-7.81 26.33-7.34Q25.97-6.86 25.78-6.17Q25.58-5.49 25.58-4.63L25.58-4.63Q25.58-3.77 25.78-3.07Q25.97-2.38 26.33-1.88Q26.69-1.39 27.19-1.12Q27.68-0.85 28.30-0.85ZM38.67-4.59L38.67-4.59Q38.67-5.70 38.99-6.58Q39.30-7.46 39.87-8.08Q40.44-8.69 41.21-9.02Q41.98-9.35 42.90-9.35L42.90-9.35Q43.85-9.35 44.49-9.00Q45.13-8.64 45.53-8.22L45.53-8.22L44.88-7.48Q44.53-7.84 44.07-8.09Q43.62-8.33 42.92-8.33L42.92-8.33Q42.22-8.33 41.66-8.07Q41.10-7.81 40.70-7.33Q40.31-6.85 40.09-6.16Q39.88-5.47 39.88-4.62L39.88-4.62Q39.88-3.75 40.08-3.06Q40.28-2.37 40.67-1.88Q41.05-1.39 41.62-1.12Q42.19-0.85 42.93-0.85L42.93-0.85Q43.42-0.85 43.86-1.00Q44.30-1.15 44.58-1.40L44.58-1.40L44.58-3.79L42.64-3.79L42.64-4.76L45.65-4.76L45.65-0.90Q45.20-0.43 44.46-0.13Q43.73 0.17 42.80 0.17L42.80 0.17Q41.89 0.17 41.14-0.15Q40.38-0.48 39.84-1.08Q39.29-1.69 38.98-2.58Q38.67-3.47 38.67-4.59ZM54.33 0L54.33-3.56L51.57-9.18L52.82-9.18L54.01-6.59Q54.23-6.09 54.44-5.60Q54.65-5.11 54.89-4.59L54.89-4.59L54.94-4.59Q55.18-5.11 55.42-5.60Q55.66-6.09 55.87-6.59L55.87-6.59L57.04-9.18L58.26-9.18L55.50-3.56L55.50 0L54.33 0ZM62.88-0.70L62.88-0.70Q62.88-1.11 63.13-1.35Q63.37-1.60 63.72-1.60L63.72-1.60Q64.06-1.60 64.30-1.35Q64.55-1.11 64.55-0.70L64.55-0.70Q64.55-0.32 64.30-0.08Q64.06 0.17 63.72 0.17L63.72 0.17Q63.37 0.17 63.13-0.08Q62.88-0.32 62.88-0.70ZM71.72 0L71.72-9.18L74.45-9.18Q75.15-9.18 75.73-9.06Q76.31-8.93 76.72-8.67Q77.14-8.40 77.37-7.97Q77.60-7.55 77.60-6.94L77.60-6.94Q77.60-6.26 77.21-5.71Q76.82-5.15 76.00-4.94L76.00-4.94L76.00-4.89Q77.01-4.73 77.57-4.19Q78.13-3.64 78.13-2.69L78.13-2.69Q78.13-2.02 77.88-1.51Q77.63-1.01 77.17-0.67Q76.70-0.34 76.06-0.17Q75.42 0 74.65 0L74.65 0L71.72 0ZM72.88-5.26L74.24-5.26Q75.43-5.26 75.94-5.67Q76.45-6.08 76.45-6.85L76.45-6.85Q76.45-7.60 75.91-7.93Q75.37-8.26 74.30-8.26L74.30-8.26L72.88-8.26L72.88-5.26ZM72.88-0.92L74.48-0.92Q75.67-0.92 76.33-1.36Q76.98-1.81 76.98-2.74L76.98-2.74Q76.98-3.60 76.34-4.00Q75.70-4.40 74.48-4.40L74.48-4.40L72.88-4.40L72.88-0.92ZM84.95 0L84.95-9.18L86.11-9.18L86.11-0.99L90.13-0.99L90.13 0L84.95 0ZM99.78 0.17L99.78 0.17Q98.91 0.17 98.19-0.17Q97.47-0.50 96.95-1.13Q96.43-1.75 96.15-2.64Q95.86-3.53 95.86-4.63L95.86-4.63Q95.86-5.74 96.15-6.62Q96.43-7.49 96.95-8.10Q97.47-8.71 98.19-9.03Q98.91-9.35 99.78-9.35L99.78-9.35Q100.65-9.35 101.37-9.02Q102.09-8.69 102.61-8.09Q103.14-7.48 103.43-6.60Q103.71-5.73 103.71-4.63L103.71-4.63Q103.71-3.53 103.43-2.64Q103.14-1.75 102.61-1.13Q102.09-0.50 101.37-0.17Q100.65 0.17 99.78 0.17ZM99.78-0.85L99.78-0.85Q100.40-0.85 100.89-1.12Q101.39-1.39 101.75-1.88Q102.10-2.38 102.30-3.07Q102.50-3.77 102.50-4.63L102.50-4.63Q102.50-5.49 102.30-6.17Q102.10-6.86 101.75-7.34Q101.39-7.81 100.89-8.07Q100.40-8.33 99.78-8.33L99.78-8.33Q99.16-8.33 98.67-8.07Q98.17-7.81 97.81-7.34Q97.46-6.86 97.26-6.17Q97.06-5.49 97.06-4.63L97.06-4.63Q97.06-3.77 97.26-3.07Q97.46-2.38 97.81-1.88Q98.17-1.39 98.67-1.12Q99.16-0.85 99.78-0.85ZM110.16-4.59L110.16-4.59Q110.16-5.70 110.47-6.58Q110.79-7.46 111.35-8.08Q111.92-8.69 112.69-9.02Q113.46-9.35 114.38-9.35L114.38-9.35Q115.34-9.35 115.97-9.00Q116.61-8.64 117.02-8.22L117.02-8.22L116.36-7.48Q116.01-7.84 115.55-8.09Q115.10-8.33 114.40-8.33L114.40-8.33Q113.70-8.33 113.14-8.07Q112.58-7.81 112.19-7.33Q111.79-6.85 111.58-6.16Q111.36-5.47 111.36-4.62L111.36-4.62Q111.36-3.75 111.56-3.06Q111.77-2.37 112.15-1.88Q112.54-1.39 113.10-1.12Q113.67-0.85 114.41-0.85L114.41-0.85Q114.90-0.85 115.34-1.00Q115.78-1.15 116.06-1.40L116.06-1.40L116.06-3.79L114.12-3.79L114.12-4.76L117.13-4.76L117.13-0.90Q116.68-0.43 115.94-0.13Q115.21 0.17 114.29 0.17L114.29 0.17Q113.38 0.17 112.62-0.15Q111.86-0.48 111.32-1.08Q110.77-1.69 110.46-2.58Q110.16-3.47 110.16-4.59ZM126.89-8.02L125.31-10.00L126.51-10.00L127.77-8.02L126.89-8.02ZM139.48-8.02L137.89-10.00L139.10-10.00L140.36-8.02L139.48-8.02Z" transform="translate(0, 9.996)"></path></g></g></g></g></mask><defs v-gra="od"></defs></svg>