<svg data-v-6805eed4="" version="1.0" xmlns="http://www.w3.org/2000/svg" xmlns:xlink="http://www.w3.org/1999/xlink" width="100%" height="100%" viewBox="0 0 340.000000 250.000000" preserveAspectRatio="xMidYMid meet" color-interpolation-filters="sRGB" style="margin: auto;"> <rect data-v-6805eed4="" x="0" y="0" width="100%" height="100%" fill="#ffffff" fill-opacity="0" class="background"></rect> <rect data-v-6805eed4="" x="0" y="0" width="100%" height="100%" fill="url(#watermark)" fill-opacity="1" class="watermarklayer"></rect> <g data-v-6805eed4="" fill="#333333" class="icon-text-wrapper icon-svg-group iconsvg" transform="translate(47.225006103515625,106.77908897399902)"><g class="iconsvg-imagesvg" transform="matrix(1,0,0,1,0,0)" opacity="1"><g><rect fill="#333333" fill-opacity="0" stroke-width="2" x="0" y="0" width="60" height="36.441820633358844" class="image-rect"></rect> <svg filter="url(#colors4266074247)" x="0" y="0" width="60" height="36.441820633358844" filtersec="colorsf164589450" class="image-svg-svg primary" style="overflow: visible;"><svg xmlns="http://www.w3.org/2000/svg" viewBox="0.7999999999999998 0.7999999999999998 101.79999 63.4"><path d="M79.2 32.5c0 4.9-4 8.8-8.8 8.8-7 0-14.3-8.8-14.3-8.8m23.1 0c0-4.9-4-8.8-8.8-8.8-7 0-14.3 8.8-14.3 8.8m0 0s-8.6 6.3-1.8 13.1l16.6 16.6 29.7-29.7L70.9 2.8 54.4 19.4c-6.9 6.8 1.7 13.1 1.7 13.1m-31.9 0c0 4.9 4 8.8 8.8 8.8 7 0 14.3-8.8 14.3-8.8m.1 0s-7.3-8.8-14.3-8.8c-4.9 0-8.8 4-8.8 8.8m23 0s8.6-6.3 1.8-13.1L32.5 2.8 2.8 32.5l29.7 29.7 16.6-16.6c6.8-6.8-1.8-13.1-1.8-13.1" fill="none" stroke="#333" stroke-width="4" stroke-miterlimit="10"></path></svg></svg> <defs><filter id="colors4266074247"><feColorMatrix type="matrix" values="0 0 0 0 0.19921875  0 0 0 0 0.19921875  0 0 0 0 0.19921875  0 0 0 1 0" class="icon-fecolormatrix"></feColorMatrix></filter> <filter id="colorsf164589450"><feColorMatrix type="matrix" values="0 0 0 0 0.99609375  0 0 0 0 0.99609375  0 0 0 0 0.99609375  0 0 0 1 0" class="icon-fecolormatrix"></feColorMatrix></filter> <filter id="colorsb1998415413"><feColorMatrix type="matrix" values="0 0 0 0 0  0 0 0 0 0  0 0 0 0 0  0 0 0 1 0" class="icon-fecolormatrix"></feColorMatrix></filter></defs></g></g> <g transform="translate(67,8.765911102294922)"><g data-gra="path-name" fill-rule="" class="tp-name iconsvg-namesvg" opacity="1" transform="matrix(1,0,0,1,0,0)"><g transform="scale(1)"><g><path d="M12.54-10.42L11.85 0 7.27 0 6.68-7.9 6.68-9.16 6.18-9.16 6.18-7.9 5.59 0 1.01 0 0.32-10.42 2.75-10.42 3.21-2.52 3.21-1.26 3.72-1.26 3.72-2.52 4.24-10.42 8.61-10.42 9.14-2.52 9.14-1.26 9.64-1.26 9.64-2.52 10.11-10.42 12.54-10.42ZM25.4-10.42L24.71 0 20.13 0 19.54-7.9 19.54-9.16 19.03-9.16 19.03-7.9 18.45 0 13.87 0 13.17-10.42 15.61-10.42 16.07-2.52 16.07-1.26 16.58-1.26 16.58-2.52 17.1-10.42 21.47-10.42 22-2.52 22-1.26 22.5-1.26 22.5-2.52 22.96-10.42 25.4-10.42ZM38.26-10.42L37.56 0 32.98 0 32.39-7.9 32.39-9.16 31.89-9.16 31.89-7.9 31.3 0 26.72 0 26.03-10.42 28.47-10.42 28.93-2.52 28.93-1.26 29.43-1.26 29.43-2.52 29.96-10.42 34.33-10.42 34.85-2.52 34.85-1.26 35.36-1.26 35.36-2.52 35.82-10.42 38.26-10.42ZM47-1.7L47-1.7Q47-1.28 46.84-0.91 46.68-0.55 46.41-0.28 46.13-0.02 45.77 0.14 45.4 0.29 45 0.29L45 0.29Q44.58 0.29 44.22 0.14 43.87-0.02 43.59-0.28 43.32-0.55 43.16-0.91 43-1.28 43-1.7L43-1.7Q43-2.12 43.16-2.49 43.32-2.86 43.59-3.12 43.87-3.38 44.22-3.54 44.58-3.7 45-3.7L45-3.7Q45.4-3.7 45.77-3.54 46.13-3.38 46.41-3.12 46.68-2.86 46.84-2.49 47-2.12 47-1.7ZM55.32 0L52.33-10.42 55.19-10.42 57.65-1.26 58.03-1.26 60.48-10.42 63.34-10.42 60.36 0 55.32 0ZM65.86 0L65.86-2.52 69.52-2.52 69.52-12.18 65.99-12.18 65.99-14.71 72.16-14.71 72.16-2.52 75.57-2.52 75.57 0 65.86 0ZM88.99-5.34L88.99-5.08Q88.99-3.78 88.55-2.78 88.11-1.79 87.35-1.1 86.6-0.42 85.62-0.06 84.64 0.29 83.57 0.29L83.57 0.29Q82.5 0.29 81.52-0.06 80.55-0.42 79.79-1.1 79.03-1.79 78.59-2.78 78.15-3.78 78.15-5.08L78.15-5.08 78.15-5.34Q78.15-6.62 78.59-7.62 79.03-8.61 79.79-9.31 80.55-10 81.52-10.36 82.5-10.71 83.57-10.71L83.57-10.71Q84.64-10.71 85.62-10.36 86.6-10 87.35-9.31 88.11-8.61 88.55-7.62 88.99-6.62 88.99-5.34L88.99-5.34ZM83.57-2.23L83.57-2.23Q84.14-2.23 84.64-2.42 85.15-2.61 85.53-2.96 85.9-3.32 86.12-3.83 86.34-4.35 86.34-5L86.34-5 86.34-5.42Q86.34-6.07 86.12-6.59 85.9-7.1 85.53-7.46 85.15-7.82 84.64-8 84.14-8.19 83.57-8.19L83.57-8.19Q83-8.19 82.5-8 82-7.82 81.62-7.46 81.24-7.1 81.02-6.59 80.8-6.07 80.8-5.42L80.8-5.42 80.8-5Q80.8-4.35 81.02-3.83 81.24-3.32 81.62-2.96 82-2.61 82.5-2.42 83-2.23 83.57-2.23ZM99.08 1.05L99.08-1.51 98.7-1.51Q98.53-1.16 98.29-0.83 98.05-0.5 97.66-0.25 97.27 0 96.73 0.15 96.2 0.29 95.44 0.29L95.44 0.29Q94.47 0.29 93.64-0.05 92.82-0.4 92.2-1.08 91.58-1.76 91.23-2.75 90.88-3.74 90.88-5.02L90.88-5.02 90.88-5.4Q90.88-6.66 91.25-7.65 91.62-8.63 92.26-9.32 92.9-10 93.75-10.36 94.6-10.71 95.55-10.71L95.55-10.71Q96.81-10.71 97.54-10.24 98.28-9.77 98.7-8.91L98.7-8.91 99.08-8.91 99.08-10.42 101.72-10.42 101.72 2.56Q101.72 3.28 101.27 3.74 100.82 4.2 100.11 4.2L100.11 4.2 93.09 4.2 93.09 1.68 98.51 1.68Q99.08 1.68 99.08 1.05L99.08 1.05ZM96.3-2.23L96.3-2.23Q97.54-2.23 98.31-3.01 99.08-3.8 99.08-5.08L99.08-5.08 99.08-5.34Q99.08-6.62 98.31-7.41 97.54-8.19 96.3-8.19L96.3-8.19Q95.06-8.19 94.3-7.43 93.53-6.66 93.53-5.34L93.53-5.34 93.53-5.08Q93.53-3.76 94.3-2.99 95.06-2.23 96.3-2.23ZM111.55-4.96L111.55-10.42 114.2-10.42 114.2 2.56Q114.2 3.28 113.75 3.74 113.3 4.2 112.58 4.2L112.58 4.2 106.39 4.2 106.39 1.68 110.99 1.68Q111.55 1.68 111.55 1.05L111.55 1.05 111.55-1.51 111.18-1.51Q110.48 0.29 108.19 0.29L108.19 0.29Q107.42 0.29 106.74 0.04 106.07-0.21 105.57-0.74 105.06-1.26 104.78-2.05 104.5-2.84 104.5-3.91L104.5-3.91 104.5-10.42 107.14-10.42 107.14-4.45Q107.14-3.34 107.67-2.72 108.19-2.1 109.24-2.1L109.24-2.1Q110.44-2.1 111-2.87 111.55-3.63 111.55-4.96L111.55-4.96ZM124.14-1.7L124.14-1.7Q124.14-1.28 123.98-0.91 123.82-0.55 123.55-0.28 123.28-0.02 122.91 0.14 122.54 0.29 122.14 0.29L122.14 0.29Q121.72 0.29 121.37 0.14 121.01-0.02 120.74-0.28 120.46-0.55 120.3-0.91 120.15-1.28 120.15-1.7L120.15-1.7Q120.15-2.12 120.3-2.49 120.46-2.86 120.74-3.12 121.01-3.38 121.37-3.54 121.72-3.7 122.14-3.7L122.14-3.7Q122.54-3.7 122.91-3.54 123.28-3.38 123.55-3.12 123.82-2.86 123.98-2.49 124.14-2.12 124.14-1.7ZM132.42-1.51L132.42 0 129.77 0 129.77-14.71 132.42-14.71 132.42-8.91 132.79-8.91Q133.21-9.77 134.01-10.24 134.81-10.71 136.05-10.71L136.05-10.71Q136.97-10.71 137.8-10.36 138.63-10 139.25-9.32 139.87-8.63 140.24-7.65 140.61-6.66 140.61-5.4L140.61-5.4 140.61-5.02Q140.61-3.74 140.25-2.75 139.89-1.76 139.29-1.08 138.68-0.4 137.85-0.05 137.02 0.29 136.05 0.29L136.05 0.29Q135.34 0.29 134.81 0.15 134.29 0 133.9-0.25 133.51-0.5 133.25-0.83 132.98-1.16 132.79-1.51L132.79-1.51 132.42-1.51ZM135.19-2.23L135.19-2.23Q136.43-2.23 137.2-2.99 137.96-3.76 137.96-5.08L137.96-5.08 137.96-5.34Q137.96-6.66 137.2-7.43 136.43-8.19 135.19-8.19L135.19-8.19Q133.95-8.19 133.18-7.41 132.42-6.62 132.42-5.34L132.42-5.34 132.42-5.08Q132.42-3.8 133.18-3.01 133.95-2.23 135.19-2.23ZM143 0L143-2.52 146.66-2.52 146.66-12.18 143.13-12.18 143.13-14.71 149.31-14.71 149.31-2.52 152.71-2.52 152.71 0 143 0ZM166.13-5.34L166.13-5.08Q166.13-3.78 165.69-2.78 165.25-1.79 164.5-1.1 163.74-0.42 162.76-0.06 161.79 0.29 160.71 0.29L160.71 0.29Q159.64 0.29 158.67-0.06 157.69-0.42 156.93-1.1 156.18-1.79 155.74-2.78 155.29-3.78 155.29-5.08L155.29-5.08 155.29-5.34Q155.29-6.62 155.74-7.62 156.18-8.61 156.93-9.31 157.69-10 158.67-10.36 159.64-10.71 160.71-10.71L160.71-10.71Q161.79-10.71 162.76-10.36 163.74-10 164.5-9.31 165.25-8.61 165.69-7.62 166.13-6.62 166.13-5.34L166.13-5.34ZM160.71-2.23L160.71-2.23Q161.28-2.23 161.79-2.42 162.29-2.61 162.67-2.96 163.05-3.32 163.27-3.83 163.49-4.35 163.49-5L163.49-5 163.49-5.42Q163.49-6.07 163.27-6.59 163.05-7.1 162.67-7.46 162.29-7.82 161.79-8 161.28-8.19 160.71-8.19L160.71-8.19Q160.15-8.19 159.64-8 159.14-7.82 158.76-7.46 158.38-7.1 158.16-6.59 157.94-6.07 157.94-5.42L157.94-5.42 157.94-5Q157.94-4.35 158.16-3.83 158.38-3.32 158.76-2.96 159.14-2.61 159.64-2.42 160.15-2.23 160.71-2.23ZM176.22 1.05L176.22-1.51 175.84-1.51Q175.67-1.16 175.43-0.83 175.19-0.5 174.8-0.25 174.41 0 173.88 0.15 173.34 0.29 172.58 0.29L172.58 0.29Q171.62 0.29 170.79-0.05 169.96-0.4 169.34-1.08 168.72-1.76 168.37-2.75 168.03-3.74 168.03-5.02L168.03-5.02 168.03-5.4Q168.03-6.66 168.39-7.65 168.76-8.63 169.4-9.32 170.04-10 170.89-10.36 171.74-10.71 172.69-10.71L172.69-10.71Q173.95-10.71 174.68-10.24 175.42-9.77 175.84-8.91L175.84-8.91 176.22-8.91 176.22-10.42 178.87-10.42 178.87 2.56Q178.87 3.28 178.41 3.74 177.96 4.2 177.25 4.2L177.25 4.2 170.23 4.2 170.23 1.68 175.65 1.68Q176.22 1.68 176.22 1.05L176.22 1.05ZM173.45-2.23L173.45-2.23Q174.68-2.23 175.45-3.01 176.22-3.8 176.22-5.08L176.22-5.08 176.22-5.34Q176.22-6.62 175.45-7.41 174.68-8.19 173.45-8.19L173.45-8.19Q172.21-8.19 171.44-7.43 170.67-6.66 170.67-5.34L170.67-5.34 170.67-5.08Q170.67-3.76 171.44-2.99 172.21-2.23 173.45-2.23Z" transform="translate(-0.320000022649765, 14.710000038146973)"></path></g> <!----> <!----> <!----> <!----> <!----> <!----> <!----></g></g> <!----></g></g><defs v-gra="od"></defs></svg>