<svg data-v-6805eed4="" version="1.0" xmlns="http://www.w3.org/2000/svg" xmlns:xlink="http://www.w3.org/1999/xlink" width="100%" height="100%" viewBox="0 0 340.000000 250.000000" preserveAspectRatio="xMidYMid meet" color-interpolation-filters="sRGB" style="margin: auto;"> <rect data-v-6805eed4="" x="0" y="0" width="100%" height="100%" fill="#0a0619" fill-opacity="0" class="background"></rect> <rect data-v-6805eed4="" x="0" y="0" width="100%" height="100%" fill="url(#watermark)" fill-opacity="1" class="watermarklayer"></rect> <g data-v-6805eed4="" fill="#ff9a9e" class="j-b-g-c iconbgsvg" mask="url(#57ac8159-3cf0-46de-8371-a60e64fe7059)" transform="translate(85,47.272926330566406)"><g data-d="container" transform="translate(0,0)"><g><rect fill="#ff9a9e" fill-opacity="0" stroke-width="2" x="0" y="0" width="170" height="155.45415" class="image-rect"></rect> <svg x="0" y="0" width="170" height="155.45415" filtersec="colorsb6154541218" class="image-svg-container primary" style="overflow: visible;"><svg xmlns="http://www.w3.org/2000/svg" viewBox="0 0 156.73001 143.32001" style="overflow: visible;"><g transform="scale(1, 1) skewX(0)"><path d="M156.73 68.42c0 8.9-7.11 16.32-10.32 24.06-3.33 8-3.67 18.27-9.71 24.32s-16.3 6.38-24.32 9.71c-7.74 3.21-15.16 10.32-24.06 10.32S72 129.72 64.26 126.51c-8-3.33-18.28-3.67-24.32-9.71s-6.39-16.3-9.71-24.32C27 84.74 19.9 77.32 19.9 68.42S27 52.1 30.23 44.36c3.32-8 3.66-18.28 9.71-24.32s16.29-6.39 24.32-9.71C72 7.12 79.42 0 88.32 0s16.32 7.12 24.06 10.33c8 3.32 18.27 3.66 24.32 9.71s6.38 16.3 9.71 24.32c3.21 7.74 10.32 15.16 10.32 24.06z" fill="#f5cbd8" opacity=".6"></path><path d="M144.69 74.9c0 8.9-7.12 16.32-10.33 24.06-3.33 8-3.67 18.28-9.71 24.32s-16.3 6.39-24.32 9.71c-7.74 3.21-15.16 10.33-24.06 10.33S60 136.2 52.21 133c-8-3.32-18.27-3.66-24.32-9.71S21.51 107 18.18 99C15 91.22 7.85 83.8 7.85 74.9S15 58.58 18.18 50.84c3.33-8 3.67-18.27 9.71-24.31s16.3-6.39 24.32-9.72C60 13.61 67.37 6.49 76.27 6.49s16.32 7.12 24.06 10.32c8 3.33 18.27 3.67 24.32 9.72s6.38 16.29 9.71 24.31c3.21 7.74 10.33 15.16 10.33 24.06z" fill="#f5cbd8" opacity=".8"></path><path d="M10.36 99.82a62.08 62.08 0 0 0-4.15-7.77C3.16 86.91 0 81.59 0 75.58s3.16-11.33 6.21-16.47a61.39 61.39 0 0 0 4.15-7.77 66.43 66.43 0 0 0 2.71-8.75c1.5-5.73 3.05-11.66 7.11-15.72s10-5.6 15.71-7.1a66.43 66.43 0 0 0 8.75-2.71 61.39 61.39 0 0 0 7.77-4.15C57.55 9.86 62.87 6.7 68.88 6.7s11.33 3.16 16.47 6.21a62.08 62.08 0 0 0 7.77 4.15 66.43 66.43 0 0 0 8.75 2.71c5.73 1.5 11.66 3.05 15.72 7.11s5.6 10 7.1 15.71a68 68 0 0 0 2.71 8.75l-.86.36a69.74 69.74 0 0 1-2.75-8.87c-1.46-5.62-3-11.42-6.86-15.3s-9.68-5.39-15.3-6.86a68.17 68.17 0 0 1-8.87-2.75 63.88 63.88 0 0 1-7.88-4.21c-5-3-10.24-6.08-16-6.08s-11 3.09-16 6.08A63.88 63.88 0 0 1 45 17.92a68.17 68.17 0 0 1-8.87 2.75c-5.62 1.47-11.42 3-15.3 6.86s-5.39 9.68-6.83 15.3a69.74 69.74 0 0 1-2.75 8.87A63.88 63.88 0 0 1 7 59.58c-3 5-6.08 10.24-6.08 16S4 86.54 7 91.58a63.88 63.88 0 0 1 4.21 7.88zM85 141.74c-6 0-11.33-3.16-16.47-6.22a62.7 62.7 0 0 0-7.77-4.15 67.94 67.94 0 0 0-8.75-2.7c-5.73-1.5-11.66-3-15.71-7.11s-5.61-10-7.11-15.72a66.9 66.9 0 0 0-2.71-8.75l.86-.35a68.17 68.17 0 0 1 2.75 8.87c1.47 5.62 3 11.42 6.86 15.3s9.68 5.39 15.3 6.86a68.17 68.17 0 0 1 8.87 2.75 63.88 63.88 0 0 1 7.88 4.21c5 3 10.24 6.08 16 6.08s11-3.09 16-6.08a63.88 63.88 0 0 1 7.88-4.21 68.17 68.17 0 0 1 8.87-2.75c5.62-1.47 11.43-3 15.3-6.86s5.4-9.68 6.87-15.3a69.71 69.71 0 0 1 2.74-8.87 64.72 64.72 0 0 1 4.21-7.89c3-5 6.09-10.24 6.09-16s-3.1-11-6.09-16a63.28 63.28 0 0 1-4.2-7.85l.86-.35a62.08 62.08 0 0 0 4.15 7.77c3 5.14 6.21 10.46 6.21 16.47s-3.16 11.32-6.21 16.47a62 62 0 0 0-4.15 7.76 70.09 70.09 0 0 0-2.71 8.75c-1.5 5.74-3 11.67-7.1 15.72s-10 5.61-15.72 7.11a67.94 67.94 0 0 0-8.75 2.7 63.42 63.42 0 0 0-7.77 4.15c-5.14 3.03-10.48 6.19-16.48 6.19z" fill="#333"></path></g></svg></svg> <!----></g><rect v-gra="id" width="182" height="167.4541473388672" transform="translate(-6, -6)" style="pointer-events:none;" fill="url(#UHhGSkK-1BuYo0VyUDODS)"></rect></g> <g data-d="icon-text" hollow-target="textRect" transform="translate(30.167499542236328,9.586532592773438)"><g data-d="icon" class="iconsvg-imagesvg" transform="matrix(1,0,0,1,29.032501220703125,0)" mask="url(#25fde670-db7b-416f-b90d-431f24530538)" opacity="1"><g><!----> <svg filter="url(#colors7557117054)" x="0" y="0" width="61.60000000000002" height="54.700126094446546" filtersec="colorsf8351444644" class="image-svg-svg primary" style="overflow: visible;"><svg xmlns="http://www.w3.org/2000/svg" viewBox="0.03143342584371567 0.010309430770576 68.14012908935547 60.50766372680664"><title>q3tPZ6.tif</title><path d="M35.67 30.09a6 6 0 0 1-3.67 5.5 7.42 7.42 0 0 1-9.26-2.75 6.11 6.11 0 0 1 2.77-9 7.36 7.36 0 0 1 10 5.13c.1.37.11.74.16 1.12zM39.49 23.73c-3.75-.37-6.88-1.79-8.67-5.31a4.15 4.15 0 0 1 2.62-6.12 8.46 8.46 0 0 1 5.8.34 9.17 9.17 0 0 1 5.2 4.41c1.54 3 0 5.95-3.34 6.51a7.86 7.86 0 0 1-1.61.17zM54.33 34.45a4.08 4.08 0 0 1-5 4.23 9.3 9.3 0 0 1-7.38-8.14 4.12 4.12 0 0 1 4.82-4.4c4 .64 7.54 4.54 7.56 8.31zM15.89 52.48a5.33 5.33 0 1 1 5.35-5.32 5.35 5.35 0 0 1-5.35 5.32zM45.14 55A5.75 5.75 0 0 1 44 58.7a4.05 4.05 0 0 1-6.36.51 6.13 6.13 0 0 1-.51-7.81 4.19 4.19 0 0 1 7.18.64 5.41 5.41 0 0 1 .83 2.96zM20.71 19.12a7.44 7.44 0 0 1-5.1-1.93 3.21 3.21 0 0 1 .33-5.12 7.75 7.75 0 0 1 9.2.52 3.23 3.23 0 0 1-.31 5.22 7.33 7.33 0 0 1-4.12 1.31zM65.09 50.58c0 3-2.53 4.54-5.21 3.21a6.64 6.64 0 0 1-3.47-7 3.18 3.18 0 0 1 4-2.42 6.7 6.7 0 0 1 4.68 6.21zM54.46 24a8 8 0 0 1-6.67-4.78A2.24 2.24 0 0 1 50 16a8 8 0 0 1 6.84 4.56c.84 2.03-.16 3.44-2.38 3.44zM5.35 23.42a5.45 5.45 0 0 1 .7 0c2.34.24 3.35 2.36 2 4.24a5.57 5.57 0 0 1-5.52 2.24A2.6 2.6 0 0 1 .1 28.05a2.94 2.94 0 0 1 1.13-3 5.65 5.65 0 0 1 4.12-1.63zM28.9 4.55A7.36 7.36 0 0 1 33.18 6a4.68 4.68 0 0 1 .56.53c1.19 1.36.82 2.87-.91 3.45a6.65 6.65 0 0 1-5.55-.82 3.92 3.92 0 0 1-1.45-1.38A1.81 1.81 0 0 1 26.59 5a4.72 4.72 0 0 1 2.31-.45zM7.17 9.58a4.75 4.75 0 0 1 3.31 1 1.82 1.82 0 0 1 .09 2.86A6.13 6.13 0 0 1 5.39 15 4.28 4.28 0 0 1 3 14a1.82 1.82 0 0 1-.22-2.76 5.65 5.65 0 0 1 4.39-1.66zM45.16 12.71a7.38 7.38 0 0 1-5-2.25 3.64 3.64 0 0 1-.65-1 1.54 1.54 0 0 1 1-2.3c2.14-.58 3.92.27 5.55 1.54a3.89 3.89 0 0 1 1.15 1.3 1.63 1.63 0 0 1-1.15 2.57c-.31.07-.63.09-.9.14zM68.17 34.8a1.23 1.23 0 0 1-1.46 1.27 5.78 5.78 0 0 1-4.27-4.29 1.29 1.29 0 0 1 1.33-1.51c1.84.03 4.43 2.73 4.4 4.53zM61.13 18.51A6.06 6.06 0 0 1 65.81 22c.31 1-.28 1.8-1.31 1.64a5.86 5.86 0 0 1-4.59-3.43c-.47-1 .09-1.71 1.22-1.7zM26.47 3a5 5 0 0 1-2.77-1 1.1 1.1 0 0 1-.49-1A1 1 0 0 1 24 .19a4.28 4.28 0 0 1 4 .84c.84.67.65 1.49-.37 1.83a3.61 3.61 0 0 1-1.16.14zM15.59 5.56a3.37 3.37 0 0 1-2.21-.8.91.91 0 0 1 .17-1.56 3.88 3.88 0 0 1 3.94.31c.7.6.64 1.28-.19 1.7a3.52 3.52 0 0 1-1.71.35zM47.51 7.25a4.68 4.68 0 0 1-3-1.38 1 1 0 0 1-.33-1.19 1 1 0 0 1 1.14-.5 4.44 4.44 0 0 1 2.95 1.37c.32.33.61.68.4 1.16s-.67.51-1.16.54zM54.64 10.56a3.63 3.63 0 0 1 2.51 1.6.71.71 0 0 1 .07.85.79.79 0 0 1-.8.33 3.7 3.7 0 0 1-2.63-1.53c-.19-.27-.36-.57-.16-.9s.53-.35 1.01-.35zM37 2.92a3.06 3.06 0 0 1-2-.87c-.49-.5-.33-1 .36-1.16a3.24 3.24 0 0 1 2.64.94.61.61 0 0 1 .12.71c-.24.37-.62.37-1.12.38z" fill="#000000"></path></svg></svg> <defs><filter id="colors7557117054"><feColorMatrix type="matrix" values="0 0 0 0 0.19921875  0 0 0 0 0.19921875  0 0 0 0 0.19921875  0 0 0 1 0" class="icon-fecolormatrix"></feColorMatrix></filter> <filter id="colorsf8351444644"><feColorMatrix type="matrix" values="0 0 0 0 0.99609375  0 0 0 0 0.99609375  0 0 0 0 0.99609375  0 0 0 1 0" class="icon-fecolormatrix"></feColorMatrix></filter> <filter id="colorsb588411221"><feColorMatrix type="matrix" values="0 0 0 0 0  0 0 0 0 0  0 0 0 0 0  0 0 0 1 0" class="icon-fecolormatrix"></feColorMatrix></filter></defs></g><rect v-gra="id" width="73.5999984741211" height="66.70010375976562" transform="translate(-6, -6)" style="pointer-events:none;" fill="url(#UHhGSkK-1BuYo0VyUDODS)"></rect></g> <g data-d="text" transform="translate(0,58.700103759765625)"><g data-gra="path-name" fill-rule="" class="tp-name iconsvg-namesvg" transform="matrix(1,0,0,1,0,0)" fill="url(#e420058c-9b6f-4cb4-937b-8433e76ffce3)" opacity="1"><g transform="scale(1.3000000000000003)"><g><path d="M1.93 1.02Q0.99 1.02 0.6 0.2 0.21-0.62 0.21-2.11L0.21-2.11Q0.21-2.84 0.31-5.21L0.31-5.21Q0.34-6.04 0.49-6.3 0.65-6.56 1.3-6.56L1.3-6.56Q1.9-6.56 2.03-6.34 2.16-6.12 2.16-5.31L2.16-5.31Q2.16-4.82 2.11-3.67L2.11-3.67Q2.03-2.81 2.03-1.93L2.03-1.93Q2.03-1.04 2.12-0.7 2.21-0.36 2.5-0.36L2.5-0.36Q3.33-0.36 4.52-2.02 5.7-3.67 6.59-5.67L6.59-5.67Q6.64-7.34 6.98-7.99 7.31-8.64 7.94-8.64L7.94-8.64Q8.51-8.64 8.79-8.28 9.06-7.91 9.06-7.5L9.06-7.5Q9.06-7.24 8.94-7 8.82-6.77 8.8-6.69L8.8-6.69Q8.54-6.25 8.38-5.71 8.23-5.18 8.23-4.27L8.23-4.27Q8.23-2.45 9.35-2.45L9.35-2.45Q9.87-2.45 10.36-2.89 10.86-3.33 11.38-4.37L11.38-4.37 11.66-4.14Q11.09-2.79 10.37-2.17 9.66-1.56 8.9-1.56L8.9-1.56Q8.1-1.56 7.54-2.21 6.98-2.86 6.69-3.98L6.69-3.98Q5.54-1.85 4.31-0.42 3.07 1.02 1.93 1.02L1.93 1.02ZM12.91 0.78Q11.77 0.78 11.25 0.03 10.73-0.73 10.73-1.98L10.73-1.98Q10.73-4.37 12.35-8.38 13.98-12.39 16.01-15.57 18.04-18.74 19-18.74L19-18.74Q19.45-18.74 19.76-18.05 20.07-17.36 20.1-16.66L20.1-16.66Q20.1-15.46 19.13-13.16 18.17-10.86 16.54-8.49 14.92-6.12 13.07-4.66L13.07-4.66Q12.78-3.05 12.78-2.21L12.78-2.21Q12.78-1.3 13.08-0.86 13.38-0.42 13.9-0.42L13.9-0.42Q14.81-0.42 15.84-1.63 16.87-2.84 17.68-4.56L17.68-4.56 18.3-4.22Q17.15-1.85 15.78-0.53 14.4 0.78 12.91 0.78L12.91 0.78ZM13.54-6.27Q14.94-7.78 16.18-9.81 17.42-11.84 18.16-13.67 18.9-15.49 18.9-16.37L18.9-16.37Q18.56-16.37 17.53-14.79 16.5-13.2 15.37-10.84 14.24-8.49 13.54-6.27L13.54-6.27ZM18.77 0.83Q17.7 0.83 17.22 0.13 16.74-0.57 16.74-1.61L16.74-1.61Q16.74-2.71 17.19-3.88 17.65-5.05 18.38-5.83 19.11-6.61 19.86-6.61L19.86-6.61Q20.17-6.61 20.67-6.4L20.67-6.4Q20.83-7.6 21.52-8.38 22.2-9.16 23.45-9.16L23.45-9.16Q24.5-9.16 24.99-8.58 25.48-7.99 25.48-7.05L25.48-7.05Q25.48-6.14 25-4.97 24.52-3.8 23.77-2.63L23.77-2.63Q24.08-2.47 24.5-2.47L24.5-2.47Q25.22-2.47 26.06-2.95 26.89-3.44 27.33-4.43L27.33-4.43 27.8-4.09Q27.26-2.84 26.33-2.19 25.41-1.54 24.42-1.54L24.42-1.54Q23.82-1.54 23.12-1.77L23.12-1.77Q22.15-0.62 21.01 0.1 19.86 0.83 18.77 0.83L18.77 0.83ZM22.88-3.18Q23.53-4.14 23.96-5.18 24.39-6.22 24.39-7.05L24.39-7.05Q24.39-8.2 23.66-8.2L23.66-8.2Q23.32-8.2 22.96-7.86 22.6-7.52 22.36-6.96 22.13-6.4 22.13-5.73L22.13-5.73Q22.13-5.13 22.34-4.36 22.54-3.59 22.88-3.18L22.88-3.18ZM19.71-0.49Q20.17-0.49 20.85-1.02 21.53-1.54 22.2-2.34L22.2-2.34Q20.72-3.64 20.64-6.17L20.64-6.17Q20.33-6.01 19.89-5.21 19.45-4.4 19.13-3.41 18.82-2.42 18.82-1.69L18.82-1.69Q18.82-0.49 19.71-0.49L19.71-0.49ZM28.04 7.29Q27.31 7.29 26.79 6.86 26.27 6.43 26.27 5.62L26.27 5.62Q26.27 4.61 27.03 3.77 27.8 2.94 28.82 2.36 29.83 1.77 31.5 0.99L31.5 0.99Q32.15-0.65 32.54-2.26L32.54-2.26Q30.43 0.39 28.58 0.39L28.58 0.39Q27.54 0.39 26.93-0.34 26.32-1.07 26.32-2.26L26.32-2.26Q26.32-4.01 27.46-5.57 28.61-7.13 30.3-8.08 31.99-9.03 33.53-9.03L33.53-9.03Q34.34-9.03 34.77-8.75 35.19-8.46 35.19-8.04L35.19-8.04Q35.19-7.78 35.04-7.58 34.88-7.37 34.78-7.34L34.78-7.34Q34.52-7.6 34.26-7.71 34-7.81 33.61-7.81L33.61-7.81Q32.33-7.81 31.13-6.86 29.94-5.91 29.19-4.57 28.45-3.23 28.45-2.16L28.45-2.16Q28.45-1.64 28.67-1.37 28.9-1.09 29.26-1.09L29.26-1.09Q29.96-1.09 30.99-2 32.02-2.92 33.03-4.35L33.03-4.35Q33.32-5.81 33.71-6.44 34.1-7.08 34.83-7.08L34.83-7.08Q35.17-7.08 35.59-6.98L35.59-6.98Q35.59-6.3 35.01-4.27 34.44-2.24 33.63-0.05L33.63-0.05Q34.93-0.6 36.14-1.76 37.36-2.92 37.88-4.43L37.88-4.43 38.34-3.96Q37.77-2.32 36.3-0.99 34.83 0.34 33.29 1.04L33.29 1.04Q32.1 3.93 30.81 5.61 29.52 7.29 28.04 7.29L28.04 7.29ZM27.93 6.09Q28.45 6.09 29.29 5.13 30.12 4.17 31 2.21L31 2.21Q29.31 3.05 28.37 3.79 27.44 4.53 27.44 5.36L27.44 5.36Q27.44 5.7 27.58 5.9 27.72 6.09 27.93 6.09L27.93 6.09ZM38.47 7.29Q37.75 7.29 37.23 6.86 36.7 6.43 36.7 5.6L36.7 5.6Q36.7 4.58 37.47 3.75 38.24 2.92 39.26 2.34 40.27 1.77 41.88 1.02L41.88 1.02Q42.33-0.1 43.13-3.05L43.13-3.05Q42.2-1.72 41.3-0.96 40.4-0.21 39.39-0.21L39.39-0.21Q38.53-0.21 37.85-0.73 37.17-1.25 37.17-2.37L37.17-2.37Q37.17-3.25 37.59-4.62 38.01-5.99 38.58-7.02 39.15-8.04 39.57-8.04L39.57-8.04Q39.83-8.04 40.35-7.77 40.87-7.5 40.97-7.18L40.97-7.18Q40.48-6.51 39.89-4.92 39.31-3.33 39.31-2.42L39.31-2.42Q39.31-1.46 40.06-1.46L40.06-1.46Q40.84-1.46 41.75-2.37 42.67-3.28 43.5-4.61L43.5-4.61Q43.55-4.79 43.66-5.47 43.76-6.14 44.12-6.65 44.49-7.16 45.16-7.16L45.16-7.16Q45.27-7.16 46-7.05L46-7.05Q45.97-6.4 45.39-4.22 44.8-2.03 44.02 0.05L44.02 0.05Q45.3-0.47 46.43-1.54 47.56-2.6 48.21-4.35L48.21-4.35 48.65-3.98Q48.11-2.19 46.77-0.96 45.43 0.26 43.68 1.04L43.68 1.04Q42.46 3.93 41.2 5.61 39.93 7.29 38.47 7.29L38.47 7.29ZM38.21 6.33Q38.76 6.33 39.65 5.22 40.53 4.11 41.39 2.16L41.39 2.16Q39.88 2.92 38.8 3.83 37.72 4.74 37.72 5.6L37.72 5.6Q37.72 5.88 37.84 6.1 37.95 6.33 38.21 6.33L38.21 6.33ZM49.51 0.26Q48.94 0.26 48.65-0.04 48.37-0.34 48.37-0.73L48.37-0.73Q48.37-1.17 48.93-1.64 49.49-2.11 50.01-2.11L50.01-2.11Q50.35-2.11 50.61-1.91 50.87-1.72 50.87-1.3L50.87-1.3Q50.87-1.07 50.7-0.69 50.53-0.31 50.23-0.03 49.93 0.26 49.51 0.26L49.51 0.26ZM56.67 1.9Q55.21 1.9 54.43 0.99 53.65 0.08 53.65-1.56L53.65-1.56Q53.65-4.01 55.21-8.11 56.77-12.21 58.78-15.4 60.78-18.59 61.93-18.59L61.93-18.59Q62.42-18.59 62.7-18.04 62.97-17.49 63-16.79L63-16.79Q63-15.54 62.14-13.52 61.28-11.51 59.89-9.66 58.49-7.81 56.96-6.92L56.96-6.92Q56.59-6.25 56.19-4.7 55.79-3.15 55.79-1.72L55.79-1.72Q55.79-0.57 56.11 0.12 56.44 0.81 57.14 0.81L57.14 0.81Q57.82 0.81 58.6 0.2 59.38-0.42 59.87-1.33L59.87-1.33Q58.94-1.85 58.43-2.77 57.92-3.7 57.92-4.76L57.92-4.76Q57.92-6.01 58.6-6.81 59.27-7.6 60.29-7.6L60.29-7.6Q61.17-7.6 61.69-6.94 62.22-6.27 62.22-5L62.22-5Q62.22-3.41 61.43-1.72L61.43-1.72 61.9-1.69Q63.1-1.69 63.88-2.53 64.66-3.36 65.26-4.58L65.26-4.58 65.65-4.03Q64.95-2.42 64-1.65 63.05-0.89 61.56-0.89L61.56-0.89Q61.2-0.89 61.02-0.91L61.02-0.91Q60.21 0.36 59.12 1.13 58.02 1.9 56.67 1.9L56.67 1.9ZM57.45-8.56Q58.52-9.53 59.51-11.08 60.5-12.63 61.12-14.07 61.75-15.51 61.77-16.14L61.77-16.14Q61.43-16.01 60.6-14.84 59.77-13.67 58.88-11.96 58-10.26 57.45-8.56L57.45-8.56ZM60.32-2.19Q60.78-3.25 60.78-4.4L60.78-4.4Q60.78-5.28 60.58-5.75 60.37-6.22 60.03-6.22L60.03-6.22Q59.69-6.22 59.44-5.75 59.2-5.28 59.2-4.63L59.2-4.63Q59.2-3.98 59.47-3.29 59.74-2.6 60.32-2.19L60.32-2.19ZM66.82 0.78Q65.68 0.78 65.16 0.03 64.64-0.73 64.64-1.98L64.64-1.98Q64.64-4.37 66.26-8.38 67.89-12.39 69.92-15.57 71.95-18.74 72.91-18.74L72.91-18.74Q73.36-18.74 73.67-18.05 73.98-17.36 74.01-16.66L74.01-16.66Q74.01-15.46 73.04-13.16 72.08-10.86 70.45-8.49 68.83-6.12 66.98-4.66L66.98-4.66Q66.69-3.05 66.69-2.21L66.69-2.21Q66.69-1.3 66.99-0.86 67.29-0.42 67.81-0.42L67.81-0.42Q68.72-0.42 69.75-1.63 70.78-2.84 71.59-4.56L71.59-4.56 72.21-4.22Q71.07-1.85 69.69-0.53 68.31 0.78 66.82 0.78L66.82 0.78ZM67.45-6.27Q68.85-7.78 70.09-9.81 71.33-11.84 72.07-13.67 72.81-15.49 72.81-16.37L72.81-16.37Q72.47-16.37 71.44-14.79 70.42-13.2 69.28-10.84 68.15-8.49 67.45-6.27L67.45-6.27ZM72.68 0.83Q71.61 0.83 71.13 0.13 70.65-0.57 70.65-1.61L70.65-1.61Q70.65-2.71 71.11-3.88 71.56-5.05 72.29-5.83 73.02-6.61 73.77-6.61L73.77-6.61Q74.09-6.61 74.58-6.4L74.58-6.4Q74.74-7.6 75.43-8.38 76.12-9.16 77.37-9.16L77.37-9.16Q78.41-9.16 78.9-8.58 79.4-7.99 79.4-7.05L79.4-7.05Q79.4-6.14 78.91-4.97 78.43-3.8 77.68-2.63L77.68-2.63Q77.99-2.47 78.41-2.47L78.41-2.47Q79.14-2.47 79.97-2.95 80.8-3.44 81.24-4.43L81.24-4.43 81.71-4.09Q81.17-2.84 80.24-2.19 79.32-1.54 78.33-1.54L78.33-1.54Q77.73-1.54 77.03-1.77L77.03-1.77Q76.06-0.62 74.92 0.1 73.77 0.83 72.68 0.83L72.68 0.83ZM76.79-3.18Q77.44-4.14 77.87-5.18 78.3-6.22 78.3-7.05L78.3-7.05Q78.3-8.2 77.57-8.2L77.57-8.2Q77.24-8.2 76.87-7.86 76.51-7.52 76.27-6.96 76.04-6.4 76.04-5.73L76.04-5.73Q76.04-5.13 76.25-4.36 76.45-3.59 76.79-3.18L76.79-3.18ZM73.62-0.49Q74.09-0.49 74.76-1.02 75.44-1.54 76.12-2.34L76.12-2.34Q74.63-3.64 74.55-6.17L74.55-6.17Q74.24-6.01 73.8-5.21 73.36-4.4 73.04-3.41 72.73-2.42 72.73-1.69L72.73-1.69Q72.73-0.49 73.62-0.49L73.62-0.49ZM81.95 7.29Q81.22 7.29 80.7 6.86 80.18 6.43 80.18 5.62L80.18 5.62Q80.18 4.61 80.95 3.77 81.71 2.94 82.73 2.36 83.74 1.77 85.41 0.99L85.41 0.99Q86.06-0.65 86.45-2.26L86.45-2.26Q84.34 0.39 82.49 0.39L82.49 0.39Q81.45 0.39 80.84-0.34 80.23-1.07 80.23-2.26L80.23-2.26Q80.23-4.01 81.37-5.57 82.52-7.13 84.21-8.08 85.9-9.03 87.44-9.03L87.44-9.03Q88.25-9.03 88.68-8.75 89.11-8.46 89.11-8.04L89.11-8.04Q89.11-7.78 88.95-7.58 88.79-7.37 88.69-7.34L88.69-7.34Q88.43-7.6 88.17-7.71 87.91-7.81 87.52-7.81L87.52-7.81Q86.24-7.81 85.05-6.86 83.85-5.91 83.11-4.57 82.36-3.23 82.36-2.16L82.36-2.16Q82.36-1.64 82.59-1.37 82.81-1.09 83.17-1.09L83.17-1.09Q83.87-1.09 84.9-2 85.93-2.92 86.95-4.35L86.95-4.35Q87.23-5.81 87.62-6.44 88.01-7.08 88.74-7.08L88.74-7.08Q89.08-7.08 89.5-6.98L89.5-6.98Q89.5-6.3 88.92-4.27 88.35-2.24 87.54-0.05L87.54-0.05Q88.85-0.6 90.06-1.76 91.27-2.92 91.79-4.43L91.79-4.43 92.26-3.96Q91.68-2.32 90.21-0.99 88.74 0.34 87.21 1.04L87.21 1.04Q86.01 3.93 84.72 5.61 83.43 7.29 81.95 7.29L81.95 7.29ZM81.84 6.09Q82.36 6.09 83.2 5.13 84.03 4.17 84.92 2.21L84.92 2.21Q83.22 3.05 82.29 3.79 81.35 4.53 81.35 5.36L81.35 5.36Q81.35 5.7 81.49 5.9 81.64 6.09 81.84 6.09L81.84 6.09Z" transform="translate(-0.21000000834465027, 18.739999771118164)"></path></g> <!----> <!----> <!----> <!----> <!----> <!----> <!----></g></g> <g data-gra="path-slogan" fill-rule="" class="tp-slogan iconsvg-slogansvg" fill="url(#9a8810f1-4df5-44e5-aad7-3e86b3ea64a5)" transform="matrix(1,0,0,1,19.177101135253906,37.83899688720703)" opacity="1"><!----> <!----> <g transform="scale(1, 1)"><g transform="scale(0.6599999999999997)"><path d="M0.10 1.60L2.77-7.10L3.37-7.10L0.70 1.60L0.10 1.60ZM4.01-2.03L4.01-2.03Q4.01-3.03 4.34-3.85Q4.68-4.67 5.25-5.25Q5.83-5.83 6.58-6.15Q7.34-6.46 8.18-6.46L8.18-6.46Q8.94-6.46 9.54-6.22Q10.15-5.98 10.57-5.54Q11-5.11 11.23-4.50Q11.46-3.89 11.46-3.15L11.46-3.15Q11.46-2.49 11.28-2.00Q11.09-1.50 10.80-1.17Q10.51-0.83 10.16-0.66Q9.80-0.49 9.46-0.49L9.46-0.49Q9.05-0.49 8.77-0.68Q8.48-0.87 8.43-1.25L8.43-1.25L8.41-1.25Q8.16-0.96 7.84-0.77Q7.52-0.57 7.19-0.57L7.19-0.57Q6.68-0.57 6.33-0.93Q5.99-1.29 5.99-1.98L5.99-1.98Q5.99-2.38 6.13-2.79Q6.26-3.21 6.51-3.54Q6.76-3.88 7.12-4.09Q7.47-4.30 7.91-4.30L7.91-4.30Q8.17-4.30 8.37-4.19Q8.57-4.07 8.71-3.82L8.71-3.82L8.73-3.82L8.84-4.22L9.39-4.22L9-2.22Q8.70-1.05 9.54-1.05L9.54-1.05Q9.78-1.05 10.02-1.19Q10.25-1.33 10.45-1.59Q10.64-1.86 10.76-2.25Q10.88-2.63 10.88-3.12L10.88-3.12Q10.88-3.72 10.71-4.24Q10.53-4.75 10.18-5.12Q9.83-5.49 9.31-5.70Q8.79-5.91 8.11-5.91L8.11-5.91Q7.44-5.91 6.81-5.63Q6.18-5.36 5.69-4.86Q5.20-4.36 4.91-3.65Q4.61-2.94 4.61-2.06L4.61-2.06Q4.61-1.33 4.83-0.76Q5.06-0.19 5.46 0.20Q5.86 0.59 6.41 0.80Q6.95 1 7.59 1L7.59 1Q8.05 1 8.46 0.88Q8.87 0.75 9.21 0.55L9.21 0.55L9.43 1.04Q8.58 1.55 7.53 1.55L7.53 1.55Q6.79 1.55 6.15 1.32Q5.51 1.09 5.04 0.64Q4.56 0.18 4.29-0.49Q4.01-1.16 4.01-2.03ZM6.65-2.03L6.65-2.03Q6.65-1.55 6.85-1.34Q7.05-1.13 7.35-1.13L7.35-1.13Q7.56-1.13 7.79-1.27Q8.01-1.41 8.27-1.72L8.27-1.72L8.56-3.31Q8.42-3.54 8.27-3.64Q8.12-3.73 7.92-3.73L7.92-3.73Q7.62-3.73 7.38-3.57Q7.15-3.41 6.98-3.16Q6.82-2.91 6.73-2.61Q6.65-2.31 6.65-2.03ZM12.87 0L12.87-6.56L13.70-6.56L13.70-3.27L13.73-3.27L16.46-6.56L17.40-6.56L15.35-4.06L17.72 0L16.79 0L14.83-3.41L13.70-2.08L13.70 0L12.87 0ZM18.66 0L18.66-6.56L19.49-6.56L19.49 0L18.66 0ZM21.29 0L21.29-6.56L22.27-6.56L23.54-3.04L24.02-1.70L24.06-1.70L24.52-3.04L25.78-6.56L26.76-6.56L26.76 0L25.97 0L25.97-3.61Q25.97-4.05 26.01-4.58Q26.04-5.11 26.08-5.55L26.08-5.55L26.04-5.55L25.51-4.09L24.25-0.66L23.78-0.66L22.51-4.09L21.99-5.55L21.95-5.55Q21.98-5.11 22.02-4.58Q22.06-4.05 22.06-3.61L22.06-3.61L22.06 0L21.29 0ZM28.56 0L28.56-6.56L30.57-6.56Q31.11-6.56 31.56-6.46Q32.01-6.36 32.33-6.13Q32.64-5.91 32.81-5.54Q32.99-5.17 32.99-4.63L32.99-4.63Q32.99-4.11 32.81-3.73Q32.64-3.35 32.32-3.10Q32-2.85 31.55-2.73Q31.11-2.60 30.57-2.60L30.57-2.60L29.39-2.60L29.39 0L28.56 0ZM29.39-3.28L30.47-3.28Q31.33-3.28 31.75-3.60Q32.16-3.93 32.16-4.63L32.16-4.63Q32.16-5.34 31.74-5.62Q31.32-5.89 30.47-5.89L30.47-5.89L29.39-5.89L29.39-3.28ZM34.32 0L34.32-6.56L38.10-6.56L38.10-5.86L35.15-5.86L35.15-3.80L37.64-3.80L37.64-3.09L35.15-3.09L35.15-0.71L38.20-0.71L38.20 0L34.32 0ZM40.95 0L40.95-5.86L38.97-5.86L38.97-6.56L43.77-6.56L43.77-5.86L41.79-5.86L41.79 0L40.95 0ZM45.78-5.89L45.78-3.45L46.88-3.45Q47.65-3.45 48.06-3.77Q48.47-4.08 48.47-4.72L48.47-4.72Q48.47-5.37 48.06-5.63Q47.65-5.89 46.88-5.89L46.88-5.89L45.78-5.89ZM49.49 0L48.55 0L46.97-2.77L45.78-2.77L45.78 0L44.95 0L44.95-6.56L47.00-6.56Q47.50-6.56 47.93-6.46Q48.35-6.37 48.66-6.15Q48.96-5.93 49.13-5.58Q49.30-5.23 49.30-4.72L49.30-4.72Q49.30-3.95 48.90-3.49Q48.50-3.03 47.83-2.86L47.83-2.86L49.49 0ZM51.48-2.67L53.45-2.67L53.14-3.67Q52.96-4.22 52.80-4.76Q52.64-5.31 52.48-5.88L52.48-5.88L52.44-5.88Q52.29-5.31 52.13-4.76Q51.97-4.22 51.79-3.67L51.79-3.67L51.48-2.67ZM54.28 0L53.66-2L51.27-2L50.64 0L49.79 0L52.01-6.56L52.95-6.56L55.17 0L54.28 0ZM55.62-0.85L56.12-1.43Q56.47-1.06 56.95-0.83Q57.42-0.61 57.93-0.61L57.93-0.61Q58.58-0.61 58.94-0.91Q59.30-1.20 59.30-1.68L59.30-1.68Q59.30-1.93 59.22-2.10Q59.13-2.28 58.98-2.41Q58.84-2.53 58.64-2.63Q58.44-2.73 58.21-2.84L58.21-2.84L57.27-3.25Q57.04-3.35 56.80-3.49Q56.56-3.63 56.37-3.83Q56.18-4.03 56.06-4.30Q55.94-4.58 55.94-4.94L55.94-4.94Q55.94-5.31 56.10-5.63Q56.25-5.95 56.53-6.19Q56.80-6.42 57.18-6.55Q57.55-6.68 58-6.68L58-6.68Q58.59-6.68 59.09-6.46Q59.59-6.23 59.94-5.87L59.94-5.87L59.49-5.33Q59.19-5.62 58.83-5.79Q58.46-5.95 58-5.95L58-5.95Q57.45-5.95 57.12-5.70Q56.78-5.44 56.78-4.99L56.78-4.99Q56.78-4.75 56.88-4.58Q56.97-4.42 57.13-4.29Q57.29-4.17 57.48-4.08Q57.67-3.98 57.87-3.90L57.87-3.90L58.80-3.50Q59.08-3.38 59.33-3.23Q59.58-3.07 59.76-2.87Q59.94-2.66 60.05-2.39Q60.15-2.11 60.15-1.75L60.15-1.75Q60.15-1.36 60.00-1.02Q59.84-0.68 59.55-0.42Q59.26-0.17 58.85-0.03Q58.44 0.12 57.92 0.12L57.92 0.12Q57.23 0.12 56.64-0.14Q56.05-0.40 55.62-0.85L55.62-0.85ZM61.44 0L61.69-2.04L60.89-2.04L60.89-2.61L61.76-2.61L61.94-4.09L61.09-4.09L61.09-4.67L62.01-4.67L62.24-6.50L62.77-6.50L62.54-4.67L63.87-4.67L64.11-6.50L64.64-6.50L64.40-4.67L65.21-4.67L65.21-4.09L64.34-4.09L64.16-2.61L65.01-2.61L65.01-2.04L64.09-2.04L63.84 0L63.31 0L63.55-2.04L62.23-2.04L61.98 0L61.44 0ZM62.30-2.61L63.62-2.61L63.80-4.09L62.48-4.09L62.30-2.61ZM66.03-3.28L66.03-3.28Q66.03-4.07 66.25-4.70Q66.47-5.33 66.86-5.77Q67.25-6.21 67.79-6.45Q68.32-6.68 68.95-6.68L68.95-6.68Q69.55-6.68 70-6.44Q70.45-6.19 70.74-5.87L70.74-5.87L70.27-5.34Q70.01-5.62 69.70-5.79Q69.38-5.95 68.96-5.95L68.96-5.95Q68.49-5.95 68.11-5.76Q67.73-5.58 67.46-5.24Q67.19-4.89 67.04-4.40Q66.89-3.91 66.89-3.30L66.89-3.30Q66.89-2.68 67.04-2.19Q67.18-1.69 67.44-1.34Q67.70-0.99 68.08-0.80Q68.45-0.61 68.92-0.61L68.92-0.61Q69.40-0.61 69.76-0.80Q70.11-0.99 70.43-1.34L70.43-1.34L70.90-0.83Q70.51-0.38 70.02-0.13Q69.53 0.12 68.90 0.12L68.90 0.12Q68.28 0.12 67.76-0.11Q67.23-0.34 66.84-0.78Q66.46-1.21 66.25-1.84Q66.03-2.48 66.03-3.28ZM74.25 0.12L74.25 0.12Q73.63 0.12 73.11-0.12Q72.60-0.36 72.23-0.81Q71.86-1.25 71.65-1.89Q71.45-2.52 71.45-3.31L71.45-3.31Q71.45-4.10 71.65-4.73Q71.86-5.35 72.23-5.79Q72.60-6.22 73.11-6.45Q73.63-6.68 74.25-6.68L74.25-6.68Q74.87-6.68 75.38-6.45Q75.90-6.21 76.27-5.78Q76.65-5.34 76.85-4.71Q77.06-4.09 77.06-3.31L77.06-3.31Q77.06-2.52 76.85-1.89Q76.65-1.25 76.27-0.81Q75.90-0.36 75.38-0.12Q74.87 0.12 74.25 0.12ZM74.25-0.61L74.25-0.61Q74.69-0.61 75.04-0.80Q75.40-0.99 75.65-1.34Q75.91-1.70 76.05-2.19Q76.19-2.69 76.19-3.31L76.19-3.31Q76.19-3.92 76.05-4.41Q75.91-4.90 75.65-5.24Q75.40-5.58 75.04-5.76Q74.69-5.95 74.25-5.95L74.25-5.95Q73.81-5.95 73.45-5.76Q73.10-5.58 72.84-5.24Q72.59-4.90 72.45-4.41Q72.31-3.92 72.31-3.31L72.31-3.31Q72.31-2.69 72.45-2.19Q72.59-1.70 72.84-1.34Q73.10-0.99 73.45-0.80Q73.81-0.61 74.25-0.61ZM78.47 0L78.47-6.56L79.33-6.56L81.70-2.44L82.41-1.08L82.45-1.08Q82.42-1.58 82.38-2.12Q82.35-2.65 82.35-3.17L82.35-3.17L82.35-6.56L83.14-6.56L83.14 0L82.28 0L79.90-4.13L79.19-5.48L79.15-5.48Q79.19-4.98 79.22-4.46Q79.26-3.95 79.26-3.43L79.26-3.43L79.26 0L78.47 0ZM84.56-3.28L84.56-3.28Q84.56-4.07 84.78-4.70Q85.00-5.33 85.39-5.77Q85.78-6.21 86.31-6.45Q86.85-6.68 87.48-6.68L87.48-6.68Q88.08-6.68 88.53-6.44Q88.98-6.19 89.27-5.87L89.27-5.87L88.80-5.34Q88.54-5.62 88.22-5.79Q87.91-5.95 87.49-5.95L87.49-5.95Q87.02-5.95 86.64-5.76Q86.26-5.58 85.99-5.24Q85.72-4.89 85.57-4.40Q85.42-3.91 85.42-3.30L85.42-3.30Q85.42-2.68 85.56-2.19Q85.71-1.69 85.97-1.34Q86.23-0.99 86.60-0.80Q86.98-0.61 87.45-0.61L87.45-0.61Q87.93-0.61 88.28-0.80Q88.64-0.99 88.96-1.34L88.96-1.34L89.43-0.83Q89.04-0.38 88.55-0.13Q88.06 0.12 87.43 0.12L87.43 0.12Q86.81 0.12 86.28-0.11Q85.76-0.34 85.37-0.78Q84.99-1.21 84.77-1.84Q84.56-2.48 84.56-3.28ZM90.65 0L90.65-6.56L94.43-6.56L94.43-5.86L91.48-5.86L91.48-3.80L93.97-3.80L93.97-3.09L91.48-3.09L91.48-0.71L94.53-0.71L94.53 0L90.65 0ZM96.75-5.89L96.75-3.45L97.85-3.45Q98.62-3.45 99.03-3.77Q99.44-4.08 99.44-4.72L99.44-4.72Q99.44-5.37 99.03-5.63Q98.62-5.89 97.85-5.89L97.85-5.89L96.75-5.89ZM100.46 0L99.52 0L97.94-2.77L96.75-2.77L96.75 0L95.92 0L95.92-6.56L97.97-6.56Q98.47-6.56 98.89-6.46Q99.32-6.37 99.62-6.15Q99.93-5.93 100.10-5.58Q100.27-5.23 100.27-4.72L100.27-4.72Q100.27-3.95 99.87-3.49Q99.47-3.03 98.80-2.86L98.80-2.86L100.46 0ZM102.89 0L102.89-5.86L100.91-5.86L100.91-6.56L105.71-6.56L105.71-5.86L103.73-5.86L103.73 0L102.89 0ZM106.11 0.71L110.87 0.71L110.87 1.26L106.11 1.26L106.11 0.71ZM111.89 0L111.89-6.56L113.84-6.56Q114.34-6.56 114.75-6.47Q115.17-6.38 115.46-6.19Q115.76-6 115.92-5.70Q116.09-5.39 116.09-4.96L116.09-4.96Q116.09-4.47 115.81-4.08Q115.53-3.68 114.95-3.53L114.95-3.53L114.95-3.49Q115.67-3.38 116.07-2.99Q116.47-2.60 116.47-1.92L116.47-1.92Q116.47-1.44 116.29-1.08Q116.11-0.72 115.78-0.48Q115.45-0.24 114.99-0.12Q114.53 0 113.98 0L113.98 0L111.89 0ZM112.72-3.76L113.69-3.76Q114.54-3.76 114.90-4.05Q115.27-4.34 115.27-4.89L115.27-4.89Q115.27-5.43 114.88-5.67Q114.50-5.90 113.73-5.90L113.73-5.90L112.72-5.90L112.72-3.76ZM112.72-0.66L113.86-0.66Q114.71-0.66 115.18-0.97Q115.65-1.29 115.65-1.96L115.65-1.96Q115.65-2.57 115.19-2.85Q114.73-3.14 113.86-3.14L113.86-3.14L112.72-3.14L112.72-0.66ZM116.98 0L118.89-3.39L117.11-6.56L118.03-6.56L118.92-4.88Q119.05-4.65 119.16-4.44Q119.28-4.22 119.43-3.93L119.43-3.93L119.47-3.93Q119.61-4.22 119.71-4.44Q119.82-4.65 119.94-4.88L119.94-4.88L120.81-6.56L121.69-6.56L119.90-3.35L121.81 0L120.89 0L119.93-1.77Q119.80-2.01 119.66-2.27Q119.53-2.52 119.37-2.82L119.37-2.82L119.33-2.82Q119.19-2.52 119.06-2.27Q118.93-2.01 118.81-1.77L118.81-1.77L117.86 0L116.98 0ZM122.86 0L122.86-6.56L123.69-6.56L123.69-0.71L126.56-0.71L126.56 0L122.86 0ZM126.94 0.71L131.70 0.71L131.70 1.26L126.94 1.26L126.94 0.71ZM132.22 0L132.22-0.49Q132.94-1.21 133.50-1.79Q134.06-2.37 134.44-2.87Q134.82-3.36 135.02-3.77Q135.22-4.19 135.22-4.58L135.22-4.58Q135.22-5.13 134.92-5.48Q134.62-5.83 134.01-5.83L134.01-5.83Q133.61-5.83 133.27-5.61Q132.93-5.38 132.65-5.06L132.65-5.06L132.18-5.53Q132.58-5.97 133.03-6.24Q133.48-6.50 134.11-6.50L134.11-6.50Q135.00-6.50 135.51-5.99Q136.02-5.47 136.02-4.62L136.02-4.62Q136.02-4.17 135.82-3.71Q135.63-3.26 135.28-2.77Q134.94-2.29 134.46-1.77Q133.99-1.24 133.42-0.65L133.42-0.65Q133.68-0.67 133.96-0.69Q134.24-0.71 134.49-0.71L134.49-0.71L136.34-0.71L136.34 0L132.22 0ZM137.83-2.42L139.83-2.42L139.83-4.27Q139.83-4.53 139.84-4.88Q139.86-5.24 139.88-5.50L139.88-5.50L139.84-5.50Q139.72-5.27 139.59-5.05Q139.46-4.83 139.32-4.60L139.32-4.60L137.83-2.42ZM141.48-2.42L141.48-1.76L140.61-1.76L140.61 0L139.83 0L139.83-1.76L136.96-1.76L136.96-2.30L139.69-6.38L140.61-6.38L140.61-2.42L141.48-2.42Z" transform="translate(-0.1, 7.1000000000000005)"></path></g></g></g></g></g></g><defs><filter id="1cd920c9-2a0e-47ae-9dbd-b9123cc53a01">
          <feColorMatrix type="matrix" values="0 0 0 0 0  0 0 0 0 0  0 0 0 0 0  0 0 0 1 0"></feColorMatrix>
          </filter><filter id="00c1b927-4ce3-4ac1-ae55-fdde0207369e">
          <feColorMatrix type="matrix" values="0 0 0 0 0.99609375  0 0 0 0 0.99609375  0 0 0 0 0.99609375  0 0 0 1 0"></feColorMatrix>
          </filter></defs><mask id="29574004-3994-43be-a10d-2e590e115253"><g data-v-6805eed4="" fill="#ff9a9e" class="j-b-g-c iconbgsvg"><g data-d="container" transform="translate(0,0)"><g><rect fill="#ff9a9e" fill-opacity="0" stroke-width="2" x="0" y="0" width="170" height="155.45415" class="image-rect" stroke="#000"></rect> <svg x="0" y="0" width="170" height="155.45415" filtersec="colorsb6154541218" class="image-svg-container primary" style="overflow: visible;" filter="url(#00c1b927-4ce3-4ac1-ae55-fdde0207369e)"><svg xmlns="http://www.w3.org/2000/svg" viewBox="0 0 156.73001 143.32001" style="overflow: visible;"><g transform="scale(1, 1) skewX(0)"><path d="M156.73 68.42c0 8.9-7.11 16.32-10.32 24.06-3.33 8-3.67 18.27-9.71 24.32s-16.3 6.38-24.32 9.71c-7.74 3.21-15.16 10.32-24.06 10.32S72 129.72 64.26 126.51c-8-3.33-18.28-3.67-24.32-9.71s-6.39-16.3-9.71-24.32C27 84.74 19.9 77.32 19.9 68.42S27 52.1 30.23 44.36c3.32-8 3.66-18.28 9.71-24.32s16.29-6.39 24.32-9.71C72 7.12 79.42 0 88.32 0s16.32 7.12 24.06 10.33c8 3.32 18.27 3.66 24.32 9.71s6.38 16.3 9.71 24.32c3.21 7.74 10.32 15.16 10.32 24.06z" fill="#f5cbd8" opacity=".6"></path><path d="M144.69 74.9c0 8.9-7.12 16.32-10.33 24.06-3.33 8-3.67 18.28-9.71 24.32s-16.3 6.39-24.32 9.71c-7.74 3.21-15.16 10.33-24.06 10.33S60 136.2 52.21 133c-8-3.32-18.27-3.66-24.32-9.71S21.51 107 18.18 99C15 91.22 7.85 83.8 7.85 74.9S15 58.58 18.18 50.84c3.33-8 3.67-18.27 9.71-24.31s16.3-6.39 24.32-9.72C60 13.61 67.37 6.49 76.27 6.49s16.32 7.12 24.06 10.32c8 3.33 18.27 3.67 24.32 9.72s6.38 16.29 9.71 24.31c3.21 7.74 10.33 15.16 10.33 24.06z" fill="#f5cbd8" opacity=".8"></path><path d="M10.36 99.82a62.08 62.08 0 0 0-4.15-7.77C3.16 86.91 0 81.59 0 75.58s3.16-11.33 6.21-16.47a61.39 61.39 0 0 0 4.15-7.77 66.43 66.43 0 0 0 2.71-8.75c1.5-5.73 3.05-11.66 7.11-15.72s10-5.6 15.71-7.1a66.43 66.43 0 0 0 8.75-2.71 61.39 61.39 0 0 0 7.77-4.15C57.55 9.86 62.87 6.7 68.88 6.7s11.33 3.16 16.47 6.21a62.08 62.08 0 0 0 7.77 4.15 66.43 66.43 0 0 0 8.75 2.71c5.73 1.5 11.66 3.05 15.72 7.11s5.6 10 7.1 15.71a68 68 0 0 0 2.71 8.75l-.86.36a69.74 69.74 0 0 1-2.75-8.87c-1.46-5.62-3-11.42-6.86-15.3s-9.68-5.39-15.3-6.86a68.17 68.17 0 0 1-8.87-2.75 63.88 63.88 0 0 1-7.88-4.21c-5-3-10.24-6.08-16-6.08s-11 3.09-16 6.08A63.88 63.88 0 0 1 45 17.92a68.17 68.17 0 0 1-8.87 2.75c-5.62 1.47-11.42 3-15.3 6.86s-5.39 9.68-6.83 15.3a69.74 69.74 0 0 1-2.75 8.87A63.88 63.88 0 0 1 7 59.58c-3 5-6.08 10.24-6.08 16S4 86.54 7 91.58a63.88 63.88 0 0 1 4.21 7.88zM85 141.74c-6 0-11.33-3.16-16.47-6.22a62.7 62.7 0 0 0-7.77-4.15 67.94 67.94 0 0 0-8.75-2.7c-5.73-1.5-11.66-3-15.71-7.11s-5.61-10-7.11-15.72a66.9 66.9 0 0 0-2.71-8.75l.86-.35a68.17 68.17 0 0 1 2.75 8.87c1.47 5.62 3 11.42 6.86 15.3s9.68 5.39 15.3 6.86a68.17 68.17 0 0 1 8.87 2.75 63.88 63.88 0 0 1 7.88 4.21c5 3 10.24 6.08 16 6.08s11-3.09 16-6.08a63.88 63.88 0 0 1 7.88-4.21 68.17 68.17 0 0 1 8.87-2.75c5.62-1.47 11.43-3 15.3-6.86s5.4-9.68 6.87-15.3a69.71 69.71 0 0 1 2.74-8.87 64.72 64.72 0 0 1 4.21-7.89c3-5 6.09-10.24 6.09-16s-3.1-11-6.09-16a63.28 63.28 0 0 1-4.2-7.85l.86-.35a62.08 62.08 0 0 0 4.15 7.77c3 5.14 6.21 10.46 6.21 16.47s-3.16 11.32-6.21 16.47a62 62 0 0 0-4.15 7.76 70.09 70.09 0 0 0-2.71 8.75c-1.5 5.74-3 11.67-7.1 15.72s-10 5.61-15.72 7.11a67.94 67.94 0 0 0-8.75 2.7 63.42 63.42 0 0 0-7.77 4.15c-5.14 3.03-10.48 6.19-16.48 6.19z" fill="#333"></path></g></svg></svg> <!----></g></g> <g data-d="icon-text" hollow-target="textRect" transform="translate(30.167499542236328,9.586532592773438)" filter="url(#1cd920c9-2a0e-47ae-9dbd-b9123cc53a01)"><g data-d="icon" class="iconsvg-imagesvg" transform="matrix(1,0,0,1,29.032501220703125,0)" opacity="1"><g><!----> <svg filter="url(#colors7557117054)" x="0" y="0" width="61.60000000000002" height="54.700126094446546" filtersec="colorsf8351444644" class="image-svg-svg primary" style="overflow: visible;"><svg xmlns="http://www.w3.org/2000/svg" viewBox="0.03143342584371567 0.010309430770576 68.14012908935547 60.50766372680664" style="overflow: visible;"><title>q3tPZ6.tif</title><path d="M35.67 30.09a6 6 0 0 1-3.67 5.5 7.42 7.42 0 0 1-9.26-2.75 6.11 6.11 0 0 1 2.77-9 7.36 7.36 0 0 1 10 5.13c.1.37.11.74.16 1.12zM39.49 23.73c-3.75-.37-6.88-1.79-8.67-5.31a4.15 4.15 0 0 1 2.62-6.12 8.46 8.46 0 0 1 5.8.34 9.17 9.17 0 0 1 5.2 4.41c1.54 3 0 5.95-3.34 6.51a7.86 7.86 0 0 1-1.61.17zM54.33 34.45a4.08 4.08 0 0 1-5 4.23 9.3 9.3 0 0 1-7.38-8.14 4.12 4.12 0 0 1 4.82-4.4c4 .64 7.54 4.54 7.56 8.31zM15.89 52.48a5.33 5.33 0 1 1 5.35-5.32 5.35 5.35 0 0 1-5.35 5.32zM45.14 55A5.75 5.75 0 0 1 44 58.7a4.05 4.05 0 0 1-6.36.51 6.13 6.13 0 0 1-.51-7.81 4.19 4.19 0 0 1 7.18.64 5.41 5.41 0 0 1 .83 2.96zM20.71 19.12a7.44 7.44 0 0 1-5.1-1.93 3.21 3.21 0 0 1 .33-5.12 7.75 7.75 0 0 1 9.2.52 3.23 3.23 0 0 1-.31 5.22 7.33 7.33 0 0 1-4.12 1.31zM65.09 50.58c0 3-2.53 4.54-5.21 3.21a6.64 6.64 0 0 1-3.47-7 3.18 3.18 0 0 1 4-2.42 6.7 6.7 0 0 1 4.68 6.21zM54.46 24a8 8 0 0 1-6.67-4.78A2.24 2.24 0 0 1 50 16a8 8 0 0 1 6.84 4.56c.84 2.03-.16 3.44-2.38 3.44zM5.35 23.42a5.45 5.45 0 0 1 .7 0c2.34.24 3.35 2.36 2 4.24a5.57 5.57 0 0 1-5.52 2.24A2.6 2.6 0 0 1 .1 28.05a2.94 2.94 0 0 1 1.13-3 5.65 5.65 0 0 1 4.12-1.63zM28.9 4.55A7.36 7.36 0 0 1 33.18 6a4.68 4.68 0 0 1 .56.53c1.19 1.36.82 2.87-.91 3.45a6.65 6.65 0 0 1-5.55-.82 3.92 3.92 0 0 1-1.45-1.38A1.81 1.81 0 0 1 26.59 5a4.72 4.72 0 0 1 2.31-.45zM7.17 9.58a4.75 4.75 0 0 1 3.31 1 1.82 1.82 0 0 1 .09 2.86A6.13 6.13 0 0 1 5.39 15 4.28 4.28 0 0 1 3 14a1.82 1.82 0 0 1-.22-2.76 5.65 5.65 0 0 1 4.39-1.66zM45.16 12.71a7.38 7.38 0 0 1-5-2.25 3.64 3.64 0 0 1-.65-1 1.54 1.54 0 0 1 1-2.3c2.14-.58 3.92.27 5.55 1.54a3.89 3.89 0 0 1 1.15 1.3 1.63 1.63 0 0 1-1.15 2.57c-.31.07-.63.09-.9.14zM68.17 34.8a1.23 1.23 0 0 1-1.46 1.27 5.78 5.78 0 0 1-4.27-4.29 1.29 1.29 0 0 1 1.33-1.51c1.84.03 4.43 2.73 4.4 4.53zM61.13 18.51A6.06 6.06 0 0 1 65.81 22c.31 1-.28 1.8-1.31 1.64a5.86 5.86 0 0 1-4.59-3.43c-.47-1 .09-1.71 1.22-1.7zM26.47 3a5 5 0 0 1-2.77-1 1.1 1.1 0 0 1-.49-1A1 1 0 0 1 24 .19a4.28 4.28 0 0 1 4 .84c.84.67.65 1.49-.37 1.83a3.61 3.61 0 0 1-1.16.14zM15.59 5.56a3.37 3.37 0 0 1-2.21-.8.91.91 0 0 1 .17-1.56 3.88 3.88 0 0 1 3.94.31c.7.6.64 1.28-.19 1.7a3.52 3.52 0 0 1-1.71.35zM47.51 7.25a4.68 4.68 0 0 1-3-1.38 1 1 0 0 1-.33-1.19 1 1 0 0 1 1.14-.5 4.44 4.44 0 0 1 2.95 1.37c.32.33.61.68.4 1.16s-.67.51-1.16.54zM54.64 10.56a3.63 3.63 0 0 1 2.51 1.6.71.71 0 0 1 .07.85.79.79 0 0 1-.8.33 3.7 3.7 0 0 1-2.63-1.53c-.19-.27-.36-.57-.16-.9s.53-.35 1.01-.35zM37 2.92a3.06 3.06 0 0 1-2-.87c-.49-.5-.33-1 .36-1.16a3.24 3.24 0 0 1 2.64.94.61.61 0 0 1 .12.71c-.24.37-.62.37-1.12.38z" fill="#000000"></path></svg></svg> <defs><filter id="colors7557117054"><feColorMatrix type="matrix" values="0 0 0 0 0.19921875  0 0 0 0 0.19921875  0 0 0 0 0.19921875  0 0 0 1 0" class="icon-fecolormatrix"></feColorMatrix></filter> <filter id="colorsf8351444644"><feColorMatrix type="matrix" values="0 0 0 0 0.99609375  0 0 0 0 0.99609375  0 0 0 0 0.99609375  0 0 0 1 0" class="icon-fecolormatrix"></feColorMatrix></filter> <filter id="colorsb588411221"><feColorMatrix type="matrix" values="0 0 0 0 0  0 0 0 0 0  0 0 0 0 0  0 0 0 1 0" class="icon-fecolormatrix"></feColorMatrix></filter></defs></g></g> <g data-d="text" transform="translate(0,58.700103759765625)"><g data-gra="path-name" fill-rule="" class="tp-name iconsvg-namesvg" transform="matrix(1,0,0,1,0,0)" opacity="1"><g transform="scale(1.3000000000000003)"><g><path d="M1.93 1.02Q0.99 1.02 0.6 0.2 0.21-0.62 0.21-2.11L0.21-2.11Q0.21-2.84 0.31-5.21L0.31-5.21Q0.34-6.04 0.49-6.3 0.65-6.56 1.3-6.56L1.3-6.56Q1.9-6.56 2.03-6.34 2.16-6.12 2.16-5.31L2.16-5.31Q2.16-4.82 2.11-3.67L2.11-3.67Q2.03-2.81 2.03-1.93L2.03-1.93Q2.03-1.04 2.12-0.7 2.21-0.36 2.5-0.36L2.5-0.36Q3.33-0.36 4.52-2.02 5.7-3.67 6.59-5.67L6.59-5.67Q6.64-7.34 6.98-7.99 7.31-8.64 7.94-8.64L7.94-8.64Q8.51-8.64 8.79-8.28 9.06-7.91 9.06-7.5L9.06-7.5Q9.06-7.24 8.94-7 8.82-6.77 8.8-6.69L8.8-6.69Q8.54-6.25 8.38-5.71 8.23-5.18 8.23-4.27L8.23-4.27Q8.23-2.45 9.35-2.45L9.35-2.45Q9.87-2.45 10.36-2.89 10.86-3.33 11.38-4.37L11.38-4.37 11.66-4.14Q11.09-2.79 10.37-2.17 9.66-1.56 8.9-1.56L8.9-1.56Q8.1-1.56 7.54-2.21 6.98-2.86 6.69-3.98L6.69-3.98Q5.54-1.85 4.31-0.42 3.07 1.02 1.93 1.02L1.93 1.02ZM12.91 0.78Q11.77 0.78 11.25 0.03 10.73-0.73 10.73-1.98L10.73-1.98Q10.73-4.37 12.35-8.38 13.98-12.39 16.01-15.57 18.04-18.74 19-18.74L19-18.74Q19.45-18.74 19.76-18.05 20.07-17.36 20.1-16.66L20.1-16.66Q20.1-15.46 19.13-13.16 18.17-10.86 16.54-8.49 14.92-6.12 13.07-4.66L13.07-4.66Q12.78-3.05 12.78-2.21L12.78-2.21Q12.78-1.3 13.08-0.86 13.38-0.42 13.9-0.42L13.9-0.42Q14.81-0.42 15.84-1.63 16.87-2.84 17.68-4.56L17.68-4.56 18.3-4.22Q17.15-1.85 15.78-0.53 14.4 0.78 12.91 0.78L12.91 0.78ZM13.54-6.27Q14.94-7.78 16.18-9.81 17.42-11.84 18.16-13.67 18.9-15.49 18.9-16.37L18.9-16.37Q18.56-16.37 17.53-14.79 16.5-13.2 15.37-10.84 14.24-8.49 13.54-6.27L13.54-6.27ZM18.77 0.83Q17.7 0.83 17.22 0.13 16.74-0.57 16.74-1.61L16.74-1.61Q16.74-2.71 17.19-3.88 17.65-5.05 18.38-5.83 19.11-6.61 19.86-6.61L19.86-6.61Q20.17-6.61 20.67-6.4L20.67-6.4Q20.83-7.6 21.52-8.38 22.2-9.16 23.45-9.16L23.45-9.16Q24.5-9.16 24.99-8.58 25.48-7.99 25.48-7.05L25.48-7.05Q25.48-6.14 25-4.97 24.52-3.8 23.77-2.63L23.77-2.63Q24.08-2.47 24.5-2.47L24.5-2.47Q25.22-2.47 26.06-2.95 26.89-3.44 27.33-4.43L27.33-4.43 27.8-4.09Q27.26-2.84 26.33-2.19 25.41-1.54 24.42-1.54L24.42-1.54Q23.82-1.54 23.12-1.77L23.12-1.77Q22.15-0.62 21.01 0.1 19.86 0.83 18.77 0.83L18.77 0.83ZM22.88-3.18Q23.53-4.14 23.96-5.18 24.39-6.22 24.39-7.05L24.39-7.05Q24.39-8.2 23.66-8.2L23.66-8.2Q23.32-8.2 22.96-7.86 22.6-7.52 22.36-6.96 22.13-6.4 22.13-5.73L22.13-5.73Q22.13-5.13 22.34-4.36 22.54-3.59 22.88-3.18L22.88-3.18ZM19.71-0.49Q20.17-0.49 20.85-1.02 21.53-1.54 22.2-2.34L22.2-2.34Q20.72-3.64 20.64-6.17L20.64-6.17Q20.33-6.01 19.89-5.21 19.45-4.4 19.13-3.41 18.82-2.42 18.82-1.69L18.82-1.69Q18.82-0.49 19.71-0.49L19.71-0.49ZM28.04 7.29Q27.31 7.29 26.79 6.86 26.27 6.43 26.27 5.62L26.27 5.62Q26.27 4.61 27.03 3.77 27.8 2.94 28.82 2.36 29.83 1.77 31.5 0.99L31.5 0.99Q32.15-0.65 32.54-2.26L32.54-2.26Q30.43 0.39 28.58 0.39L28.58 0.39Q27.54 0.39 26.93-0.34 26.32-1.07 26.32-2.26L26.32-2.26Q26.32-4.01 27.46-5.57 28.61-7.13 30.3-8.08 31.99-9.03 33.53-9.03L33.53-9.03Q34.34-9.03 34.77-8.75 35.19-8.46 35.19-8.04L35.19-8.04Q35.19-7.78 35.04-7.58 34.88-7.37 34.78-7.34L34.78-7.34Q34.52-7.6 34.26-7.71 34-7.81 33.61-7.81L33.61-7.81Q32.33-7.81 31.13-6.86 29.94-5.91 29.19-4.57 28.45-3.23 28.45-2.16L28.45-2.16Q28.45-1.64 28.67-1.37 28.9-1.09 29.26-1.09L29.26-1.09Q29.96-1.09 30.99-2 32.02-2.92 33.03-4.35L33.03-4.35Q33.32-5.81 33.71-6.44 34.1-7.08 34.83-7.08L34.83-7.08Q35.17-7.08 35.59-6.98L35.59-6.98Q35.59-6.3 35.01-4.27 34.44-2.24 33.63-0.05L33.63-0.05Q34.93-0.6 36.14-1.76 37.36-2.92 37.88-4.43L37.88-4.43 38.34-3.96Q37.77-2.32 36.3-0.99 34.83 0.34 33.29 1.04L33.29 1.04Q32.1 3.93 30.81 5.61 29.52 7.29 28.04 7.29L28.04 7.29ZM27.93 6.09Q28.45 6.09 29.29 5.13 30.12 4.17 31 2.21L31 2.21Q29.31 3.05 28.37 3.79 27.44 4.53 27.44 5.36L27.44 5.36Q27.44 5.7 27.58 5.9 27.72 6.09 27.93 6.09L27.93 6.09ZM38.47 7.29Q37.75 7.29 37.23 6.86 36.7 6.43 36.7 5.6L36.7 5.6Q36.7 4.58 37.47 3.75 38.24 2.92 39.26 2.34 40.27 1.77 41.88 1.02L41.88 1.02Q42.33-0.1 43.13-3.05L43.13-3.05Q42.2-1.72 41.3-0.96 40.4-0.21 39.39-0.21L39.39-0.21Q38.53-0.21 37.85-0.73 37.17-1.25 37.17-2.37L37.17-2.37Q37.17-3.25 37.59-4.62 38.01-5.99 38.58-7.02 39.15-8.04 39.57-8.04L39.57-8.04Q39.83-8.04 40.35-7.77 40.87-7.5 40.97-7.18L40.97-7.18Q40.48-6.51 39.89-4.92 39.31-3.33 39.31-2.42L39.31-2.42Q39.31-1.46 40.06-1.46L40.06-1.46Q40.84-1.46 41.75-2.37 42.67-3.28 43.5-4.61L43.5-4.61Q43.55-4.79 43.66-5.47 43.76-6.14 44.12-6.65 44.49-7.16 45.16-7.16L45.16-7.16Q45.27-7.16 46-7.05L46-7.05Q45.97-6.4 45.39-4.22 44.8-2.03 44.02 0.05L44.02 0.05Q45.3-0.47 46.43-1.54 47.56-2.6 48.21-4.35L48.21-4.35 48.65-3.98Q48.11-2.19 46.77-0.96 45.43 0.26 43.68 1.04L43.68 1.04Q42.46 3.93 41.2 5.61 39.93 7.29 38.47 7.29L38.47 7.29ZM38.21 6.33Q38.76 6.33 39.65 5.22 40.53 4.11 41.39 2.16L41.39 2.16Q39.88 2.92 38.8 3.83 37.72 4.74 37.72 5.6L37.72 5.6Q37.72 5.88 37.84 6.1 37.95 6.33 38.21 6.33L38.21 6.33ZM49.51 0.26Q48.94 0.26 48.65-0.04 48.37-0.34 48.37-0.73L48.37-0.73Q48.37-1.17 48.93-1.64 49.49-2.11 50.01-2.11L50.01-2.11Q50.35-2.11 50.61-1.91 50.87-1.72 50.87-1.3L50.87-1.3Q50.87-1.07 50.7-0.69 50.53-0.31 50.23-0.03 49.93 0.26 49.51 0.26L49.51 0.26ZM56.67 1.9Q55.21 1.9 54.43 0.99 53.65 0.08 53.65-1.56L53.65-1.56Q53.65-4.01 55.21-8.11 56.77-12.21 58.78-15.4 60.78-18.59 61.93-18.59L61.93-18.59Q62.42-18.59 62.7-18.04 62.97-17.49 63-16.79L63-16.79Q63-15.54 62.14-13.52 61.28-11.51 59.89-9.66 58.49-7.81 56.96-6.92L56.96-6.92Q56.59-6.25 56.19-4.7 55.79-3.15 55.79-1.72L55.79-1.72Q55.79-0.57 56.11 0.12 56.44 0.81 57.14 0.81L57.14 0.81Q57.82 0.81 58.6 0.2 59.38-0.42 59.87-1.33L59.87-1.33Q58.94-1.85 58.43-2.77 57.92-3.7 57.92-4.76L57.92-4.76Q57.92-6.01 58.6-6.81 59.27-7.6 60.29-7.6L60.29-7.6Q61.17-7.6 61.69-6.94 62.22-6.27 62.22-5L62.22-5Q62.22-3.41 61.43-1.72L61.43-1.72 61.9-1.69Q63.1-1.69 63.88-2.53 64.66-3.36 65.26-4.58L65.26-4.58 65.65-4.03Q64.95-2.42 64-1.65 63.05-0.89 61.56-0.89L61.56-0.89Q61.2-0.89 61.02-0.91L61.02-0.91Q60.21 0.36 59.12 1.13 58.02 1.9 56.67 1.9L56.67 1.9ZM57.45-8.56Q58.52-9.53 59.51-11.08 60.5-12.63 61.12-14.07 61.75-15.51 61.77-16.14L61.77-16.14Q61.43-16.01 60.6-14.84 59.77-13.67 58.88-11.96 58-10.26 57.45-8.56L57.45-8.56ZM60.32-2.19Q60.78-3.25 60.78-4.4L60.78-4.4Q60.78-5.28 60.58-5.75 60.37-6.22 60.03-6.22L60.03-6.22Q59.69-6.22 59.44-5.75 59.2-5.28 59.2-4.63L59.2-4.63Q59.2-3.98 59.47-3.29 59.74-2.6 60.32-2.19L60.32-2.19ZM66.82 0.78Q65.68 0.78 65.16 0.03 64.64-0.73 64.64-1.98L64.64-1.98Q64.64-4.37 66.26-8.38 67.89-12.39 69.92-15.57 71.95-18.74 72.91-18.74L72.91-18.74Q73.36-18.74 73.67-18.05 73.98-17.36 74.01-16.66L74.01-16.66Q74.01-15.46 73.04-13.16 72.08-10.86 70.45-8.49 68.83-6.12 66.98-4.66L66.98-4.66Q66.69-3.05 66.69-2.21L66.69-2.21Q66.69-1.3 66.99-0.86 67.29-0.42 67.81-0.42L67.81-0.42Q68.72-0.42 69.75-1.63 70.78-2.84 71.59-4.56L71.59-4.56 72.21-4.22Q71.07-1.85 69.69-0.53 68.31 0.78 66.82 0.78L66.82 0.78ZM67.45-6.27Q68.85-7.78 70.09-9.81 71.33-11.84 72.07-13.67 72.81-15.49 72.81-16.37L72.81-16.37Q72.47-16.37 71.44-14.79 70.42-13.2 69.28-10.84 68.15-8.49 67.45-6.27L67.45-6.27ZM72.68 0.83Q71.61 0.83 71.13 0.13 70.65-0.57 70.65-1.61L70.65-1.61Q70.65-2.71 71.11-3.88 71.56-5.05 72.29-5.83 73.02-6.61 73.77-6.61L73.77-6.61Q74.09-6.61 74.58-6.4L74.58-6.4Q74.74-7.6 75.43-8.38 76.12-9.16 77.37-9.16L77.37-9.16Q78.41-9.16 78.9-8.58 79.4-7.99 79.4-7.05L79.4-7.05Q79.4-6.14 78.91-4.97 78.43-3.8 77.68-2.63L77.68-2.63Q77.99-2.47 78.41-2.47L78.41-2.47Q79.14-2.47 79.97-2.95 80.8-3.44 81.24-4.43L81.24-4.43 81.71-4.09Q81.17-2.84 80.24-2.19 79.32-1.54 78.33-1.54L78.33-1.54Q77.73-1.54 77.03-1.77L77.03-1.77Q76.06-0.62 74.92 0.1 73.77 0.83 72.68 0.83L72.68 0.83ZM76.79-3.18Q77.44-4.14 77.87-5.18 78.3-6.22 78.3-7.05L78.3-7.05Q78.3-8.2 77.57-8.2L77.57-8.2Q77.24-8.2 76.87-7.86 76.51-7.52 76.27-6.96 76.04-6.4 76.04-5.73L76.04-5.73Q76.04-5.13 76.25-4.36 76.45-3.59 76.79-3.18L76.79-3.18ZM73.62-0.49Q74.09-0.49 74.76-1.02 75.44-1.54 76.12-2.34L76.12-2.34Q74.63-3.64 74.55-6.17L74.55-6.17Q74.24-6.01 73.8-5.21 73.36-4.4 73.04-3.41 72.73-2.42 72.73-1.69L72.73-1.69Q72.73-0.49 73.62-0.49L73.62-0.49ZM81.95 7.29Q81.22 7.29 80.7 6.86 80.18 6.43 80.18 5.62L80.18 5.62Q80.18 4.61 80.95 3.77 81.71 2.94 82.73 2.36 83.74 1.77 85.41 0.99L85.41 0.99Q86.06-0.65 86.45-2.26L86.45-2.26Q84.34 0.39 82.49 0.39L82.49 0.39Q81.45 0.39 80.84-0.34 80.23-1.07 80.23-2.26L80.23-2.26Q80.23-4.01 81.37-5.57 82.52-7.13 84.21-8.08 85.9-9.03 87.44-9.03L87.44-9.03Q88.25-9.03 88.68-8.75 89.11-8.46 89.11-8.04L89.11-8.04Q89.11-7.78 88.95-7.58 88.79-7.37 88.69-7.34L88.69-7.34Q88.43-7.6 88.17-7.71 87.91-7.81 87.52-7.81L87.52-7.81Q86.24-7.81 85.05-6.86 83.85-5.91 83.11-4.57 82.36-3.23 82.36-2.16L82.36-2.16Q82.36-1.64 82.59-1.37 82.81-1.09 83.17-1.09L83.17-1.09Q83.87-1.09 84.9-2 85.93-2.92 86.95-4.35L86.95-4.35Q87.23-5.81 87.62-6.44 88.01-7.08 88.74-7.08L88.74-7.08Q89.08-7.08 89.5-6.98L89.5-6.98Q89.5-6.3 88.92-4.27 88.35-2.24 87.54-0.05L87.54-0.05Q88.85-0.6 90.06-1.76 91.27-2.92 91.79-4.43L91.79-4.43 92.26-3.96Q91.68-2.32 90.21-0.99 88.74 0.34 87.21 1.04L87.21 1.04Q86.01 3.93 84.72 5.61 83.43 7.29 81.95 7.29L81.95 7.29ZM81.84 6.09Q82.36 6.09 83.2 5.13 84.03 4.17 84.92 2.21L84.92 2.21Q83.22 3.05 82.29 3.79 81.35 4.53 81.35 5.36L81.35 5.36Q81.35 5.7 81.49 5.9 81.64 6.09 81.84 6.09L81.84 6.09Z" transform="translate(-0.21000000834465027, 18.739999771118164)"></path></g> <!----> <!----> <!----> <!----> <!----> <!----> <!----></g></g> <g data-gra="path-slogan" fill-rule="" class="tp-slogan iconsvg-slogansvg" fill="#ff9a9e" transform="matrix(1,0,0,1,19.177101135253906,37.83899688720703)" opacity="1"><!----> <!----> <g transform="scale(1, 1)"><g transform="scale(0.6599999999999997)"><path d="M0.10 1.60L2.77-7.10L3.37-7.10L0.70 1.60L0.10 1.60ZM4.01-2.03L4.01-2.03Q4.01-3.03 4.34-3.85Q4.68-4.67 5.25-5.25Q5.83-5.83 6.58-6.15Q7.34-6.46 8.18-6.46L8.18-6.46Q8.94-6.46 9.54-6.22Q10.15-5.98 10.57-5.54Q11-5.11 11.23-4.50Q11.46-3.89 11.46-3.15L11.46-3.15Q11.46-2.49 11.28-2.00Q11.09-1.50 10.80-1.17Q10.51-0.83 10.16-0.66Q9.80-0.49 9.46-0.49L9.46-0.49Q9.05-0.49 8.77-0.68Q8.48-0.87 8.43-1.25L8.43-1.25L8.41-1.25Q8.16-0.96 7.84-0.77Q7.52-0.57 7.19-0.57L7.19-0.57Q6.68-0.57 6.33-0.93Q5.99-1.29 5.99-1.98L5.99-1.98Q5.99-2.38 6.13-2.79Q6.26-3.21 6.51-3.54Q6.76-3.88 7.12-4.09Q7.47-4.30 7.91-4.30L7.91-4.30Q8.17-4.30 8.37-4.19Q8.57-4.07 8.71-3.82L8.71-3.82L8.73-3.82L8.84-4.22L9.39-4.22L9-2.22Q8.70-1.05 9.54-1.05L9.54-1.05Q9.78-1.05 10.02-1.19Q10.25-1.33 10.45-1.59Q10.64-1.86 10.76-2.25Q10.88-2.63 10.88-3.12L10.88-3.12Q10.88-3.72 10.71-4.24Q10.53-4.75 10.18-5.12Q9.83-5.49 9.31-5.70Q8.79-5.91 8.11-5.91L8.11-5.91Q7.44-5.91 6.81-5.63Q6.18-5.36 5.69-4.86Q5.20-4.36 4.91-3.65Q4.61-2.94 4.61-2.06L4.61-2.06Q4.61-1.33 4.83-0.76Q5.06-0.19 5.46 0.20Q5.86 0.59 6.41 0.80Q6.95 1 7.59 1L7.59 1Q8.05 1 8.46 0.88Q8.87 0.75 9.21 0.55L9.21 0.55L9.43 1.04Q8.58 1.55 7.53 1.55L7.53 1.55Q6.79 1.55 6.15 1.32Q5.51 1.09 5.04 0.64Q4.56 0.18 4.29-0.49Q4.01-1.16 4.01-2.03ZM6.65-2.03L6.65-2.03Q6.65-1.55 6.85-1.34Q7.05-1.13 7.35-1.13L7.35-1.13Q7.56-1.13 7.79-1.27Q8.01-1.41 8.27-1.72L8.27-1.72L8.56-3.31Q8.42-3.54 8.27-3.64Q8.12-3.73 7.92-3.73L7.92-3.73Q7.62-3.73 7.38-3.57Q7.15-3.41 6.98-3.16Q6.82-2.91 6.73-2.61Q6.65-2.31 6.65-2.03ZM12.87 0L12.87-6.56L13.70-6.56L13.70-3.27L13.73-3.27L16.46-6.56L17.40-6.56L15.35-4.06L17.72 0L16.79 0L14.83-3.41L13.70-2.08L13.70 0L12.87 0ZM18.66 0L18.66-6.56L19.49-6.56L19.49 0L18.66 0ZM21.29 0L21.29-6.56L22.27-6.56L23.54-3.04L24.02-1.70L24.06-1.70L24.52-3.04L25.78-6.56L26.76-6.56L26.76 0L25.97 0L25.97-3.61Q25.97-4.05 26.01-4.58Q26.04-5.11 26.08-5.55L26.08-5.55L26.04-5.55L25.51-4.09L24.25-0.66L23.78-0.66L22.51-4.09L21.99-5.55L21.95-5.55Q21.98-5.11 22.02-4.58Q22.06-4.05 22.06-3.61L22.06-3.61L22.06 0L21.29 0ZM28.56 0L28.56-6.56L30.57-6.56Q31.11-6.56 31.56-6.46Q32.01-6.36 32.33-6.13Q32.64-5.91 32.81-5.54Q32.99-5.17 32.99-4.63L32.99-4.63Q32.99-4.11 32.81-3.73Q32.64-3.35 32.32-3.10Q32-2.85 31.55-2.73Q31.11-2.60 30.57-2.60L30.57-2.60L29.39-2.60L29.39 0L28.56 0ZM29.39-3.28L30.47-3.28Q31.33-3.28 31.75-3.60Q32.16-3.93 32.16-4.63L32.16-4.63Q32.16-5.34 31.74-5.62Q31.32-5.89 30.47-5.89L30.47-5.89L29.39-5.89L29.39-3.28ZM34.32 0L34.32-6.56L38.10-6.56L38.10-5.86L35.15-5.86L35.15-3.80L37.64-3.80L37.64-3.09L35.15-3.09L35.15-0.71L38.20-0.71L38.20 0L34.32 0ZM40.95 0L40.95-5.86L38.97-5.86L38.97-6.56L43.77-6.56L43.77-5.86L41.79-5.86L41.79 0L40.95 0ZM45.78-5.89L45.78-3.45L46.88-3.45Q47.65-3.45 48.06-3.77Q48.47-4.08 48.47-4.72L48.47-4.72Q48.47-5.37 48.06-5.63Q47.65-5.89 46.88-5.89L46.88-5.89L45.78-5.89ZM49.49 0L48.55 0L46.97-2.77L45.78-2.77L45.78 0L44.95 0L44.95-6.56L47.00-6.56Q47.50-6.56 47.93-6.46Q48.35-6.37 48.66-6.15Q48.96-5.93 49.13-5.58Q49.30-5.23 49.30-4.72L49.30-4.72Q49.30-3.95 48.90-3.49Q48.50-3.03 47.83-2.86L47.83-2.86L49.49 0ZM51.48-2.67L53.45-2.67L53.14-3.67Q52.96-4.22 52.80-4.76Q52.64-5.31 52.48-5.88L52.48-5.88L52.44-5.88Q52.29-5.31 52.13-4.76Q51.97-4.22 51.79-3.67L51.79-3.67L51.48-2.67ZM54.28 0L53.66-2L51.27-2L50.64 0L49.79 0L52.01-6.56L52.95-6.56L55.17 0L54.28 0ZM55.62-0.85L56.12-1.43Q56.47-1.06 56.95-0.83Q57.42-0.61 57.93-0.61L57.93-0.61Q58.58-0.61 58.94-0.91Q59.30-1.20 59.30-1.68L59.30-1.68Q59.30-1.93 59.22-2.10Q59.13-2.28 58.98-2.41Q58.84-2.53 58.64-2.63Q58.44-2.73 58.21-2.84L58.21-2.84L57.27-3.25Q57.04-3.35 56.80-3.49Q56.56-3.63 56.37-3.83Q56.18-4.03 56.06-4.30Q55.94-4.58 55.94-4.94L55.94-4.94Q55.94-5.31 56.10-5.63Q56.25-5.95 56.53-6.19Q56.80-6.42 57.18-6.55Q57.55-6.68 58-6.68L58-6.68Q58.59-6.68 59.09-6.46Q59.59-6.23 59.94-5.87L59.94-5.87L59.49-5.33Q59.19-5.62 58.83-5.79Q58.46-5.95 58-5.95L58-5.95Q57.45-5.95 57.12-5.70Q56.78-5.44 56.78-4.99L56.78-4.99Q56.78-4.75 56.88-4.58Q56.97-4.42 57.13-4.29Q57.29-4.17 57.48-4.08Q57.67-3.98 57.87-3.90L57.87-3.90L58.80-3.50Q59.08-3.38 59.33-3.23Q59.58-3.07 59.76-2.87Q59.94-2.66 60.05-2.39Q60.15-2.11 60.15-1.75L60.15-1.75Q60.15-1.36 60.00-1.02Q59.84-0.68 59.55-0.42Q59.26-0.17 58.85-0.03Q58.44 0.12 57.92 0.12L57.92 0.12Q57.23 0.12 56.64-0.14Q56.05-0.40 55.62-0.85L55.62-0.85ZM61.44 0L61.69-2.04L60.89-2.04L60.89-2.61L61.76-2.61L61.94-4.09L61.09-4.09L61.09-4.67L62.01-4.67L62.24-6.50L62.77-6.50L62.54-4.67L63.87-4.67L64.11-6.50L64.64-6.50L64.40-4.67L65.21-4.67L65.21-4.09L64.34-4.09L64.16-2.61L65.01-2.61L65.01-2.04L64.09-2.04L63.84 0L63.31 0L63.55-2.04L62.23-2.04L61.98 0L61.44 0ZM62.30-2.61L63.62-2.61L63.80-4.09L62.48-4.09L62.30-2.61ZM66.03-3.28L66.03-3.28Q66.03-4.07 66.25-4.70Q66.47-5.33 66.86-5.77Q67.25-6.21 67.79-6.45Q68.32-6.68 68.95-6.68L68.95-6.68Q69.55-6.68 70-6.44Q70.45-6.19 70.74-5.87L70.74-5.87L70.27-5.34Q70.01-5.62 69.70-5.79Q69.38-5.95 68.96-5.95L68.96-5.95Q68.49-5.95 68.11-5.76Q67.73-5.58 67.46-5.24Q67.19-4.89 67.04-4.40Q66.89-3.91 66.89-3.30L66.89-3.30Q66.89-2.68 67.04-2.19Q67.18-1.69 67.44-1.34Q67.70-0.99 68.08-0.80Q68.45-0.61 68.92-0.61L68.92-0.61Q69.40-0.61 69.76-0.80Q70.11-0.99 70.43-1.34L70.43-1.34L70.90-0.83Q70.51-0.38 70.02-0.13Q69.53 0.12 68.90 0.12L68.90 0.12Q68.28 0.12 67.76-0.11Q67.23-0.34 66.84-0.78Q66.46-1.21 66.25-1.84Q66.03-2.48 66.03-3.28ZM74.25 0.12L74.25 0.12Q73.63 0.12 73.11-0.12Q72.60-0.36 72.23-0.81Q71.86-1.25 71.65-1.89Q71.45-2.52 71.45-3.31L71.45-3.31Q71.45-4.10 71.65-4.73Q71.86-5.35 72.23-5.79Q72.60-6.22 73.11-6.45Q73.63-6.68 74.25-6.68L74.25-6.68Q74.87-6.68 75.38-6.45Q75.90-6.21 76.27-5.78Q76.65-5.34 76.85-4.71Q77.06-4.09 77.06-3.31L77.06-3.31Q77.06-2.52 76.85-1.89Q76.65-1.25 76.27-0.81Q75.90-0.36 75.38-0.12Q74.87 0.12 74.25 0.12ZM74.25-0.61L74.25-0.61Q74.69-0.61 75.04-0.80Q75.40-0.99 75.65-1.34Q75.91-1.70 76.05-2.19Q76.19-2.69 76.19-3.31L76.19-3.31Q76.19-3.92 76.05-4.41Q75.91-4.90 75.65-5.24Q75.40-5.58 75.04-5.76Q74.69-5.95 74.25-5.95L74.25-5.95Q73.81-5.95 73.45-5.76Q73.10-5.58 72.84-5.24Q72.59-4.90 72.45-4.41Q72.31-3.92 72.31-3.31L72.31-3.31Q72.31-2.69 72.45-2.19Q72.59-1.70 72.84-1.34Q73.10-0.99 73.45-0.80Q73.81-0.61 74.25-0.61ZM78.47 0L78.47-6.56L79.33-6.56L81.70-2.44L82.41-1.08L82.45-1.08Q82.42-1.58 82.38-2.12Q82.35-2.65 82.35-3.17L82.35-3.17L82.35-6.56L83.14-6.56L83.14 0L82.28 0L79.90-4.13L79.19-5.48L79.15-5.48Q79.19-4.98 79.22-4.46Q79.26-3.95 79.26-3.43L79.26-3.43L79.26 0L78.47 0ZM84.56-3.28L84.56-3.28Q84.56-4.07 84.78-4.70Q85.00-5.33 85.39-5.77Q85.78-6.21 86.31-6.45Q86.85-6.68 87.48-6.68L87.48-6.68Q88.08-6.68 88.53-6.44Q88.98-6.19 89.27-5.87L89.27-5.87L88.80-5.34Q88.54-5.62 88.22-5.79Q87.91-5.95 87.49-5.95L87.49-5.95Q87.02-5.95 86.64-5.76Q86.26-5.58 85.99-5.24Q85.72-4.89 85.57-4.40Q85.42-3.91 85.42-3.30L85.42-3.30Q85.42-2.68 85.56-2.19Q85.71-1.69 85.97-1.34Q86.23-0.99 86.60-0.80Q86.98-0.61 87.45-0.61L87.45-0.61Q87.93-0.61 88.28-0.80Q88.64-0.99 88.96-1.34L88.96-1.34L89.43-0.83Q89.04-0.38 88.55-0.13Q88.06 0.12 87.43 0.12L87.43 0.12Q86.81 0.12 86.28-0.11Q85.76-0.34 85.37-0.78Q84.99-1.21 84.77-1.84Q84.56-2.48 84.56-3.28ZM90.65 0L90.65-6.56L94.43-6.56L94.43-5.86L91.48-5.86L91.48-3.80L93.97-3.80L93.97-3.09L91.48-3.09L91.48-0.71L94.53-0.71L94.53 0L90.65 0ZM96.75-5.89L96.75-3.45L97.85-3.45Q98.62-3.45 99.03-3.77Q99.44-4.08 99.44-4.72L99.44-4.72Q99.44-5.37 99.03-5.63Q98.62-5.89 97.85-5.89L97.85-5.89L96.75-5.89ZM100.46 0L99.52 0L97.94-2.77L96.75-2.77L96.75 0L95.92 0L95.92-6.56L97.97-6.56Q98.47-6.56 98.89-6.46Q99.32-6.37 99.62-6.15Q99.93-5.93 100.10-5.58Q100.27-5.23 100.27-4.72L100.27-4.72Q100.27-3.95 99.87-3.49Q99.47-3.03 98.80-2.86L98.80-2.86L100.46 0ZM102.89 0L102.89-5.86L100.91-5.86L100.91-6.56L105.71-6.56L105.71-5.86L103.73-5.86L103.73 0L102.89 0ZM106.11 0.71L110.87 0.71L110.87 1.26L106.11 1.26L106.11 0.71ZM111.89 0L111.89-6.56L113.84-6.56Q114.34-6.56 114.75-6.47Q115.17-6.38 115.46-6.19Q115.76-6 115.92-5.70Q116.09-5.39 116.09-4.96L116.09-4.96Q116.09-4.47 115.81-4.08Q115.53-3.68 114.95-3.53L114.95-3.53L114.95-3.49Q115.67-3.38 116.07-2.99Q116.47-2.60 116.47-1.92L116.47-1.92Q116.47-1.44 116.29-1.08Q116.11-0.72 115.78-0.48Q115.45-0.24 114.99-0.12Q114.53 0 113.98 0L113.98 0L111.89 0ZM112.72-3.76L113.69-3.76Q114.54-3.76 114.90-4.05Q115.27-4.34 115.27-4.89L115.27-4.89Q115.27-5.43 114.88-5.67Q114.50-5.90 113.73-5.90L113.73-5.90L112.72-5.90L112.72-3.76ZM112.72-0.66L113.86-0.66Q114.71-0.66 115.18-0.97Q115.65-1.29 115.65-1.96L115.65-1.96Q115.65-2.57 115.19-2.85Q114.73-3.14 113.86-3.14L113.86-3.14L112.72-3.14L112.72-0.66ZM116.98 0L118.89-3.39L117.11-6.56L118.03-6.56L118.92-4.88Q119.05-4.65 119.16-4.44Q119.28-4.22 119.43-3.93L119.43-3.93L119.47-3.93Q119.61-4.22 119.71-4.44Q119.82-4.65 119.94-4.88L119.94-4.88L120.81-6.56L121.69-6.56L119.90-3.35L121.81 0L120.89 0L119.93-1.77Q119.80-2.01 119.66-2.27Q119.53-2.52 119.37-2.82L119.37-2.82L119.33-2.82Q119.19-2.52 119.06-2.27Q118.93-2.01 118.81-1.77L118.81-1.77L117.86 0L116.98 0ZM122.86 0L122.86-6.56L123.69-6.56L123.69-0.71L126.56-0.71L126.56 0L122.86 0ZM126.94 0.71L131.70 0.71L131.70 1.26L126.94 1.26L126.94 0.71ZM132.22 0L132.22-0.49Q132.94-1.21 133.50-1.79Q134.06-2.37 134.44-2.87Q134.82-3.36 135.02-3.77Q135.22-4.19 135.22-4.58L135.22-4.58Q135.22-5.13 134.92-5.48Q134.62-5.83 134.01-5.83L134.01-5.83Q133.61-5.83 133.27-5.61Q132.93-5.38 132.65-5.06L132.65-5.06L132.18-5.53Q132.58-5.97 133.03-6.24Q133.48-6.50 134.11-6.50L134.11-6.50Q135.00-6.50 135.51-5.99Q136.02-5.47 136.02-4.62L136.02-4.62Q136.02-4.17 135.82-3.71Q135.63-3.26 135.28-2.77Q134.94-2.29 134.46-1.77Q133.99-1.24 133.42-0.65L133.42-0.65Q133.68-0.67 133.96-0.69Q134.24-0.71 134.49-0.71L134.49-0.71L136.34-0.71L136.34 0L132.22 0ZM137.83-2.42L139.83-2.42L139.83-4.27Q139.83-4.53 139.84-4.88Q139.86-5.24 139.88-5.50L139.88-5.50L139.84-5.50Q139.72-5.27 139.59-5.05Q139.46-4.83 139.32-4.60L139.32-4.60L137.83-2.42ZM141.48-2.42L141.48-1.76L140.61-1.76L140.61 0L139.83 0L139.83-1.76L136.96-1.76L136.96-2.30L139.69-6.38L140.61-6.38L140.61-2.42L141.48-2.42Z" transform="translate(-0.1, 7.1000000000000005)"></path></g></g></g></g></g></g></mask><defs v-gra="od"><linearGradient x1="0" y1="1" x2="0" y2="0" id="9a8810f1-4df5-44e5-aad7-3e86b3ea64a5"><stop offset="0%" stop-color="#ff9a9e"></stop><stop offset="100%" stop-color="#fad0c4"></stop></linearGradient><filter id="42443b3f1de60f6b6fd3b6a9844b4764" filterUnits="objectBoundingBox"><feColorMatrix type="matrix" values="0 0 0 0 0.99609375  0 0 0 0 0.99609375  0 0 0 0 0.99609375  0 0 0 1 0"></feColorMatrix></filter><linearGradient x1="0" y1="1" x2="0" y2="0" id="e420058c-9b6f-4cb4-937b-8433e76ffce3"><stop offset="0%" stop-color="#ff9a9e"></stop><stop offset="100%" stop-color="#fad0c4"></stop></linearGradient><filter id="42443b3f1de60f6b6fd3b6a9844b4764" filterUnits="objectBoundingBox"><feColorMatrix type="matrix" values="0 0 0 0 0.99609375  0 0 0 0 0.99609375  0 0 0 0 0.99609375  0 0 0 1 0"></feColorMatrix></filter></defs><mask v-gra="im" id="25fde670-db7b-416f-b90d-431f24530538"><g data-d="icon" class="iconsvg-imagesvg" filter="url(#b29f5dc0-16a2-4a5a-8c97-76cc3875419a)"><g><!----> <svg filter="url(#colors7557117054)" x="0" y="0" width="61.60000000000002" height="54.700126094446546" filtersec="colorsf8351444644" class="image-svg-svg primary" style="overflow: visible;"><svg xmlns="http://www.w3.org/2000/svg" viewBox="0.03143342584371567 0.010309430770576 68.14012908935547 60.50766372680664"><title>q3tPZ6.tif</title><path d="M35.67 30.09a6 6 0 0 1-3.67 5.5 7.42 7.42 0 0 1-9.26-2.75 6.11 6.11 0 0 1 2.77-9 7.36 7.36 0 0 1 10 5.13c.1.37.11.74.16 1.12zM39.49 23.73c-3.75-.37-6.88-1.79-8.67-5.31a4.15 4.15 0 0 1 2.62-6.12 8.46 8.46 0 0 1 5.8.34 9.17 9.17 0 0 1 5.2 4.41c1.54 3 0 5.95-3.34 6.51a7.86 7.86 0 0 1-1.61.17zM54.33 34.45a4.08 4.08 0 0 1-5 4.23 9.3 9.3 0 0 1-7.38-8.14 4.12 4.12 0 0 1 4.82-4.4c4 .64 7.54 4.54 7.56 8.31zM15.89 52.48a5.33 5.33 0 1 1 5.35-5.32 5.35 5.35 0 0 1-5.35 5.32zM45.14 55A5.75 5.75 0 0 1 44 58.7a4.05 4.05 0 0 1-6.36.51 6.13 6.13 0 0 1-.51-7.81 4.19 4.19 0 0 1 7.18.64 5.41 5.41 0 0 1 .83 2.96zM20.71 19.12a7.44 7.44 0 0 1-5.1-1.93 3.21 3.21 0 0 1 .33-5.12 7.75 7.75 0 0 1 9.2.52 3.23 3.23 0 0 1-.31 5.22 7.33 7.33 0 0 1-4.12 1.31zM65.09 50.58c0 3-2.53 4.54-5.21 3.21a6.64 6.64 0 0 1-3.47-7 3.18 3.18 0 0 1 4-2.42 6.7 6.7 0 0 1 4.68 6.21zM54.46 24a8 8 0 0 1-6.67-4.78A2.24 2.24 0 0 1 50 16a8 8 0 0 1 6.84 4.56c.84 2.03-.16 3.44-2.38 3.44zM5.35 23.42a5.45 5.45 0 0 1 .7 0c2.34.24 3.35 2.36 2 4.24a5.57 5.57 0 0 1-5.52 2.24A2.6 2.6 0 0 1 .1 28.05a2.94 2.94 0 0 1 1.13-3 5.65 5.65 0 0 1 4.12-1.63zM28.9 4.55A7.36 7.36 0 0 1 33.18 6a4.68 4.68 0 0 1 .56.53c1.19 1.36.82 2.87-.91 3.45a6.65 6.65 0 0 1-5.55-.82 3.92 3.92 0 0 1-1.45-1.38A1.81 1.81 0 0 1 26.59 5a4.72 4.72 0 0 1 2.31-.45zM7.17 9.58a4.75 4.75 0 0 1 3.31 1 1.82 1.82 0 0 1 .09 2.86A6.13 6.13 0 0 1 5.39 15 4.28 4.28 0 0 1 3 14a1.82 1.82 0 0 1-.22-2.76 5.65 5.65 0 0 1 4.39-1.66zM45.16 12.71a7.38 7.38 0 0 1-5-2.25 3.64 3.64 0 0 1-.65-1 1.54 1.54 0 0 1 1-2.3c2.14-.58 3.92.27 5.55 1.54a3.89 3.89 0 0 1 1.15 1.3 1.63 1.63 0 0 1-1.15 2.57c-.31.07-.63.09-.9.14zM68.17 34.8a1.23 1.23 0 0 1-1.46 1.27 5.78 5.78 0 0 1-4.27-4.29 1.29 1.29 0 0 1 1.33-1.51c1.84.03 4.43 2.73 4.4 4.53zM61.13 18.51A6.06 6.06 0 0 1 65.81 22c.31 1-.28 1.8-1.31 1.64a5.86 5.86 0 0 1-4.59-3.43c-.47-1 .09-1.71 1.22-1.7zM26.47 3a5 5 0 0 1-2.77-1 1.1 1.1 0 0 1-.49-1A1 1 0 0 1 24 .19a4.28 4.28 0 0 1 4 .84c.84.67.65 1.49-.37 1.83a3.61 3.61 0 0 1-1.16.14zM15.59 5.56a3.37 3.37 0 0 1-2.21-.8.91.91 0 0 1 .17-1.56 3.88 3.88 0 0 1 3.94.31c.7.6.64 1.28-.19 1.7a3.52 3.52 0 0 1-1.71.35zM47.51 7.25a4.68 4.68 0 0 1-3-1.38 1 1 0 0 1-.33-1.19 1 1 0 0 1 1.14-.5 4.44 4.44 0 0 1 2.95 1.37c.32.33.61.68.4 1.16s-.67.51-1.16.54zM54.64 10.56a3.63 3.63 0 0 1 2.51 1.6.71.71 0 0 1 .07.85.79.79 0 0 1-.8.33 3.7 3.7 0 0 1-2.63-1.53c-.19-.27-.36-.57-.16-.9s.53-.35 1.01-.35zM37 2.92a3.06 3.06 0 0 1-2-.87c-.49-.5-.33-1 .36-1.16a3.24 3.24 0 0 1 2.64.94.61.61 0 0 1 .12.71c-.24.37-.62.37-1.12.38z" fill="#000000"></path></svg></svg> <defs><filter id="colors7557117054"><feColorMatrix type="matrix" values="0 0 0 0 0.19921875  0 0 0 0 0.19921875  0 0 0 0 0.19921875  0 0 0 1 0" class="icon-fecolormatrix"></feColorMatrix></filter> <filter id="colorsf8351444644"><feColorMatrix type="matrix" values="0 0 0 0 0.99609375  0 0 0 0 0.99609375  0 0 0 0 0.99609375  0 0 0 1 0" class="icon-fecolormatrix"></feColorMatrix></filter> <filter id="colorsb588411221"><feColorMatrix type="matrix" values="0 0 0 0 0  0 0 0 0 0  0 0 0 0 0  0 0 0 1 0" class="icon-fecolormatrix"></feColorMatrix></filter></defs></g></g></mask><defs v-gra="id"><filter id="b29f5dc0-16a2-4a5a-8c97-76cc3875419a" filterUnits="userSpaceOnUse"><feColorMatrix type="matrix" values="0 0 0 0 0.99609375  0 0 0 0 0.99609375  0 0 0 0 0.99609375  0 0 0 1 0"></feColorMatrix></filter><linearGradient x1="0" y1="1" x2="0" y2="0" id="UHhGSkK-1BuYo0VyUDODS"><stop offset="0%" stop-color="#ff9a9e"></stop><stop offset="100%" stop-color="#fad0c4"></stop></linearGradient><filter id="42443b3f1de60f6b6fd3b6a9844b4764" filterUnits="objectBoundingBox"><feColorMatrix type="matrix" values="0 0 0 0 0.99609375  0 0 0 0 0.99609375  0 0 0 0 0.99609375  0 0 0 1 0"></feColorMatrix></filter></defs><mask v-gra="im" id="57ac8159-3cf0-46de-8371-a60e64fe7059"><g data-v-6805eed4="" fill="#ff9a9e" class="j-b-g-c iconbgsvg" mask="url(#29574004-3994-43be-a10d-2e590e115253)" filter="url(#b29f5dc0-16a2-4a5a-8c97-76cc3875419a)"><g data-d="container" transform="translate(0,0)"><g><rect fill="#ff9a9e" fill-opacity="0" stroke-width="2" x="0" y="0" width="170" height="155.45415" class="image-rect"></rect> <svg x="0" y="0" width="170" height="155.45415" filtersec="colorsb6154541218" class="image-svg-container primary" style="overflow: visible;"><svg xmlns="http://www.w3.org/2000/svg" viewBox="0 0 156.73001 143.32001" style="overflow: visible;"><g transform="scale(1, 1) skewX(0)"><path d="M156.73 68.42c0 8.9-7.11 16.32-10.32 24.06-3.33 8-3.67 18.27-9.71 24.32s-16.3 6.38-24.32 9.71c-7.74 3.21-15.16 10.32-24.06 10.32S72 129.72 64.26 126.51c-8-3.33-18.28-3.67-24.32-9.71s-6.39-16.3-9.71-24.32C27 84.74 19.9 77.32 19.9 68.42S27 52.1 30.23 44.36c3.32-8 3.66-18.28 9.71-24.32s16.29-6.39 24.32-9.71C72 7.12 79.42 0 88.32 0s16.32 7.12 24.06 10.33c8 3.32 18.27 3.66 24.32 9.71s6.38 16.3 9.71 24.32c3.21 7.74 10.32 15.16 10.32 24.06z" fill="#f5cbd8" opacity=".6"></path><path d="M144.69 74.9c0 8.9-7.12 16.32-10.33 24.06-3.33 8-3.67 18.28-9.71 24.32s-16.3 6.39-24.32 9.71c-7.74 3.21-15.16 10.33-24.06 10.33S60 136.2 52.21 133c-8-3.32-18.27-3.66-24.32-9.71S21.51 107 18.18 99C15 91.22 7.85 83.8 7.85 74.9S15 58.58 18.18 50.84c3.33-8 3.67-18.27 9.71-24.31s16.3-6.39 24.32-9.72C60 13.61 67.37 6.49 76.27 6.49s16.32 7.12 24.06 10.32c8 3.33 18.27 3.67 24.32 9.72s6.38 16.29 9.71 24.31c3.21 7.74 10.33 15.16 10.33 24.06z" fill="#f5cbd8" opacity=".8"></path><path d="M10.36 99.82a62.08 62.08 0 0 0-4.15-7.77C3.16 86.91 0 81.59 0 75.58s3.16-11.33 6.21-16.47a61.39 61.39 0 0 0 4.15-7.77 66.43 66.43 0 0 0 2.71-8.75c1.5-5.73 3.05-11.66 7.11-15.72s10-5.6 15.71-7.1a66.43 66.43 0 0 0 8.75-2.71 61.39 61.39 0 0 0 7.77-4.15C57.55 9.86 62.87 6.7 68.88 6.7s11.33 3.16 16.47 6.21a62.08 62.08 0 0 0 7.77 4.15 66.43 66.43 0 0 0 8.75 2.71c5.73 1.5 11.66 3.05 15.72 7.11s5.6 10 7.1 15.71a68 68 0 0 0 2.71 8.75l-.86.36a69.74 69.74 0 0 1-2.75-8.87c-1.46-5.62-3-11.42-6.86-15.3s-9.68-5.39-15.3-6.86a68.17 68.17 0 0 1-8.87-2.75 63.88 63.88 0 0 1-7.88-4.21c-5-3-10.24-6.08-16-6.08s-11 3.09-16 6.08A63.88 63.88 0 0 1 45 17.92a68.17 68.17 0 0 1-8.87 2.75c-5.62 1.47-11.42 3-15.3 6.86s-5.39 9.68-6.83 15.3a69.74 69.74 0 0 1-2.75 8.87A63.88 63.88 0 0 1 7 59.58c-3 5-6.08 10.24-6.08 16S4 86.54 7 91.58a63.88 63.88 0 0 1 4.21 7.88zM85 141.74c-6 0-11.33-3.16-16.47-6.22a62.7 62.7 0 0 0-7.77-4.15 67.94 67.94 0 0 0-8.75-2.7c-5.73-1.5-11.66-3-15.71-7.11s-5.61-10-7.11-15.72a66.9 66.9 0 0 0-2.71-8.75l.86-.35a68.17 68.17 0 0 1 2.75 8.87c1.47 5.62 3 11.42 6.86 15.3s9.68 5.39 15.3 6.86a68.17 68.17 0 0 1 8.87 2.75 63.88 63.88 0 0 1 7.88 4.21c5 3 10.24 6.08 16 6.08s11-3.09 16-6.08a63.88 63.88 0 0 1 7.88-4.21 68.17 68.17 0 0 1 8.87-2.75c5.62-1.47 11.43-3 15.3-6.86s5.4-9.68 6.87-15.3a69.71 69.71 0 0 1 2.74-8.87 64.72 64.72 0 0 1 4.21-7.89c3-5 6.09-10.24 6.09-16s-3.1-11-6.09-16a63.28 63.28 0 0 1-4.2-7.85l.86-.35a62.08 62.08 0 0 0 4.15 7.77c3 5.14 6.21 10.46 6.21 16.47s-3.16 11.32-6.21 16.47a62 62 0 0 0-4.15 7.76 70.09 70.09 0 0 0-2.71 8.75c-1.5 5.74-3 11.67-7.1 15.72s-10 5.61-15.72 7.11a67.94 67.94 0 0 0-8.75 2.7 63.42 63.42 0 0 0-7.77 4.15c-5.14 3.03-10.48 6.19-16.48 6.19z" fill="#333"></path></g></svg></svg> <!----></g></g> <g data-d="icon-text" hollow-target="textRect" transform="translate(30.167499542236328,9.586532592773438)"><g data-d="icon" class="iconsvg-imagesvg" transform="matrix(1,0,0,1,29.032501220703125,0)" opacity="1"><g><!----> <svg x="0" y="0" width="61.60000000000002" height="54.700126094446546" filtersec="colorsf8351444644" class="image-svg-svg primary" style="overflow: visible;"><svg xmlns="http://www.w3.org/2000/svg" viewBox="0.03143342584371567 0.010309430770576 68.14012908935547 60.50766372680664"><title>q3tPZ6.tif</title><path d="M35.67 30.09a6 6 0 0 1-3.67 5.5 7.42 7.42 0 0 1-9.26-2.75 6.11 6.11 0 0 1 2.77-9 7.36 7.36 0 0 1 10 5.13c.1.37.11.74.16 1.12zM39.49 23.73c-3.75-.37-6.88-1.79-8.67-5.31a4.15 4.15 0 0 1 2.62-6.12 8.46 8.46 0 0 1 5.8.34 9.17 9.17 0 0 1 5.2 4.41c1.54 3 0 5.95-3.34 6.51a7.86 7.86 0 0 1-1.61.17zM54.33 34.45a4.08 4.08 0 0 1-5 4.23 9.3 9.3 0 0 1-7.38-8.14 4.12 4.12 0 0 1 4.82-4.4c4 .64 7.54 4.54 7.56 8.31zM15.89 52.48a5.33 5.33 0 1 1 5.35-5.32 5.35 5.35 0 0 1-5.35 5.32zM45.14 55A5.75 5.75 0 0 1 44 58.7a4.05 4.05 0 0 1-6.36.51 6.13 6.13 0 0 1-.51-7.81 4.19 4.19 0 0 1 7.18.64 5.41 5.41 0 0 1 .83 2.96zM20.71 19.12a7.44 7.44 0 0 1-5.1-1.93 3.21 3.21 0 0 1 .33-5.12 7.75 7.75 0 0 1 9.2.52 3.23 3.23 0 0 1-.31 5.22 7.33 7.33 0 0 1-4.12 1.31zM65.09 50.58c0 3-2.53 4.54-5.21 3.21a6.64 6.64 0 0 1-3.47-7 3.18 3.18 0 0 1 4-2.42 6.7 6.7 0 0 1 4.68 6.21zM54.46 24a8 8 0 0 1-6.67-4.78A2.24 2.24 0 0 1 50 16a8 8 0 0 1 6.84 4.56c.84 2.03-.16 3.44-2.38 3.44zM5.35 23.42a5.45 5.45 0 0 1 .7 0c2.34.24 3.35 2.36 2 4.24a5.57 5.57 0 0 1-5.52 2.24A2.6 2.6 0 0 1 .1 28.05a2.94 2.94 0 0 1 1.13-3 5.65 5.65 0 0 1 4.12-1.63zM28.9 4.55A7.36 7.36 0 0 1 33.18 6a4.68 4.68 0 0 1 .56.53c1.19 1.36.82 2.87-.91 3.45a6.65 6.65 0 0 1-5.55-.82 3.92 3.92 0 0 1-1.45-1.38A1.81 1.81 0 0 1 26.59 5a4.72 4.72 0 0 1 2.31-.45zM7.17 9.58a4.75 4.75 0 0 1 3.31 1 1.82 1.82 0 0 1 .09 2.86A6.13 6.13 0 0 1 5.39 15 4.28 4.28 0 0 1 3 14a1.82 1.82 0 0 1-.22-2.76 5.65 5.65 0 0 1 4.39-1.66zM45.16 12.71a7.38 7.38 0 0 1-5-2.25 3.64 3.64 0 0 1-.65-1 1.54 1.54 0 0 1 1-2.3c2.14-.58 3.92.27 5.55 1.54a3.89 3.89 0 0 1 1.15 1.3 1.63 1.63 0 0 1-1.15 2.57c-.31.07-.63.09-.9.14zM68.17 34.8a1.23 1.23 0 0 1-1.46 1.27 5.78 5.78 0 0 1-4.27-4.29 1.29 1.29 0 0 1 1.33-1.51c1.84.03 4.43 2.73 4.4 4.53zM61.13 18.51A6.06 6.06 0 0 1 65.81 22c.31 1-.28 1.8-1.31 1.64a5.86 5.86 0 0 1-4.59-3.43c-.47-1 .09-1.71 1.22-1.7zM26.47 3a5 5 0 0 1-2.77-1 1.1 1.1 0 0 1-.49-1A1 1 0 0 1 24 .19a4.28 4.28 0 0 1 4 .84c.84.67.65 1.49-.37 1.83a3.61 3.61 0 0 1-1.16.14zM15.59 5.56a3.37 3.37 0 0 1-2.21-.8.91.91 0 0 1 .17-1.56 3.88 3.88 0 0 1 3.94.31c.7.6.64 1.28-.19 1.7a3.52 3.52 0 0 1-1.71.35zM47.51 7.25a4.68 4.68 0 0 1-3-1.38 1 1 0 0 1-.33-1.19 1 1 0 0 1 1.14-.5 4.44 4.44 0 0 1 2.95 1.37c.32.33.61.68.4 1.16s-.67.51-1.16.54zM54.64 10.56a3.63 3.63 0 0 1 2.51 1.6.71.71 0 0 1 .07.85.79.79 0 0 1-.8.33 3.7 3.7 0 0 1-2.63-1.53c-.19-.27-.36-.57-.16-.9s.53-.35 1.01-.35zM37 2.92a3.06 3.06 0 0 1-2-.87c-.49-.5-.33-1 .36-1.16a3.24 3.24 0 0 1 2.64.94.61.61 0 0 1 .12.71c-.24.37-.62.37-1.12.38z" fill="#000000"></path></svg></svg> <defs><filter id="colors7557117054"><feColorMatrix type="matrix" values="0 0 0 0 0.19921875  0 0 0 0 0.19921875  0 0 0 0 0.19921875  0 0 0 1 0" class="icon-fecolormatrix"></feColorMatrix></filter> <filter id="colorsf8351444644"><feColorMatrix type="matrix" values="0 0 0 0 0.99609375  0 0 0 0 0.99609375  0 0 0 0 0.99609375  0 0 0 1 0" class="icon-fecolormatrix"></feColorMatrix></filter> <filter id="colorsb588411221"><feColorMatrix type="matrix" values="0 0 0 0 0  0 0 0 0 0  0 0 0 0 0  0 0 0 1 0" class="icon-fecolormatrix"></feColorMatrix></filter></defs></g></g> <g data-d="text" transform="translate(0,58.700103759765625)"><g data-gra="path-name" fill-rule="" class="tp-name iconsvg-namesvg" transform="matrix(1,0,0,1,0,0)" fill="url(#e420058c-9b6f-4cb4-937b-8433e76ffce3)" opacity="1"><g transform="scale(1.3000000000000003)"><g><path d="M1.93 1.02Q0.99 1.02 0.6 0.2 0.21-0.62 0.21-2.11L0.21-2.11Q0.21-2.84 0.31-5.21L0.31-5.21Q0.34-6.04 0.49-6.3 0.65-6.56 1.3-6.56L1.3-6.56Q1.9-6.56 2.03-6.34 2.16-6.12 2.16-5.31L2.16-5.31Q2.16-4.82 2.11-3.67L2.11-3.67Q2.03-2.81 2.03-1.93L2.03-1.93Q2.03-1.04 2.12-0.7 2.21-0.36 2.5-0.36L2.5-0.36Q3.33-0.36 4.52-2.02 5.7-3.67 6.59-5.67L6.59-5.67Q6.64-7.34 6.98-7.99 7.31-8.64 7.94-8.64L7.94-8.64Q8.51-8.64 8.79-8.28 9.06-7.91 9.06-7.5L9.06-7.5Q9.06-7.24 8.94-7 8.82-6.77 8.8-6.69L8.8-6.69Q8.54-6.25 8.38-5.71 8.23-5.18 8.23-4.27L8.23-4.27Q8.23-2.45 9.35-2.45L9.35-2.45Q9.87-2.45 10.36-2.89 10.86-3.33 11.38-4.37L11.38-4.37 11.66-4.14Q11.09-2.79 10.37-2.17 9.66-1.56 8.9-1.56L8.9-1.56Q8.1-1.56 7.54-2.21 6.98-2.86 6.69-3.98L6.69-3.98Q5.54-1.85 4.31-0.42 3.07 1.02 1.93 1.02L1.93 1.02ZM12.91 0.78Q11.77 0.78 11.25 0.03 10.73-0.73 10.73-1.98L10.73-1.98Q10.73-4.37 12.35-8.38 13.98-12.39 16.01-15.57 18.04-18.74 19-18.74L19-18.74Q19.45-18.74 19.76-18.05 20.07-17.36 20.1-16.66L20.1-16.66Q20.1-15.46 19.13-13.16 18.17-10.86 16.54-8.49 14.92-6.12 13.07-4.66L13.07-4.66Q12.78-3.05 12.78-2.21L12.78-2.21Q12.78-1.3 13.08-0.86 13.38-0.42 13.9-0.42L13.9-0.42Q14.81-0.42 15.84-1.63 16.87-2.84 17.68-4.56L17.68-4.56 18.3-4.22Q17.15-1.85 15.78-0.53 14.4 0.78 12.91 0.78L12.91 0.78ZM13.54-6.27Q14.94-7.78 16.18-9.81 17.42-11.84 18.16-13.67 18.9-15.49 18.9-16.37L18.9-16.37Q18.56-16.37 17.53-14.79 16.5-13.2 15.37-10.84 14.24-8.49 13.54-6.27L13.54-6.27ZM18.77 0.83Q17.7 0.83 17.22 0.13 16.74-0.57 16.74-1.61L16.74-1.61Q16.74-2.71 17.19-3.88 17.65-5.05 18.38-5.83 19.11-6.61 19.86-6.61L19.86-6.61Q20.17-6.61 20.67-6.4L20.67-6.4Q20.83-7.6 21.52-8.38 22.2-9.16 23.45-9.16L23.45-9.16Q24.5-9.16 24.99-8.58 25.48-7.99 25.48-7.05L25.48-7.05Q25.48-6.14 25-4.97 24.52-3.8 23.77-2.63L23.77-2.63Q24.08-2.47 24.5-2.47L24.5-2.47Q25.22-2.47 26.06-2.95 26.89-3.44 27.33-4.43L27.33-4.43 27.8-4.09Q27.26-2.84 26.33-2.19 25.41-1.54 24.42-1.54L24.42-1.54Q23.82-1.54 23.12-1.77L23.12-1.77Q22.15-0.62 21.01 0.1 19.86 0.83 18.77 0.83L18.77 0.83ZM22.88-3.18Q23.53-4.14 23.96-5.18 24.39-6.22 24.39-7.05L24.39-7.05Q24.39-8.2 23.66-8.2L23.66-8.2Q23.32-8.2 22.96-7.86 22.6-7.52 22.36-6.96 22.13-6.4 22.13-5.73L22.13-5.73Q22.13-5.13 22.34-4.36 22.54-3.59 22.88-3.18L22.88-3.18ZM19.71-0.49Q20.17-0.49 20.85-1.02 21.53-1.54 22.2-2.34L22.2-2.34Q20.72-3.64 20.64-6.17L20.64-6.17Q20.33-6.01 19.89-5.21 19.45-4.4 19.13-3.41 18.82-2.42 18.82-1.69L18.82-1.69Q18.82-0.49 19.71-0.49L19.71-0.49ZM28.04 7.29Q27.31 7.29 26.79 6.86 26.27 6.43 26.27 5.62L26.27 5.62Q26.27 4.61 27.03 3.77 27.8 2.94 28.82 2.36 29.83 1.77 31.5 0.99L31.5 0.99Q32.15-0.65 32.54-2.26L32.54-2.26Q30.43 0.39 28.58 0.39L28.58 0.39Q27.54 0.39 26.93-0.34 26.32-1.07 26.32-2.26L26.32-2.26Q26.32-4.01 27.46-5.57 28.61-7.13 30.3-8.08 31.99-9.03 33.53-9.03L33.53-9.03Q34.34-9.03 34.77-8.75 35.19-8.46 35.19-8.04L35.19-8.04Q35.19-7.78 35.04-7.58 34.88-7.37 34.78-7.34L34.78-7.34Q34.52-7.6 34.26-7.71 34-7.81 33.61-7.81L33.61-7.81Q32.33-7.81 31.13-6.86 29.94-5.91 29.19-4.57 28.45-3.23 28.45-2.16L28.45-2.16Q28.45-1.64 28.67-1.37 28.9-1.09 29.26-1.09L29.26-1.09Q29.96-1.09 30.99-2 32.02-2.92 33.03-4.35L33.03-4.35Q33.32-5.81 33.71-6.44 34.1-7.08 34.83-7.08L34.83-7.08Q35.17-7.08 35.59-6.98L35.59-6.98Q35.59-6.3 35.01-4.27 34.44-2.24 33.63-0.05L33.63-0.05Q34.93-0.6 36.14-1.76 37.36-2.92 37.88-4.43L37.88-4.43 38.34-3.96Q37.77-2.32 36.3-0.99 34.83 0.34 33.29 1.04L33.29 1.04Q32.1 3.93 30.81 5.61 29.52 7.29 28.04 7.29L28.04 7.29ZM27.93 6.09Q28.45 6.09 29.29 5.13 30.12 4.17 31 2.21L31 2.21Q29.31 3.05 28.37 3.79 27.44 4.53 27.44 5.36L27.44 5.36Q27.44 5.7 27.58 5.9 27.72 6.09 27.93 6.09L27.93 6.09ZM38.47 7.29Q37.75 7.29 37.23 6.86 36.7 6.43 36.7 5.6L36.7 5.6Q36.7 4.58 37.47 3.75 38.24 2.92 39.26 2.34 40.27 1.77 41.88 1.02L41.88 1.02Q42.33-0.1 43.13-3.05L43.13-3.05Q42.2-1.72 41.3-0.96 40.4-0.21 39.39-0.21L39.39-0.21Q38.53-0.21 37.85-0.73 37.17-1.25 37.17-2.37L37.17-2.37Q37.17-3.25 37.59-4.62 38.01-5.99 38.58-7.02 39.15-8.04 39.57-8.04L39.57-8.04Q39.83-8.04 40.35-7.77 40.87-7.5 40.97-7.18L40.97-7.18Q40.48-6.51 39.89-4.92 39.31-3.33 39.31-2.42L39.31-2.42Q39.31-1.46 40.06-1.46L40.06-1.46Q40.84-1.46 41.75-2.37 42.67-3.28 43.5-4.61L43.5-4.61Q43.55-4.79 43.66-5.47 43.76-6.14 44.12-6.65 44.49-7.16 45.16-7.16L45.16-7.16Q45.27-7.16 46-7.05L46-7.05Q45.97-6.4 45.39-4.22 44.8-2.03 44.02 0.05L44.02 0.05Q45.3-0.47 46.43-1.54 47.56-2.6 48.21-4.35L48.21-4.35 48.65-3.98Q48.11-2.19 46.77-0.96 45.43 0.26 43.68 1.04L43.68 1.04Q42.46 3.93 41.2 5.61 39.93 7.29 38.47 7.29L38.47 7.29ZM38.21 6.33Q38.76 6.33 39.65 5.22 40.53 4.11 41.39 2.16L41.39 2.16Q39.88 2.92 38.8 3.83 37.72 4.74 37.72 5.6L37.72 5.6Q37.72 5.88 37.84 6.1 37.95 6.33 38.21 6.33L38.21 6.33ZM49.51 0.26Q48.94 0.26 48.65-0.04 48.37-0.34 48.37-0.73L48.37-0.73Q48.37-1.17 48.93-1.64 49.49-2.11 50.01-2.11L50.01-2.11Q50.35-2.11 50.61-1.91 50.87-1.72 50.87-1.3L50.87-1.3Q50.87-1.07 50.7-0.69 50.53-0.31 50.23-0.03 49.93 0.26 49.51 0.26L49.51 0.26ZM56.67 1.9Q55.21 1.9 54.43 0.99 53.65 0.08 53.65-1.56L53.65-1.56Q53.65-4.01 55.21-8.11 56.77-12.21 58.78-15.4 60.78-18.59 61.93-18.59L61.93-18.59Q62.42-18.59 62.7-18.04 62.97-17.49 63-16.79L63-16.79Q63-15.54 62.14-13.52 61.28-11.51 59.89-9.66 58.49-7.81 56.96-6.92L56.96-6.92Q56.59-6.25 56.19-4.7 55.79-3.15 55.79-1.72L55.79-1.72Q55.79-0.57 56.11 0.12 56.44 0.81 57.14 0.81L57.14 0.81Q57.82 0.81 58.6 0.2 59.38-0.42 59.87-1.33L59.87-1.33Q58.94-1.85 58.43-2.77 57.92-3.7 57.92-4.76L57.92-4.76Q57.92-6.01 58.6-6.81 59.27-7.6 60.29-7.6L60.29-7.6Q61.17-7.6 61.69-6.94 62.22-6.27 62.22-5L62.22-5Q62.22-3.41 61.43-1.72L61.43-1.72 61.9-1.69Q63.1-1.69 63.88-2.53 64.66-3.36 65.26-4.58L65.26-4.58 65.65-4.03Q64.95-2.42 64-1.65 63.05-0.89 61.56-0.89L61.56-0.89Q61.2-0.89 61.02-0.91L61.02-0.91Q60.21 0.36 59.12 1.13 58.02 1.9 56.67 1.9L56.67 1.9ZM57.45-8.56Q58.52-9.53 59.51-11.08 60.5-12.63 61.12-14.07 61.75-15.51 61.77-16.14L61.77-16.14Q61.43-16.01 60.6-14.84 59.77-13.67 58.88-11.96 58-10.26 57.45-8.56L57.45-8.56ZM60.32-2.19Q60.78-3.25 60.78-4.4L60.78-4.4Q60.78-5.28 60.58-5.75 60.37-6.22 60.03-6.22L60.03-6.22Q59.69-6.22 59.44-5.75 59.2-5.28 59.2-4.63L59.2-4.63Q59.2-3.98 59.47-3.29 59.74-2.6 60.32-2.19L60.32-2.19ZM66.82 0.78Q65.68 0.78 65.16 0.03 64.64-0.73 64.64-1.98L64.64-1.98Q64.64-4.37 66.26-8.38 67.89-12.39 69.92-15.57 71.95-18.74 72.91-18.74L72.91-18.74Q73.36-18.74 73.67-18.05 73.98-17.36 74.01-16.66L74.01-16.66Q74.01-15.46 73.04-13.16 72.08-10.86 70.45-8.49 68.83-6.12 66.98-4.66L66.98-4.66Q66.69-3.05 66.69-2.21L66.69-2.21Q66.69-1.3 66.99-0.86 67.29-0.42 67.81-0.42L67.81-0.42Q68.72-0.42 69.75-1.63 70.78-2.84 71.59-4.56L71.59-4.56 72.21-4.22Q71.07-1.85 69.69-0.53 68.31 0.78 66.82 0.78L66.82 0.78ZM67.45-6.27Q68.85-7.78 70.09-9.81 71.33-11.84 72.07-13.67 72.81-15.49 72.81-16.37L72.81-16.37Q72.47-16.37 71.44-14.79 70.42-13.2 69.28-10.84 68.15-8.49 67.45-6.27L67.45-6.27ZM72.68 0.83Q71.61 0.83 71.13 0.13 70.65-0.57 70.65-1.61L70.65-1.61Q70.65-2.71 71.11-3.88 71.56-5.05 72.29-5.83 73.02-6.61 73.77-6.61L73.77-6.61Q74.09-6.61 74.58-6.4L74.58-6.4Q74.74-7.6 75.43-8.38 76.12-9.16 77.37-9.16L77.37-9.16Q78.41-9.16 78.9-8.58 79.4-7.99 79.4-7.05L79.4-7.05Q79.4-6.14 78.91-4.97 78.43-3.8 77.68-2.63L77.68-2.63Q77.99-2.47 78.41-2.47L78.41-2.47Q79.14-2.47 79.97-2.95 80.8-3.44 81.24-4.43L81.24-4.43 81.71-4.09Q81.17-2.84 80.24-2.19 79.32-1.54 78.33-1.54L78.33-1.54Q77.73-1.54 77.03-1.77L77.03-1.77Q76.06-0.62 74.92 0.1 73.77 0.83 72.68 0.83L72.68 0.83ZM76.79-3.18Q77.44-4.14 77.87-5.18 78.3-6.22 78.3-7.05L78.3-7.05Q78.3-8.2 77.57-8.2L77.57-8.2Q77.24-8.2 76.87-7.86 76.51-7.52 76.27-6.96 76.04-6.4 76.04-5.73L76.04-5.73Q76.04-5.13 76.25-4.36 76.45-3.59 76.79-3.18L76.79-3.18ZM73.62-0.49Q74.09-0.49 74.76-1.02 75.44-1.54 76.12-2.34L76.12-2.34Q74.63-3.64 74.55-6.17L74.55-6.17Q74.24-6.01 73.8-5.21 73.36-4.4 73.04-3.41 72.73-2.42 72.73-1.69L72.73-1.69Q72.73-0.49 73.62-0.49L73.62-0.49ZM81.95 7.29Q81.22 7.29 80.7 6.86 80.18 6.43 80.18 5.62L80.18 5.62Q80.18 4.61 80.95 3.77 81.71 2.94 82.73 2.36 83.74 1.77 85.41 0.99L85.41 0.99Q86.06-0.65 86.45-2.26L86.45-2.26Q84.34 0.39 82.49 0.39L82.49 0.39Q81.45 0.39 80.84-0.34 80.23-1.07 80.23-2.26L80.23-2.26Q80.23-4.01 81.37-5.57 82.52-7.13 84.21-8.08 85.9-9.03 87.44-9.03L87.44-9.03Q88.25-9.03 88.68-8.75 89.11-8.46 89.11-8.04L89.11-8.04Q89.11-7.78 88.95-7.58 88.79-7.37 88.69-7.34L88.69-7.34Q88.43-7.6 88.17-7.71 87.91-7.81 87.52-7.81L87.52-7.81Q86.24-7.81 85.05-6.86 83.85-5.91 83.11-4.57 82.36-3.23 82.36-2.16L82.36-2.16Q82.36-1.64 82.59-1.37 82.81-1.09 83.17-1.09L83.17-1.09Q83.87-1.09 84.9-2 85.93-2.92 86.95-4.35L86.95-4.35Q87.23-5.81 87.62-6.44 88.01-7.08 88.74-7.08L88.74-7.08Q89.08-7.08 89.5-6.98L89.5-6.98Q89.5-6.3 88.92-4.27 88.35-2.24 87.54-0.05L87.54-0.05Q88.85-0.6 90.06-1.76 91.27-2.92 91.79-4.43L91.79-4.43 92.26-3.96Q91.68-2.32 90.21-0.99 88.74 0.34 87.21 1.04L87.21 1.04Q86.01 3.93 84.72 5.61 83.43 7.29 81.95 7.29L81.95 7.29ZM81.84 6.09Q82.36 6.09 83.2 5.13 84.03 4.17 84.92 2.21L84.92 2.21Q83.22 3.05 82.29 3.79 81.35 4.53 81.35 5.36L81.35 5.36Q81.35 5.7 81.49 5.9 81.64 6.09 81.84 6.09L81.84 6.09Z" transform="translate(-0.21000000834465027, 18.739999771118164)"></path></g> <!----> <!----> <!----> <!----> <!----> <!----> <!----></g></g> <g data-gra="path-slogan" fill-rule="" class="tp-slogan iconsvg-slogansvg" fill="url(#9a8810f1-4df5-44e5-aad7-3e86b3ea64a5)" transform="matrix(1,0,0,1,19.177101135253906,37.83899688720703)" opacity="1"><!----> <!----> <g transform="scale(1, 1)"><g transform="scale(0.6599999999999997)"><path d="M0.10 1.60L2.77-7.10L3.37-7.10L0.70 1.60L0.10 1.60ZM4.01-2.03L4.01-2.03Q4.01-3.03 4.34-3.85Q4.68-4.67 5.25-5.25Q5.83-5.83 6.58-6.15Q7.34-6.46 8.18-6.46L8.18-6.46Q8.94-6.46 9.54-6.22Q10.15-5.98 10.57-5.54Q11-5.11 11.23-4.50Q11.46-3.89 11.46-3.15L11.46-3.15Q11.46-2.49 11.28-2.00Q11.09-1.50 10.80-1.17Q10.51-0.83 10.16-0.66Q9.80-0.49 9.46-0.49L9.46-0.49Q9.05-0.49 8.77-0.68Q8.48-0.87 8.43-1.25L8.43-1.25L8.41-1.25Q8.16-0.96 7.84-0.77Q7.52-0.57 7.19-0.57L7.19-0.57Q6.68-0.57 6.33-0.93Q5.99-1.29 5.99-1.98L5.99-1.98Q5.99-2.38 6.13-2.79Q6.26-3.21 6.51-3.54Q6.76-3.88 7.12-4.09Q7.47-4.30 7.91-4.30L7.91-4.30Q8.17-4.30 8.37-4.19Q8.57-4.07 8.71-3.82L8.71-3.82L8.73-3.82L8.84-4.22L9.39-4.22L9-2.22Q8.70-1.05 9.54-1.05L9.54-1.05Q9.78-1.05 10.02-1.19Q10.25-1.33 10.45-1.59Q10.64-1.86 10.76-2.25Q10.88-2.63 10.88-3.12L10.88-3.12Q10.88-3.72 10.71-4.24Q10.53-4.75 10.18-5.12Q9.83-5.49 9.31-5.70Q8.79-5.91 8.11-5.91L8.11-5.91Q7.44-5.91 6.81-5.63Q6.18-5.36 5.69-4.86Q5.20-4.36 4.91-3.65Q4.61-2.94 4.61-2.06L4.61-2.06Q4.61-1.33 4.83-0.76Q5.06-0.19 5.46 0.20Q5.86 0.59 6.41 0.80Q6.95 1 7.59 1L7.59 1Q8.05 1 8.46 0.88Q8.87 0.75 9.21 0.55L9.21 0.55L9.43 1.04Q8.58 1.55 7.53 1.55L7.53 1.55Q6.79 1.55 6.15 1.32Q5.51 1.09 5.04 0.64Q4.56 0.18 4.29-0.49Q4.01-1.16 4.01-2.03ZM6.65-2.03L6.65-2.03Q6.65-1.55 6.85-1.34Q7.05-1.13 7.35-1.13L7.35-1.13Q7.56-1.13 7.79-1.27Q8.01-1.41 8.27-1.72L8.27-1.72L8.56-3.31Q8.42-3.54 8.27-3.64Q8.12-3.73 7.92-3.73L7.92-3.73Q7.62-3.73 7.38-3.57Q7.15-3.41 6.98-3.16Q6.82-2.91 6.73-2.61Q6.65-2.31 6.65-2.03ZM12.87 0L12.87-6.56L13.70-6.56L13.70-3.27L13.73-3.27L16.46-6.56L17.40-6.56L15.35-4.06L17.72 0L16.79 0L14.83-3.41L13.70-2.08L13.70 0L12.87 0ZM18.66 0L18.66-6.56L19.49-6.56L19.49 0L18.66 0ZM21.29 0L21.29-6.56L22.27-6.56L23.54-3.04L24.02-1.70L24.06-1.70L24.52-3.04L25.78-6.56L26.76-6.56L26.76 0L25.97 0L25.97-3.61Q25.97-4.05 26.01-4.58Q26.04-5.11 26.08-5.55L26.08-5.55L26.04-5.55L25.51-4.09L24.25-0.66L23.78-0.66L22.51-4.09L21.99-5.55L21.95-5.55Q21.98-5.11 22.02-4.58Q22.06-4.05 22.06-3.61L22.06-3.61L22.06 0L21.29 0ZM28.56 0L28.56-6.56L30.57-6.56Q31.11-6.56 31.56-6.46Q32.01-6.36 32.33-6.13Q32.64-5.91 32.81-5.54Q32.99-5.17 32.99-4.63L32.99-4.63Q32.99-4.11 32.81-3.73Q32.64-3.35 32.32-3.10Q32-2.85 31.55-2.73Q31.11-2.60 30.57-2.60L30.57-2.60L29.39-2.60L29.39 0L28.56 0ZM29.39-3.28L30.47-3.28Q31.33-3.28 31.75-3.60Q32.16-3.93 32.16-4.63L32.16-4.63Q32.16-5.34 31.74-5.62Q31.32-5.89 30.47-5.89L30.47-5.89L29.39-5.89L29.39-3.28ZM34.32 0L34.32-6.56L38.10-6.56L38.10-5.86L35.15-5.86L35.15-3.80L37.64-3.80L37.64-3.09L35.15-3.09L35.15-0.71L38.20-0.71L38.20 0L34.32 0ZM40.95 0L40.95-5.86L38.97-5.86L38.97-6.56L43.77-6.56L43.77-5.86L41.79-5.86L41.79 0L40.95 0ZM45.78-5.89L45.78-3.45L46.88-3.45Q47.65-3.45 48.06-3.77Q48.47-4.08 48.47-4.72L48.47-4.72Q48.47-5.37 48.06-5.63Q47.65-5.89 46.88-5.89L46.88-5.89L45.78-5.89ZM49.49 0L48.55 0L46.97-2.77L45.78-2.77L45.78 0L44.95 0L44.95-6.56L47.00-6.56Q47.50-6.56 47.93-6.46Q48.35-6.37 48.66-6.15Q48.96-5.93 49.13-5.58Q49.30-5.23 49.30-4.72L49.30-4.72Q49.30-3.95 48.90-3.49Q48.50-3.03 47.83-2.86L47.83-2.86L49.49 0ZM51.48-2.67L53.45-2.67L53.14-3.67Q52.96-4.22 52.80-4.76Q52.64-5.31 52.48-5.88L52.48-5.88L52.44-5.88Q52.29-5.31 52.13-4.76Q51.97-4.22 51.79-3.67L51.79-3.67L51.48-2.67ZM54.28 0L53.66-2L51.27-2L50.64 0L49.79 0L52.01-6.56L52.95-6.56L55.17 0L54.28 0ZM55.62-0.85L56.12-1.43Q56.47-1.06 56.95-0.83Q57.42-0.61 57.93-0.61L57.93-0.61Q58.58-0.61 58.94-0.91Q59.30-1.20 59.30-1.68L59.30-1.68Q59.30-1.93 59.22-2.10Q59.13-2.28 58.98-2.41Q58.84-2.53 58.64-2.63Q58.44-2.73 58.21-2.84L58.21-2.84L57.27-3.25Q57.04-3.35 56.80-3.49Q56.56-3.63 56.37-3.83Q56.18-4.03 56.06-4.30Q55.94-4.58 55.94-4.94L55.94-4.94Q55.94-5.31 56.10-5.63Q56.25-5.95 56.53-6.19Q56.80-6.42 57.18-6.55Q57.55-6.68 58-6.68L58-6.68Q58.59-6.68 59.09-6.46Q59.59-6.23 59.94-5.87L59.94-5.87L59.49-5.33Q59.19-5.62 58.83-5.79Q58.46-5.95 58-5.95L58-5.95Q57.45-5.95 57.12-5.70Q56.78-5.44 56.78-4.99L56.78-4.99Q56.78-4.75 56.88-4.58Q56.97-4.42 57.13-4.29Q57.29-4.17 57.48-4.08Q57.67-3.98 57.87-3.90L57.87-3.90L58.80-3.50Q59.08-3.38 59.33-3.23Q59.58-3.07 59.76-2.87Q59.94-2.66 60.05-2.39Q60.15-2.11 60.15-1.75L60.15-1.75Q60.15-1.36 60.00-1.02Q59.84-0.68 59.55-0.42Q59.26-0.17 58.85-0.03Q58.44 0.12 57.92 0.12L57.92 0.12Q57.23 0.12 56.64-0.14Q56.05-0.40 55.62-0.85L55.62-0.85ZM61.44 0L61.69-2.04L60.89-2.04L60.89-2.61L61.76-2.61L61.94-4.09L61.09-4.09L61.09-4.67L62.01-4.67L62.24-6.50L62.77-6.50L62.54-4.67L63.87-4.67L64.11-6.50L64.64-6.50L64.40-4.67L65.21-4.67L65.21-4.09L64.34-4.09L64.16-2.61L65.01-2.61L65.01-2.04L64.09-2.04L63.84 0L63.31 0L63.55-2.04L62.23-2.04L61.98 0L61.44 0ZM62.30-2.61L63.62-2.61L63.80-4.09L62.48-4.09L62.30-2.61ZM66.03-3.28L66.03-3.28Q66.03-4.07 66.25-4.70Q66.47-5.33 66.86-5.77Q67.25-6.21 67.79-6.45Q68.32-6.68 68.95-6.68L68.95-6.68Q69.55-6.68 70-6.44Q70.45-6.19 70.74-5.87L70.74-5.87L70.27-5.34Q70.01-5.62 69.70-5.79Q69.38-5.95 68.96-5.95L68.96-5.95Q68.49-5.95 68.11-5.76Q67.73-5.58 67.46-5.24Q67.19-4.89 67.04-4.40Q66.89-3.91 66.89-3.30L66.89-3.30Q66.89-2.68 67.04-2.19Q67.18-1.69 67.44-1.34Q67.70-0.99 68.08-0.80Q68.45-0.61 68.92-0.61L68.92-0.61Q69.40-0.61 69.76-0.80Q70.11-0.99 70.43-1.34L70.43-1.34L70.90-0.83Q70.51-0.38 70.02-0.13Q69.53 0.12 68.90 0.12L68.90 0.12Q68.28 0.12 67.76-0.11Q67.23-0.34 66.84-0.78Q66.46-1.21 66.25-1.84Q66.03-2.48 66.03-3.28ZM74.25 0.12L74.25 0.12Q73.63 0.12 73.11-0.12Q72.60-0.36 72.23-0.81Q71.86-1.25 71.65-1.89Q71.45-2.52 71.45-3.31L71.45-3.31Q71.45-4.10 71.65-4.73Q71.86-5.35 72.23-5.79Q72.60-6.22 73.11-6.45Q73.63-6.68 74.25-6.68L74.25-6.68Q74.87-6.68 75.38-6.45Q75.90-6.21 76.27-5.78Q76.65-5.34 76.85-4.71Q77.06-4.09 77.06-3.31L77.06-3.31Q77.06-2.52 76.85-1.89Q76.65-1.25 76.27-0.81Q75.90-0.36 75.38-0.12Q74.87 0.12 74.25 0.12ZM74.25-0.61L74.25-0.61Q74.69-0.61 75.04-0.80Q75.40-0.99 75.65-1.34Q75.91-1.70 76.05-2.19Q76.19-2.69 76.19-3.31L76.19-3.31Q76.19-3.92 76.05-4.41Q75.91-4.90 75.65-5.24Q75.40-5.58 75.04-5.76Q74.69-5.95 74.25-5.95L74.25-5.95Q73.81-5.95 73.45-5.76Q73.10-5.58 72.84-5.24Q72.59-4.90 72.45-4.41Q72.31-3.92 72.31-3.31L72.31-3.31Q72.31-2.69 72.45-2.19Q72.59-1.70 72.84-1.34Q73.10-0.99 73.45-0.80Q73.81-0.61 74.25-0.61ZM78.47 0L78.47-6.56L79.33-6.56L81.70-2.44L82.41-1.08L82.45-1.08Q82.42-1.58 82.38-2.12Q82.35-2.65 82.35-3.17L82.35-3.17L82.35-6.56L83.14-6.56L83.14 0L82.28 0L79.90-4.13L79.19-5.48L79.15-5.48Q79.19-4.98 79.22-4.46Q79.26-3.95 79.26-3.43L79.26-3.43L79.26 0L78.47 0ZM84.56-3.28L84.56-3.28Q84.56-4.07 84.78-4.70Q85.00-5.33 85.39-5.77Q85.78-6.21 86.31-6.45Q86.85-6.68 87.48-6.68L87.48-6.68Q88.08-6.68 88.53-6.44Q88.98-6.19 89.27-5.87L89.27-5.87L88.80-5.34Q88.54-5.62 88.22-5.79Q87.91-5.95 87.49-5.95L87.49-5.95Q87.02-5.95 86.64-5.76Q86.26-5.58 85.99-5.24Q85.72-4.89 85.57-4.40Q85.42-3.91 85.42-3.30L85.42-3.30Q85.42-2.68 85.56-2.19Q85.71-1.69 85.97-1.34Q86.23-0.99 86.60-0.80Q86.98-0.61 87.45-0.61L87.45-0.61Q87.93-0.61 88.28-0.80Q88.64-0.99 88.96-1.34L88.96-1.34L89.43-0.83Q89.04-0.38 88.55-0.13Q88.06 0.12 87.43 0.12L87.43 0.12Q86.81 0.12 86.28-0.11Q85.76-0.34 85.37-0.78Q84.99-1.21 84.77-1.84Q84.56-2.48 84.56-3.28ZM90.65 0L90.65-6.56L94.43-6.56L94.43-5.86L91.48-5.86L91.48-3.80L93.97-3.80L93.97-3.09L91.48-3.09L91.48-0.71L94.53-0.71L94.53 0L90.65 0ZM96.75-5.89L96.75-3.45L97.85-3.45Q98.62-3.45 99.03-3.77Q99.44-4.08 99.44-4.72L99.44-4.72Q99.44-5.37 99.03-5.63Q98.62-5.89 97.85-5.89L97.85-5.89L96.75-5.89ZM100.46 0L99.52 0L97.94-2.77L96.75-2.77L96.75 0L95.92 0L95.92-6.56L97.97-6.56Q98.47-6.56 98.89-6.46Q99.32-6.37 99.62-6.15Q99.93-5.93 100.10-5.58Q100.27-5.23 100.27-4.72L100.27-4.72Q100.27-3.95 99.87-3.49Q99.47-3.03 98.80-2.86L98.80-2.86L100.46 0ZM102.89 0L102.89-5.86L100.91-5.86L100.91-6.56L105.71-6.56L105.71-5.86L103.73-5.86L103.73 0L102.89 0ZM106.11 0.71L110.87 0.71L110.87 1.26L106.11 1.26L106.11 0.71ZM111.89 0L111.89-6.56L113.84-6.56Q114.34-6.56 114.75-6.47Q115.17-6.38 115.46-6.19Q115.76-6 115.92-5.70Q116.09-5.39 116.09-4.96L116.09-4.96Q116.09-4.47 115.81-4.08Q115.53-3.68 114.95-3.53L114.95-3.53L114.95-3.49Q115.67-3.38 116.07-2.99Q116.47-2.60 116.47-1.92L116.47-1.92Q116.47-1.44 116.29-1.08Q116.11-0.72 115.78-0.48Q115.45-0.24 114.99-0.12Q114.53 0 113.98 0L113.98 0L111.89 0ZM112.72-3.76L113.69-3.76Q114.54-3.76 114.90-4.05Q115.27-4.34 115.27-4.89L115.27-4.89Q115.27-5.43 114.88-5.67Q114.50-5.90 113.73-5.90L113.73-5.90L112.72-5.90L112.72-3.76ZM112.72-0.66L113.86-0.66Q114.71-0.66 115.18-0.97Q115.65-1.29 115.65-1.96L115.65-1.96Q115.65-2.57 115.19-2.85Q114.73-3.14 113.86-3.14L113.86-3.14L112.72-3.14L112.72-0.66ZM116.98 0L118.89-3.39L117.11-6.56L118.03-6.56L118.92-4.88Q119.05-4.65 119.16-4.44Q119.28-4.22 119.43-3.93L119.43-3.93L119.47-3.93Q119.61-4.22 119.71-4.44Q119.82-4.65 119.94-4.88L119.94-4.88L120.81-6.56L121.69-6.56L119.90-3.35L121.81 0L120.89 0L119.93-1.77Q119.80-2.01 119.66-2.27Q119.53-2.52 119.37-2.82L119.37-2.82L119.33-2.82Q119.19-2.52 119.06-2.27Q118.93-2.01 118.81-1.77L118.81-1.77L117.86 0L116.98 0ZM122.86 0L122.86-6.56L123.69-6.56L123.69-0.71L126.56-0.71L126.56 0L122.86 0ZM126.94 0.71L131.70 0.71L131.70 1.26L126.94 1.26L126.94 0.71ZM132.22 0L132.22-0.49Q132.94-1.21 133.50-1.79Q134.06-2.37 134.44-2.87Q134.82-3.36 135.02-3.77Q135.22-4.19 135.22-4.58L135.22-4.58Q135.22-5.13 134.92-5.48Q134.62-5.83 134.01-5.83L134.01-5.83Q133.61-5.83 133.27-5.61Q132.93-5.38 132.65-5.06L132.65-5.06L132.18-5.53Q132.58-5.97 133.03-6.24Q133.48-6.50 134.11-6.50L134.11-6.50Q135.00-6.50 135.51-5.99Q136.02-5.47 136.02-4.62L136.02-4.62Q136.02-4.17 135.82-3.71Q135.63-3.26 135.28-2.77Q134.94-2.29 134.46-1.77Q133.99-1.24 133.42-0.65L133.42-0.65Q133.68-0.67 133.96-0.69Q134.24-0.71 134.49-0.71L134.49-0.71L136.34-0.71L136.34 0L132.22 0ZM137.83-2.42L139.83-2.42L139.83-4.27Q139.83-4.53 139.84-4.88Q139.86-5.24 139.88-5.50L139.88-5.50L139.84-5.50Q139.72-5.27 139.59-5.05Q139.46-4.83 139.32-4.60L139.32-4.60L137.83-2.42ZM141.48-2.42L141.48-1.76L140.61-1.76L140.61 0L139.83 0L139.83-1.76L136.96-1.76L136.96-2.30L139.69-6.38L140.61-6.38L140.61-2.42L141.48-2.42Z" transform="translate(-0.1, 7.1000000000000005)"></path></g></g></g></g></g></g></mask></svg>