<svg data-v-6805eed4="" version="1.0" xmlns="http://www.w3.org/2000/svg" xmlns:xlink="http://www.w3.org/1999/xlink" width="100%" height="100%" viewBox="0 0 340.000000 250.000000" preserveAspectRatio="xMidYMid meet" color-interpolation-filters="sRGB" style="margin: auto;"> <rect data-v-6805eed4="" x="0" y="0" width="100%" height="100%" fill="#FFFFFF" fill-opacity="0" class="background"></rect> <rect data-v-6805eed4="" x="0" y="0" width="100%" height="100%" fill="url(#watermark)" fill-opacity="1" class="watermarklayer"></rect> <g data-v-6805eed4="" class="iconmbgsvg" transform="translate(81.86499786376953,65.1541633605957)"><g fill="#000000" hollow-target="textRect"><g transform="matrix(1,0,0,1,13.135002136230469,0)" mask="url(#6e215374-29bf-40ed-9e2c-bdfcb000710b)" opacity="1"><g><rect fill="#000000" fill-opacity="0" stroke-width="2" x="0" y="0" width="150" height="119.69167424713937" class="image-rect"></rect> <svg x="0" y="0" width="150" height="119.69167424713937" filtersec="colorsb6868792465" class="image-svg-svg primary" style="overflow: visible;"><svg xmlns="http://www.w3.org/2000/svg" viewBox="0 0 129.52000427246094 103.3499984741211"><g fill-rule="evenodd"><path fill="#FFFF00" d="M17.35 103.35l47.41-43.68 47.41 43.68-47.41-15.67-47.41 15.67z"></path><path fill="#FF0000" d="M129.52 75.66L64.76 59.67 82.11 0l8.98 45.66 38.43 30z"></path><path fill="#000000" d="M47.41 0l17.35 59.67L0 75.66l38.43-30L47.41 0z"></path><path fill="#4583ff" opacity=".3" d="M17.35 103.35l47.41-43.68v28.01l-47.41 15.67zM129.52 75.66L64.76 59.67l26.33-14.01 38.43 30z"></path><path fill="#4583ff" opacity=".3" d="M64.76 59.67L0 75.66l38.43-30 26.33 14.01z"></path></g></svg></svg> <!----></g></g> <g transform="translate(0,52.45083665847778)"><g data-gra="path-name" fill-rule="" class="tp-name" opacity="1" transform="matrix(1,0,0,1,0,0)"><g transform="scale(1)"><g><path d="M2.63 0L13.77 0Q14.05 0 14.24-0.19L14.24-0.19Q14.45-0.4 14.45-0.68L14.45-0.68 14.45-14.08Q14.45-14.37 14.24-14.57L14.24-14.57Q14.05-14.77 13.77-14.77L13.77-14.77 12.86-14.77Q12.57-14.77 12.38-14.57L12.38-14.57Q12.17-14.37 12.17-14.08L12.17-14.08 12.17-2.96Q12.17-2.68 11.98-2.47L11.98-2.47Q11.77-2.28 11.49-2.28L11.49-2.28 10.01-2.28Q9.73-2.28 9.54-2.47L9.54-2.47Q9.33-2.68 9.33-2.96L9.33-2.96 9.33-13.99Q9.33-14.28 9.14-14.48L9.14-14.48Q8.93-14.67 8.65-14.67L8.65-14.67 7.75-14.67Q7.47-14.67 7.26-14.48L7.26-14.48Q7.07-14.28 7.07-13.99L7.07-13.99 7.07-2.96Q7.07-2.68 6.86-2.47L6.86-2.47Q6.67-2.28 6.39-2.28L6.39-2.28 4.91-2.28Q4.63-2.28 4.42-2.47L4.42-2.47Q4.23-2.68 4.23-2.96L4.23-2.96 4.23-14.08Q4.23-14.37 4.02-14.57L4.02-14.57Q3.83-14.77 3.54-14.77L3.54-14.77 2.63-14.77Q2.35-14.77 2.16-14.57L2.16-14.57Q1.95-14.37 1.95-14.08L1.95-14.08 1.95-0.68Q1.95-0.4 2.16-0.19L2.16-0.19Q2.35 0 2.63 0L2.63 0ZM18.96 0L30.09 0Q30.37 0 30.57-0.19L30.57-0.19Q30.77-0.4 30.77-0.68L30.77-0.68 30.77-14.08Q30.77-14.37 30.57-14.57L30.57-14.57Q30.37-14.77 30.09-14.77L30.09-14.77 29.19-14.77Q28.9-14.77 28.7-14.57L28.7-14.57Q28.5-14.37 28.5-14.08L28.5-14.08 28.5-2.96Q28.5-2.68 28.3-2.47L28.3-2.47Q28.1-2.28 27.82-2.28L27.82-2.28 26.34-2.28Q26.06-2.28 25.86-2.47L25.86-2.47Q25.66-2.68 25.66-2.96L25.66-2.96 25.66-13.99Q25.66-14.28 25.46-14.48L25.46-14.48Q25.26-14.67 24.98-14.67L24.98-14.67 24.07-14.67Q23.79-14.67 23.59-14.48L23.59-14.48Q23.39-14.28 23.39-13.99L23.39-13.99 23.39-2.96Q23.39-2.68 23.19-2.47L23.19-2.47Q22.99-2.28 22.71-2.28L22.71-2.28 21.23-2.28Q20.95-2.28 20.75-2.47L20.75-2.47Q20.56-2.68 20.56-2.96L20.56-2.96 20.56-14.08Q20.56-14.37 20.35-14.57L20.35-14.57Q20.16-14.77 19.86-14.77L19.86-14.77 18.96-14.77Q18.68-14.77 18.48-14.57L18.48-14.57Q18.28-14.37 18.28-14.08L18.28-14.08 18.28-0.68Q18.28-0.4 18.48-0.19L18.48-0.19Q18.68 0 18.96 0L18.96 0ZM35.28 0L46.42 0Q46.7 0 46.89-0.19L46.89-0.19Q47.1-0.4 47.1-0.68L47.1-0.68 47.1-14.08Q47.1-14.37 46.89-14.57L46.89-14.57Q46.7-14.77 46.42-14.77L46.42-14.77 45.51-14.77Q45.22-14.77 45.03-14.57L45.03-14.57Q44.82-14.37 44.82-14.08L44.82-14.08 44.82-2.96Q44.82-2.68 44.63-2.47L44.63-2.47Q44.42-2.28 44.14-2.28L44.14-2.28 42.66-2.28Q42.38-2.28 42.19-2.47L42.19-2.47Q41.98-2.68 41.98-2.96L41.98-2.96 41.98-13.99Q41.98-14.28 41.79-14.48L41.79-14.48Q41.58-14.67 41.3-14.67L41.3-14.67 40.4-14.67Q40.12-14.67 39.91-14.48L39.91-14.48Q39.72-14.28 39.72-13.99L39.72-13.99 39.72-2.96Q39.72-2.68 39.51-2.47L39.51-2.47Q39.32-2.28 39.04-2.28L39.04-2.28 37.56-2.28Q37.28-2.28 37.07-2.47L37.07-2.47Q36.88-2.68 36.88-2.96L36.88-2.96 36.88-14.08Q36.88-14.37 36.68-14.57L36.68-14.57Q36.48-14.77 36.19-14.77L36.19-14.77 35.28-14.77Q35-14.77 34.81-14.57L34.81-14.57Q34.6-14.37 34.6-14.08L34.6-14.08 34.6-0.68Q34.6-0.4 34.81-0.19L34.81-0.19Q35 0 35.28 0L35.28 0ZM52.77-2.28L51.61-2.28Q51.38-2.28 51.22-2.11L51.22-2.11Q51.06-1.95 51.06-1.72L51.06-1.72 51.06-0.55Q51.06-0.32 51.22-0.16L51.22-0.16Q51.38 0 51.61 0L51.61 0 52.77 0Q53.01 0 53.17-0.16L53.17-0.16Q53.34-0.32 53.34-0.55L53.34-0.55 53.34-1.72Q53.34-1.95 53.17-2.11L53.17-2.11Q53.01-2.28 52.77-2.28L52.77-2.28ZM66-14.79L64.93-14.79Q64.38-14.79 64.27-14.24L64.27-14.24 62.06-3.33Q62.01-3.05 61.71-3.05L61.71-3.05Q61.42-3.05 61.35-3.33L61.35-3.33 59.18-14.24Q59.08-14.79 58.51-14.79L58.51-14.79 57.6-14.79Q57.28-14.79 57.08-14.55L57.08-14.55Q56.87-14.3 56.93-13.98L56.93-13.98 59.46-0.56Q59.58 0 60.18 0L60.18 0 63.25 0Q63.84 0 63.95-0.56L63.95-0.56 66.67-13.97Q66.74-14.3 66.53-14.55L66.53-14.55Q66.33-14.79 66-14.79L66-14.79ZM71.67-2.96L71.67-14.08Q71.67-14.37 71.46-14.57L71.46-14.57Q71.27-14.77 70.98-14.77L70.98-14.77 70.07-14.77Q69.79-14.77 69.6-14.57L69.6-14.57Q69.39-14.37 69.39-14.08L69.39-14.08 69.39-0.68Q69.39-0.4 69.6-0.21L69.6-0.21Q69.79 0 70.07 0L70.07 0 78.93 0Q79.21 0 79.41-0.21L79.41-0.21Q79.61-0.4 79.61-0.68L79.61-0.68 79.61-1.59Q79.61-1.88 79.41-2.07L79.41-2.07Q79.21-2.28 78.93-2.28L78.93-2.28 72.35-2.28Q72.07-2.28 71.86-2.47L71.86-2.47Q71.67-2.68 71.67-2.96L71.67-2.96ZM88.01-6.53L88.01-8.24Q88.01-8.52 87.73-8.52L87.73-8.52 86.58-8.52Q86.31-8.52 86.31-8.24L86.31-8.24 86.31-6.53Q86.31-6.25 86.58-6.25L86.58-6.25 87.73-6.25Q88.01-6.25 88.01-6.53L88.01-6.53ZM89.32-2.28L85-2.28Q84.72-2.28 84.52-2.47L84.52-2.47Q84.32-2.68 84.32-2.96L84.32-2.96 84.32-11.82Q84.32-12.1 84.52-12.29L84.52-12.29Q84.72-12.49 85-12.49L85-12.49 89.32-12.49Q89.6-12.49 89.79-12.29L89.79-12.29Q90-12.1 90-11.82L90-11.82 90-2.96Q90-2.68 89.79-2.47L89.79-2.47Q89.6-2.28 89.32-2.28L89.32-2.28ZM91.59-14.77L82.73-14.77Q82.45-14.77 82.25-14.57L82.25-14.57Q82.05-14.37 82.05-14.08L82.05-14.08 82.05-0.68Q82.05-0.4 82.25-0.21L82.25-0.21Q82.45 0 82.73 0L82.73 0 91.59 0Q91.87 0 92.07-0.21L92.07-0.21Q92.27-0.4 92.27-0.68L92.27-0.68 92.27-14.08Q92.27-14.37 92.07-14.57L92.07-14.57Q91.87-14.77 91.59-14.77L91.59-14.77ZM99.01-12.49L105.59-12.49Q105.87-12.49 106.08-12.69L106.08-12.69Q106.27-12.89 106.27-13.17L106.27-13.17 106.27-14.08Q106.27-14.37 106.08-14.57L106.08-14.57Q105.87-14.77 105.59-14.77L105.59-14.77 96.73-14.77Q96.45-14.77 96.26-14.57L96.26-14.57Q96.05-14.37 96.05-14.08L96.05-14.08 96.05-0.68Q96.05-0.4 96.26-0.21L96.26-0.21Q96.45 0 96.73 0L96.73 0 105.59 0Q105.87 0 106.08-0.21L106.08-0.21Q106.27-0.4 106.27-0.68L106.27-0.68 106.27-7.83Q106.27-8.12 106.08-8.32L106.08-8.32Q105.87-8.52 105.59-8.52L105.59-8.52 104.69-8.52Q104.4-8.52 104.2-8.32L104.2-8.32Q104.01-8.12 104.01-7.83L104.01-7.83 104.01-2.96Q104.01-2.68 103.8-2.47L103.8-2.47Q103.61-2.28 103.33-2.28L103.33-2.28 99.01-2.28Q98.73-2.28 98.52-2.47L98.52-2.47Q98.33-2.68 98.33-2.96L98.33-2.96 98.33-11.82Q98.33-12.1 98.52-12.29L98.52-12.29Q98.73-12.49 99.01-12.49L99.01-12.49ZM117.73-14.77L116.65-14.77Q116.27-14.77 116.08-14.45L116.08-14.45 113.57-10.5Q113.51-10.42 113.41-10.42L113.41-10.42Q113.33-10.42 113.27-10.5L113.27-10.5 110.76-14.45Q110.56-14.77 110.19-14.77L110.19-14.77 109.11-14.77Q108.7-14.77 108.52-14.42L108.52-14.42Q108.32-14.06 108.54-13.71L108.54-13.71 112.17-8Q112.28-7.82 112.28-7.63L112.28-7.63 112.28-0.68Q112.28-0.4 112.49-0.21L112.49-0.21Q112.68 0 112.96 0L112.96 0 113.87 0Q114.16 0 114.35-0.21L114.35-0.21Q114.56-0.4 114.56-0.68L114.56-0.68 114.56-7.63Q114.56-7.82 114.67-8L114.67-8 118.3-13.71Q118.52-14.06 118.32-14.42L118.32-14.42Q118.13-14.77 117.73-14.77L117.73-14.77ZM122.51-2.28L121.35-2.28Q121.12-2.28 120.96-2.11L120.96-2.11Q120.79-1.95 120.79-1.72L120.79-1.72 120.79-0.55Q120.79-0.32 120.96-0.16L120.96-0.16Q121.12 0 121.35 0L121.35 0 122.51 0Q122.75 0 122.91-0.16L122.91-0.16Q123.07-0.32 123.07-0.55L123.07-0.55 123.07-1.72Q123.07-1.95 122.91-2.11L122.91-2.11Q122.75-2.28 122.51-2.28L122.51-2.28ZM134.56-8.52L131.38-8.52Q131.1-8.52 130.89-8.32L130.89-8.32Q130.7-8.12 130.7-7.83L130.7-7.83 130.7-6.93Q130.7-6.65 130.89-6.44L130.89-6.44Q131.1-6.25 131.38-6.25L131.38-6.25 134.56-6.25Q134.84-6.25 135.04-6.04L135.04-6.04Q135.24-5.85 135.24-5.57L135.24-5.57 135.24-2.96Q135.24-2.68 135.04-2.47L135.04-2.47Q134.84-2.28 134.56-2.28L134.56-2.28 130.25-2.28Q129.97-2.28 129.76-2.47L129.76-2.47Q129.57-2.68 129.57-2.96L129.57-2.96 129.57-11.82Q129.57-12.1 129.76-12.29L129.76-12.29Q129.97-12.49 130.25-12.49L130.25-12.49 134.56-12.49Q134.84-12.49 135.04-12.29L135.04-12.29Q135.24-12.1 135.24-11.82L135.24-11.82 135.24-9.2Q135.24-8.92 135.04-8.72L135.04-8.72Q134.84-8.52 134.56-8.52L134.56-8.52ZM136.83-14.77L127.97-14.77Q127.69-14.77 127.5-14.57L127.5-14.57Q127.29-14.37 127.29-14.08L127.29-14.08 127.29-0.68Q127.29-0.4 127.5-0.21L127.5-0.21Q127.69 0 127.97 0L127.97 0 136.83 0Q137.11 0 137.31-0.21L137.31-0.21Q137.51-0.4 137.51-0.68L137.51-0.68 137.51-14.08Q137.51-14.37 137.31-14.57L137.31-14.57Q137.11-14.77 136.83-14.77L136.83-14.77ZM143.62-2.96L143.62-14.08Q143.62-14.37 143.41-14.57L143.41-14.57Q143.22-14.77 142.93-14.77L142.93-14.77 142.02-14.77Q141.74-14.77 141.54-14.57L141.54-14.57Q141.34-14.37 141.34-14.08L141.34-14.08 141.34-0.68Q141.34-0.4 141.54-0.21L141.54-0.21Q141.74 0 142.02 0L142.02 0 150.88 0Q151.16 0 151.36-0.21L151.36-0.21Q151.56-0.4 151.56-0.68L151.56-0.68 151.56-1.59Q151.56-1.88 151.36-2.07L151.36-2.07Q151.16-2.28 150.88-2.28L150.88-2.28 144.3-2.28Q144.02-2.28 143.81-2.47L143.81-2.47Q143.62-2.68 143.62-2.96L143.62-2.96ZM159.96-6.53L159.96-8.24Q159.96-8.52 159.68-8.52L159.68-8.52 158.53-8.52Q158.26-8.52 158.26-8.24L158.26-8.24 158.26-6.53Q158.26-6.25 158.53-6.25L158.53-6.25 159.68-6.25Q159.96-6.25 159.96-6.53L159.96-6.53ZM161.27-2.28L156.95-2.28Q156.67-2.28 156.47-2.47L156.47-2.47Q156.27-2.68 156.27-2.96L156.27-2.96 156.27-11.82Q156.27-12.1 156.47-12.29L156.47-12.29Q156.67-12.49 156.95-12.49L156.95-12.49 161.27-12.49Q161.55-12.49 161.74-12.29L161.74-12.29Q161.95-12.1 161.95-11.82L161.95-11.82 161.95-2.96Q161.95-2.68 161.74-2.47L161.74-2.47Q161.55-2.28 161.27-2.28L161.27-2.28ZM163.53-14.77L154.68-14.77Q154.4-14.77 154.2-14.57L154.2-14.57Q154-14.37 154-14.08L154-14.08 154-0.68Q154-0.4 154.2-0.21L154.2-0.21Q154.4 0 154.68 0L154.68 0 163.53 0Q163.81 0 164.02-0.21L164.02-0.21Q164.21-0.4 164.21-0.68L164.21-0.68 164.21-14.08Q164.21-14.37 164.02-14.57L164.02-14.57Q163.81-14.77 163.53-14.77L163.53-14.77ZM170.96-12.49L177.54-12.49Q177.82-12.49 178.03-12.69L178.03-12.69Q178.22-12.89 178.22-13.17L178.22-13.17 178.22-14.08Q178.22-14.37 178.03-14.57L178.03-14.57Q177.82-14.77 177.54-14.77L177.54-14.77 168.68-14.77Q168.4-14.77 168.21-14.57L168.21-14.57Q168-14.37 168-14.08L168-14.08 168-0.68Q168-0.4 168.21-0.21L168.21-0.21Q168.4 0 168.68 0L168.68 0 177.54 0Q177.82 0 178.03-0.21L178.03-0.21Q178.22-0.4 178.22-0.68L178.22-0.68 178.22-7.83Q178.22-8.12 178.03-8.32L178.03-8.32Q177.82-8.52 177.54-8.52L177.54-8.52 176.63-8.52Q176.35-8.52 176.15-8.32L176.15-8.32Q175.95-8.12 175.95-7.83L175.95-7.83 175.95-2.96Q175.95-2.68 175.75-2.47L175.75-2.47Q175.55-2.28 175.27-2.28L175.27-2.28 170.96-2.28Q170.68-2.28 170.47-2.47L170.47-2.47Q170.28-2.68 170.28-2.96L170.28-2.96 170.28-11.82Q170.28-12.1 170.47-12.29L170.47-12.29Q170.68-12.49 170.96-12.49L170.96-12.49Z" transform="translate(-1.9500000476837158, 14.789999961853027)"></path></g> <!----> <!----> <!----> <!----> <!----> <!----> <!----></g></g> <!----></g></g></g><mask id="6e215374-29bf-40ed-9e2c-bdfcb000710b"><g fill="white"><g><rect fill-opacity="1" stroke-width="2" x="0" y="0" width="150" height="119.69167424713937" class="image-rect"></rect> <svg x="0" y="0" width="150" height="119.69167424713937" filtersec="colorsb6868792465" class="image-svg-svg primary" style="overflow: visible;"><svg xmlns="http://www.w3.org/2000/svg" viewBox="0 0 129.52000427246094 103.3499984741211"><g fill-rule="evenodd"><path d="M17.35 103.35l47.41-43.68 47.41 43.68-47.41-15.67-47.41 15.67z"></path><path d="M129.52 75.66L64.76 59.67 82.11 0l8.98 45.66 38.43 30z"></path><path d="M47.41 0l17.35 59.67L0 75.66l38.43-30L47.41 0z"></path><path opacity=".3" d="M17.35 103.35l47.41-43.68v28.01l-47.41 15.67zM129.52 75.66L64.76 59.67l26.33-14.01 38.43 30z"></path><path opacity=".3" d="M64.76 59.67L0 75.66l38.43-30 26.33 14.01z"></path></g></svg></svg> </g></g> <g transform="translate(-13.135002136230469,52.45083665847778)"><rect fill="black" fill-opacity="1" x="-3.5" y="-3.5" width="183.27000427246094" height="21.789999961853027"></rect><rect fill="black" fill-opacity="1" x="-3.5" y="-3.5"></rect></g><g transform="translate(-13.135002136230469,52.45083665847778)" fill="black"><g data-gra="path-name" fill-rule="" class="tp-name" opacity="1" transform="matrix(1,0,0,1,0,0)"><g transform="scale(1)"><g><path d="M2.63 0L13.77 0Q14.05 0 14.24-0.19L14.24-0.19Q14.45-0.4 14.45-0.68L14.45-0.68 14.45-14.08Q14.45-14.37 14.24-14.57L14.24-14.57Q14.05-14.77 13.77-14.77L13.77-14.77 12.86-14.77Q12.57-14.77 12.38-14.57L12.38-14.57Q12.17-14.37 12.17-14.08L12.17-14.08 12.17-2.96Q12.17-2.68 11.98-2.47L11.98-2.47Q11.77-2.28 11.49-2.28L11.49-2.28 10.01-2.28Q9.73-2.28 9.54-2.47L9.54-2.47Q9.33-2.68 9.33-2.96L9.33-2.96 9.33-13.99Q9.33-14.28 9.14-14.48L9.14-14.48Q8.93-14.67 8.65-14.67L8.65-14.67 7.75-14.67Q7.47-14.67 7.26-14.48L7.26-14.48Q7.07-14.28 7.07-13.99L7.07-13.99 7.07-2.96Q7.07-2.68 6.86-2.47L6.86-2.47Q6.67-2.28 6.39-2.28L6.39-2.28 4.91-2.28Q4.63-2.28 4.42-2.47L4.42-2.47Q4.23-2.68 4.23-2.96L4.23-2.96 4.23-14.08Q4.23-14.37 4.02-14.57L4.02-14.57Q3.83-14.77 3.54-14.77L3.54-14.77 2.63-14.77Q2.35-14.77 2.16-14.57L2.16-14.57Q1.95-14.37 1.95-14.08L1.95-14.08 1.95-0.68Q1.95-0.4 2.16-0.19L2.16-0.19Q2.35 0 2.63 0L2.63 0ZM18.96 0L30.09 0Q30.37 0 30.57-0.19L30.57-0.19Q30.77-0.4 30.77-0.68L30.77-0.68 30.77-14.08Q30.77-14.37 30.57-14.57L30.57-14.57Q30.37-14.77 30.09-14.77L30.09-14.77 29.19-14.77Q28.9-14.77 28.7-14.57L28.7-14.57Q28.5-14.37 28.5-14.08L28.5-14.08 28.5-2.96Q28.5-2.68 28.3-2.47L28.3-2.47Q28.1-2.28 27.82-2.28L27.82-2.28 26.34-2.28Q26.06-2.28 25.86-2.47L25.86-2.47Q25.66-2.68 25.66-2.96L25.66-2.96 25.66-13.99Q25.66-14.28 25.46-14.48L25.46-14.48Q25.26-14.67 24.98-14.67L24.98-14.67 24.07-14.67Q23.79-14.67 23.59-14.48L23.59-14.48Q23.39-14.28 23.39-13.99L23.39-13.99 23.39-2.96Q23.39-2.68 23.19-2.47L23.19-2.47Q22.99-2.28 22.71-2.28L22.71-2.28 21.23-2.28Q20.95-2.28 20.75-2.47L20.75-2.47Q20.56-2.68 20.56-2.96L20.56-2.96 20.56-14.08Q20.56-14.37 20.35-14.57L20.35-14.57Q20.16-14.77 19.86-14.77L19.86-14.77 18.96-14.77Q18.68-14.77 18.48-14.57L18.48-14.57Q18.28-14.37 18.28-14.08L18.28-14.08 18.28-0.68Q18.28-0.4 18.48-0.19L18.48-0.19Q18.68 0 18.96 0L18.96 0ZM35.28 0L46.42 0Q46.7 0 46.89-0.19L46.89-0.19Q47.1-0.4 47.1-0.68L47.1-0.68 47.1-14.08Q47.1-14.37 46.89-14.57L46.89-14.57Q46.7-14.77 46.42-14.77L46.42-14.77 45.51-14.77Q45.22-14.77 45.03-14.57L45.03-14.57Q44.82-14.37 44.82-14.08L44.82-14.08 44.82-2.96Q44.82-2.68 44.63-2.47L44.63-2.47Q44.42-2.28 44.14-2.28L44.14-2.28 42.66-2.28Q42.38-2.28 42.19-2.47L42.19-2.47Q41.98-2.68 41.98-2.96L41.98-2.96 41.98-13.99Q41.98-14.28 41.79-14.48L41.79-14.48Q41.58-14.67 41.3-14.67L41.3-14.67 40.4-14.67Q40.12-14.67 39.91-14.48L39.91-14.48Q39.72-14.28 39.72-13.99L39.72-13.99 39.72-2.96Q39.72-2.68 39.51-2.47L39.51-2.47Q39.32-2.28 39.04-2.28L39.04-2.28 37.56-2.28Q37.28-2.28 37.07-2.47L37.07-2.47Q36.88-2.68 36.88-2.96L36.88-2.96 36.88-14.08Q36.88-14.37 36.68-14.57L36.68-14.57Q36.48-14.77 36.19-14.77L36.19-14.77 35.28-14.77Q35-14.77 34.81-14.57L34.81-14.57Q34.6-14.37 34.6-14.08L34.6-14.08 34.6-0.68Q34.6-0.4 34.81-0.19L34.81-0.19Q35 0 35.28 0L35.28 0ZM52.77-2.28L51.61-2.28Q51.38-2.28 51.22-2.11L51.22-2.11Q51.06-1.95 51.06-1.72L51.06-1.72 51.06-0.55Q51.06-0.32 51.22-0.16L51.22-0.16Q51.38 0 51.61 0L51.61 0 52.77 0Q53.01 0 53.17-0.16L53.17-0.16Q53.34-0.32 53.34-0.55L53.34-0.55 53.34-1.72Q53.34-1.95 53.17-2.11L53.17-2.11Q53.01-2.28 52.77-2.28L52.77-2.28ZM66-14.79L64.93-14.79Q64.38-14.79 64.27-14.24L64.27-14.24 62.06-3.33Q62.01-3.05 61.71-3.05L61.71-3.05Q61.42-3.05 61.35-3.33L61.35-3.33 59.18-14.24Q59.08-14.79 58.51-14.79L58.51-14.79 57.6-14.79Q57.28-14.79 57.08-14.55L57.08-14.55Q56.87-14.3 56.93-13.98L56.93-13.98 59.46-0.56Q59.58 0 60.18 0L60.18 0 63.25 0Q63.84 0 63.95-0.56L63.95-0.56 66.67-13.97Q66.74-14.3 66.53-14.55L66.53-14.55Q66.33-14.79 66-14.79L66-14.79ZM71.67-2.96L71.67-14.08Q71.67-14.37 71.46-14.57L71.46-14.57Q71.27-14.77 70.98-14.77L70.98-14.77 70.07-14.77Q69.79-14.77 69.6-14.57L69.6-14.57Q69.39-14.37 69.39-14.08L69.39-14.08 69.39-0.68Q69.39-0.4 69.6-0.21L69.6-0.21Q69.79 0 70.07 0L70.07 0 78.93 0Q79.21 0 79.41-0.21L79.41-0.21Q79.61-0.4 79.61-0.68L79.61-0.68 79.61-1.59Q79.61-1.88 79.41-2.07L79.41-2.07Q79.21-2.28 78.93-2.28L78.93-2.28 72.35-2.28Q72.07-2.28 71.86-2.47L71.86-2.47Q71.67-2.68 71.67-2.96L71.67-2.96ZM88.01-6.53L88.01-8.24Q88.01-8.52 87.73-8.52L87.73-8.52 86.58-8.52Q86.31-8.52 86.31-8.24L86.31-8.24 86.31-6.53Q86.31-6.25 86.58-6.25L86.58-6.25 87.73-6.25Q88.01-6.25 88.01-6.53L88.01-6.53ZM89.32-2.28L85-2.28Q84.72-2.28 84.52-2.47L84.52-2.47Q84.32-2.68 84.32-2.96L84.32-2.96 84.32-11.82Q84.32-12.1 84.52-12.29L84.52-12.29Q84.72-12.49 85-12.49L85-12.49 89.32-12.49Q89.6-12.49 89.79-12.29L89.79-12.29Q90-12.1 90-11.82L90-11.82 90-2.96Q90-2.68 89.79-2.47L89.79-2.47Q89.6-2.28 89.32-2.28L89.32-2.28ZM91.59-14.77L82.73-14.77Q82.45-14.77 82.25-14.57L82.25-14.57Q82.05-14.37 82.05-14.08L82.05-14.08 82.05-0.68Q82.05-0.4 82.25-0.21L82.25-0.21Q82.45 0 82.73 0L82.73 0 91.59 0Q91.87 0 92.07-0.21L92.07-0.21Q92.27-0.4 92.27-0.68L92.27-0.68 92.27-14.08Q92.27-14.37 92.07-14.57L92.07-14.57Q91.87-14.77 91.59-14.77L91.59-14.77ZM99.01-12.49L105.59-12.49Q105.87-12.49 106.08-12.69L106.08-12.69Q106.27-12.89 106.27-13.17L106.27-13.17 106.27-14.08Q106.27-14.37 106.08-14.57L106.08-14.57Q105.87-14.77 105.59-14.77L105.59-14.77 96.73-14.77Q96.45-14.77 96.26-14.57L96.26-14.57Q96.05-14.37 96.05-14.08L96.05-14.08 96.05-0.68Q96.05-0.4 96.26-0.21L96.26-0.21Q96.45 0 96.73 0L96.73 0 105.59 0Q105.87 0 106.08-0.21L106.08-0.21Q106.27-0.4 106.27-0.68L106.27-0.68 106.27-7.83Q106.27-8.12 106.08-8.32L106.08-8.32Q105.87-8.52 105.59-8.52L105.59-8.52 104.69-8.52Q104.4-8.52 104.2-8.32L104.2-8.32Q104.01-8.12 104.01-7.83L104.01-7.83 104.01-2.96Q104.01-2.68 103.8-2.47L103.8-2.47Q103.61-2.28 103.33-2.28L103.33-2.28 99.01-2.28Q98.73-2.28 98.52-2.47L98.52-2.47Q98.33-2.68 98.33-2.96L98.33-2.96 98.33-11.82Q98.33-12.1 98.52-12.29L98.52-12.29Q98.73-12.49 99.01-12.49L99.01-12.49ZM117.73-14.77L116.65-14.77Q116.27-14.77 116.08-14.45L116.08-14.45 113.57-10.5Q113.51-10.42 113.41-10.42L113.41-10.42Q113.33-10.42 113.27-10.5L113.27-10.5 110.76-14.45Q110.56-14.77 110.19-14.77L110.19-14.77 109.11-14.77Q108.7-14.77 108.52-14.42L108.52-14.42Q108.32-14.06 108.54-13.71L108.54-13.71 112.17-8Q112.28-7.82 112.28-7.63L112.28-7.63 112.28-0.68Q112.28-0.4 112.49-0.21L112.49-0.21Q112.68 0 112.96 0L112.96 0 113.87 0Q114.16 0 114.35-0.21L114.35-0.21Q114.56-0.4 114.56-0.68L114.56-0.68 114.56-7.63Q114.56-7.82 114.67-8L114.67-8 118.3-13.71Q118.52-14.06 118.32-14.42L118.32-14.42Q118.13-14.77 117.73-14.77L117.73-14.77ZM122.51-2.28L121.35-2.28Q121.12-2.28 120.96-2.11L120.96-2.11Q120.79-1.95 120.79-1.72L120.79-1.72 120.79-0.55Q120.79-0.32 120.96-0.16L120.96-0.16Q121.12 0 121.35 0L121.35 0 122.51 0Q122.75 0 122.91-0.16L122.91-0.16Q123.07-0.32 123.07-0.55L123.07-0.55 123.07-1.72Q123.07-1.95 122.91-2.11L122.91-2.11Q122.75-2.28 122.51-2.28L122.51-2.28ZM134.56-8.52L131.38-8.52Q131.1-8.52 130.89-8.32L130.89-8.32Q130.7-8.12 130.7-7.83L130.7-7.83 130.7-6.93Q130.7-6.65 130.89-6.44L130.89-6.44Q131.1-6.25 131.38-6.25L131.38-6.25 134.56-6.25Q134.84-6.25 135.04-6.04L135.04-6.04Q135.24-5.85 135.24-5.57L135.24-5.57 135.24-2.96Q135.24-2.68 135.04-2.47L135.04-2.47Q134.84-2.28 134.56-2.28L134.56-2.28 130.25-2.28Q129.97-2.28 129.76-2.47L129.76-2.47Q129.57-2.68 129.57-2.96L129.57-2.96 129.57-11.82Q129.57-12.1 129.76-12.29L129.76-12.29Q129.97-12.49 130.25-12.49L130.25-12.49 134.56-12.49Q134.84-12.49 135.04-12.29L135.04-12.29Q135.24-12.1 135.24-11.82L135.24-11.82 135.24-9.2Q135.24-8.92 135.04-8.72L135.04-8.72Q134.84-8.52 134.56-8.52L134.56-8.52ZM136.83-14.77L127.97-14.77Q127.69-14.77 127.5-14.57L127.5-14.57Q127.29-14.37 127.29-14.08L127.29-14.08 127.29-0.68Q127.29-0.4 127.5-0.21L127.5-0.21Q127.69 0 127.97 0L127.97 0 136.83 0Q137.11 0 137.31-0.21L137.31-0.21Q137.51-0.4 137.51-0.68L137.51-0.68 137.51-14.08Q137.51-14.37 137.31-14.57L137.31-14.57Q137.11-14.77 136.83-14.77L136.83-14.77ZM143.62-2.96L143.62-14.08Q143.62-14.37 143.41-14.57L143.41-14.57Q143.22-14.77 142.93-14.77L142.93-14.77 142.02-14.77Q141.74-14.77 141.54-14.57L141.54-14.57Q141.34-14.37 141.34-14.08L141.34-14.08 141.34-0.68Q141.34-0.4 141.54-0.21L141.54-0.21Q141.74 0 142.02 0L142.02 0 150.88 0Q151.16 0 151.36-0.21L151.36-0.21Q151.56-0.4 151.56-0.68L151.56-0.68 151.56-1.59Q151.56-1.88 151.36-2.07L151.36-2.07Q151.16-2.28 150.88-2.28L150.88-2.28 144.3-2.28Q144.02-2.28 143.81-2.47L143.81-2.47Q143.62-2.68 143.62-2.96L143.62-2.96ZM159.96-6.53L159.96-8.24Q159.96-8.52 159.68-8.52L159.68-8.52 158.53-8.52Q158.26-8.52 158.26-8.24L158.26-8.24 158.26-6.53Q158.26-6.25 158.53-6.25L158.53-6.25 159.68-6.25Q159.96-6.25 159.96-6.53L159.96-6.53ZM161.27-2.28L156.95-2.28Q156.67-2.28 156.47-2.47L156.47-2.47Q156.27-2.68 156.27-2.96L156.27-2.96 156.27-11.82Q156.27-12.1 156.47-12.29L156.47-12.29Q156.67-12.49 156.95-12.49L156.95-12.49 161.27-12.49Q161.55-12.49 161.74-12.29L161.74-12.29Q161.95-12.1 161.95-11.82L161.95-11.82 161.95-2.96Q161.95-2.68 161.74-2.47L161.74-2.47Q161.55-2.28 161.27-2.28L161.27-2.28ZM163.53-14.77L154.68-14.77Q154.4-14.77 154.2-14.57L154.2-14.57Q154-14.37 154-14.08L154-14.08 154-0.68Q154-0.4 154.2-0.21L154.2-0.21Q154.4 0 154.68 0L154.68 0 163.53 0Q163.81 0 164.02-0.21L164.02-0.21Q164.21-0.4 164.21-0.68L164.21-0.68 164.21-14.08Q164.21-14.37 164.02-14.57L164.02-14.57Q163.81-14.77 163.53-14.77L163.53-14.77ZM170.96-12.49L177.54-12.49Q177.82-12.49 178.03-12.69L178.03-12.69Q178.22-12.89 178.22-13.17L178.22-13.17 178.22-14.08Q178.22-14.37 178.03-14.57L178.03-14.57Q177.82-14.77 177.54-14.77L177.54-14.77 168.68-14.77Q168.4-14.77 168.21-14.57L168.21-14.57Q168-14.37 168-14.08L168-14.08 168-0.68Q168-0.4 168.21-0.21L168.21-0.21Q168.4 0 168.68 0L168.68 0 177.54 0Q177.82 0 178.03-0.21L178.03-0.21Q178.22-0.4 178.22-0.68L178.22-0.68 178.22-7.83Q178.22-8.12 178.03-8.32L178.03-8.32Q177.82-8.52 177.54-8.52L177.54-8.52 176.63-8.52Q176.35-8.52 176.15-8.32L176.15-8.32Q175.95-8.12 175.95-7.83L175.95-7.83 175.95-2.96Q175.95-2.68 175.75-2.47L175.75-2.47Q175.55-2.28 175.27-2.28L175.27-2.28 170.96-2.28Q170.68-2.28 170.47-2.47L170.47-2.47Q170.28-2.68 170.28-2.96L170.28-2.96 170.28-11.82Q170.28-12.1 170.47-12.29L170.47-12.29Q170.68-12.49 170.96-12.49L170.96-12.49Z" transform="translate(-1.9500000476837158, 14.789999961853027)"></path></g>       </g></g> </g></mask><defs v-gra="od"></defs></svg>