<svg data-v-6805eed4="" version="1.0" xmlns="http://www.w3.org/2000/svg" xmlns:xlink="http://www.w3.org/1999/xlink" width="100%" height="100%" viewBox="0 0 340.000000 250.000000" preserveAspectRatio="xMidYMid meet" color-interpolation-filters="sRGB" style="margin: auto;"> <rect data-v-6805eed4="" x="0" y="0" width="100%" height="100%" fill="#e31837" fill-opacity="0" class="background"></rect> <rect data-v-6805eed4="" x="0" y="0" width="100%" height="100%" fill="url(#watermark)" fill-opacity="1" class="watermarklayer"></rect> <g data-v-6805eed4="" fill="#feffff" class="linesvg" transform="translate(51.144996643066406,88.90500259399414)"><rect fill="#feffff" x="0" y="0" width="237.7100067138672" height="5"></rect> <rect fill="#feffff" x="0" y="67.18999862670898" width="237.7100067138672" height="5"></rect> <g fill="#feffff" transform="translate(0,10)"><g data-gra="path-name" fill-rule="" class="tp-name" transform="matrix(1,0,0,1,4.575004577636719,0)" opacity="1"><g transform="scale(1)"><g><path d="M24.65-16.45L22.85-16.45 17.92-1.9 12.92-16.45 11.76-16.45 6.73-1.9 1.77-16.45-0.03-16.45 5.83 0 7.63 0 10.29-7.16 12.36-13.59 14.35-7.19 17.02 0 18.82 0ZM50.12-16.45L48.32-16.45 43.4-1.9 38.4-16.45 37.23-16.45 32.21-1.9 27.24-16.45 25.44-16.45 31.31 0 33.1 0 35.77-7.16 37.83-13.59 39.83-7.19 42.5 0 44.29 0ZM75.6-16.45L73.8-16.45 68.87-1.9 63.88-16.45 62.71-16.45 57.68-1.9 52.72-16.45 50.92-16.45 56.78 0 58.58 0 61.25-7.16 63.31-13.59 65.31-7.19 67.97 0 69.77 0ZM77.63-1C77.63 0.73 80.26 0.73 80.26-1 80.26-2.73 77.63-2.73 77.63-1ZM87.09 0L88.89 0 95.78-16.45 93.98-16.45 87.99-1.9 82-16.45 80.2-16.45ZM98.48-23.31L98.48 0 100.11 0 100.11-23.31ZM112.27 0.23C116.9 0.23 120.63-2.96 120.63-8.19 120.63-13.42 116.9-16.75 112.27-16.75 107.64-16.75 103.91-13.42 103.91-8.19 103.91-2.96 107.64 0.23 112.27 0.23ZM112.27-1.37C108.54-1.37 105.51-3.93 105.51-8.19 105.51-12.46 108.54-15.22 112.27-15.22 116-15.22 119.03-12.46 119.03-8.19 119.03-3.93 116-1.37 112.27-1.37ZM136.02-15.25C134.75-16.15 133.02-16.75 131.35-16.75 127.09-16.75 123.63-13.85 123.63-8.73 123.63-4.33 126.59-0.77 131.35-0.77 134.42-0.77 137.58 0.63 137.58 4.16 137.58 7.66 134.65 9.13 131.35 9.13 128.06 9.13 125.19 7.53 125.19 4.16L123.56 4.16C123.56 8.33 126.99 10.72 131.35 10.72 135.72 10.72 139.18 8.59 139.18 4.16 139.18 1.33 137.58-0.7 134.68-1.73 137.41-2.96 139.11-5.86 139.11-8.73 139.11-11.39 138.25-13.06 137.08-14.32L138.68-16.19 137.61-17.12ZM131.35-15.12C134.75-15.12 137.51-12.89 137.51-8.73 137.51-5.33 134.75-2.4 131.35-2.4 127.59-2.4 125.26-5.33 125.26-8.73 125.26-13.02 127.99-15.12 131.35-15.12ZM155.1-16.45L150.97-6.76 149.07-1.96 147.14-6.73 143.31-16.45 141.54-16.45 148.14-0.2 145.11 6.86 146.84 6.86 156.86-16.45ZM159.39-1C159.39 0.73 162.03 0.73 162.03-1 162.03-2.73 159.39-2.73 159.39-1ZM175.51-15.15C179.21-15.15 182.24-12.86 182.24-8.23 182.24-3.66 179.21-1.33 175.51-1.33 171.65-1.33 168.79-4.16 168.79-8.26 168.79-12.36 171.72-15.15 175.51-15.15ZM167.15-23.31L167.15 0 168.75 0 168.75-3.63C170.12-1.13 172.82 0.27 175.61 0.27 180.21 0.27 183.84-2.76 183.84-8.23 183.84-13.65 180.18-16.72 175.58-16.72 172.75-16.72 170.09-15.52 168.75-12.86L168.75-23.31ZM187.84-23.31L187.84 0 189.47 0 189.47-23.31ZM201.62 0.23C206.25 0.23 209.98-2.96 209.98-8.19 209.98-13.42 206.25-16.75 201.62-16.75 197-16.75 193.27-13.42 193.27-8.19 193.27-2.96 197 0.23 201.62 0.23ZM201.62-1.37C197.89-1.37 194.86-3.93 194.86-8.19 194.86-12.46 197.89-15.22 201.62-15.22 205.35-15.22 208.39-12.46 208.39-8.19 208.39-3.93 205.35-1.37 201.62-1.37ZM225.37-15.25C224.11-16.15 222.37-16.75 220.71-16.75 216.45-16.75 212.98-13.85 212.98-8.73 212.98-4.33 215.95-0.77 220.71-0.77 223.77-0.77 226.94 0.63 226.94 4.16 226.94 7.66 224.01 9.13 220.71 9.13 217.41 9.13 214.55 7.53 214.55 4.16L212.91 4.16C212.91 8.33 216.35 10.72 220.71 10.72 225.07 10.72 228.53 8.59 228.53 4.16 228.53 1.33 226.94-0.7 224.04-1.73 226.77-2.96 228.47-5.86 228.47-8.73 228.47-11.39 227.6-13.06 226.44-14.32L228.04-16.19 226.97-17.12ZM220.71-15.12C224.11-15.12 226.87-12.89 226.87-8.73 226.87-5.33 224.11-2.4 220.71-2.4 216.94-2.4 214.61-5.33 214.61-8.73 214.61-13.02 217.34-15.12 220.71-15.12Z" transform="translate(0.030000001192092896, 23.309999465942383)"></path></g> <!----> <!----> <!----> <!----> <!----> <!----> <!----></g></g> <g data-gra="path-slogan" fill-rule="" class="tp-slogan" fill="#feffff" transform="matrix(1,0,0,1,0,40.029998779296875)" opacity="1"><!----> <!----> <g mask="url(#3e6c6f57-63db-4e20-805b-9cc6354fd298)"><g><rect data-gra="graph-name-bg" stroke-width="2" class="i-icon-bg" x="0" y="0" width="237.7100067138672" height="12.160000801086426" fill-opacity="1"></rect> <!----> <!----> </g> <g transform="translate(5,2)"><g transform="scale(1, 1)" fill="#e31837"><g transform="scale(1)"><path d="M0-7.87L2.52 0L3.68 0L6.18-7.87L5.16-7.87L3.90-3.62C3.76-3.15 3.64-2.72 3.53-2.32C3.42-1.92 3.29-1.48 3.14-1.02L3.10-1.02C2.94-1.48 2.81-1.92 2.71-2.32C2.60-2.72 2.47-3.15 2.33-3.62L1.07-7.87ZM8.77-7.87L8.77 0L13.21 0L13.21-0.85L9.77-0.85L9.77-7.87ZM18.70 0.14C19.20 0.14 19.65 0.05 20.07-0.14C20.48-0.34 20.83-0.61 21.13-0.97C21.43-1.32 21.67-1.75 21.83-2.26C21.99-2.77 22.08-3.34 22.08-3.97C22.08-4.60 21.99-5.16 21.83-5.66C21.67-6.16 21.43-6.58 21.13-6.93C20.83-7.28 20.48-7.55 20.07-7.73C19.65-7.92 19.20-8.02 18.70-8.02C18.21-8.02 17.75-7.92 17.34-7.74C16.93-7.56 16.58-7.29 16.28-6.94C15.98-6.59 15.75-6.17 15.59-5.67C15.43-5.17 15.34-4.60 15.34-3.97C15.34-3.34 15.43-2.77 15.59-2.26C15.75-1.75 15.98-1.32 16.28-0.97C16.58-0.61 16.93-0.34 17.34-0.14C17.75 0.05 18.21 0.14 18.70 0.14ZM18.70-0.73C18.35-0.73 18.03-0.81 17.75-0.96C17.47-1.11 17.22-1.33 17.02-1.61C16.81-1.90 16.66-2.24 16.54-2.63C16.43-3.03 16.38-3.48 16.38-3.97C16.38-4.46 16.43-4.90 16.54-5.29C16.66-5.68 16.81-6.02 17.02-6.29C17.22-6.56 17.47-6.77 17.75-6.92C18.03-7.07 18.35-7.14 18.70-7.14C19.06-7.14 19.37-7.07 19.66-6.92C19.94-6.77 20.19-6.56 20.39-6.29C20.59-6.02 20.75-5.68 20.86-5.29C20.98-4.90 21.03-4.46 21.03-3.97C21.03-3.48 20.98-3.03 20.86-2.63C20.75-2.24 20.59-1.90 20.39-1.61C20.19-1.33 19.94-1.11 19.66-0.96C19.37-0.81 19.06-0.73 18.70-0.73ZM24.82-3.94C24.82-3.30 24.91-2.72 25.08-2.21C25.26-1.71 25.50-1.28 25.82-0.93C26.13-0.58 26.50-0.32 26.93-0.13C27.36 0.05 27.84 0.14 28.36 0.14C28.89 0.14 29.36 0.06 29.78-0.11C30.20-0.29 30.54-0.50 30.80-0.77L30.80-4.08L28.22-4.08L28.22-3.25L29.88-3.25L29.88-1.20C29.72-1.06 29.52-0.94 29.27-0.86C29.01-0.77 28.75-0.73 28.47-0.73C28.04-0.73 27.67-0.81 27.35-0.96C27.02-1.11 26.75-1.33 26.53-1.61C26.31-1.89 26.14-2.23 26.03-2.62C25.91-3.02 25.85-3.46 25.85-3.96C25.85-4.45 25.91-4.89 26.04-5.28C26.16-5.67 26.34-6.01 26.56-6.28C26.78-6.56 27.06-6.77 27.38-6.92C27.70-7.07 28.06-7.14 28.46-7.14C28.86-7.14 29.19-7.07 29.45-6.93C29.71-6.79 29.94-6.62 30.14-6.41L30.70-7.04C30.47-7.28 30.17-7.51 29.81-7.71C29.44-7.91 28.99-8.02 28.44-8.02C27.92-8.02 27.43-7.92 26.99-7.73C26.55-7.55 26.17-7.28 25.85-6.92C25.52-6.57 25.27-6.14 25.09-5.64C24.91-5.14 24.82-4.57 24.82-3.94ZM39.76-7.03L39.76 0L40.76 0L40.76-7.03L43.14-7.03L43.14-7.87L37.38-7.87L37.38-7.03ZM46.07-7.87L46.07 0L47.06 0L47.06-3.71L50.72-3.71L50.72 0L51.73 0L51.73-7.87L50.72-7.87L50.72-4.57L47.06-4.57L47.06-7.87ZM55.40-7.87L55.40 0L60.05 0L60.05-0.85L56.39-0.85L56.39-3.71L59.38-3.71L59.38-4.56L56.39-4.56L56.39-7.03L59.93-7.03L59.93-7.87ZM67.17-7.87L67.17 0L68.16 0L68.16-3.71L71.82-3.71L71.82 0L72.83 0L72.83-7.87L71.82-7.87L71.82-4.57L68.16-4.57L68.16-7.87ZM76.50-7.87L76.50 0L81.16 0L81.16-0.85L77.50-0.85L77.50-3.71L80.48-3.71L80.48-4.56L77.50-4.56L77.50-7.03L81.04-7.03L81.04-7.87ZM84.33-7.87L84.33 0L88.77 0L88.77-0.85L85.33-0.85L85.33-7.87ZM91.67-7.87L91.67 0L96.11 0L96.11-0.85L92.67-0.85L92.67-7.87ZM105.85 0.14C106.35 0.14 106.80 0.05 107.22-0.14C107.63-0.34 107.98-0.61 108.28-0.97C108.58-1.32 108.82-1.75 108.98-2.26C109.14-2.77 109.23-3.34 109.23-3.97C109.23-4.60 109.14-5.16 108.98-5.66C108.82-6.16 108.58-6.58 108.28-6.93C107.98-7.28 107.63-7.55 107.22-7.73C106.80-7.92 106.35-8.02 105.85-8.02C105.36-8.02 104.90-7.92 104.49-7.74C104.08-7.56 103.73-7.29 103.43-6.94C103.13-6.59 102.90-6.17 102.74-5.67C102.58-5.17 102.49-4.60 102.49-3.97C102.49-3.34 102.58-2.77 102.74-2.26C102.90-1.75 103.13-1.32 103.43-0.97C103.73-0.61 104.08-0.34 104.49-0.14C104.90 0.05 105.36 0.14 105.85 0.14ZM105.85-0.73C105.50-0.73 105.18-0.81 104.90-0.96C104.62-1.11 104.37-1.33 104.17-1.61C103.96-1.90 103.81-2.24 103.69-2.63C103.58-3.03 103.53-3.48 103.53-3.97C103.53-4.46 103.58-4.90 103.69-5.29C103.81-5.68 103.96-6.02 104.17-6.29C104.37-6.56 104.62-6.77 104.90-6.92C105.18-7.07 105.50-7.14 105.85-7.14C106.21-7.14 106.52-7.07 106.81-6.92C107.09-6.77 107.34-6.56 107.54-6.29C107.74-6.02 107.90-5.68 108.01-5.29C108.13-4.90 108.18-4.46 108.18-3.97C108.18-3.48 108.13-3.03 108.01-2.63C107.90-2.24 107.74-1.90 107.54-1.61C107.34-1.33 107.09-1.11 106.81-0.96C106.52-0.81 106.21-0.73 105.85-0.73ZM112.39-7.87L112.39-3.25C112.39-2.62 112.46-2.09 112.61-1.66C112.75-1.22 112.95-0.87 113.20-0.61C113.45-0.34 113.75-0.15 114.10-0.03C114.45 0.09 114.82 0.14 115.22 0.14C115.62 0.14 116.00 0.09 116.34-0.03C116.68-0.15 116.98-0.34 117.23-0.61C117.49-0.87 117.68-1.22 117.83-1.66C117.97-2.09 118.04-2.62 118.04-3.25L118.04-7.87L117.08-7.87L117.08-3.23C117.08-2.76 117.04-2.36 116.94-2.04C116.84-1.72 116.71-1.46 116.54-1.27C116.38-1.08 116.18-0.94 115.96-0.86C115.73-0.77 115.49-0.73 115.22-0.73C114.97-0.73 114.73-0.77 114.50-0.86C114.28-0.94 114.09-1.08 113.92-1.27C113.76-1.46 113.63-1.72 113.53-2.04C113.44-2.36 113.39-2.76 113.39-3.23L113.39-7.87ZM123.31-7.03L123.31 0L124.32 0L124.32-7.03L126.69-7.03L126.69-7.87L120.93-7.87L120.93-7.03ZM136.46 0.14C136.95 0.14 137.41 0.05 137.82-0.14C138.23-0.34 138.59-0.61 138.89-0.97C139.19-1.32 139.42-1.75 139.58-2.26C139.75-2.77 139.83-3.34 139.83-3.97C139.83-4.60 139.75-5.16 139.58-5.66C139.42-6.16 139.19-6.58 138.89-6.93C138.59-7.28 138.23-7.55 137.82-7.73C137.41-7.92 136.95-8.02 136.46-8.02C135.96-8.02 135.51-7.92 135.09-7.74C134.68-7.56 134.33-7.29 134.03-6.94C133.74-6.59 133.51-6.17 133.34-5.67C133.18-5.17 133.10-4.60 133.10-3.97C133.10-3.34 133.18-2.77 133.34-2.26C133.51-1.75 133.74-1.32 134.03-0.97C134.33-0.61 134.68-0.34 135.09-0.14C135.51 0.05 135.96 0.14 136.46 0.14ZM136.46-0.73C136.10-0.73 135.79-0.81 135.50-0.96C135.22-1.11 134.97-1.33 134.77-1.61C134.57-1.90 134.41-2.24 134.30-2.63C134.18-3.03 134.13-3.48 134.13-3.97C134.13-4.46 134.18-4.90 134.30-5.29C134.41-5.68 134.57-6.02 134.77-6.29C134.97-6.56 135.22-6.77 135.50-6.92C135.79-7.07 136.10-7.14 136.46-7.14C136.81-7.14 137.13-7.07 137.41-6.92C137.69-6.77 137.94-6.56 138.14-6.29C138.35-6.02 138.50-5.68 138.62-5.29C138.73-4.90 138.78-4.46 138.78-3.97C138.78-3.48 138.73-3.03 138.62-2.63C138.50-2.24 138.35-1.90 138.14-1.61C137.94-1.33 137.69-1.11 137.41-0.96C137.13-0.81 136.81-0.73 136.46-0.73ZM143.03-7.87L143.03 0L144.03 0L144.03-3.53L147.03-3.53L147.03-4.37L144.03-4.37L144.03-7.03L147.57-7.03L147.57-7.87ZM155.67-3.05L155.67 0L156.68 0L156.68-3.05L159.04-7.87L158.00-7.87L156.99-5.65C156.87-5.36 156.74-5.08 156.61-4.80C156.47-4.52 156.34-4.23 156.20-3.94L156.15-3.94C156.02-4.23 155.89-4.52 155.77-4.80C155.65-5.08 155.52-5.36 155.40-5.65L154.38-7.87L153.31-7.87ZM164.36 0.14C164.85 0.14 165.31 0.05 165.72-0.14C166.13-0.34 166.49-0.61 166.79-0.97C167.09-1.32 167.32-1.75 167.48-2.26C167.65-2.77 167.73-3.34 167.73-3.97C167.73-4.60 167.65-5.16 167.48-5.66C167.32-6.16 167.09-6.58 166.79-6.93C166.49-7.28 166.13-7.55 165.72-7.73C165.31-7.92 164.85-8.02 164.36-8.02C163.86-8.02 163.41-7.92 163.00-7.74C162.58-7.56 162.23-7.29 161.93-6.94C161.64-6.59 161.41-6.17 161.24-5.67C161.08-5.17 161.00-4.60 161.00-3.97C161.00-3.34 161.08-2.77 161.24-2.26C161.41-1.75 161.64-1.32 161.93-0.97C162.23-0.61 162.58-0.34 163.00-0.14C163.41 0.05 163.86 0.14 164.36 0.14ZM164.36-0.73C164.01-0.73 163.69-0.81 163.40-0.96C163.12-1.11 162.88-1.33 162.67-1.61C162.47-1.90 162.31-2.24 162.20-2.63C162.09-3.03 162.03-3.48 162.03-3.97C162.03-4.46 162.09-4.90 162.20-5.29C162.31-5.68 162.47-6.02 162.67-6.29C162.88-6.56 163.12-6.77 163.40-6.92C163.69-7.07 164.01-7.14 164.36-7.14C164.71-7.14 165.03-7.07 165.31-6.92C165.60-6.77 165.84-6.56 166.04-6.29C166.25-6.02 166.41-5.68 166.52-5.29C166.63-4.90 166.69-4.46 166.69-3.97C166.69-3.48 166.63-3.03 166.52-2.63C166.41-2.24 166.25-1.90 166.04-1.61C165.84-1.33 165.60-1.11 165.31-0.96C165.03-0.81 164.71-0.73 164.36-0.73ZM170.90-7.87L170.90-3.25C170.90-2.62 170.97-2.09 171.11-1.66C171.26-1.22 171.45-0.87 171.71-0.61C171.96-0.34 172.26-0.15 172.61-0.03C172.95 0.09 173.33 0.14 173.73 0.14C174.13 0.14 174.50 0.09 174.84-0.03C175.19-0.15 175.49-0.34 175.74-0.61C175.99-0.87 176.19-1.22 176.33-1.66C176.48-2.09 176.55-2.62 176.55-3.25L176.55-7.87L175.59-7.87L175.59-3.23C175.59-2.76 175.54-2.36 175.44-2.04C175.35-1.72 175.22-1.46 175.05-1.27C174.88-1.08 174.68-0.94 174.46-0.86C174.24-0.77 173.99-0.73 173.73-0.73C173.47-0.73 173.23-0.77 173.01-0.86C172.78-0.94 172.59-1.08 172.43-1.27C172.26-1.46 172.13-1.72 172.04-2.04C171.94-2.36 171.89-2.76 171.89-3.23L171.89-7.87ZM181.18-4.14L181.18-7.07L182.50-7.07C183.11-7.07 183.59-6.96 183.91-6.76C184.24-6.55 184.41-6.18 184.41-5.66C184.41-5.15 184.24-4.77 183.91-4.52C183.59-4.27 183.11-4.14 182.50-4.14ZM184.50 0L185.63 0L183.64-3.43C184.17-3.57 184.60-3.82 184.92-4.19C185.24-4.56 185.40-5.05 185.40-5.66C185.40-6.07 185.33-6.42 185.20-6.70C185.06-6.98 184.87-7.20 184.63-7.38C184.38-7.56 184.09-7.68 183.75-7.76C183.41-7.83 183.04-7.87 182.64-7.87L180.18-7.87L180.18 0L181.18 0L181.18-3.32L182.61-3.32ZM192.60-7.87L192.60 0L195.10 0C195.54 0 195.95-0.05 196.32-0.14C196.68-0.24 197.00-0.38 197.26-0.58C197.53-0.77 197.73-1.01 197.88-1.30C198.02-1.58 198.09-1.92 198.09-2.30C198.09-2.85 197.93-3.28 197.61-3.59C197.29-3.90 196.84-4.10 196.27-4.19L196.27-4.24C196.73-4.36 197.08-4.57 197.30-4.89C197.52-5.21 197.64-5.56 197.64-5.95C197.64-6.30 197.57-6.59 197.44-6.83C197.31-7.08 197.12-7.28 196.89-7.43C196.65-7.58 196.37-7.69 196.03-7.76C195.70-7.84 195.34-7.87 194.94-7.87ZM194.76-4.51L193.59-4.51L193.59-7.08L194.80-7.08C195.42-7.08 195.88-6.99 196.19-6.80C196.50-6.61 196.65-6.30 196.65-5.87C196.65-5.43 196.51-5.09 196.21-4.86C195.92-4.63 195.44-4.51 194.76-4.51ZM194.96-0.79L193.59-0.79L193.59-3.77L194.96-3.77C195.66-3.77 196.19-3.65 196.56-3.43C196.92-3.20 197.11-2.84 197.11-2.35C197.11-1.82 196.92-1.42 196.54-1.17C196.17-0.92 195.64-0.79 194.96-0.79ZM201.16-7.87L201.16 0L205.60 0L205.60-0.85L202.16-0.85L202.16-7.87ZM211.10 0.14C211.59 0.14 212.05 0.05 212.46-0.14C212.87-0.34 213.23-0.61 213.53-0.97C213.83-1.32 214.06-1.75 214.22-2.26C214.39-2.77 214.47-3.34 214.47-3.97C214.47-4.60 214.39-5.16 214.22-5.66C214.06-6.16 213.83-6.58 213.53-6.93C213.23-7.28 212.87-7.55 212.46-7.73C212.05-7.92 211.59-8.02 211.10-8.02C210.60-8.02 210.15-7.92 209.73-7.74C209.32-7.56 208.97-7.29 208.67-6.94C208.38-6.59 208.15-6.17 207.98-5.67C207.82-5.17 207.74-4.60 207.74-3.97C207.74-3.34 207.82-2.77 207.98-2.26C208.15-1.75 208.38-1.32 208.67-0.97C208.97-0.61 209.32-0.34 209.73-0.14C210.15 0.05 210.60 0.14 211.10 0.14ZM211.10-0.73C210.74-0.73 210.43-0.81 210.14-0.96C209.86-1.11 209.61-1.33 209.41-1.61C209.21-1.90 209.05-2.24 208.94-2.63C208.82-3.03 208.77-3.48 208.77-3.97C208.77-4.46 208.82-4.90 208.94-5.29C209.05-5.68 209.21-6.02 209.41-6.29C209.61-6.56 209.86-6.77 210.14-6.92C210.43-7.07 210.74-7.14 211.10-7.14C211.45-7.14 211.77-7.07 212.05-6.92C212.33-6.77 212.58-6.56 212.78-6.29C212.99-6.02 213.14-5.68 213.26-5.29C213.37-4.90 213.42-4.46 213.42-3.97C213.42-3.48 213.37-3.03 213.26-2.63C213.14-2.24 212.99-1.90 212.78-1.61C212.58-1.33 212.33-1.11 212.05-0.96C211.77-0.81 211.45-0.73 211.10-0.73ZM217.21-3.94C217.21-3.30 217.30-2.72 217.48-2.21C217.65-1.71 217.90-1.28 218.21-0.93C218.52-0.58 218.89-0.32 219.32-0.13C219.76 0.05 220.23 0.14 220.75 0.14C221.28 0.14 221.75 0.06 222.17-0.11C222.59-0.29 222.93-0.50 223.19-0.77L223.19-4.08L220.61-4.08L220.61-3.25L222.28-3.25L222.28-1.20C222.12-1.06 221.91-0.94 221.66-0.86C221.41-0.77 221.14-0.73 220.86-0.73C220.44-0.73 220.06-0.81 219.74-0.96C219.41-1.11 219.14-1.33 218.92-1.61C218.70-1.89 218.53-2.23 218.42-2.62C218.30-3.02 218.24-3.46 218.24-3.96C218.24-4.45 218.31-4.89 218.43-5.28C218.55-5.67 218.73-6.01 218.95-6.28C219.18-6.56 219.45-6.77 219.77-6.92C220.09-7.07 220.45-7.14 220.85-7.14C221.25-7.14 221.58-7.07 221.84-6.93C222.10-6.79 222.33-6.62 222.53-6.41L223.09-7.04C222.86-7.28 222.56-7.51 222.20-7.71C221.83-7.91 221.38-8.02 220.84-8.02C220.31-8.02 219.82-7.92 219.38-7.73C218.94-7.55 218.56-7.28 218.24-6.92C217.91-6.57 217.66-6.14 217.48-5.64C217.30-5.14 217.21-4.57 217.21-3.94ZM226.28-0.60C226.28-0.38 226.35-0.21 226.49-0.07C226.63 0.07 226.80 0.14 227.00 0.14C227.19 0.14 227.36 0.07 227.50-0.07C227.64-0.21 227.71-0.38 227.71-0.60C227.71-0.83 227.64-1.02 227.50-1.16C227.36-1.30 227.19-1.37 227.00-1.37C226.80-1.37 226.63-1.30 226.49-1.16C226.35-1.02 226.28-0.83 226.28-0.60Z" transform="translate(0, 8.016)"></path></g></g></g></g></g></g></g><mask id="3e6c6f57-63db-4e20-805b-9cc6354fd298"><g fill="white"><rect data-gra="graph-name-bg" stroke-width="2" class="i-icon-bg" x="0" y="0" width="237.7100067138672" height="12.160000801086426" fill-opacity="1"></rect>   </g> <g transform="translate(5,2)" fill="black"><g transform="scale(1, 1)"><g transform="scale(1)"><path d="M0-7.87L2.52 0L3.68 0L6.18-7.87L5.16-7.87L3.90-3.62C3.76-3.15 3.64-2.72 3.53-2.32C3.42-1.92 3.29-1.48 3.14-1.02L3.10-1.02C2.94-1.48 2.81-1.92 2.71-2.32C2.60-2.72 2.47-3.15 2.33-3.62L1.07-7.87ZM8.77-7.87L8.77 0L13.21 0L13.21-0.85L9.77-0.85L9.77-7.87ZM18.70 0.14C19.20 0.14 19.65 0.05 20.07-0.14C20.48-0.34 20.83-0.61 21.13-0.97C21.43-1.32 21.67-1.75 21.83-2.26C21.99-2.77 22.08-3.34 22.08-3.97C22.08-4.60 21.99-5.16 21.83-5.66C21.67-6.16 21.43-6.58 21.13-6.93C20.83-7.28 20.48-7.55 20.07-7.73C19.65-7.92 19.20-8.02 18.70-8.02C18.21-8.02 17.75-7.92 17.34-7.74C16.93-7.56 16.58-7.29 16.28-6.94C15.98-6.59 15.75-6.17 15.59-5.67C15.43-5.17 15.34-4.60 15.34-3.97C15.34-3.34 15.43-2.77 15.59-2.26C15.75-1.75 15.98-1.32 16.28-0.97C16.58-0.61 16.93-0.34 17.34-0.14C17.75 0.05 18.21 0.14 18.70 0.14ZM18.70-0.73C18.35-0.73 18.03-0.81 17.75-0.96C17.47-1.11 17.22-1.33 17.02-1.61C16.81-1.90 16.66-2.24 16.54-2.63C16.43-3.03 16.38-3.48 16.38-3.97C16.38-4.46 16.43-4.90 16.54-5.29C16.66-5.68 16.81-6.02 17.02-6.29C17.22-6.56 17.47-6.77 17.75-6.92C18.03-7.07 18.35-7.14 18.70-7.14C19.06-7.14 19.37-7.07 19.66-6.92C19.94-6.77 20.19-6.56 20.39-6.29C20.59-6.02 20.75-5.68 20.86-5.29C20.98-4.90 21.03-4.46 21.03-3.97C21.03-3.48 20.98-3.03 20.86-2.63C20.75-2.24 20.59-1.90 20.39-1.61C20.19-1.33 19.94-1.11 19.66-0.96C19.37-0.81 19.06-0.73 18.70-0.73ZM24.82-3.94C24.82-3.30 24.91-2.72 25.08-2.21C25.26-1.71 25.50-1.28 25.82-0.93C26.13-0.58 26.50-0.32 26.93-0.13C27.36 0.05 27.84 0.14 28.36 0.14C28.89 0.14 29.36 0.06 29.78-0.11C30.20-0.29 30.54-0.50 30.80-0.77L30.80-4.08L28.22-4.08L28.22-3.25L29.88-3.25L29.88-1.20C29.72-1.06 29.52-0.94 29.27-0.86C29.01-0.77 28.75-0.73 28.47-0.73C28.04-0.73 27.67-0.81 27.35-0.96C27.02-1.11 26.75-1.33 26.53-1.61C26.31-1.89 26.14-2.23 26.03-2.62C25.91-3.02 25.85-3.46 25.85-3.96C25.85-4.45 25.91-4.89 26.04-5.28C26.16-5.67 26.34-6.01 26.56-6.28C26.78-6.56 27.06-6.77 27.38-6.92C27.70-7.07 28.06-7.14 28.46-7.14C28.86-7.14 29.19-7.07 29.45-6.93C29.71-6.79 29.94-6.62 30.14-6.41L30.70-7.04C30.47-7.28 30.17-7.51 29.81-7.71C29.44-7.91 28.99-8.02 28.44-8.02C27.92-8.02 27.43-7.92 26.99-7.73C26.55-7.55 26.17-7.28 25.85-6.92C25.52-6.57 25.27-6.14 25.09-5.64C24.91-5.14 24.82-4.57 24.82-3.94ZM39.76-7.03L39.76 0L40.76 0L40.76-7.03L43.14-7.03L43.14-7.87L37.38-7.87L37.38-7.03ZM46.07-7.87L46.07 0L47.06 0L47.06-3.71L50.72-3.71L50.72 0L51.73 0L51.73-7.87L50.72-7.87L50.72-4.57L47.06-4.57L47.06-7.87ZM55.40-7.87L55.40 0L60.05 0L60.05-0.85L56.39-0.85L56.39-3.71L59.38-3.71L59.38-4.56L56.39-4.56L56.39-7.03L59.93-7.03L59.93-7.87ZM67.17-7.87L67.17 0L68.16 0L68.16-3.71L71.82-3.71L71.82 0L72.83 0L72.83-7.87L71.82-7.87L71.82-4.57L68.16-4.57L68.16-7.87ZM76.50-7.87L76.50 0L81.16 0L81.16-0.85L77.50-0.85L77.50-3.71L80.48-3.71L80.48-4.56L77.50-4.56L77.50-7.03L81.04-7.03L81.04-7.87ZM84.33-7.87L84.33 0L88.77 0L88.77-0.85L85.33-0.85L85.33-7.87ZM91.67-7.87L91.67 0L96.11 0L96.11-0.85L92.67-0.85L92.67-7.87ZM105.85 0.14C106.35 0.14 106.80 0.05 107.22-0.14C107.63-0.34 107.98-0.61 108.28-0.97C108.58-1.32 108.82-1.75 108.98-2.26C109.14-2.77 109.23-3.34 109.23-3.97C109.23-4.60 109.14-5.16 108.98-5.66C108.82-6.16 108.58-6.58 108.28-6.93C107.98-7.28 107.63-7.55 107.22-7.73C106.80-7.92 106.35-8.02 105.85-8.02C105.36-8.02 104.90-7.92 104.49-7.74C104.08-7.56 103.73-7.29 103.43-6.94C103.13-6.59 102.90-6.17 102.74-5.67C102.58-5.17 102.49-4.60 102.49-3.97C102.49-3.34 102.58-2.77 102.74-2.26C102.90-1.75 103.13-1.32 103.43-0.97C103.73-0.61 104.08-0.34 104.49-0.14C104.90 0.05 105.36 0.14 105.85 0.14ZM105.85-0.73C105.50-0.73 105.18-0.81 104.90-0.96C104.62-1.11 104.37-1.33 104.17-1.61C103.96-1.90 103.81-2.24 103.69-2.63C103.58-3.03 103.53-3.48 103.53-3.97C103.53-4.46 103.58-4.90 103.69-5.29C103.81-5.68 103.96-6.02 104.17-6.29C104.37-6.56 104.62-6.77 104.90-6.92C105.18-7.07 105.50-7.14 105.85-7.14C106.21-7.14 106.52-7.07 106.81-6.92C107.09-6.77 107.34-6.56 107.54-6.29C107.74-6.02 107.90-5.68 108.01-5.29C108.13-4.90 108.18-4.46 108.18-3.97C108.18-3.48 108.13-3.03 108.01-2.63C107.90-2.24 107.74-1.90 107.54-1.61C107.34-1.33 107.09-1.11 106.81-0.96C106.52-0.81 106.21-0.73 105.85-0.73ZM112.39-7.87L112.39-3.25C112.39-2.62 112.46-2.09 112.61-1.66C112.75-1.22 112.95-0.87 113.20-0.61C113.45-0.34 113.75-0.15 114.10-0.03C114.45 0.09 114.82 0.14 115.22 0.14C115.62 0.14 116.00 0.09 116.34-0.03C116.68-0.15 116.98-0.34 117.23-0.61C117.49-0.87 117.68-1.22 117.83-1.66C117.97-2.09 118.04-2.62 118.04-3.25L118.04-7.87L117.08-7.87L117.08-3.23C117.08-2.76 117.04-2.36 116.94-2.04C116.84-1.72 116.71-1.46 116.54-1.27C116.38-1.08 116.18-0.94 115.96-0.86C115.73-0.77 115.49-0.73 115.22-0.73C114.97-0.73 114.73-0.77 114.50-0.86C114.28-0.94 114.09-1.08 113.92-1.27C113.76-1.46 113.63-1.72 113.53-2.04C113.44-2.36 113.39-2.76 113.39-3.23L113.39-7.87ZM123.31-7.03L123.31 0L124.32 0L124.32-7.03L126.69-7.03L126.69-7.87L120.93-7.87L120.93-7.03ZM136.46 0.14C136.95 0.14 137.41 0.05 137.82-0.14C138.23-0.34 138.59-0.61 138.89-0.97C139.19-1.32 139.42-1.75 139.58-2.26C139.75-2.77 139.83-3.34 139.83-3.97C139.83-4.60 139.75-5.16 139.58-5.66C139.42-6.16 139.19-6.58 138.89-6.93C138.59-7.28 138.23-7.55 137.82-7.73C137.41-7.92 136.95-8.02 136.46-8.02C135.96-8.02 135.51-7.92 135.09-7.74C134.68-7.56 134.33-7.29 134.03-6.94C133.74-6.59 133.51-6.17 133.34-5.67C133.18-5.17 133.10-4.60 133.10-3.97C133.10-3.34 133.18-2.77 133.34-2.26C133.51-1.75 133.74-1.32 134.03-0.97C134.33-0.61 134.68-0.34 135.09-0.14C135.51 0.05 135.96 0.14 136.46 0.14ZM136.46-0.73C136.10-0.73 135.79-0.81 135.50-0.96C135.22-1.11 134.97-1.33 134.77-1.61C134.57-1.90 134.41-2.24 134.30-2.63C134.18-3.03 134.13-3.48 134.13-3.97C134.13-4.46 134.18-4.90 134.30-5.29C134.41-5.68 134.57-6.02 134.77-6.29C134.97-6.56 135.22-6.77 135.50-6.92C135.79-7.07 136.10-7.14 136.46-7.14C136.81-7.14 137.13-7.07 137.41-6.92C137.69-6.77 137.94-6.56 138.14-6.29C138.35-6.02 138.50-5.68 138.62-5.29C138.73-4.90 138.78-4.46 138.78-3.97C138.78-3.48 138.73-3.03 138.62-2.63C138.50-2.24 138.35-1.90 138.14-1.61C137.94-1.33 137.69-1.11 137.41-0.96C137.13-0.81 136.81-0.73 136.46-0.73ZM143.03-7.87L143.03 0L144.03 0L144.03-3.53L147.03-3.53L147.03-4.37L144.03-4.37L144.03-7.03L147.57-7.03L147.57-7.87ZM155.67-3.05L155.67 0L156.68 0L156.68-3.05L159.04-7.87L158.00-7.87L156.99-5.65C156.87-5.36 156.74-5.08 156.61-4.80C156.47-4.52 156.34-4.23 156.20-3.94L156.15-3.94C156.02-4.23 155.89-4.52 155.77-4.80C155.65-5.08 155.52-5.36 155.40-5.65L154.38-7.87L153.31-7.87ZM164.36 0.14C164.85 0.14 165.31 0.05 165.72-0.14C166.13-0.34 166.49-0.61 166.79-0.97C167.09-1.32 167.32-1.75 167.48-2.26C167.65-2.77 167.73-3.34 167.73-3.97C167.73-4.60 167.65-5.16 167.48-5.66C167.32-6.16 167.09-6.58 166.79-6.93C166.49-7.28 166.13-7.55 165.72-7.73C165.31-7.92 164.85-8.02 164.36-8.02C163.86-8.02 163.41-7.92 163.00-7.74C162.58-7.56 162.23-7.29 161.93-6.94C161.64-6.59 161.41-6.17 161.24-5.67C161.08-5.17 161.00-4.60 161.00-3.97C161.00-3.34 161.08-2.77 161.24-2.26C161.41-1.75 161.64-1.32 161.93-0.97C162.23-0.61 162.58-0.34 163.00-0.14C163.41 0.05 163.86 0.14 164.36 0.14ZM164.36-0.73C164.01-0.73 163.69-0.81 163.40-0.96C163.12-1.11 162.88-1.33 162.67-1.61C162.47-1.90 162.31-2.24 162.20-2.63C162.09-3.03 162.03-3.48 162.03-3.97C162.03-4.46 162.09-4.90 162.20-5.29C162.31-5.68 162.47-6.02 162.67-6.29C162.88-6.56 163.12-6.77 163.40-6.92C163.69-7.07 164.01-7.14 164.36-7.14C164.71-7.14 165.03-7.07 165.31-6.92C165.60-6.77 165.84-6.56 166.04-6.29C166.25-6.02 166.41-5.68 166.52-5.29C166.63-4.90 166.69-4.46 166.69-3.97C166.69-3.48 166.63-3.03 166.52-2.63C166.41-2.24 166.25-1.90 166.04-1.61C165.84-1.33 165.60-1.11 165.31-0.96C165.03-0.81 164.71-0.73 164.36-0.73ZM170.90-7.87L170.90-3.25C170.90-2.62 170.97-2.09 171.11-1.66C171.26-1.22 171.45-0.87 171.71-0.61C171.96-0.34 172.26-0.15 172.61-0.03C172.95 0.09 173.33 0.14 173.73 0.14C174.13 0.14 174.50 0.09 174.84-0.03C175.19-0.15 175.49-0.34 175.74-0.61C175.99-0.87 176.19-1.22 176.33-1.66C176.48-2.09 176.55-2.62 176.55-3.25L176.55-7.87L175.59-7.87L175.59-3.23C175.59-2.76 175.54-2.36 175.44-2.04C175.35-1.72 175.22-1.46 175.05-1.27C174.88-1.08 174.68-0.94 174.46-0.86C174.24-0.77 173.99-0.73 173.73-0.73C173.47-0.73 173.23-0.77 173.01-0.86C172.78-0.94 172.59-1.08 172.43-1.27C172.26-1.46 172.13-1.72 172.04-2.04C171.94-2.36 171.89-2.76 171.89-3.23L171.89-7.87ZM181.18-4.14L181.18-7.07L182.50-7.07C183.11-7.07 183.59-6.96 183.91-6.76C184.24-6.55 184.41-6.18 184.41-5.66C184.41-5.15 184.24-4.77 183.91-4.52C183.59-4.27 183.11-4.14 182.50-4.14ZM184.50 0L185.63 0L183.64-3.43C184.17-3.57 184.60-3.82 184.92-4.19C185.24-4.56 185.40-5.05 185.40-5.66C185.40-6.07 185.33-6.42 185.20-6.70C185.06-6.98 184.87-7.20 184.63-7.38C184.38-7.56 184.09-7.68 183.75-7.76C183.41-7.83 183.04-7.87 182.64-7.87L180.18-7.87L180.18 0L181.18 0L181.18-3.32L182.61-3.32ZM192.60-7.87L192.60 0L195.10 0C195.54 0 195.95-0.05 196.32-0.14C196.68-0.24 197.00-0.38 197.26-0.58C197.53-0.77 197.73-1.01 197.88-1.30C198.02-1.58 198.09-1.92 198.09-2.30C198.09-2.85 197.93-3.28 197.61-3.59C197.29-3.90 196.84-4.10 196.27-4.19L196.27-4.24C196.73-4.36 197.08-4.57 197.30-4.89C197.52-5.21 197.64-5.56 197.64-5.95C197.64-6.30 197.57-6.59 197.44-6.83C197.31-7.08 197.12-7.28 196.89-7.43C196.65-7.58 196.37-7.69 196.03-7.76C195.70-7.84 195.34-7.87 194.94-7.87ZM194.76-4.51L193.59-4.51L193.59-7.08L194.80-7.08C195.42-7.08 195.88-6.99 196.19-6.80C196.50-6.61 196.65-6.30 196.65-5.87C196.65-5.43 196.51-5.09 196.21-4.86C195.92-4.63 195.44-4.51 194.76-4.51ZM194.96-0.79L193.59-0.79L193.59-3.77L194.96-3.77C195.66-3.77 196.19-3.65 196.56-3.43C196.92-3.20 197.11-2.84 197.11-2.35C197.11-1.82 196.92-1.42 196.54-1.17C196.17-0.92 195.64-0.79 194.96-0.79ZM201.16-7.87L201.16 0L205.60 0L205.60-0.85L202.16-0.85L202.16-7.87ZM211.10 0.14C211.59 0.14 212.05 0.05 212.46-0.14C212.87-0.34 213.23-0.61 213.53-0.97C213.83-1.32 214.06-1.75 214.22-2.26C214.39-2.77 214.47-3.34 214.47-3.97C214.47-4.60 214.39-5.16 214.22-5.66C214.06-6.16 213.83-6.58 213.53-6.93C213.23-7.28 212.87-7.55 212.46-7.73C212.05-7.92 211.59-8.02 211.10-8.02C210.60-8.02 210.15-7.92 209.73-7.74C209.32-7.56 208.97-7.29 208.67-6.94C208.38-6.59 208.15-6.17 207.98-5.67C207.82-5.17 207.74-4.60 207.74-3.97C207.74-3.34 207.82-2.77 207.98-2.26C208.15-1.75 208.38-1.32 208.67-0.97C208.97-0.61 209.32-0.34 209.73-0.14C210.15 0.05 210.60 0.14 211.10 0.14ZM211.10-0.73C210.74-0.73 210.43-0.81 210.14-0.96C209.86-1.11 209.61-1.33 209.41-1.61C209.21-1.90 209.05-2.24 208.94-2.63C208.82-3.03 208.77-3.48 208.77-3.97C208.77-4.46 208.82-4.90 208.94-5.29C209.05-5.68 209.21-6.02 209.41-6.29C209.61-6.56 209.86-6.77 210.14-6.92C210.43-7.07 210.74-7.14 211.10-7.14C211.45-7.14 211.77-7.07 212.05-6.92C212.33-6.77 212.58-6.56 212.78-6.29C212.99-6.02 213.14-5.68 213.26-5.29C213.37-4.90 213.42-4.46 213.42-3.97C213.42-3.48 213.37-3.03 213.26-2.63C213.14-2.24 212.99-1.90 212.78-1.61C212.58-1.33 212.33-1.11 212.05-0.96C211.77-0.81 211.45-0.73 211.10-0.73ZM217.21-3.94C217.21-3.30 217.30-2.72 217.48-2.21C217.65-1.71 217.90-1.28 218.21-0.93C218.52-0.58 218.89-0.32 219.32-0.13C219.76 0.05 220.23 0.14 220.75 0.14C221.28 0.14 221.75 0.06 222.17-0.11C222.59-0.29 222.93-0.50 223.19-0.77L223.19-4.08L220.61-4.08L220.61-3.25L222.28-3.25L222.28-1.20C222.12-1.06 221.91-0.94 221.66-0.86C221.41-0.77 221.14-0.73 220.86-0.73C220.44-0.73 220.06-0.81 219.74-0.96C219.41-1.11 219.14-1.33 218.92-1.61C218.70-1.89 218.53-2.23 218.42-2.62C218.30-3.02 218.24-3.46 218.24-3.96C218.24-4.45 218.31-4.89 218.43-5.28C218.55-5.67 218.73-6.01 218.95-6.28C219.18-6.56 219.45-6.77 219.77-6.92C220.09-7.07 220.45-7.14 220.85-7.14C221.25-7.14 221.58-7.07 221.84-6.93C222.10-6.79 222.33-6.62 222.53-6.41L223.09-7.04C222.86-7.28 222.56-7.51 222.20-7.71C221.83-7.91 221.38-8.02 220.84-8.02C220.31-8.02 219.82-7.92 219.38-7.73C218.94-7.55 218.56-7.28 218.24-6.92C217.91-6.57 217.66-6.14 217.48-5.64C217.30-5.14 217.21-4.57 217.21-3.94ZM226.28-0.60C226.28-0.38 226.35-0.21 226.49-0.07C226.63 0.07 226.80 0.14 227.00 0.14C227.19 0.14 227.36 0.07 227.50-0.07C227.64-0.21 227.71-0.38 227.71-0.60C227.71-0.83 227.64-1.02 227.50-1.16C227.36-1.30 227.19-1.37 227.00-1.37C226.80-1.37 226.63-1.30 226.49-1.16C226.35-1.02 226.28-0.83 226.28-0.60Z" transform="translate(0, 8.016)"></path></g></g></g></mask><defs v-gra="od"></defs></svg>